<svg height="64" viewBox="20 50 170 170" width="64" xmlns="http://www.w3.org/2000/svg"><g fill="#9e9e9e" fill-rule="evenodd"><path d="m90.5 195c0-8.261719-6.738281-15-15-15s-15 6.738281-15 15 6.738281 15 15 15 15-6.738281 15-15zm0 0"/><path d="m135.5 210c8.261719 0 15-6.738281 15-15s-6.738281-15-15-15-15 6.738281-15 15 6.738281 15 15 15zm0 0"/><path d="m75.5 150c8.261719 0 15-6.738281 15-15s-6.738281-15-15-15-15 6.738281-15 15 6.738281 15 15 15zm0 0"/><path d="m135.5 150c8.261719 0 15-6.738281 15-15s-6.738281-15-15-15-15 6.738281-15 15 6.738281 15 15 15zm0 0"/><path d="m75.5 90c8.261719 0 15-6.738281 15-15s-6.738281-15-15-15-15 6.738281-15 15 6.738281 15 15 15zm0 0"/><path d="m135.5 90c8.261719 0 15-6.738281 15-15s-6.738281-15-15-15-15 6.738281-15 15 6.738281 15 15 15zm0 0"/></g></svg>