<svg enable-background="new 0 0 512 512" height="64" viewBox="0 0 512 512" width="64" xmlns="http://www.w3.org/2000/svg"><path d="m481.901 339.399c-61.802 129.6-156.901 157.601-225.901 157.601-77.701 0-150.901-38.8-195.901-102.1-45.298-63.9-56.1-144.9-30-222.301l4.801-9.899c36.599-87.301 125.4-147.7 221.1-147.7 77.701 0 150.901 38.8 195.901 102.1 45.298 63.9 56.1 144.9 30 222.299z" fill="#1689fc"/><path d="m481.901 339.399c-61.802 129.6-156.901 157.601-225.901 157.601v-482c77.701 0 150.901 38.8 195.901 102.1 45.298 63.9 56.1 144.9 30 222.299z" fill="#1689fc"/><path d="m464.2 108.399c-47.999-67.2-125.7-108.399-208.2-108.399-102.9 0-197.1 64.6-235.8 159.699l-5.101 10.501c-27.545 83.876-16.82 163.323 32.701 233.399 47.999 67.2 125.7 108.401 208.2 108.401 101.7 0 194.7-63.1 234.6-156.101l4.499-9c29.986-85.319 19.482-167.281-30.899-238.5zm-391.8 277.8c-42.599-60-52.5-135.899-27.9-208.799l3.9-8.101c24.3-58.2 72.6-103.299 130.199-124.9-36.299 47.401-58.2 139.6-55.499 169.6-.3.901-.601 1.8-.601 3.001-7.8 100.499 15 197.5 57.9 251.8-42.899-15.601-80.998-44.5-107.999-82.601zm168.6 93.1c-10.499-3.6-21-11.499-30.901-22-41.999-45.299-65.099-140.999-57.599-237.9v-2.699c0-.901.3-2.1.3-3.001 8.699-93.3 45.3-166.899 88.2-181zm30-.3v-446.3c46.199 15.3 84.901 100.3 89.399 201.7 4.2 93.6-19.199 181.5-59.7 224.101-9.6 9.899-19.498 17.199-29.699 20.499zm196.5-144.399c-33.6 70.8-81 114.399-135.899 133.9 40.199-50.7 62.999-141.1 58.798-235.3-3.6-79.801-26.1-148.599-58.799-190 42.9 15.599 80.999 44.5 107.999 82.599 42.6 60 52.501 135.901 27.901 208.801z" fill="#96ebe6"/><path d="m464.2 108.399c-47.999-67.2-125.7-108.399-208.2-108.399v512c101.7 0 194.7-63.1 234.6-156.101l4.499-9c29.986-85.319 19.482-167.281-30.899-238.5zm-193.2 370.6v-446.3c46.199 15.3 84.901 100.3 89.399 201.7 4.2 93.6-19.199 181.5-59.7 224.101-9.6 9.899-19.498 17.199-29.699 20.499zm196.5-144.399c-33.6 70.8-81 114.399-135.899 133.9 40.199-50.7 62.999-141.1 58.798-235.3-3.6-79.801-26.1-148.599-58.799-190 42.9 15.599 80.999 44.5 107.999 82.599 42.6 60 52.501 135.901 27.901 208.801z" fill="#96ebe6"/><path d="m466 151h-420c-24.901 0-46 20.099-46 45v120c0 24.899 21.099 45 46 45h420c24.901 0 46-20.101 46-45v-120c0-24.901-21.099-45-46-45z" fill="#05377f"/><path d="m512 196v120c0 24.899-21.099 45-46 45h-210v-210h210c24.901 0 46 20.099 46 45z" fill="#05377f"/><g fill="#fff"><path d="m329.5 232.599-30 60c-2.7 5.101-7.8 8.401-13.5 8.401s-10.8-3.3-13.5-8.401l-16.5-32.999-16.5 32.999c-5.099 10.201-21.901 10.201-27.001 0l-30-60c-3.6-7.2-.599-16.199 6.901-20.099 7.2-3.6 16.199-.601 20.099 6.899l16.501 33.001 16.5-33.001c2.701-5.099 8.101-7.8 13.5-7.8s10.8 2.701 13.5 7.8l16.5 33.001 16.5-33.001c3.9-7.5 12.9-10.499 20.099-6.899 7.5 3.9 10.501 12.899 6.901 20.099z"/><path d="m436 301c-5.684 0-10.869-3.208-13.418-8.291l-16.582-33.164-16.582 33.164c-5.098 10.166-21.738 10.166-26.836 0l-28.74-57.495c-1.86-2.285-3.062-5.112-3.267-8.218-.527-8.262 5.288-15.366 13.549-15.908 6.27-.146 12.598 2.813 15.293 8.203l16.583 33.164 16.582-33.164c5.098-10.166 21.738-10.166 26.836 0l16.582 33.164 16.582-33.164c3.721-7.427 12.729-10.371 20.127-6.709 7.412 3.706 10.415 12.715 6.709 20.127l-30 60c-2.549 5.083-7.734 8.291-13.418 8.291z"/><path d="m166.967 211.029c-5.903-.059-11.689 2.871-14.385 8.262l-16.582 33.164-16.582-33.164c-5.403-10.769-21.492-10.688-26.836 0l-16.582 33.164-16.582-33.164c-3.721-7.427-12.744-10.371-20.127-6.709-7.412 3.706-10.415 12.715-6.709 20.127l30 60c2.549 5.083 7.734 8.291 13.418 8.291s10.869-3.208 13.418-8.291l16.582-33.164 16.582 33.164c2.549 5.083 7.734 8.291 13.418 8.291s10.869-3.208 13.418-8.291l28.257-56.514c2.139-2.432 3.516-5.64 3.75-9.199.527-8.262-6.196-15.425-14.458-15.967z"/><path d="m329.5 232.599-30 60c-2.7 5.101-7.8 8.401-13.5 8.401s-10.8-3.3-13.5-8.401l-16.5-32.999v-48.001c5.4 0 10.8 2.701 13.5 7.8l16.5 33.001 16.5-33.001c3.9-7.5 12.9-10.499 20.099-6.899 7.5 3.9 10.501 12.899 6.901 20.099z"/></g></svg>