<svg xmlns="http://www.w3.org/2000/svg" viewBox="0 0 64 64" width="64" height="64">
  <circle cx="32" cy="32" r="22" fill="#fff"/>
  <path d="M32 59C17 59 5 47 5 32S17 5 32 5s27 12 27 27-12 27-27 27zm-6.2-6.3c-2.7-5.6-4.3-11.7-4.6-18H10.6c1 8.5 7.1 15.5 15.2 18zm.9-18c.4 6.5 2.3 12.8 5.3 18.2 3.1-5.6 4.8-11.8 5.3-18.2H26.7zm26.7 0H42.7c-.3 6.2-1.9 12.4-4.6 18 8.2-2.5 14.3-9.5 15.3-18zm-42.8-5.4h10.7c.3-6.2 1.9-12.4 4.6-18-8.2 2.5-14.3 9.5-15.3 18zm16.1 0h10.6c-.4-6.4-2.1-12.7-5.3-18.2-3.1 5.5-4.8 11.8-5.3 18.2zm11.5-18c2.7 5.6 4.3 11.7 4.6 18h10.7c-1.1-8.5-7.2-15.5-15.3-18z" fill="#1d83d4"/>
</svg>