<svg xmlns="http://www.w3.org/2000/svg" viewBox="0 0 64 64" width="64" height="64">
  <path d="M53.99865 45.46553c0-.93331-.39999-1.86662-1.06664-2.53327L41.99895 31.9992l10.93306-10.93306c.66665-.66665 1.06664-1.59996 1.06664-2.53327 0-.93331-.39999-1.86662-1.06664-2.53327l-5.06654-5.06654c-.66665-.66665-1.59996-1.06664-2.53327-1.06664-.93331 0-1.86662.39999-2.53327 1.06664L31.9992 21.99945 21.06614 11.06639c-.66665-.66665-1.59996-1.06664-2.53327-1.06664-.93331 0-1.86662.39999-2.53327 1.06664l-5.06654 5.06654c-.66665.66665-1.06664 1.59996-1.06664 2.53327 0 .93331.39999 1.86662 1.06664 2.53327l10.93306 10.93306-10.93306 10.93306c-.66665.66665-1.06664 1.59996-1.06664 2.53327 0 .93331.39999 1.86662 1.06664 2.53327l5.06654 5.06654c.66665.66665 1.59996 1.06664 2.53327 1.06664.93331 0 1.86662-.39999 2.53327-1.06664L31.9992 42.26561l10.93306 10.93306c.66665.66665 1.59996 1.06664 2.53327 1.06664.93331 0 1.86662-.39999 2.53327-1.06664l5.06654-5.06654c.53332-.93331.93331-1.73329.93331-2.6666z" fill="#f43737"/>
</svg>