<svg height="48" viewBox="0 0 48 48" width="48" xmlns="http://www.w3.org/2000/svg" xmlns:xlink="http://www.w3.org/1999/xlink"><radialGradient id="a" cx="605.71429" cy="486.64789" gradientTransform="matrix(-2.774389 0 0 1.969706 112.7623 -872.8854)" gradientUnits="userSpaceOnUse" r="117.14286" xlink:href="#b"/><linearGradient id="b"><stop offset="0"/><stop offset="1" stop-opacity="0"/></linearGradient><radialGradient id="c" cx="605.71429" cy="486.64789" gradientTransform="matrix(2.774389 0 0 1.969706 -1891.633 -872.8854)" gradientUnits="userSpaceOnUse" r="117.14286" xlink:href="#b"/><linearGradient id="d" gradientTransform="matrix(2.774389 0 0 1.969706 -1892.179 -872.8854)" gradientUnits="userSpaceOnUse" x1="302.85715" x2="302.85715" y1="366.64789" y2="609.50507"><stop offset="0" stop-opacity="0"/><stop offset=".5"/><stop offset="1" stop-opacity="0"/></linearGradient><radialGradient id="e" cx="8.824419" cy="3.756129" gradientTransform="matrix(.968273 0 0 1.032767 3.353553 .646447)" gradientUnits="userSpaceOnUse" r="37.751713"><stop offset="0" stop-color="#a3a3a3"/><stop offset="1" stop-color="#4c4c4c"/></radialGradient><radialGradient id="f" cx="33.966679" cy="35.736916" gradientTransform="scale(.960493 1.041132)" gradientUnits="userSpaceOnUse" r="86.70845"><stop offset="0" stop-color="#fafafa"/><stop offset="1" stop-color="#bbb"/></radialGradient><radialGradient id="g" cx="8.143557" cy="7.267897" gradientTransform="matrix(.968273 0 0 1.032767 3.353553 .646447)" gradientUnits="userSpaceOnUse" r="38.158695"><stop offset="0" stop-color="#fff"/><stop offset="1" stop-color="#f8f8f8"/></radialGradient><linearGradient id="h" gradientTransform="scale(.668545 1.495785)" gradientUnits="userSpaceOnUse" x1="57.643562" x2="34.242393" y1="8.601254" y2="21.033955"><stop offset="0" stop-color="#fff"/><stop offset="1" stop-color="#fff" stop-opacity="0"/></linearGradient><linearGradient id="i" gradientTransform="matrix(-.668545 0 0 1.495785 47.90649 0)" gradientUnits="userSpaceOnUse" x1="57.643562" x2="39.081673" y1="8.601254" y2="20.9233"><stop offset="0" stop-opacity=".092784"/><stop offset="1" stop-opacity="0"/></linearGradient><g transform="matrix(.02105461 0 0 .02086758 42.85172 41.1536)"><path d="m-1559.2523-150.69685h1339.6335v478.35718h-1339.6335z" fill="url(#d)" opacity=".402062"/><path d="m-219.61876-150.68038v478.33079c142.874166.90045 345.40022-107.16966 345.40014-239.196175 0-132.026537-159.436816-239.134595-345.40014-239.134615z" fill="url(#c)" opacity=".402062"/><path d="m-1559.2523-150.68038v478.33079c-142.8742.90045-345.4002-107.16966-345.4002-239.196175 0-132.026537 159.4368-239.134595 345.4002-239.134615z" fill="url(#a)" opacity=".402062"/></g><g stroke-linecap="round" stroke-linejoin="round"><rect display="block" fill="url(#f)" height="40.920494" ry="1.149049" stroke="url(#e)" width="34.875" x="6.603553" y="3.646446"/><rect display="block" fill="none" height="38.946384" rx=".149049" stroke="url(#g)" width="32.775887" x="7.666054" y="4.583946"/></g><g><g transform="translate(-1.149045)"><path d="m26.339728 8.5787964a1.1490486 1.1490486 0 1 1 -2.298097 0 1.1490486 1.1490486 0 1 1 2.298097 0z" fill="#fff"/><path d="m26.339728 8.5787964a1.1490486 1.1490486 0 1 1 -2.298097 0 1.1490486 1.1490486 0 1 1 2.298097 0z" fill-opacity=".111111" transform="translate(-.353553 -.265165)"/></g><g transform="translate(-1.149045 4)"><path d="m26.339728 8.5787964a1.1490486 1.1490486 0 1 1 -2.298097 0 1.1490486 1.1490486 0 1 1 2.298097 0z" fill="#fff"/><path d="m26.339728 8.5787964a1.1490486 1.1490486 0 1 1 -2.298097 0 1.1490486 1.1490486 0 1 1 2.298097 0z" fill-opacity=".111111" transform="translate(-.353553 -.265165)"/></g><g transform="translate(-1.149045 8)"><path d="m26.339728 8.5787964a1.1490486 1.1490486 0 1 1 -2.298097 0 1.1490486 1.1490486 0 1 1 2.298097 0z" fill="#fff"/><path d="m26.339728 8.5787964a1.1490486 1.1490486 0 1 1 -2.298097 0 1.1490486 1.1490486 0 1 1 2.298097 0z" fill-opacity=".111111" transform="translate(-.353553 -.265165)"/></g><g transform="translate(-1.149045 12)"><path d="m26.339728 8.5787964a1.1490486 1.1490486 0 1 1 -2.298097 0 1.1490486 1.1490486 0 1 1 2.298097 0z" fill="#fff"/><path d="m26.339728 8.5787964a1.1490486 1.1490486 0 1 1 -2.298097 0 1.1490486 1.1490486 0 1 1 2.298097 0z" fill-opacity=".111111" transform="translate(-.353553 -.265165)"/></g><g transform="translate(-1.149045 16)"><path d="m26.339728 8.5787964a1.1490486 1.1490486 0 1 1 -2.298097 0 1.1490486 1.1490486 0 1 1 2.298097 0z" fill="#fff"/><path d="m26.339728 8.5787964a1.1490486 1.1490486 0 1 1 -2.298097 0 1.1490486 1.1490486 0 1 1 2.298097 0z" fill-opacity=".111111" transform="translate(-.353553 -.265165)"/></g><g transform="translate(-1.149045 20)"><path d="m26.339728 8.5787964a1.1490486 1.1490486 0 1 1 -2.298097 0 1.1490486 1.1490486 0 1 1 2.298097 0z" fill="#fff"/><path d="m26.339728 8.5787964a1.1490486 1.1490486 0 1 1 -2.298097 0 1.1490486 1.1490486 0 1 1 2.298097 0z" fill-opacity=".111111" transform="translate(-.353553 -.265165)"/></g><g transform="translate(-1.149045 24)"><path d="m26.339728 8.5787964a1.1490486 1.1490486 0 1 1 -2.298097 0 1.1490486 1.1490486 0 1 1 2.298097 0z" fill="#fff"/><path d="m26.339728 8.5787964a1.1490486 1.1490486 0 1 1 -2.298097 0 1.1490486 1.1490486 0 1 1 2.298097 0z" fill-opacity=".111111" transform="translate(-.353553 -.265165)"/></g><g transform="translate(-1.149045 28)"><path d="m26.339728 8.5787964a1.1490486 1.1490486 0 1 1 -2.298097 0 1.1490486 1.1490486 0 1 1 2.298097 0z" fill="#fff"/><path d="m26.339728 8.5787964a1.1490486 1.1490486 0 1 1 -2.298097 0 1.1490486 1.1490486 0 1 1 2.298097 0z" fill-opacity=".111111" transform="translate(-.353553 -.265165)"/></g><g transform="translate(-1.149045 32)"><path d="m26.339728 8.5787964a1.1490486 1.1490486 0 1 1 -2.298097 0 1.1490486 1.1490486 0 1 1 2.298097 0z" fill="#fff"/><path d="m26.339728 8.5787964a1.1490486 1.1490486 0 1 1 -2.298097 0 1.1490486 1.1490486 0 1 1 2.298097 0z" fill-opacity=".111111" transform="translate(-.353553 -.265165)"/></g><g transform="translate(-3.502596 6)"><path d="m26.339728 8.5787964a1.1490486 1.1490486 0 1 1 -2.298097 0 1.1490486 1.1490486 0 1 1 2.298097 0z" fill="#fff"/><path d="m26.339728 8.5787964a1.1490486 1.1490486 0 1 1 -2.298097 0 1.1490486 1.1490486 0 1 1 2.298097 0z" fill-opacity=".111111" transform="translate(-.353553 -.265165)"/></g><g transform="translate(1.204508 6)"><path d="m26.339728 8.5787964a1.1490486 1.1490486 0 1 1 -2.298097 0 1.1490486 1.1490486 0 1 1 2.298097 0z" fill="#fff"/><path d="m26.339728 8.5787964a1.1490486 1.1490486 0 1 1 -2.298097 0 1.1490486 1.1490486 0 1 1 2.298097 0z" fill-opacity=".111111" transform="translate(-.353553 -.265165)"/></g><g transform="translate(3.204508 12)"><path d="m26.339728 8.5787964a1.1490486 1.1490486 0 1 1 -2.298097 0 1.1490486 1.1490486 0 1 1 2.298097 0z" fill="#fff"/><path d="m26.339728 8.5787964a1.1490486 1.1490486 0 1 1 -2.298097 0 1.1490486 1.1490486 0 1 1 2.298097 0z" fill-opacity=".111111" transform="translate(-.353553 -.265165)"/></g><g transform="translate(5.204508 18)"><path d="m26.339728 8.5787964a1.1490486 1.1490486 0 1 1 -2.298097 0 1.1490486 1.1490486 0 1 1 2.298097 0z" fill="#fff"/><path d="m26.339728 8.5787964a1.1490486 1.1490486 0 1 1 -2.298097 0 1.1490486 1.1490486 0 1 1 2.298097 0z" fill-opacity=".111111" transform="translate(-.353553 -.265165)"/></g><g transform="translate(7.204508 24)"><path d="m26.339728 8.5787964a1.1490486 1.1490486 0 1 1 -2.298097 0 1.1490486 1.1490486 0 1 1 2.298097 0z" fill="#fff"/><path d="m26.339728 8.5787964a1.1490486 1.1490486 0 1 1 -2.298097 0 1.1490486 1.1490486 0 1 1 2.298097 0z" fill-opacity=".111111" transform="translate(-.353553 -.265165)"/></g><g transform="translate(9.204482 30)"><path d="m26.339728 8.5787964a1.1490486 1.1490486 0 1 1 -2.298097 0 1.1490486 1.1490486 0 1 1 2.298097 0z" fill="#fff"/><path d="m26.339728 8.5787964a1.1490486 1.1490486 0 1 1 -2.298097 0 1.1490486 1.1490486 0 1 1 2.298097 0z" fill-opacity=".111111" transform="translate(-.353553 -.265165)"/></g><g transform="translate(-5.502618 12)"><path d="m26.339728 8.5787964a1.1490486 1.1490486 0 1 1 -2.298097 0 1.1490486 1.1490486 0 1 1 2.298097 0z" fill="#fff"/><path d="m26.339728 8.5787964a1.1490486 1.1490486 0 1 1 -2.298097 0 1.1490486 1.1490486 0 1 1 2.298097 0z" fill-opacity=".111111" transform="translate(-.353553 -.265165)"/></g><g transform="translate(-7.502618 18)"><path d="m26.339728 8.5787964a1.1490486 1.1490486 0 1 1 -2.298097 0 1.1490486 1.1490486 0 1 1 2.298097 0z" fill="#fff"/><path d="m26.339728 8.5787964a1.1490486 1.1490486 0 1 1 -2.298097 0 1.1490486 1.1490486 0 1 1 2.298097 0z" fill-opacity=".111111" transform="translate(-.353553 -.265165)"/></g><g transform="translate(-9.502622 24)"><path d="m26.339728 8.5787964a1.1490486 1.1490486 0 1 1 -2.298097 0 1.1490486 1.1490486 0 1 1 2.298097 0z" fill="#fff"/><path d="m26.339728 8.5787964a1.1490486 1.1490486 0 1 1 -2.298097 0 1.1490486 1.1490486 0 1 1 2.298097 0z" fill-opacity=".111111" transform="translate(-.353553 -.265165)"/></g><g transform="translate(-11.50263 30)"><path d="m26.339728 8.5787964a1.1490486 1.1490486 0 1 1 -2.298097 0 1.1490486 1.1490486 0 1 1 2.298097 0z" fill="#fff"/><path d="m26.339728 8.5787964a1.1490486 1.1490486 0 1 1 -2.298097 0 1.1490486 1.1490486 0 1 1 2.298097 0z" fill-opacity=".111111" transform="translate(-.353553 -.265165)"/></g><g fill-rule="evenodd"><path d="m22.892582 4.8664863 13.081476 38.7140967 4.419417-.088389-.088388-39.0676495z" fill="url(#h)"/><path d="m23.864853 5.043263-13.258252 38.00699-2.5632614-.000001-.0000004-38.0069891z" fill="url(#i)"/></g></g><g transform="matrix(.06 0 0 .06 9 10)"><path d="m481.901 339.399c-61.802 129.6-156.901 157.601-225.901 157.601-77.701 0-150.901-38.8-195.901-102.1-45.298-63.9-56.1-144.9-30-222.301l4.801-9.899c36.599-87.301 125.4-147.7 221.1-147.7 77.701 0 150.901 38.8 195.901 102.1 45.298 63.9 56.1 144.9 30 222.299z" fill="#1689fc"/><path d="m481.901 339.399c-61.802 129.6-156.901 157.601-225.901 157.601v-482c77.701 0 150.901 38.8 195.901 102.1 45.298 63.9 56.1 144.9 30 222.299z" fill="#1689fc"/><path d="m464.2 108.399c-47.999-67.2-125.7-108.399-208.2-108.399-102.9 0-197.1 64.6-235.8 159.699l-5.101 10.501c-27.545 83.876-16.82 163.323 32.701 233.399 47.999 67.2 125.7 108.401 208.2 108.401 101.7 0 194.7-63.1 234.6-156.101l4.499-9c29.986-85.319 19.482-167.281-30.899-238.5zm-391.8 277.8c-42.599-60-52.5-135.899-27.9-208.799l3.9-8.101c24.3-58.2 72.6-103.299 130.199-124.9-36.299 47.401-58.2 139.6-55.499 169.6-.3.901-.601 1.8-.601 3.001-7.8 100.499 15 197.5 57.9 251.8-42.899-15.601-80.998-44.5-107.999-82.601zm168.6 93.1c-10.499-3.6-21-11.499-30.901-22-41.999-45.299-65.099-140.999-57.599-237.9v-2.699c0-.901.3-2.1.3-3.001 8.699-93.3 45.3-166.899 88.2-181zm30-.3v-446.3c46.199 15.3 84.901 100.3 89.399 201.7 4.2 93.6-19.199 181.5-59.7 224.101-9.6 9.899-19.498 17.199-29.699 20.499zm196.5-144.399c-33.6 70.8-81 114.399-135.899 133.9 40.199-50.7 62.999-141.1 58.798-235.3-3.6-79.801-26.1-148.599-58.799-190 42.9 15.599 80.999 44.5 107.999 82.599 42.6 60 52.501 135.901 27.901 208.801z" fill="#96ebe6"/><path d="m464.2 108.399c-47.999-67.2-125.7-108.399-208.2-108.399v512c101.7 0 194.7-63.1 234.6-156.101l4.499-9c29.986-85.319 19.482-167.281-30.899-238.5zm-193.2 370.6v-446.3c46.199 15.3 84.901 100.3 89.399 201.7 4.2 93.6-19.199 181.5-59.7 224.101-9.6 9.899-19.498 17.199-29.699 20.499zm196.5-144.399c-33.6 70.8-81 114.399-135.899 133.9 40.199-50.7 62.999-141.1 58.798-235.3-3.6-79.801-26.1-148.599-58.799-190 42.9 15.599 80.999 44.5 107.999 82.599 42.6 60 52.501 135.901 27.901 208.801z" fill="#96ebe6"/><path d="m466 151h-420c-24.901 0-46 20.099-46 45v120c0 24.899 21.099 45 46 45h420c24.901 0 46-20.101 46-45v-120c0-24.901-21.099-45-46-45z" fill="#05377f"/><path d="m512 196v120c0 24.899-21.099 45-46 45h-210v-210h210c24.901 0 46 20.099 46 45z" fill="#05377f"/><g fill="#fff"><path d="m329.5 232.599-30 60c-2.7 5.101-7.8 8.401-13.5 8.401s-10.8-3.3-13.5-8.401l-16.5-32.999-16.5 32.999c-5.099 10.201-21.901 10.201-27.001 0l-30-60c-3.6-7.2-.599-16.199 6.901-20.099 7.2-3.6 16.199-.601 20.099 6.899l16.501 33.001 16.5-33.001c2.701-5.099 8.101-7.8 13.5-7.8s10.8 2.701 13.5 7.8l16.5 33.001 16.5-33.001c3.9-7.5 12.9-10.499 20.099-6.899 7.5 3.9 10.501 12.899 6.901 20.099z"/><path d="m436 301c-5.684 0-10.869-3.208-13.418-8.291l-16.582-33.164-16.582 33.164c-5.098 10.166-21.738 10.166-26.836 0l-28.74-57.495c-1.86-2.285-3.062-5.112-3.267-8.218-.527-8.262 5.288-15.366 13.549-15.908 6.27-.146 12.598 2.813 15.293 8.203l16.583 33.164 16.582-33.164c5.098-10.166 21.738-10.166 26.836 0l16.582 33.164 16.582-33.164c3.721-7.427 12.729-10.371 20.127-6.709 7.412 3.706 10.415 12.715 6.709 20.127l-30 60c-2.549 5.083-7.734 8.291-13.418 8.291z"/><path d="m166.967 211.029c-5.903-.059-11.689 2.871-14.385 8.262l-16.582 33.164-16.582-33.164c-5.403-10.769-21.492-10.688-26.836 0l-16.582 33.164-16.582-33.164c-3.721-7.427-12.744-10.371-20.127-6.709-7.412 3.706-10.415 12.715-6.709 20.127l30 60c2.549 5.083 7.734 8.291 13.418 8.291s10.869-3.208 13.418-8.291l16.582-33.164 16.582 33.164c2.549 5.083 7.734 8.291 13.418 8.291s10.869-3.208 13.418-8.291l28.257-56.514c2.139-2.432 3.516-5.64 3.75-9.199.527-8.262-6.196-15.425-14.458-15.967z"/><path d="m329.5 232.599-30 60c-2.7 5.101-7.8 8.401-13.5 8.401s-10.8-3.3-13.5-8.401l-16.5-32.999v-48.001c5.4 0 10.8 2.701 13.5 7.8l16.5 33.001 16.5-33.001c3.9-7.5 12.9-10.499 20.099-6.899 7.5 3.9 10.501 12.899 6.901 20.099z"/></g></g></svg>