<svg xmlns="http://www.w3.org/2000/svg" viewBox="0 0 64 64" width="64" height="64">
  <g transform="matrix(.75 0 0 .75 8 8)">
    <circle cx="32" cy="32" r="25.8" fill="#fff"/>
    <path d="M32 61.3c-16.3 0-29.3-13-29.3-29.3S15.7 2.7 32 2.7s29.3 13 29.3 29.3-13 29.3-29.3 29.3zm-6.8-6.8c-2.9-6.1-4.7-12.7-5-19.5H8.7c1.1 9.1 7.7 16.8 16.5 19.5zm1-19.6c.4 7.1 2.5 13.9 5.8 19.8 3.3-6.1 5.3-12.8 5.8-19.8H26.2zm29.1 0H43.6c-.3 6.8-2 13.5-5 19.5 9-2.6 15.6-10.3 16.7-19.5zM8.7 29.1h11.6c.3-6.8 2-13.5 5-19.5-8.9 2.6-15.5 10.3-16.6 19.5zm17.5 0h11.5c-.4-7-2.3-13.8-5.8-19.8-3.2 6-5.2 12.8-5.7 19.8zM38.8 9.5c2.9 6.1 4.7 12.7 5 19.5h11.6c-1.2-9.1-7.8-16.8-16.6-19.5z" fill="#888"/>
  </g>
</svg>