<svg height="48" viewBox="0 0 48 48" width="48" xmlns="http://www.w3.org/2000/svg" xmlns:xlink="http://www.w3.org/1999/xlink"><radialGradient id="a" cx="605.71429" cy="486.64789" gradientTransform="matrix(-2.774389 0 0 1.969706 112.7623 -872.8854)" gradientUnits="userSpaceOnUse" r="117.14286" xlink:href="#b"/><linearGradient id="b"><stop offset="0"/><stop offset="1" stop-opacity="0"/></linearGradient><radialGradient id="c" cx="605.71429" cy="486.64789" gradientTransform="matrix(2.774389 0 0 1.969706 -1891.633 -872.8854)" gradientUnits="userSpaceOnUse" r="117.14286" xlink:href="#b"/><linearGradient id="d" gradientTransform="matrix(2.774389 0 0 1.969706 -1892.179 -872.8854)" gradientUnits="userSpaceOnUse" x1="302.85715" x2="302.85715" y1="366.64789" y2="609.50507"><stop offset="0" stop-opacity="0"/><stop offset=".5"/><stop offset="1" stop-opacity="0"/></linearGradient><radialGradient id="e" cx="8.824419" cy="3.756129" gradientTransform="matrix(.968273 0 0 1.032767 3.353553 .646447)" gradientUnits="userSpaceOnUse" r="37.751713"><stop offset="0" stop-color="#a3a3a3"/><stop offset="1" stop-color="#4c4c4c"/></radialGradient><radialGradient id="f" cx="33.966679" cy="35.736916" gradientTransform="scale(.960493 1.041132)" gradientUnits="userSpaceOnUse" r="86.70845"><stop offset="0" stop-color="#fafafa"/><stop offset="1" stop-color="#bbb"/></radialGradient><radialGradient id="g" cx="8.143557" cy="7.267897" gradientTransform="matrix(.968273 0 0 1.032767 3.353553 .646447)" gradientUnits="userSpaceOnUse" r="38.158695"><stop offset="0" stop-color="#fff"/><stop offset="1" stop-color="#f8f8f8"/></radialGradient><linearGradient id="h" gradientTransform="scale(.668545 1.495785)" gradientUnits="userSpaceOnUse" x1="57.643562" x2="34.242393" y1="8.601254" y2="21.033955"><stop offset="0" stop-color="#fff"/><stop offset="1" stop-color="#fff" stop-opacity="0"/></linearGradient><linearGradient id="i" gradientTransform="matrix(-.668545 0 0 1.495785 47.90649 0)" gradientUnits="userSpaceOnUse" x1="57.643562" x2="39.081673" y1="8.601254" y2="20.9233"><stop offset="0" stop-opacity=".092784"/><stop offset="1" stop-opacity="0"/></linearGradient><g transform="matrix(.02105461 0 0 .02086758 42.85172 41.1536)"><path d="m-1559.2523-150.69685h1339.6335v478.35718h-1339.6335z" fill="url(#d)" opacity=".402062"/><path d="m-219.61876-150.68038v478.33079c142.874166.90045 345.40022-107.16966 345.40014-239.196175 0-132.026537-159.436816-239.134595-345.40014-239.134615z" fill="url(#c)" opacity=".402062"/><path d="m-1559.2523-150.68038v478.33079c-142.8742.90045-345.4002-107.16966-345.4002-239.196175 0-132.026537 159.4368-239.134595 345.4002-239.134615z" fill="url(#a)" opacity=".402062"/></g><g stroke-linecap="round" stroke-linejoin="round"><rect display="block" fill="url(#f)" height="40.920494" ry="1.149049" stroke="url(#e)" width="34.875" x="6.603553" y="3.646446"/><rect display="block" fill="none" height="38.946384" rx=".149049" stroke="url(#g)" width="32.775887" x="7.666054" y="4.583946"/></g><g><g transform="translate(-1.149045)"><path d="m26.339728 8.5787964a1.1490486 1.1490486 0 1 1 -2.298097 0 1.1490486 1.1490486 0 1 1 2.298097 0z" fill="#fff"/><path d="m26.339728 8.5787964a1.1490486 1.1490486 0 1 1 -2.298097 0 1.1490486 1.1490486 0 1 1 2.298097 0z" fill-opacity=".111111" transform="translate(-.353553 -.265165)"/></g><g transform="translate(-1.149045 4)"><path d="m26.339728 8.5787964a1.1490486 1.1490486 0 1 1 -2.298097 0 1.1490486 1.1490486 0 1 1 2.298097 0z" fill="#fff"/><path d="m26.339728 8.5787964a1.1490486 1.1490486 0 1 1 -2.298097 0 1.1490486 1.1490486 0 1 1 2.298097 0z" fill-opacity=".111111" transform="translate(-.353553 -.265165)"/></g><g transform="translate(-1.149045 8)"><path d="m26.339728 8.5787964a1.1490486 1.1490486 0 1 1 -2.298097 0 1.1490486 1.1490486 0 1 1 2.298097 0z" fill="#fff"/><path d="m26.339728 8.5787964a1.1490486 1.1490486 0 1 1 -2.298097 0 1.1490486 1.1490486 0 1 1 2.298097 0z" fill-opacity=".111111" transform="translate(-.353553 -.265165)"/></g><g transform="translate(-1.149045 12)"><path d="m26.339728 8.5787964a1.1490486 1.1490486 0 1 1 -2.298097 0 1.1490486 1.1490486 0 1 1 2.298097 0z" fill="#fff"/><path d="m26.339728 8.5787964a1.1490486 1.1490486 0 1 1 -2.298097 0 1.1490486 1.1490486 0 1 1 2.298097 0z" fill-opacity=".111111" transform="translate(-.353553 -.265165)"/></g><g transform="translate(-1.149045 16)"><path d="m26.339728 8.5787964a1.1490486 1.1490486 0 1 1 -2.298097 0 1.1490486 1.1490486 0 1 1 2.298097 0z" fill="#fff"/><path d="m26.339728 8.5787964a1.1490486 1.1490486 0 1 1 -2.298097 0 1.1490486 1.1490486 0 1 1 2.298097 0z" fill-opacity=".111111" transform="translate(-.353553 -.265165)"/></g><g transform="translate(-1.149045 20)"><path d="m26.339728 8.5787964a1.1490486 1.1490486 0 1 1 -2.298097 0 1.1490486 1.1490486 0 1 1 2.298097 0z" fill="#fff"/><path d="m26.339728 8.5787964a1.1490486 1.1490486 0 1 1 -2.298097 0 1.1490486 1.1490486 0 1 1 2.298097 0z" fill-opacity=".111111" transform="translate(-.353553 -.265165)"/></g><g transform="translate(-1.149045 24)"><path d="m26.339728 8.5787964a1.1490486 1.1490486 0 1 1 -2.298097 0 1.1490486 1.1490486 0 1 1 2.298097 0z" fill="#fff"/><path d="m26.339728 8.5787964a1.1490486 1.1490486 0 1 1 -2.298097 0 1.1490486 1.1490486 0 1 1 2.298097 0z" fill-opacity=".111111" transform="translate(-.353553 -.265165)"/></g><g transform="translate(-1.149045 28)"><path d="m26.339728 8.5787964a1.1490486 1.1490486 0 1 1 -2.298097 0 1.1490486 1.1490486 0 1 1 2.298097 0z" fill="#fff"/><path d="m26.339728 8.5787964a1.1490486 1.1490486 0 1 1 -2.298097 0 1.1490486 1.1490486 0 1 1 2.298097 0z" fill-opacity=".111111" transform="translate(-.353553 -.265165)"/></g><g transform="translate(-1.149045 32)"><path d="m26.339728 8.5787964a1.1490486 1.1490486 0 1 1 -2.298097 0 1.1490486 1.1490486 0 1 1 2.298097 0z" fill="#fff"/><path d="m26.339728 8.5787964a1.1490486 1.1490486 0 1 1 -2.298097 0 1.1490486 1.1490486 0 1 1 2.298097 0z" fill-opacity=".111111" transform="translate(-.353553 -.265165)"/></g><g transform="translate(-3.502596 6)"><path d="m26.339728 8.5787964a1.1490486 1.1490486 0 1 1 -2.298097 0 1.1490486 1.1490486 0 1 1 2.298097 0z" fill="#fff"/><path d="m26.339728 8.5787964a1.1490486 1.1490486 0 1 1 -2.298097 0 1.1490486 1.1490486 0 1 1 2.298097 0z" fill-opacity=".111111" transform="translate(-.353553 -.265165)"/></g><g transform="translate(1.204508 6)"><path d="m26.339728 8.5787964a1.1490486 1.1490486 0 1 1 -2.298097 0 1.1490486 1.1490486 0 1 1 2.298097 0z" fill="#fff"/><path d="m26.339728 8.5787964a1.1490486 1.1490486 0 1 1 -2.298097 0 1.1490486 1.1490486 0 1 1 2.298097 0z" fill-opacity=".111111" transform="translate(-.353553 -.265165)"/></g><g transform="translate(3.204508 12)"><path d="m26.339728 8.5787964a1.1490486 1.1490486 0 1 1 -2.298097 0 1.1490486 1.1490486 0 1 1 2.298097 0z" fill="#fff"/><path d="m26.339728 8.5787964a1.1490486 1.1490486 0 1 1 -2.298097 0 1.1490486 1.1490486 0 1 1 2.298097 0z" fill-opacity=".111111" transform="translate(-.353553 -.265165)"/></g><g transform="translate(5.204508 18)"><path d="m26.339728 8.5787964a1.1490486 1.1490486 0 1 1 -2.298097 0 1.1490486 1.1490486 0 1 1 2.298097 0z" fill="#fff"/><path d="m26.339728 8.5787964a1.1490486 1.1490486 0 1 1 -2.298097 0 1.1490486 1.1490486 0 1 1 2.298097 0z" fill-opacity=".111111" transform="translate(-.353553 -.265165)"/></g><g transform="translate(7.204508 24)"><path d="m26.339728 8.5787964a1.1490486 1.1490486 0 1 1 -2.298097 0 1.1490486 1.1490486 0 1 1 2.298097 0z" fill="#fff"/><path d="m26.339728 8.5787964a1.1490486 1.1490486 0 1 1 -2.298097 0 1.1490486 1.1490486 0 1 1 2.298097 0z" fill-opacity=".111111" transform="translate(-.353553 -.265165)"/></g><g transform="translate(9.204482 30)"><path d="m26.339728 8.5787964a1.1490486 1.1490486 0 1 1 -2.298097 0 1.1490486 1.1490486 0 1 1 2.298097 0z" fill="#fff"/><path d="m26.339728 8.5787964a1.1490486 1.1490486 0 1 1 -2.298097 0 1.1490486 1.1490486 0 1 1 2.298097 0z" fill-opacity=".111111" transform="translate(-.353553 -.265165)"/></g><g transform="translate(-5.502618 12)"><path d="m26.339728 8.5787964a1.1490486 1.1490486 0 1 1 -2.298097 0 1.1490486 1.1490486 0 1 1 2.298097 0z" fill="#fff"/><path d="m26.339728 8.5787964a1.1490486 1.1490486 0 1 1 -2.298097 0 1.1490486 1.1490486 0 1 1 2.298097 0z" fill-opacity=".111111" transform="translate(-.353553 -.265165)"/></g><g transform="translate(-7.502618 18)"><path d="m26.339728 8.5787964a1.1490486 1.1490486 0 1 1 -2.298097 0 1.1490486 1.1490486 0 1 1 2.298097 0z" fill="#fff"/><path d="m26.339728 8.5787964a1.1490486 1.1490486 0 1 1 -2.298097 0 1.1490486 1.1490486 0 1 1 2.298097 0z" fill-opacity=".111111" transform="translate(-.353553 -.265165)"/></g><g transform="translate(-9.502622 24)"><path d="m26.339728 8.5787964a1.1490486 1.1490486 0 1 1 -2.298097 0 1.1490486 1.1490486 0 1 1 2.298097 0z" fill="#fff"/><path d="m26.339728 8.5787964a1.1490486 1.1490486 0 1 1 -2.298097 0 1.1490486 1.1490486 0 1 1 2.298097 0z" fill-opacity=".111111" transform="translate(-.353553 -.265165)"/></g><g transform="translate(-11.50263 30)"><path d="m26.339728 8.5787964a1.1490486 1.1490486 0 1 1 -2.298097 0 1.1490486 1.1490486 0 1 1 2.298097 0z" fill="#fff"/><path d="m26.339728 8.5787964a1.1490486 1.1490486 0 1 1 -2.298097 0 1.1490486 1.1490486 0 1 1 2.298097 0z" fill-opacity=".111111" transform="translate(-.353553 -.265165)"/></g><g fill-rule="evenodd"><path d="m22.892582 4.8664863 13.081476 38.7140967 4.419417-.088389-.088388-39.0676495z" fill="url(#h)"/><path d="m23.864853 5.043263-13.258252 38.00699-2.5632614-.000001-.0000004-38.0069891z" fill="url(#i)"/></g></g><g transform="matrix(.06 0 0 .06 9 10)"><path d="m256 431c-32.794 0-66.685-8.98-100.731-26.693-26.675-13.877-53.531-33.14-79.821-57.252-44.408-40.731-71.742-80.975-72.885-82.668-3.418-5.068-3.418-11.705 0-16.773 1.142-1.693 28.477-41.938 72.885-82.668 26.29-24.112 53.146-43.375 79.821-57.252 34.046-17.714 67.937-26.694 100.731-26.694s66.685 8.98 100.731 26.693c26.675 13.877 53.531 33.14 79.821 57.252 44.408 40.73 71.743 80.975 72.885 82.668 3.418 5.068 3.418 11.705 0 16.773-1.142 1.693-28.477 41.938-72.885 82.668-26.29 24.112-53.146 43.375-79.821 57.252-34.046 17.714-67.937 26.694-100.731 26.694z" fill="#db9d35"/><path d="m436.552 164.945c-26.29-24.112-53.146-43.375-79.821-57.252-34.046-17.713-67.937-26.693-100.731-26.693v350c32.794 0 66.685-8.98 100.731-26.693 26.675-13.877 53.531-33.14 79.821-57.252 44.408-40.73 71.743-80.975 72.885-82.668 3.418-5.068 3.418-11.705 0-16.773-1.143-1.694-28.477-41.938-72.885-82.669z" fill="#db9d35"/><path d="m256 371c-72.057 0-136.5-28.271-177.873-51.986-44.582-25.557-72.17-50.944-73.323-52.012-3.063-2.839-4.804-6.826-4.804-11.002s1.741-8.163 4.804-11.002c1.153-1.068 28.741-26.455 73.324-52.012 41.372-23.715 105.815-51.986 177.872-51.986s136.5 28.271 177.873 51.986c44.583 25.557 72.171 50.943 73.324 52.012 3.062 2.839 4.803 6.826 4.803 11.002s-1.741 8.163-4.804 11.002c-1.153 1.068-28.741 26.455-73.324 52.012-41.372 23.715-105.815 51.986-177.872 51.986z" fill="#f7f5f3"/><path d="m433.873 192.986c-41.373-23.715-105.816-51.986-177.873-51.986v230c72.057 0 136.5-28.271 177.873-51.986 44.583-25.557 72.171-50.943 73.324-52.012 3.062-2.839 4.803-6.826 4.803-11.002s-1.741-8.163-4.804-11.002c-1.153-1.068-28.741-26.455-73.323-52.012z" fill="#f7f5f3"/><path d="m256 371c-63.411 0-115-51.589-115-115s51.589-115 115-115 115 51.589 115 115-51.589 115-115 115z" fill="#bceaf9"/><path d="m371 256c0-63.411-51.589-115-115-115v230c63.411 0 115-51.589 115-115z" fill="#bceaf9"/><g fill="#524798"><path d="m256 301c-24.813 0-45-20.187-45-45s20.187-45 45-45 45 20.187 45 45-20.187 45-45 45z"/><path d="m301 256c0-24.813-20.187-45-45-45v90c24.813 0 45-20.187 45-45z"/></g></g></svg>