<svg xmlns="http://www.w3.org/2000/svg" viewBox="0 0 64 64" width="64" height="64">
  <path fill="#fff" d="M8 8h48v48H8z" />
  <path fill="#888" d="M2 5.3C2 3.5 3.5 2 5.3 2h53.4C60.5 2 62 3.5 62 5.3v53.4c0 1.8-1.5 3.3-3.3 3.3H5.3C3.5 62 2 60.5 2 58.7V5.3zm6.7 3.4v46.7h46.7V8.7H8.7z"/>
	<g transform="translate(6 6) scale(0.8)">
		<ellipse cx="31.4" cy="32" rx="24.9" ry="18.5" fill="#fff"/>
	  <path d="M32 9.5c13.5 0 24.7 9.7 27 22.5-2.4 12.8-13.6 22.5-27 22.5S7.3 44.8 5 32C7.3 19.2 18.5 9.5 32 9.5zm0 40c10.5 0 19.6-7.3 21.9-17.5-2.8-12.1-14.9-19.7-27-16.9C18.6 17 12 23.6 10.1 32 12.4 42.2 21.5 49.5 32 49.5z" fill="#666"/>
  	<path d="M32 19.1c7.1 0 12.9 5.8 12.9 12.9S39.1 44.9 32 44.9 19.1 39.1 19.1 32c0-1.3.2-2.6.6-3.8 1.5 3.3 5.3 4.7 8.5 3.3 2.3-1 3.8-3.4 3.8-5.9s-1.5-4.8-3.8-5.9c1.2-.4 2.5-.6 3.8-.6z" fill="#1d83d4"/>
	</g>
</svg>
