<svg xmlns="http://www.w3.org/2000/svg" viewBox="0 0 64 64" width="64" height="64">
  <g transform="matrix(.8 0 0 .8 6 6)">
    <ellipse cx="31.9" cy="32.5" rx="25.4" ry="18.8" fill="#fff"/>
    <path d="M32.5 9.6c13.8 0 25.2 9.9 27.5 22.9-2.4 13-13.9 22.9-27.5 22.9S7.3 45.5 5 32.5c2.3-13 13.8-22.9 27.5-22.9zm0 40.7c10.7 0 20-7.4 22.3-17.8C52 20.2 39.6 12.4 27.3 15.3c-8.5 1.9-15.2 8.7-17.1 17.2 2.3 10.4 11.6 17.8 22.3 17.8z" fill="#666"/>
    <path d="M32.5 19.4c7.2 0 13.1 5.9 13.1 13.1s-5.9 13.1-13.1 13.1-13.1-5.9-13.1-13.1c0-1.3.2-2.6.6-3.9 1.5 3.4 5.4 4.8 8.7 3.4 2.3-1 3.9-3.5 3.9-6s-1.5-4.9-3.9-6c1.2-.4 2.5-.6 3.8-.6z" fill="#1d83d4"/>
  </g>
</svg>
