<svg height="64" viewBox="0 0 512 511" width="64" xmlns="http://www.w3.org/2000/svg"><path d="m14.996094 15.503906h481.984375v366.988282h-481.984375zm0 0" fill="#a3efff"/><path d="m256.003906 15.503906h240.976563v366.988282h-240.976563zm0 0" fill="#a3efff"/><path d="m511.980469 405.261719h-489.5625l274.5625-274.566407c5.859375-5.859374 15.355469-5.859374 21.214843 0l193.78125 193.789063v80.777344zm0 0" fill="#738c28"/><path d="m296.980469 130.695312-40.976563 40.976563v233.589844h255.972656v-80.78125l-193.78125-193.785157c-5.855468-5.859374-15.355468-5.859374-21.214843 0zm0 0" fill="#738c28"/><path d="m391.433594 405.261719h-391.433594v-86.953125l141.632812-141.640625c5.859376-5.855469 15.355469-5.855469 21.214844 0zm0 0" fill="#b4d241"/><path d="m256.003906 405.261719h135.429688l-135.429688-135.433594zm0 0" fill="#b4d241"/><path d="m144.902344 105.5c0 16.566406-13.433594 30-30 30-16.570313 0-30-13.433594-30-30s13.429687-30 30-30c16.566406 0 30 13.433594 30 30zm0 0" fill="#ffff95"/><path d="m511.996094 15.5c0-8.285156-6.714844-15-15-15h-481.984375c-8.285157 0-15.0000002 6.714844-15.0000002 15v481.992188c0 8.28125 6.7148432 14.996093 14.9960932 14.996093h481.992188c8.285156 0 15-6.714843 15-14.996093zm-471.984375 15h431.984375c5.523437 0 10 4.476562 10 10v315.925781c0 5.523438-4.476563 10-10 10h-431.984375c-5.523438 0-10-4.476562-10-10v-315.925781c0-5.523438 4.476562-10 10-10zm0 0" fill="#edeade"/><path d="m496.996094.5h-240.992188v30h215.992188c5.523437 0 10 4.476562 10 10v315.925781c0 5.523438-4.476563 10-10 10h-215.992188v146.0625h240.996094c8.285156 0 15-6.714843 15-14.996093l-.003906-481.992188c0-8.285156-6.714844-15-15-15zm0 0" fill="#edeade"/><g fill="#787465"><path d="m291.34375 454.457031h-70.703125c-8.285156 0-15-6.714843-15-15 0-8.28125 6.714844-15 15-15h70.703125c8.28125 0 15 6.71875 15 15 0 8.285157-6.71875 15-15 15zm0 0"/><path d="m291.34375 424.457031h-35.339844v30h35.339844c8.28125 0 15-6.714843 15-15 0-8.28125-6.71875-15-15-15zm0 0"/></g></svg>