<svg height="64" viewBox="0 0 512 512" width="64" xmlns="http://www.w3.org/2000/svg"><path d="m391 252.101562v-237.101562c0-8.402344-6.597656-15-15-15h-240c-8.402344 0-15 6.597656-15 15v237.101562c-19.5 27.898438-30 60.296876-30 93.898438s10.5 66 30 93.898438v57.101562c0 8.398438 6.597656 15 15 15h240c8.402344 0 15-6.601562 15-15v-57.101562c19.5-27.898438 30-60.296876 30-93.898438s-10.5-66-30-93.898438zm0 0" fill="#ff9100"/><path d="m421 346c0 33.601562-10.5 66-30 93.898438v57.101562c0 8.398438-6.597656 15-15 15h-120v-512h120c8.402344 0 15 6.597656 15 15v237.101562c19.5 27.898438 30 60.296876 30 93.898438zm0 0" fill="#ff9100"/><g fill="#474f54"><path d="m256 241c-57.898438 0-105 47.101562-105 105s47.101562 105 105 105 105-47.101562 105-105-47.101562-105-105-105zm0 0"/><path d="m256 61c-41.398438 0-75 33.601562-75 75s33.601562 75 75 75 75-33.601562 75-75-33.601562-75-75-75zm0 0"/><path d="m256 211v-150c41.398438 0 75 33.601562 75 75s-33.601562 75-75 75zm0 0"/><path d="m361 346c0 57.898438-47.101562 105-105 105v-210c57.898438 0 105 47.101562 105 105zm0 0"/></g><path d="m331 346c0 41.398438-33.601562 75-75 75s-75-33.601562-75-75 33.601562-75 75-75 75 33.601562 75 75zm0 0" fill="#e0f4ff"/><path d="m331 346c0 41.398438-33.601562 75-75 75v-150c41.398438 0 75 33.601562 75 75zm0 0" fill="#e0f4ff"/><path d="m256 301c-24.902344 0-45 20.097656-45 45 0 24.898438 20.097656 45 45 45s45-20.101562 45-45c0-24.902344-20.097656-45-45-45zm0 0" fill="#474f54"/><path d="m437 181c-8.289062 0-15-6.710938-15-15v-60c0-8.289062 6.710938-15 15-15s15 6.710938 15 15v60c0 8.289062-6.710938 15-15 15zm0 0" fill="#7984eb"/><path d="m497 241c-8.289062 0-15-6.710938-15-15v-180c0-8.289062 6.710938-15 15-15s15 6.710938 15 15v180c0 8.289062-6.710938 15-15 15zm0 0" fill="#7984eb"/><path d="m75 181c-8.289062 0-15-6.710938-15-15v-60c0-8.289062 6.710938-15 15-15s15 6.710938 15 15v60c0 8.289062-6.710938 15-15 15zm0 0" fill="#7984eb"/><path d="m15 241c-8.289062 0-15-6.710938-15-15v-180c0-8.289062 6.710938-15 15-15s15 6.710938 15 15v180c0 8.289062-6.710938 15-15 15zm0 0" fill="#7984eb"/><path d="m301 136c0 24.898438-20.097656 45-45 45s-45-20.101562-45-45c0-24.902344 20.097656-45 45-45s45 20.097656 45 45zm0 0" fill="#e0f4ff"/><path d="m271 136c0 8.398438-6.597656 15-15 15s-15-6.601562-15-15c0-8.402344 6.597656-15 15-15s15 6.597656 15 15zm0 0" fill="#474f54"/><path d="m301 346c0 24.898438-20.097656 45-45 45v-90c24.902344 0 45 20.097656 45 45zm0 0" fill="#474f54"/><path d="m256 181v-90c24.902344 0 45 20.097656 45 45 0 24.898438-20.097656 45-45 45zm0 0" fill="#e0f4ff"/><path d="m271 136c0 8.398438-6.597656 15-15 15v-30c8.402344 0 15 6.597656 15 15zm0 0" fill="#474f54"/></svg>