<svg height="64" viewBox="0 0 512 512" width="64" xmlns="http://www.w3.org/2000/svg"><path d="m16 15h480v482h-480z" fill="#f1f4f6"/><path d="m256 15h240v482h-240z" fill="#f1f4f6"/><path d="m206 351c-2.601 0-5.201-.676-7.529-2.026-4.625-2.684-7.471-7.627-7.471-12.974v-160c0-5.347 2.846-10.29 7.471-12.974s10.329-2.703 14.971-.05l140 80c4.674 2.67 7.558 7.641 7.558 13.023s-2.884 10.353-7.558 13.023l-140 80c-2.306 1.319-4.875 1.978-7.442 1.978z" fill="#d82e3d"/><path d="m353.442 242.977-97.442-55.682v137.409l97.442-55.681c4.674-2.67 7.558-7.641 7.558-13.023s-2.884-10.353-7.558-13.023z" fill="#d82e3d"/><g fill="#665e66"><path d="m496 0h-480c-8.284 0-15 6.716-15 15v482c0 8.284 6.716 15 15 15h480c8.284 0 15-6.716 15-15v-482c0-8.284-6.716-15-15-15zm-465 402v-292h450v292zm450-322h-50v-50h50zm-80 0h-50v-50h50zm-80 0h-50v-50h50zm-80 0h-50v-50h50zm-80 0h-50v-50h50zm-130-50h50v50h-50zm0 402h50v50h-50zm80 0h50v50h-50zm80 0h50v50h-50zm80 0h50v50h-50zm80 0h50v50h-50zm130 50h-50v-50h50z"/><path d="m496 0h-240v110h225v292h-225v110h240c8.284 0 15-6.716 15-15v-482c0-8.284-6.716-15-15-15zm-175 482h-50v-50h50zm80 0h-50v-50h50zm80 0h-50v-50h50zm-160-402h-50v-50h50zm80 0h-50v-50h50zm80 0h-50v-50h50z"/></g></svg>