<svg xmlns="http://www.w3.org/2000/svg" viewBox="0 0 512 512" width="64" height="64">
  <rect x="0" y="32" width="392" height="300" fill="#ffa54d" rx="16"/>
  <rect x="120" y="96" width="392" height="300" fill="#e6f2f2" rx="16" />
  <g transform="translate(-8 8)">
    <rect x="60" y="180" width="392" height="300" fill="#66b3ff" rx="16" />
    <path d="M446.8 476.8c-3 2.4-6.6 4.2-10.8 4.2H76c-4.2 0-7.8-1.8-10.8-4.2l90.193-90.193c5.858-5.858 15.355-5.858 21.213 0l8.787 8.787c5.858 5.858 15.355 5.858 21.213 0l68.787-68.787c5.858-5.858 15.355-5.858 21.213 0z" fill="#ade65c"/>
    <path d="M166 331c-24.814 0-45-20.186-45-45s20.186-45 45-45 45 20.186 45 45-20.186 45-45 45z" fill="#ffcb66"/>
    <rect x="60" y="180" width="392" height="300" fill="none" rx="16" stroke="#666" stroke-width="16"/>
  </g>
</svg>
