<svg enable-background="new 0 0 512 512" height="64" viewBox="0 0 512 512" width="64" xmlns="http://www.w3.org/2000/svg"><path d="m506 154.007-120.001-90.001c-9.818-7.372-23.994-.386-23.994 11.997v45.001h-198.702c-90.045 0-163.303 73.256-163.303 163.316v3.398c0 90.031 73.258 163.288 163.303 163.288h273.702c8.291 0 15-6.708 15.001-14.999v-60.001c0-8.291-6.709-15-15-15h-272.003c-42.959 0-77.163-35.865-74.884-79.044v-.015c2.036-39.111 37.91-70.943 79.981-70.943h191.904v45.001c0 12.485 14.334 19.336 23.994 11.997l120.002-90.001c8.006-5.989 7.994-18.014 0-23.994z" fill="#666" transform="matrix(0 1 -1 0 512 0)"/></svg>