<svg enable-background="new 0 0 512 512" height="64" viewBox="0 0 512 512" width="64" xmlns="http://www.w3.org/2000/svg"><path d="m180.747 116.404-48.325-47.615 43.184-43.184c9.428-9.428 2.736-25.605-10.591-25.605h-150.015c-8.291 0-15 6.709-15 15v150c0 13.324 16.173 19.974 25.592 10.621.864-.864 29.106-28.384 43.74-42.656l47.783 47.073c19.834 19.834 30.747 46.201 30.747 74.253 0 46.054-25.505 73.799-97.458 144.273-13.696 13.432-29.004 28.403-45.996 45.41-5.922 5.922-5.827 15.414-.015 21.196.381.381 41.104 41.089 42.378 42.378 5.844 5.905 15.38 5.948 21.269.059 14.751-14.751 28.55-28.242 41.367-40.796 81.944-80.171 128.366-128.336 128.366-212.521 0-52.149-20.258-101.118-57.026-137.886z" fill="#666" transform="matrix(-.77781746 -.77781746 -.77781746 .77781746 492 145)"/></svg>