<svg enable-background="new 0 0 512 512" height="32" viewBox="0 0 512 512" width="32" xmlns="http://www.w3.org/2000/svg"><path d="m256 431c-32.794 0-66.685-8.98-100.731-26.693-26.675-13.877-53.531-33.14-79.821-57.252-44.408-40.731-71.742-80.975-72.885-82.668-3.418-5.068-3.418-11.705 0-16.773 1.142-1.693 28.477-41.938 72.885-82.668 26.29-24.112 53.146-43.375 79.821-57.252 34.046-17.714 67.937-26.694 100.731-26.694s66.685 8.98 100.731 26.693c26.675 13.877 53.531 33.14 79.821 57.252 44.408 40.73 71.743 80.975 72.885 82.668 3.418 5.068 3.418 11.705 0 16.773-1.142 1.693-28.477 41.938-72.885 82.668-26.29 24.112-53.146 43.375-79.821 57.252-34.046 17.714-67.937 26.694-100.731 26.694z" fill="#db9d35"/><path d="m436.552 164.945c-26.29-24.112-53.146-43.375-79.821-57.252-34.046-17.713-67.937-26.693-100.731-26.693v350c32.794 0 66.685-8.98 100.731-26.693 26.675-13.877 53.531-33.14 79.821-57.252 44.408-40.73 71.743-80.975 72.885-82.668 3.418-5.068 3.418-11.705 0-16.773-1.143-1.694-28.477-41.938-72.885-82.669z" fill="#db9d35"/><path d="m256 371c-72.057 0-136.5-28.271-177.873-51.986-44.582-25.557-72.17-50.944-73.323-52.012-3.063-2.839-4.804-6.826-4.804-11.002s1.741-8.163 4.804-11.002c1.153-1.068 28.741-26.455 73.324-52.012 41.372-23.715 105.815-51.986 177.872-51.986s136.5 28.271 177.873 51.986c44.583 25.557 72.171 50.943 73.324 52.012 3.062 2.839 4.803 6.826 4.803 11.002s-1.741 8.163-4.804 11.002c-1.153 1.068-28.741 26.455-73.324 52.012-41.372 23.715-105.815 51.986-177.872 51.986z" fill="#f7f5f3"/><path d="m433.873 192.986c-41.373-23.715-105.816-51.986-177.873-51.986v230c72.057 0 136.5-28.271 177.873-51.986 44.583-25.557 72.171-50.943 73.324-52.012 3.062-2.839 4.803-6.826 4.803-11.002s-1.741-8.163-4.804-11.002c-1.153-1.068-28.741-26.455-73.323-52.012z" fill="#f7f5f3"/><path d="m256 371c-63.411 0-115-51.589-115-115s51.589-115 115-115 115 51.589 115 115-51.589 115-115 115z" fill="#bceaf9"/><path d="m371 256c0-63.411-51.589-115-115-115v230c63.411 0 115-51.589 115-115z" fill="#bceaf9"/><g fill="#524798"><path d="m256 301c-24.813 0-45-20.187-45-45s20.187-45 45-45 45 20.187 45 45-20.187 45-45 45z"/><path d="m301 256c0-24.813-20.187-45-45-45v90c24.813 0 45-20.187 45-45z"/></g></svg>