<svg height="52" viewBox="0 0 48 48" width="52" xmlns="http://www.w3.org/2000/svg" xmlns:xlink="http://www.w3.org/1999/xlink"><linearGradient id="a" gradientTransform="matrix(.849077 0 0 .682478 27.04742 25.72265)" gradientUnits="userSpaceOnUse" x1="11.492236" x2="17.199417" y1="1.653758" y2="26.729263"><stop offset="0" stop-color="#fff"/><stop offset="1" stop-color="#fcfcff" stop-opacity="0"/></linearGradient><linearGradient id="b" gradientUnits="userSpaceOnUse" x1="36.82788821907" x2="52.84581519998" xlink:href="#h" y1="38.82141180201" y2="38.82141180201"/><linearGradient id="c"><stop offset="0"/><stop offset="1" stop-opacity="0"/></linearGradient><radialGradient id="d" cx="15.115514" cy="63.965388" gradientTransform="scale(1.64399 .608276)" gradientUnits="userSpaceOnUse" r="12.289036" xlink:href="#c"/><radialGradient id="e" cx="605.71429" cy="486.64789" gradientTransform="matrix(-2.774389 0 0 1.969706 112.7623 -872.8854)" gradientUnits="userSpaceOnUse" r="117.14286" xlink:href="#c"/><radialGradient id="f" cx="605.71429" cy="486.64789" gradientTransform="matrix(2.774389 0 0 1.969706 -1891.633 -872.8854)" gradientUnits="userSpaceOnUse" r="117.14286" xlink:href="#c"/><linearGradient id="g" gradientTransform="matrix(2.774389 0 0 1.969706 -1892.179 -872.8854)" gradientUnits="userSpaceOnUse" x1="302.85715" x2="302.85715" y1="366.64789" y2="609.50507"><stop offset="0" stop-opacity="0"/><stop offset=".5"/><stop offset="1" stop-opacity="0"/></linearGradient><linearGradient id="h"><stop offset="0" stop-color="#fff"/><stop offset="1" stop-color="#f8f8f8"/></linearGradient><radialGradient id="i" cx="8.824419" cy="3.756129" gradientTransform="matrix(.968273 0 0 1.032767 3.353553 .646447)" gradientUnits="userSpaceOnUse" r="37.751713"><stop offset="0" stop-color="#a3a3a3"/><stop offset="1" stop-color="#4c4c4c"/></radialGradient><radialGradient id="j" cx="33.966679" cy="35.736916" gradientTransform="scale(.960493 1.041132)" gradientUnits="userSpaceOnUse" r="86.70845"><stop offset="0" stop-color="#fafafa"/><stop offset="1" stop-color="#bbb"/></radialGradient><radialGradient id="k" cx="8.143557" cy="7.267897" gradientTransform="matrix(.968273 0 0 1.032767 3.353553 .646447)" gradientUnits="userSpaceOnUse" r="38.158695" xlink:href="#h"/><linearGradient id="l"><stop offset="0" stop-color="#f0f0f0"/><stop offset="1" stop-color="#9a9a9a"/></linearGradient><radialGradient id="m" cx="9.4125070463" cy="30.2965131852" gradientUnits="userSpaceOnUse" r="1.207318968" xlink:href="#l"/><radialGradient id="n" cx="9.4125070463" cy="18.8112483337" gradientUnits="userSpaceOnUse" r="1.207548671" xlink:href="#l"/><linearGradient id="o" gradientUnits="userSpaceOnUse" x1="45.326289" x2="56.90689" y1="29.917709" y2="29.917709"><stop offset="0" stop-color="#a40000"/><stop offset="1" stop-color="#ef2929"/></linearGradient><linearGradient id="p" gradientUnits="userSpaceOnUse" x1="14.00393" x2="37.508762" y1="15.283251" y2="19.316085"><stop offset="0" stop-color="#fff"/><stop offset="1" stop-color="#f9b575"/></linearGradient><g transform="matrix(.02105461 0 0 .02086758 42.85172 41.1536)"><path d="m-1559.2523-150.69685h1339.6335v478.35718h-1339.6335z" fill="url(#g)" opacity=".402062"/><path d="m-219.61876-150.68038v478.33079c142.874166.90045 345.40022-107.16966 345.40014-239.196175 0-132.026537-159.436816-239.134595-345.40014-239.134615z" fill="url(#f)" opacity=".402062"/><path d="m-1559.2523-150.68038v478.33079c-142.8742.90045-345.4002-107.16966-345.4002-239.196175 0-132.026537 159.4368-239.134595 345.4002-239.134615z" fill="url(#e)" opacity=".402062"/></g><g><rect display="block" fill="url(#j)" height="40.920494" ry="1.149049" stroke="url(#i)" stroke-linecap="round" stroke-linejoin="round" width="34.875" x="6.603553" y="3.646446"/><rect display="block" fill="none" height="38.946384" rx=".149049" stroke="url(#k)" stroke-linecap="round" stroke-linejoin="round" width="32.775887" x="7.666054" y="4.583946"/><g transform="translate(.646447 -.037989)"><g fill="#fff" stroke="none" transform="matrix(.229703 0 0 .229703 4.967081 4.244972)"><path d="m23.428 113.07c0 1.973-1.6 3.572-3.573 3.572-1.974 0-3.573-1.6-3.573-3.572 0-1.974 1.6-3.573 3.573-3.573s3.573 1.6 3.573 3.573z"/><path d="m23.428 63.07c0 1.973-1.6 3.573-3.573 3.573-1.974 0-3.573-1.6-3.573-3.573 0-1.974 1.6-3.573 3.573-3.573s3.573 1.6 3.573 3.573z"/></g><path d="m9.9950109 29.952326c0 .453204-.3675248.820499-.8207288.820499-.4534338 0-.8207289-.367524-.8207289-.820499 0-.453434.3675248-.820729.8207289-.820729.453204 0 .8207288.367525.8207288.820729z" fill="url(#m)"/><path d="m9.9950109 18.467176c0 .453204-.3675248.820729-.8207288.820729-.4534338 0-.8207289-.367525-.8207289-.820729 0-.453434.3675248-.820729.8207289-.820729.453204 0 .8207288.367525.8207288.820729z" fill="url(#n)"/></g><g fill="none"><path d="m11.505723 5.4942766v37.9065924" stroke="#000" stroke-opacity=".017544" stroke-width=".988553"/><path d="m12.5 5.0205154v38.0177126" stroke="#fff" stroke-opacity=".204678"/></g></g><g><g transform="matrix(1.200949 0 0 1.200949 -40.75461 -14.50669)"><path d="m60.274816 25.065667h-1l-3.3-3.3c0-.1.1-.2.1-.2 0-.2-.2-.4-.4-.4-.1 0-.199 0-.199.1l-3.4-3.4v-1h-.1-1.101v1.2h1l3.4 3.4c0 .1-.101.2-.101.2 0 .2.2.4.4.4.1 0 .2 0 .2-.1l3.3 3.3v1h1.2v-1.2h-.099zm-8.3-7.3c-.101 0-.7 0-.801 0 0-.1 0-.7 0-.8h.801zm8.3 8.3c-.101 0-.7 0-.8 0 0-.1 0-.7 0-.8h.8z"/><g transform="translate(-.108996 .217991)"><path d="m55.883812 22.228636c-1.7-1.7-13.101-4.2-8.9 2.9 2.101 3.6-3.6 7.2-.5 12 3.8 5.7 14.3-.2 8.5-5.5-4.1-3.8 2.7-7.7.9-9.4z" fill="url(#o)" stroke="#a40000" stroke-width="1.025"/><path d="m49.437784 19.074663v-1.1h-.1-1.1v1l-1.1 1.1c-.1 0-.2-.1-.2-.1-.2 0-.4.2-.4.4 0 .1 0 .2.1.2l-1.1 1.1h-1v1.2h1.2v-1l1.1-1.1c.1 0 .2.1.2.1.2 0 .399-.2.399-.4 0-.1 0-.2-.1-.2l1.1-1.1h1v-.1zm-1-1h.801v.8c-.101 0-.7 0-.801 0 0-.1 0-.7 0-.8zm-3.8 4.8c0-.1 0-.7 0-.8h.8v.8c-.1 0-.7 0-.8 0z"/></g></g><path d="m45.052803 38.908627a20.203051 7.4751287 0 1 1 -40.4061012 0 20.203051 7.4751287 0 1 1 40.4061012 0z" fill="url(#d)" transform="matrix(.51549 0 0 .640881 22.03552 18.31362)"/><rect fill="#f57900" height="17.718801" rx=".149048" stroke="#ce5c00" stroke-linejoin="round" width="17.718801" x="26.017027" y="27.993736"/><path d="m26.693774 28.620929-.549978 13.612388c7.568946-1.828635 7.827186-7.992236 17.238184-10.01429l-.110658-3.547774z" fill="url(#a)" fill-rule="evenodd" opacity=".531429"/><g fill="url(#b)"><path d="m34.427801 39.43757.798241 2.655688h2.532882l-3.223668-10.346439h-3.070159l-3.146914 10.346439h2.410075l.736839-2.655688zm-2.624987-1.749992.614032-2.195164c.168859-.598681.322367-1.381572.475875-1.995604h.0307c.153508.614032.337718 1.381572.521928 1.995604l.644733 2.195164z"/><path d="m41.295605 42.093258v-7.506541h-2.333322v7.506541zm-1.15131-10.760911c-.752189 0-1.243415.506577-1.243415 1.166661 0 .644734.475875 1.166661 1.212713 1.166661.782891 0 1.258766-.521927 1.258766-1.166661-.01535-.660084-.475875-1.166661-1.228064-1.166661z"/></g><path d="m18.105989 10.129746c-3.29322.065594-5.630075 1.58982-2.904138 6.24701.776491 1.344977.705881 2.680926.337691 4.062263 2.708985-.987312 3.488307.301998 10.434634-4.267083.007929-.0127.025872-.021472.033769-.034137.928453-1.488937 1.618904-2.748023.742919-3.58435-1.103094-1.115101-5.351655-2.489297-8.644875-2.423703z" fill="url(#p)" opacity=".220126"/></g></svg>