<svg height="52" viewBox="0 0 48 48" width="52" xmlns="http://www.w3.org/2000/svg" xmlns:xlink="http://www.w3.org/1999/xlink"><linearGradient id="a"><stop offset="0"/><stop offset="1" stop-opacity="0"/></linearGradient><linearGradient id="b"><stop offset="0" stop-color="#fff"/><stop offset="1" stop-color="#fff" stop-opacity="0"/></linearGradient><linearGradient id="c" gradientTransform="matrix(1.662163 0 0 .441228 -3.179701 2.157646)" gradientUnits="userSpaceOnUse" x1="11.492236" x2="17.199417" y1="1.653758" y2="26.729263"><stop offset="0" stop-color="#fff"/><stop offset="1" stop-color="#fcfcff" stop-opacity="0"/></linearGradient><radialGradient id="d" cx="605.71429" cy="486.64789" gradientTransform="matrix(-2.774389 0 0 1.969706 112.7623 -872.8854)" gradientUnits="userSpaceOnUse" r="117.14286" xlink:href="#a"/><radialGradient id="e" cx="605.71429" cy="486.64789" gradientTransform="matrix(2.774389 0 0 1.969706 -1891.633 -872.8854)" gradientUnits="userSpaceOnUse" r="117.14286" xlink:href="#a"/><linearGradient id="f" gradientTransform="matrix(2.774389 0 0 1.969706 -1892.179 -872.8854)" gradientUnits="userSpaceOnUse" x1="302.85715" x2="302.85715" y1="366.64789" y2="609.50507"><stop offset="0" stop-opacity="0"/><stop offset=".5"/><stop offset="1" stop-opacity="0"/></linearGradient><radialGradient id="g" cx="8.824419" cy="3.756129" gradientTransform="matrix(.968273 0 0 1.032767 3.353553 .646447)" gradientUnits="userSpaceOnUse" r="37.751713"><stop offset="0" stop-color="#a3a3a3"/><stop offset="1" stop-color="#4c4c4c"/></radialGradient><radialGradient id="h" cx="33.966679" cy="35.736916" gradientTransform="scale(.960493 1.041132)" gradientUnits="userSpaceOnUse" r="86.70845"><stop offset="0" stop-color="#fafafa"/><stop offset="1" stop-color="#bbb"/></radialGradient><radialGradient id="i" cx="8.143557" cy="7.267897" gradientTransform="matrix(.968273 0 0 1.032767 3.353553 .646447)" gradientUnits="userSpaceOnUse" r="38.158695"><stop offset="0" stop-color="#fff"/><stop offset="1" stop-color="#f8f8f8"/></radialGradient><radialGradient id="j" cx="23.157747" cy="26.963573" gradientTransform="matrix(1 0 0 .663934 0 9.061528)" gradientUnits="userSpaceOnUse" r="21.566757" xlink:href="#a"/><radialGradient id="k" cx="-37.134072" cy="13.837871" gradientUnits="userSpaceOnUse" r="14.1515"><stop offset="0" stop-color="#767676"/><stop offset="1" stop-color="#484848"/></radialGradient><linearGradient id="l" gradientUnits="userSpaceOnUse" x1="23.816254" x2="29.049412" y1="12.75" y2="25.772396"><stop offset="0" stop-color="#888a85"/><stop offset="1" stop-color="#b8b9b6"/></linearGradient><linearGradient id="m" gradientUnits="userSpaceOnUse" x1="21.03167" x2="21.107563" xlink:href="#b" y1="31.867859" y2="-4.598634"/><linearGradient id="n" gradientUnits="userSpaceOnUse" x1="-13.25675204608" x2="-18.32200962831" y1="17.01334820268" y2="16.03568631999"><stop offset="0" stop-color="#888a85"/><stop offset="1" stop-color="#888a85" stop-opacity="0"/></linearGradient><linearGradient id="o" gradientUnits="userSpaceOnUse" x1="-16.07368" x2="-33.13618" xlink:href="#b" y1="14.015655" y2="14.015655"/><g transform="matrix(.02105461 0 0 .02086758 42.85172 41.1536)"><path d="m-1559.2523-150.69685h1339.6335v478.35718h-1339.6335z" fill="url(#f)" opacity=".402062"/><path d="m-219.61876-150.68038v478.33079c142.874166.90045 345.40022-107.16966 345.40014-239.196175 0-132.026537-159.436816-239.134595-345.40014-239.134615z" fill="url(#e)" opacity=".402062"/><path d="m-1559.2523-150.68038v478.33079c-142.8742.90045-345.4002-107.16966-345.4002-239.196175 0-132.026537 159.4368-239.134595 345.4002-239.134615z" fill="url(#d)" opacity=".402062"/></g><g><rect display="block" fill="url(#h)" height="40.920494" ry="1.149049" stroke="url(#g)" stroke-linecap="round" stroke-linejoin="round" width="34.875" x="6.603553" y="3.646446"/><rect display="block" fill="none" height="38.946384" rx=".149049" stroke="url(#i)" stroke-linecap="round" stroke-linejoin="round" width="32.775887" x="7.666054" y="4.583946"/><g transform="matrix(.55050293013 0 .242428779 .28469921433 50.04235729358 10.82198371624)"><path d="m-67.705475-19.589479h9.545941v16.263456h-9.545941z" fill="#2e3436"/><path d="m-26.601624-19.589479h9.545941v16.263456h-9.545941z" fill="#2e3436"/><path d="m-36.877586-19.589479h9.545941v16.263456h-9.545941z" fill="#eeeeec"/><path d="m-47.153549-19.589479h9.545941v16.263456h-9.545941z" fill="#2e3436"/><path d="m-57.429512-19.589479h9.545941v16.263456h-9.545941z" fill="#eeeeec"/></g><g transform="matrix(-.55050293013 0 -.242428779 .28469921433 -2.17439743164 15.26817079656)"><path d="m-67.705475-19.589479h9.545941v16.263456h-9.545941z" fill="#2e3436"/><path d="m-26.601624-19.589479h9.545941v16.263456h-9.545941z" fill="#2e3436"/><path d="m-36.877586-19.589479h9.545941v16.263456h-9.545941z" fill="#eeeeec"/><path d="m-47.153549-19.589479h9.545941v16.263456h-9.545941z" fill="#2e3436"/><path d="m-57.429512-19.589479h9.545941v16.263456h-9.545941z" fill="#eeeeec"/></g><path d="m8.021131 5.244875h5.656854v8.838835h-5.656854z" fill="#2e3436"/><path d="m7.7151042 5.1507989-1.0766438 8.8005401c14.8170616-1.18223 15.3225946-5.1670574 33.7456796-6.474335l-.216625-2.2936703z" fill="url(#c)" fill-rule="evenodd" opacity=".471698"/><g transform="matrix(.585417 0 0 .585417 55.05903 32.48082)"><g fill-rule="evenodd"><path d="m44.724504 26.963573a21.566757 14.318913 0 1 1 -43.1335139 0 21.566757 14.318913 0 1 1 43.1335139 0z" fill="url(#j)" opacity=".703297" transform="translate(-58.52378 -19.35483)"/><path d="m40.5 21a14.75 8.25 0 1 1 -29.5 0 14.75 8.25 0 1 1 29.5 0z" fill="#a1a39f" stroke="#6d6f6a" stroke-linecap="round" stroke-linejoin="round" stroke-width=".719082" transform="matrix(1.254237 0 0 1.541926 -69.55778 -26.39692)"/><path d="m40.5 21a14.75 8.25 0 1 1 -29.5 0 14.75 8.25 0 1 1 29.5 0z" fill="#555753" transform="matrix(.764011 0 0 1.001814 -57.45078 -17.57431)"/></g><path d="m-13.735409 21.108847s-8.323895-3.737007-13.655999-3.266718c-5.683012.501239-15.176777.837437-18.898099-5.03934 15.798099 4.764466 23.086992-3.145748 33.779381 1.309515 0 0-1.225283 6.996543-1.225283 6.996543z" fill="url(#k)" stroke="#3b3d39"/><path d="m40.5 21a14.75 8.25 0 1 1 -29.5 0 14.75 8.25 0 1 1 29.5 0z" style="fill-rule:evenodd;stroke:#757972;stroke-width:1.234088;stroke-linecap:round;stroke-linejoin:round;fill:url(#l)" transform="matrix(.760969 0 0 .986663 -56.85618 -19.53312)"/><path d="m-38.667463-12.398636c-9.557524.525674-17.093754 6.41462-17.093754 13.53125 0 7.461046 8.28801 13.531251 18.500004 13.53125 10.211998 0 18.5-6.070205 18.5-13.53125 0-7.461046-8.288002-13.53125-18.5-13.53125-.039891 0-.085168-.000184-.125 0-.238056.001103-.482906-.00764-.71875 0-.115158.003731-.22915-.005272-.34375 0-.075505.003474-.143494-.004139-.21875 0zm-1.375 2.1875c.063253-.005106.123591.003471.1875 0 .134104-.007281.269544 0 .40625 0 2.916392.000001 5.28125 1.702203 5.28125 3.78125s-2.364859 3.75-5.28125 3.75-5.28125-1.670953-5.28125-3.75c0-1.935148 2.051954-3.568463 4.6875-3.78125zm11.5 4.59375c.066647-.005963.120185.004252.1875 0 .116752-.007375.225136.002149.34375 0 .048199-.000873.076509 0 .125 0 3.103453 0 5.625 1.814203 5.625 4.03125 0 2.21704603-2.521546 4-5.625 4-3.103454.000001-5.625-1.78295297-5.625-4-.000001-2.048003 2.191783-3.782807 4.96875-4.03125zm-19.218754 3.15625c.21783-.017823.46304 0 .6875 0 3.192393 0 5.781254 1.84234803 5.781254 4.125 0 2.282652-2.588861 4.125-5.781254 4.125-3.19238 0-5.78125-1.842348-5.78125-4.125 0-2.12215197 2.21361-3.889336 5.09375-4.125zm11.531254 5.125c.023975-.002786.03844.002591.0625 0 .002749-.000117.028703-.000033.03125 0 .002553.000045.028493.000099.03125 0 .006242.000106.028056.000115.03125 0 .026153.000179.067511-.000383.09375 0 .00321-.000077.025018-.000083.03125 0 .240976-.019778.47043 0 .71875 0 3.531666 0 6.40625 2.029561 6.40625 4.5625 0 2.53294-2.874584 4.59375-6.40625 4.59375s-6.40625-2.060811-6.40625-4.59375c0-2.281969 2.361444-4.208711 5.40625-4.5625z" fill="#d3d7cf" fill-rule="evenodd" stroke="#888a85" stroke-linecap="round" stroke-linejoin="round"/><path d="m40.65864 19.008621a18.473166 13.435029 0 1 1 -36.9463311 0 18.473166 13.435029 0 1 1 36.9463311 0z" fill="none" stroke="url(#m)" stroke-linecap="round" stroke-linejoin="round" stroke-width="1.059329" transform="matrix(.950533 0 0 .9375 -58.31018 -16.79677)"/><path d="m-12.886213 14.37652-1.081562 6.04999c-2.609018-.875437-4.182049-1.568156-7.071166-2.25686l.331829-4.912647c1.898531-.201306 4.863279.141734 7.820899 1.119517z" fill="url(#n)" fill-rule="evenodd"/><path d="m-12.886213 14.195114-.1875.875c-8.104899-3.028886-15.566065-.226719-23.375 0 10.611053-.882579 14.090243-3.715657 23.5625-.875z" fill="url(#o)" fill-rule="evenodd" opacity=".703297"/></g></g></svg>