<svg height="52" viewBox="0 0 48 48" width="52" xmlns="http://www.w3.org/2000/svg" xmlns:xlink="http://www.w3.org/1999/xlink"><radialGradient id="a" cx="14.287618" cy="68.872971" fy="72.568001" gradientTransform="matrix(1.399258 -.00000022 .00000008 .513264 4.365074 4.839285)" gradientUnits="userSpaceOnUse" r="11.68987"><stop offset="0" stop-opacity=".326733"/><stop offset="1" stop-opacity="0"/></radialGradient><linearGradient id="b" gradientTransform="matrix(.965584 0 0 .698254 12.84858 -39.7739)" gradientUnits="userSpaceOnUse" x1="11.492236" x2="17.199417" y1="1.653758" y2="26.729263"><stop offset="0" stop-color="#fff"/><stop offset="1" stop-color="#fcfcff" stop-opacity="0"/></linearGradient><radialGradient id="c" cx="11.826907" cy="10.476453" gradientTransform="scale(1.179536 .847791)" gradientUnits="userSpaceOnUse" r="32.664848"><stop offset="0" stop-color="#fff"/><stop offset="1" stop-color="#fff" stop-opacity="0"/></radialGradient><radialGradient id="d" cx="605.71429" cy="486.64789" gradientTransform="matrix(-2.774389 0 0 1.969706 112.7623 -872.8854)" gradientUnits="userSpaceOnUse" r="117.14286" xlink:href="#e"/><linearGradient id="e"><stop offset="0"/><stop offset="1" stop-opacity="0"/></linearGradient><radialGradient id="f" cx="605.71429" cy="486.64789" gradientTransform="matrix(2.774389 0 0 1.969706 -1891.633 -872.8854)" gradientUnits="userSpaceOnUse" r="117.14286" xlink:href="#e"/><linearGradient id="g" gradientTransform="matrix(2.774389 0 0 1.969706 -1892.179 -872.8854)" gradientUnits="userSpaceOnUse" x1="302.85715" x2="302.85715" y1="366.64789" y2="609.50507"><stop offset="0" stop-opacity="0"/><stop offset=".5"/><stop offset="1" stop-opacity="0"/></linearGradient><radialGradient id="h" cx="8.824419" cy="3.756129" gradientTransform="matrix(.968273 0 0 1.032767 3.353553 .646447)" gradientUnits="userSpaceOnUse" r="37.751713"><stop offset="0" stop-color="#a3a3a3"/><stop offset="1" stop-color="#4c4c4c"/></radialGradient><radialGradient id="i" cx="33.966679" cy="35.736916" gradientTransform="scale(.960493 1.041132)" gradientUnits="userSpaceOnUse" r="86.70845"><stop offset="0" stop-color="#fafafa"/><stop offset="1" stop-color="#bbb"/></radialGradient><radialGradient id="j" cx="8.143557" cy="7.267897" gradientTransform="matrix(.968273 0 0 1.032767 3.353553 .646447)" gradientUnits="userSpaceOnUse" r="38.158695"><stop offset="0" stop-color="#fff"/><stop offset="1" stop-color="#f8f8f8"/></radialGradient><linearGradient id="k"><stop offset="0" stop-color="#f0f0f0"/><stop offset="1" stop-color="#9a9a9a"/></linearGradient><radialGradient id="l" cx="9.4125070463" cy="30.2965131852" gradientUnits="userSpaceOnUse" r="1.207318968" xlink:href="#k"/><radialGradient id="m" cx="9.4125070463" cy="18.8112483337" gradientUnits="userSpaceOnUse" r="1.207548671" xlink:href="#k"/><linearGradient id="n" gradientUnits="userSpaceOnUse" x1="12.66999127854" x2="17.12184105246" y1="28.36678236286" y2="47.8733859827"><stop offset="0" stop-color="#184375"/><stop offset="1" stop-color="#c8bddc"/></linearGradient><g transform="matrix(.02105461 0 0 .02086758 42.85172 41.1536)"><path d="m-1559.2523-150.69685h1339.6335v478.35718h-1339.6335z" fill="url(#g)" opacity=".402062"/><path d="m-219.61876-150.68038v478.33079c142.874166.90045 345.40022-107.16966 345.40014-239.196175 0-132.026537-159.436816-239.134595-345.40014-239.134615z" fill="url(#f)" opacity=".402062"/><path d="m-1559.2523-150.68038v478.33079c-142.8742.90045-345.4002-107.16966-345.4002-239.196175 0-132.026537 159.4368-239.134595 345.4002-239.134615z" fill="url(#d)" opacity=".402062"/></g><g><rect display="block" fill="url(#i)" height="40.920494" ry="1.149049" stroke="url(#h)" stroke-linecap="round" stroke-linejoin="round" width="34.875" x="6.603553" y="3.646446"/><rect display="block" fill="none" height="38.946384" rx=".149049" stroke="url(#j)" stroke-linecap="round" stroke-linejoin="round" width="32.775887" x="7.666054" y="4.583946"/><g transform="translate(.646447 -.037989)"><g fill="#fff" stroke="none" transform="matrix(.229703 0 0 .229703 4.967081 4.244972)"><path d="m23.428 113.07c0 1.973-1.6 3.572-3.573 3.572-1.974 0-3.573-1.6-3.573-3.572 0-1.974 1.6-3.573 3.573-3.573s3.573 1.6 3.573 3.573z"/><path d="m23.428 63.07c0 1.973-1.6 3.573-3.573 3.573-1.974 0-3.573-1.6-3.573-3.573 0-1.974 1.6-3.573 3.573-3.573s3.573 1.6 3.573 3.573z"/></g><path d="m9.9950109 29.952326c0 .453204-.3675248.820499-.8207288.820499-.4534338 0-.8207289-.367524-.8207289-.820499 0-.453434.3675248-.820729.8207289-.820729.453204 0 .8207288.367525.8207288.820729z" fill="url(#l)"/><path d="m9.9950109 18.467176c0 .453204-.3675248.820729-.8207288.820729-.4534338 0-.8207289-.367525-.8207289-.820729 0-.453434.3675248-.820729.8207289-.820729.453204 0 .8207288.367525.8207288.820729z" fill="url(#m)"/></g><g fill="none"><path d="m11.505723 5.4942766v37.9065924" stroke="#000" stroke-opacity=".017544" stroke-width=".988553"/><path d="m12.5 5.0205154v38.0177126" stroke="#fff" stroke-opacity=".204678"/></g></g><g><g fill="#9b9b9b" fill-opacity=".549708" transform="matrix(.909091 0 0 1 2.363628 0)"><rect display="block" height="1" rx=".151565" ry=".065391" width="22.000004" x="15.000002" y="9"/><rect display="block" height="1" rx=".151565" ry=".065391" width="22.000004" x="15.000002" y="11"/><rect display="block" height="1" rx=".151565" ry=".065391" width="22.000004" x="15.000002" y="13"/><rect display="block" height="1" rx=".151565" ry=".065391" width="22.000004" x="15.000002" y="15"/><rect display="block" height="1" rx=".151565" ry=".065391" width="22.000004" x="15.000002" y="17"/><rect display="block" height="1" rx=".151565" ry=".065391" width="22.000004" x="15.000002" y="19"/><rect display="block" height="1" rx=".151565" ry=".065391" width="22.000004" x="15.000002" y="21"/><rect display="block" height="1" rx=".151565" ry=".065391" width="22.000004" x="15.000002" y="23"/><rect display="block" height="1" rx=".068204" ry=".065391" width="9.900005" x="14.999992" y="25"/><rect display="block" height="1" rx=".151565" ry=".065391" width="22.000004" x="14.999992" y="29"/><rect display="block" height="1" rx=".151565" ry=".065391" width="22.000004" x="14.999992" y="31"/><rect display="block" height="1" rx=".151565" ry=".065391" width="22.000004" x="14.999992" y="33"/><rect display="block" height="1" rx=".151565" ry=".065391" width="22.000004" x="14.999992" y="35"/><rect display="block" height="1" rx=".106096" ry=".065391" width="15.400014" x="14.999992" y="37"/></g><path d="m30.708637 15.271057a12.929953 9.2934036 0 1 1 -25.859905 0 12.929953 9.2934036 0 1 1 25.859905 0z" fill="url(#c)" opacity=".421594" transform="matrix(.569589 0 0 .681378 -26.09093 -9.346853)"/><path d="m19.177589-35.03716-.625444 13.927064c8.607529-1.870907 8.901203-8.176991 19.603544-10.245789l-.125842-3.629788z" fill="url(#b)" fill-rule="evenodd" opacity=".531429"/><path d="m44.285715 38.714287a19.928572 9.837245 0 1 1 -39.8571433 0 19.928572 9.837245 0 1 1 39.8571433 0z" fill="url(#a)" fill-rule="evenodd" transform="matrix(.49448 0 0 .49448 25.07898 24.26582)"/><path d="m36.432204 27.909522c-.197218.013495-.388908.04404-.582621.066207h-.013241l-.463448 2.529104c-.755384.172028-1.466048.463974-2.10538.86069l-2.078896-1.496276c-.561981.436305-1.073378.945157-1.52276 1.496276l1.443311 2.105379c-.43823.669702-.767775 1.434402-.953379 2.237794-.000032.003797-.000026.012579 0 .013241l-2.515863.397241c-.045996.375688-.066206.763949-.066206 1.152 0 .317497.008766.630751.039724.940138l2.515862.450207c.17893.873674.518833 1.689606.993104 2.409931l-1.496277 2.052415c.428524.531993.92325 1.016351 1.456553 1.44331l2.11862-1.456552c.74043.472333 1.566967.80354 2.462897.966621l.397241 2.50262c.282278.025695.571752.026483.86069.026483.407913 0 .797549-.015458 1.191724-.066207l.47669-2.555586c.850652-.211693 1.649757-.57893 2.343724-1.072552l2.039173 1.483035c.528819-.449909 1.012394-.967047 1.430069-1.522759l-1.483035-2.145103c.401628-.693633.67992-1.458942.820966-2.277518l2.502621-.397241c.021947-.261161.026482-.514438.026482-.781242 0-.463645-.05389-.918245-.119172-1.363862l-2.542345-.463448c-.199232-.73568-.526128-1.422062-.940138-2.039173l1.496276-2.052414c-.463797-.5672-.992861-1.091166-1.575724-1.536l-2.158345 1.483035c-.620331-.366876-1.287894-.648375-2.01269-.807724l-.397241-2.515863c-.361564-.042531-.726103-.066207-1.099035-.066207-.100792.000001-.204525-.003171-.304552 0-.048763.001547-.097018-.002836-.145655 0-.013173.000769-.026576-.000899-.039724 0zm.344276 6.435311c.048375-.002454.096673 0 .145655 0 1.567409 0 2.846897 1.279488 2.846897 2.846897s-1.279488 2.833655-2.846897 2.833655c-1.567409.000001-2.833655-1.266246-2.833655-2.833655 0-1.518427 1.188376-2.770799 2.688-2.846897z" fill="url(#n)" stroke="#3f4561" stroke-linecap="round" stroke-linejoin="round"/><path d="m36.239223 23.781593a12.727922 12.727922 0 1 1 -25.455844 0 12.727922 12.727922 0 1 1 25.455844 0z" fill="none" opacity=".647727" stroke="#fff" stroke-width="1.621801" transform="matrix(.256996 0 0 .256996 30.88151 31.07393)"/><path d="m36.138897 28.410095-.37211 2.448706c-.708042.161246-2.010454.654404-2.609719 1.026257l-1.979653-1.477606c-.526761.408961-.562885.436695-.984103.953274l1.431363 2.122839c-.410765.627731-.904144 1.746377-1.08129 2.545772 0 0-2.508197.422809-2.508197.422809-.043114.352143-.022394 1.105835.006623 1.395832l2.39584.4316c.167716.818918.795343 2.13709 1.239891 2.812271l-1.515058 2.001692c.401667.498652.482056.544283.981935.944483l2.025897-1.484229c.694025.44273 2.071601.981297 2.911381 1.134157l.33249 2.417878c.264587.024084.995533.091643 1.365004.044076l.372109-2.516987c.79734-.198425 2.175044-.763958 2.825519-1.226643l2.02373 1.46219c.495678-.421711.500119-.485255.891617-1.006139l-1.499644-2.13163c.376457-.650161.863223-1.921684.995429-2.688957l2.45533-.407396c.02057-.244793.021571-.927442-.03962-1.345131l-2.501573-.4316c-.186746-.689574-.827623-1.932175-1.215685-2.51061l1.589962-2.001691c-.434729-.531653-.596368-.6046-1.142702-1.021555l-2.094177 1.499643c-.581454-.343883-1.740919-.868103-2.42029-1.017466l-.369944-2.395839c-.338903-.039866-1.316678-.022164-1.510355 0z" fill="none" opacity=".346591" stroke="#fff" stroke-width=".417"/><g fill="#fff"><path d="m31.18197 30.139218c-.561982.436305-.807443.698075-1.256824 1.249194l1.418134 2.06938c-.438229.666293-.899573 1.736777-.978448 2.387644 0 0-2.526832.435217-2.526832.435217-.028748.234805-.072371.772284-.072371.772284l.07368.651246c.178277.036817.350174.07107.534021.091174l.208399-.638221c.143395.011869.283277.02605.429822.02605.146382 0 .299451-.0141.442847-.02605l.195373.638221c.183928-.020104.368771-.054357.547046-.091174v-.651246c.285822-.06653.555174-.161616.820569-.273523l.390748.534021c.167698-.075896.323266-.15664.481921-.247473l-.208398-.625195c.248925-.150985.484214-.331499.703345-.520997l.534021.390748c.135724-.123614.267214-.255023.390747-.390748l-.390747-.520996c.189578-.21913.356986-.454259.507971-.703345l.625196.195374c.090833-.158736.184763-.314304.260498-.481922l-.534021-.390747c.111905-.265395.193806-.534747.260498-.820569h.66427c.036818-.178275.058126-.363119.078149-.547046l-.625195-.195374c.01203-.143314.02605-.296383.02605-.442846-.000001-.146464-.014181-.286346-.02605-.429822l.625195-.195374c-.018983-.175008-.04401-.350942-.078149-.520996-.478245.166427-1.063941.480617-1.487345.743345l-2.03412-1.470234z" opacity=".5"/><path d="m42.49123 34.690928c-.159959.075597-.311196.160782-.464064.24822l.237429.723076c-.290547.176014-.564648.383324-.820206.604362l-.615154-.453271c-.158419.144169-.309169.294918-.453272.453271l.453272.615154c-.221039.255627-.428281.529726-.604362.820206l-.226636-.075545c-.019874.291876-.098522.567463-.215843.820205l.043168.032377c-.130523.309547-.235302.637865-.312973.971296h-.615154c-.056803.035616-.112766.077132-.172675.107922-.032665.173082-.056231.340659-.075545.518025l.733868.237427c-.013916.167251-.021585.336437-.021585.507233-.000001.170862.00767.339982.021585.507232l-.733868.237428c.023348.214548.05418.428746.097129.636739l.766245-.010793c.053399.229233.126316.461578.205051.679908.310479-.119738.61429-.26266.895751-.431687-.171548-.506843-.269804-1.054125-.269804-1.618827 0-2.166483 1.372254-4.016529 3.291614-4.726974l-.453271-.075546c-.092857-.342883-.213118-.678792-.366934-.99288-.004524-.009238-.006221-.023166-.010792-.032377l-.021585-.021584-.291389-.280597z" opacity=".5"/></g></g></svg>