<svg height="52" viewBox="0 0 48 48" width="52" xmlns="http://www.w3.org/2000/svg" xmlns:xlink="http://www.w3.org/1999/xlink"><linearGradient id="a"><stop offset="0" stop-color="#fff"/><stop offset="1" stop-color="#fff" stop-opacity="0"/></linearGradient><linearGradient id="b"><stop offset="0"/><stop offset="1" stop-opacity="0"/></linearGradient><radialGradient id="c" cx="28.019106" cy="38.98439" gradientTransform="matrix(1 0 0 .342857 0 25.61831)" gradientUnits="userSpaceOnUse" r="15.467961" xlink:href="#b"/><linearGradient id="d" gradientTransform="matrix(1.196436 0 0 .698254 6.238107 2.729113)" gradientUnits="userSpaceOnUse" x1="11.492236" x2="17.199417" y1="1.653758" y2="26.729263"><stop offset="0" stop-color="#fff"/><stop offset="1" stop-color="#fcfcff" stop-opacity="0"/></linearGradient><radialGradient id="e" cx="605.71429" cy="486.64789" gradientTransform="matrix(-2.774389 0 0 1.969706 112.7623 -872.8854)" gradientUnits="userSpaceOnUse" r="117.14286" xlink:href="#b"/><radialGradient id="f" cx="605.71429" cy="486.64789" gradientTransform="matrix(2.774389 0 0 1.969706 -1891.633 -872.8854)" gradientUnits="userSpaceOnUse" r="117.14286" xlink:href="#b"/><linearGradient id="g" gradientTransform="matrix(2.774389 0 0 1.969706 -1892.179 -872.8854)" gradientUnits="userSpaceOnUse" x1="302.85715" x2="302.85715" y1="366.64789" y2="609.50507"><stop offset="0" stop-opacity="0"/><stop offset=".5"/><stop offset="1" stop-opacity="0"/></linearGradient><radialGradient id="h" cx="8.824419" cy="3.756129" gradientTransform="matrix(.968273 0 0 1.032767 3.353553 .646447)" gradientUnits="userSpaceOnUse" r="37.751713"><stop offset="0" stop-color="#a3a3a3"/><stop offset="1" stop-color="#4c4c4c"/></radialGradient><radialGradient id="i" cx="33.966679" cy="35.736916" gradientTransform="scale(.960493 1.041132)" gradientUnits="userSpaceOnUse" r="86.70845"><stop offset="0" stop-color="#fafafa"/><stop offset="1" stop-color="#bbb"/></radialGradient><radialGradient id="j" cx="8.143557" cy="7.267897" gradientTransform="matrix(.968273 0 0 1.032767 3.353553 .646447)" gradientUnits="userSpaceOnUse" r="38.158695"><stop offset="0" stop-color="#fff"/><stop offset="1" stop-color="#f8f8f8"/></radialGradient><linearGradient id="k"><stop offset="0" stop-color="#f0f0f0"/><stop offset="1" stop-color="#9a9a9a"/></linearGradient><radialGradient id="l" cx="9.4125070463" cy="30.2965131852" gradientUnits="userSpaceOnUse" r="1.207318968" xlink:href="#k"/><radialGradient id="m" cx="9.4125070463" cy="18.8112483337" gradientUnits="userSpaceOnUse" r="1.207548671" xlink:href="#k"/><linearGradient id="n" gradientTransform="matrix(.834638 0 0 -.603116 7.173497 30.07459)" gradientUnits="userSpaceOnUse" x1="21.9326" x2="21.9326" y1="24.627399" y2="7.1091"><stop offset="0" stop-color="#8595bc"/><stop offset="1" stop-color="#041a3b"/></linearGradient><radialGradient id="o" cx="26.109201" cy="19.668886" gradientTransform="matrix(.904883 0 0 .696518 11.48288 20.25182)" gradientUnits="userSpaceOnUse" r="20.278975" xlink:href="#a"/><linearGradient id="p" gradientUnits="userSpaceOnUse" x1="39.31659067187" x2="39.48419192621" xlink:href="#a" y1="45.52680111823" y2="21.12666320593"/><g transform="matrix(.02105461 0 0 .02086758 42.85172 41.1536)"><path d="m-1559.2523-150.69685h1339.6335v478.35718h-1339.6335z" fill="url(#g)" opacity=".402062"/><path d="m-219.61876-150.68038v478.33079c142.874166.90045 345.40022-107.16966 345.40014-239.196175 0-132.026537-159.436816-239.134595-345.40014-239.134615z" fill="url(#f)" opacity=".402062"/><path d="m-1559.2523-150.68038v478.33079c-142.8742.90045-345.4002-107.16966-345.4002-239.196175 0-132.026537 159.4368-239.134595 345.4002-239.134615z" fill="url(#e)" opacity=".402062"/></g><g><rect display="block" fill="url(#i)" height="40.920494" ry="1.149049" stroke="url(#h)" stroke-linecap="round" stroke-linejoin="round" width="34.875" x="6.603553" y="3.646446"/><rect display="block" fill="none" height="38.946384" rx=".149049" stroke="url(#j)" stroke-linecap="round" stroke-linejoin="round" width="32.775887" x="7.666054" y="4.583946"/><g transform="translate(.646447 -.037989)"><g fill="#fff" stroke="none" transform="matrix(.229703 0 0 .229703 4.967081 4.244972)"><path d="m23.428 113.07c0 1.973-1.6 3.572-3.573 3.572-1.974 0-3.573-1.6-3.573-3.572 0-1.974 1.6-3.573 3.573-3.573s3.573 1.6 3.573 3.573z"/><path d="m23.428 63.07c0 1.973-1.6 3.573-3.573 3.573-1.974 0-3.573-1.6-3.573-3.573 0-1.974 1.6-3.573 3.573-3.573s3.573 1.6 3.573 3.573z"/></g><path d="m9.9950109 29.952326c0 .453204-.3675248.820499-.8207288.820499-.4534338 0-.8207289-.367524-.8207289-.820499 0-.453434.3675248-.820729.8207289-.820729.453204 0 .8207288.367525.8207288.820729z" fill="url(#l)"/><path d="m9.9950109 18.467176c0 .453204-.3675248.820729-.8207288.820729-.4534338 0-.8207289-.367525-.8207289-.820729 0-.453434.3675248-.820729.8207289-.820729.453204 0 .8207288.367525.8207288.820729z" fill="url(#m)"/></g><g fill="none"><path d="m11.505723 5.4942766v37.9065924" stroke="#000" stroke-opacity=".017544" stroke-width=".988553"/><path d="m12.5 5.0205154v38.0177126" stroke="#fff" stroke-opacity=".204678"/></g></g><g><path d="m12.84405 24.537533h25.920779v-7.84186h-25.920779z" fill="url(#n)" opacity=".664773"/><path d="m12.84405 6.1505949h25.920779v10.5450781h-25.920779z" fill="#729fcf" opacity=".664773"/><g opacity=".867925" stroke="none" stroke-width="2.001971" transform="matrix(.903163 0 0 .899066 5.980013 -3.083783)"><path d="m18.4 15.4c0 2.2-1.8 4.1-4.1 4.1-2.2 0-4.1-1.8-4.1-4.1 0-2.2 1.8-4.1 4.1-4.1 2.2 0 4.1 1.8 4.1 4.1z" fill="#e8f52f" opacity=".05"/><path d="m18 15.4c0 2-1.6 3.7-3.7 3.7-2 0-3.7-1.6-3.7-3.7 0-2 1.6-3.7 3.7-3.7 2 0 3.7 1.6 3.7 3.7z" fill="#ecf751" opacity=".2083"/><path d="m17.6 15.4c0 1.8-1.5 3.3-3.3 3.3s-3.3-1.5-3.3-3.3 1.5-3.3 3.3-3.3 3.3 1.5 3.3 3.3z" fill="#f0f972" opacity=".3667"/><path d="m17.2 15.4c0 1.6-1.3 2.9-2.9 2.9s-2.9-1.3-2.9-2.9 1.3-2.9 2.9-2.9 2.9 1.3 2.9 2.9z" fill="#f4fa95" opacity=".525"/><path d="m16.8 15.4c0 1.4-1.1 2.5-2.5 2.5s-2.5-1.1-2.5-2.5 1.1-2.5 2.5-2.5 2.5 1.1 2.5 2.5z" fill="#f7fcb7" opacity=".6833"/><path d="m16.4 15.4c0 1.2-1 2.1-2.1 2.1s-2.1-1-2.1-2.1 1-2.1 2.1-2.1 2.1 1 2.1 2.1z" fill="#fbfddb" opacity=".8417"/><path d="m16 15.4c0 1-.8 1.8-1.8 1.8s-1.8-.8-1.8-1.8.8-1.8 1.8-1.8 1.8.8 1.8 1.8z" fill="#fff"/></g><path d="m27.655923 18.224085h6.593092l1.264428.359627h-2.167591s2.167591.179812 3.251388 1.528412c1.083795 1.258693-1.264428 2.787106-1.264428 2.787106-.090317-.26972-.632216-2.42748-1.716011-3.326546-.812848-.719253-1.71601-.899066-1.71601-.899066h-4.244868v-.359626z" opacity=".199432"/><path d="m31.991109 18.763524h-3.793287l7.044673 3.955892z" opacity=".199432"/><path d="m27.655923 18.313992h6.593092l.99348-.629347h-2.167591s1.986957-.359626 2.257908-2.607293c.270947-2.247665-3.070756-4.765049-3.070756-4.765049v.089906c.090316.53944.993478 4.315518.361266 5.754025-.27095 1.25869-1.083797 1.528411-1.083797 1.528411h-4.15455l.180633.629347z" fill="#2e3436" opacity=".861635"/><path d="m31.629843 17.325019h-3.793286l4.515815-6.832904z" fill="#2e3436" opacity=".664773"/><path d="m13.253185 6.756373h24.936352v17.456209h-24.936352z" fill="none" opacity=".664773" stroke="#9e9e9e" stroke-width="1.247096"/><path d="m14.08025 7.4658531-.774975 13.9270639c10.665414-1.870907 11.029299-8.176991 24.290351-10.245789l-.155929-3.6297879z" fill="url(#d)" fill-rule="evenodd" opacity=".531429"/><path d="m43.487067 38.98439a15.467961 5.3033009 0 1 1 -30.935922 0 15.467961 5.3033009 0 1 1 30.935922 0z" fill="url(#c)" opacity=".548571" transform="matrix(.700015 0 0 .756508 15.82541 14.26183)"/><path d="m28.799481 38.869676c.005374.316794.107931.932724.258802 1.41588.319477 1.01855.860727 1.962601 1.614577 2.794211.773188.853188 1.724111 1.539922 2.823226 2.026929 1.156555.511749 2.408739.773188 3.708112.77113 1.299373-.002751 2.55146-.268455 3.707467-.783917 1.098689-.491816 2.049607-1.180195 2.822251-2.035585.752159-.834909 1.292362-1.78047 1.611809-2.799573.16165-.515474.261992-1.037917.303916-1.563038.040274-.515998.023092-1.034687-.050446-1.55122-.142817-1.008366-.492369-1.953914-1.02872-2.816779-.491956-.791982-1.124941-1.48571-1.877239-2.069347 0 0 .001096-.001088.001096-.001088s-7.596511-5.833826-7.596511-5.833826c-.006462-.005371-.012373-.010741-.019384-.015571-.499351-.382299-1.337517-.381228-1.885182.002683-.5552.38767-.59978.993898-.10741 1.399834 1.04362.823878 2.08313 1.685394 3.132533 2.509171 0 0-9.641823-.006431-9.641823-.006431-1.095758 0-1.740449.520727-1.876209 1.281983-.119799.671752.410862 1.504162 1.362372 1.504162 1.624161.002121 3.264233-.003768 4.894179-.006986 0 0-8.735436 6.462513-8.735436 6.462513-.011277.008593-.022553.01611-.033829.024703-.822591.630855-1.089446 1.680605-.571302 2.344795.527274.675462 1.64679.67601 2.480117.003299 0 0 4.76694-3.90146 4.76694-3.90146s-.068728.527269-.063906.843528z" fill="#f57900" fill-rule="evenodd" stroke="#ce5c00"/><path d="m34.154712 26.747596c-.222401.000303-.4497.069048-.601676.175583-.000392.000392-.000781.000785-.001173.001173-.15393.107479-.18505.20216-.189635.252845-.004586.050686-.007273.091892.104185.18378.010432.008644.020582.017621.030432.026923.06826.055499 3.133646 2.548355 3.133646 2.548355.205265.16705.283371.445093.195124.694593-.088243.249505-.323793.21025-.588438.211102-3.095054.028091-9.673678.010533-9.673678.010533-.523502.000351-1.289452.283895-1.325869.871121-.034918.563043.499517.800661.866999.800661 0 0 4.850884-.009366 4.850884-.009366.268278-.000324.506962.121697.593543.375614.086581.253921.001826.292006-.210762.455643 0 0-8.734871 6.705086-8.734871 6.705086-.000781.000785-.001561.001565-.002342.002341-.035178.026805-.046568.0342-.033946.024586-.304156.233259-.492268.538748-.559541.81121-.067269.272461-.025594.484818.103012.649673.263042.336972.971986.402177 1.591991-.098329 0 0 4.764266-3.899203 4.764266-3.899203.198836-.162468.476693-.187108.701017-.062168.22432.12494.349661.374145.316217.628728 0 0-.061802.538377-.058532.752682.105669 1.448281.795623 2.699998 1.711392 3.798536 1.580858 1.742948 3.762637 2.502945 6.06595 2.592836 2.309102-.024137 4.49677-.913237 6.065946-2.613907 2.866955-3.508006 2.16535-7.341312-.959874-9.884382-2.470041-2.009931-5.061218-3.889984-7.592385-5.834176-.002359-.001932-.0047-.003885-.007024-.005851-.003936-.002687-.007838-.005421-.011707-.008197-.115659-.088546-.321168-.158333-.543151-.158025z" fill="none" opacity=".485714" stroke="url(#p)"/><path d="m34.163233 26.750051c-.222401.000304-.46603.065134-.618006.171668-.15393.10748-.18425.206817-.188836.257503s-.008456.096947.103001.188835c.010433.008644.024484.007865.034334.017167.06826.055499 3.141532 2.55786 3.141532 2.55786.205265.167049.277083.437173.188836.686674-.088243.249504-.319028.20515-.583673.206002-3.095054.028091-9.6821.017166-9.6821.017166-.523502.000351-1.28543.288284-1.321847.87551-.034917.563043.508027.789674.875509.789674h4.84105c.268278-.000325.514259.123754.60084.377671.08658.253921-.010581.282701-.223169.446338 0 0-8.720757 6.712236-8.720757 6.712236-.00078.000785-.016386-.000776-.017167 0-.035178.026804-.029788.026781-.017167.017167-.304155.233259-.499233.551546-.566505.824008-.067269.272462-.025605.470318.103001.635173.263041.336972.976511.414673 1.596516-.085834 0 .000001 4.755216-3.896873 4.755216-3.896873.198836-.162469.479516-.193608.70384-.068668.22432.12494.342448.38059.309004.635173 0 0-.054771.52387-.051501.738175.052176.715105.24809 1.385337.543318 2.012906 1.441124 2.523859 5.270601-6.775482 14.288835-5.875446-.465756-.81718-1.118574-1.563395-1.939853-2.23169-2.47004-2.009931-5.073745-3.892535-7.604912-5.836727-.003936-.002687-.013298-.014391-.017167-.017167-.115659-.088546-.310189-.154809-.532172-.154501z" fill="url(#o)" fill-rule="evenodd" opacity=".52"/></g></svg>