<?xml version="1.0" encoding="UTF-8" standalone="no"?>
<!-- Created with Inkscape (http://www.inkscape.org/) -->
<svg
   xmlns:dc="http://purl.org/dc/elements/1.1/"
   xmlns:cc="http://web.resource.org/cc/"
   xmlns:rdf="http://www.w3.org/1999/02/22-rdf-syntax-ns#"
   xmlns:svg="http://www.w3.org/2000/svg"
   xmlns="http://www.w3.org/2000/svg"
   xmlns:xlink="http://www.w3.org/1999/xlink"
   xmlns:sodipodi="http://sodipodi.sourceforge.net/DTD/sodipodi-0.dtd"
   xmlns:inkscape="http://www.inkscape.org/namespaces/inkscape"
   inkscape:export-ydpi="97.5"
   inkscape:export-xdpi="97.5"
   inkscape:export-filename="/Users/izoo/Sites/spip-zone/_graphismes_/logos/spip_tango/tango_vignettes/png/blend.png"
   sodipodi:docname="blend.svg"
   sodipodi:docbase="/Users/izoo/Sites/spip-zone/_graphismes_/logos/spip_tango/tango_vignettes/svg"
   inkscape:version="0.44.1"
   sodipodi:version="0.32"
   id="svg249"
   height="48.000000px"
   width="48.000000px">
  <defs
     id="defs3">
    <linearGradient
       inkscape:collect="always"
       id="linearGradient39171">
      <stop
         style="stop-color:white;stop-opacity:1;"
         offset="0"
         id="stop39173" />
      <stop
         style="stop-color:white;stop-opacity:0;"
         offset="1"
         id="stop39175" />
    </linearGradient>
    <radialGradient
       inkscape:collect="always"
       xlink:href="#linearGradient39171"
       id="radialGradient39177"
       cx="26.109201"
       cy="19.668886"
       fx="26.109201"
       fy="19.668886"
       r="20.278975"
       gradientTransform="matrix(1.647222,0,0,1.26792,-15.47413,-5.79794)"
       gradientUnits="userSpaceOnUse" />
    <linearGradient
       inkscape:collect="always"
       id="linearGradient3564">
      <stop
         style="stop-color:white;stop-opacity:1;"
         offset="0"
         id="stop3566" />
      <stop
         style="stop-color:white;stop-opacity:0;"
         offset="1"
         id="stop3568" />
    </linearGradient>
    <linearGradient
       inkscape:collect="always"
       xlink:href="#linearGradient3564"
       id="linearGradient34576"
       gradientUnits="userSpaceOnUse"
       x1="185.9903"
       y1="193.33229"
       x2="190.46461"
       y2="-458.05771"
       gradientTransform="matrix(6.818845e-2,0,0,6.818845e-2,22.51112,27.02885)" />
    <linearGradient
       inkscape:collect="always"
       id="linearGradient35488">
      <stop
         style="stop-color:black;stop-opacity:1;"
         offset="0"
         id="stop35490" />
      <stop
         style="stop-color:black;stop-opacity:0;"
         offset="1"
         id="stop35492" />
    </linearGradient>
    <radialGradient
       inkscape:collect="always"
       xlink:href="#linearGradient35488"
       id="radialGradient35494"
       cx="28.019106"
       cy="38.98439"
       fx="28.019106"
       fy="38.98439"
       r="15.467961"
       gradientTransform="matrix(1,0,0,0.342857,0,25.61831)"
       gradientUnits="userSpaceOnUse" />
    <linearGradient
       id="linearGradient2667">
      <stop
         id="stop2669"
         offset="0.0000000"
         style="stop-color:#ffffff;stop-opacity:1.0000000;" />
      <stop
         id="stop2671"
         offset="1.0000000"
         style="stop-color:#fcfcff;stop-opacity:0.0000000;" />
    </linearGradient>
    <linearGradient
       inkscape:collect="always"
       xlink:href="#linearGradient2667"
       id="linearGradient13821"
       gradientUnits="userSpaceOnUse"
       gradientTransform="matrix(1.196436,0,0,0.698254,6.238107,2.729113)"
       x1="11.492236"
       y1="1.6537577"
       x2="17.199417"
       y2="26.729263" />
    <radialGradient
       inkscape:collect="always"
       xlink:href="#linearGradient5060"
       id="radialGradient6719"
       gradientUnits="userSpaceOnUse"
       gradientTransform="matrix(-2.774389,0,0,1.969706,112.7623,-872.8854)"
       cx="605.71429"
       cy="486.64789"
       fx="605.71429"
       fy="486.64789"
       r="117.14286" />
    <linearGradient
       inkscape:collect="always"
       id="linearGradient5060">
      <stop
         style="stop-color:black;stop-opacity:1;"
         offset="0"
         id="stop5062" />
      <stop
         style="stop-color:black;stop-opacity:0;"
         offset="1"
         id="stop5064" />
    </linearGradient>
    <radialGradient
       inkscape:collect="always"
       xlink:href="#linearGradient5060"
       id="radialGradient6717"
       gradientUnits="userSpaceOnUse"
       gradientTransform="matrix(2.774389,0,0,1.969706,-1891.633,-872.8854)"
       cx="605.71429"
       cy="486.64789"
       fx="605.71429"
       fy="486.64789"
       r="117.14286" />
    <linearGradient
       id="linearGradient5048">
      <stop
         style="stop-color:black;stop-opacity:0;"
         offset="0"
         id="stop5050" />
      <stop
         id="stop5056"
         offset="0.5"
         style="stop-color:black;stop-opacity:1;" />
      <stop
         style="stop-color:black;stop-opacity:0;"
         offset="1"
         id="stop5052" />
    </linearGradient>
    <linearGradient
       inkscape:collect="always"
       xlink:href="#linearGradient5048"
       id="linearGradient6715"
       gradientUnits="userSpaceOnUse"
       gradientTransform="matrix(2.774389,0,0,1.969706,-1892.179,-872.8854)"
       x1="302.85715"
       y1="366.64789"
       x2="302.85715"
       y2="609.50507" />
    <linearGradient
       id="linearGradient7648"
       gradientUnits="userSpaceOnUse"
       x1="21.9326"
       y1="24.6274"
       x2="21.9326"
       y2="7.1091"
       style="stroke-dasharray:none;stroke-miterlimit:4.0000000;stroke-width:1.2166667">
      <stop
         offset="0"
         style="stop-color:#8595bc;stop-opacity:1;"
         id="stop7650" />
      <stop
         offset="1"
         style="stop-color:#041a3b;stop-opacity:1;"
         id="stop7652" />
    </linearGradient>
    <linearGradient
       inkscape:collect="always"
       id="linearGradient4542">
      <stop
         style="stop-color:#000000;stop-opacity:1;"
         offset="0"
         id="stop4544" />
      <stop
         style="stop-color:#000000;stop-opacity:0;"
         offset="1"
         id="stop4546" />
    </linearGradient>
    <linearGradient
       id="linearGradient15662">
      <stop
         id="stop15664"
         offset="0.0000000"
         style="stop-color:#ffffff;stop-opacity:1.0000000;" />
      <stop
         id="stop15666"
         offset="1.0000000"
         style="stop-color:#f8f8f8;stop-opacity:1.0000000;" />
    </linearGradient>
    <radialGradient
       id="aigrd3"
       cx="20.8921"
       cy="64.5679"
       r="5.257"
       fx="20.8921"
       fy="64.5679"
       gradientUnits="userSpaceOnUse">
      <stop
         offset="0"
         style="stop-color:#F0F0F0"
         id="stop15573" />
      <stop
         offset="1.0000000"
         style="stop-color:#9a9a9a;stop-opacity:1.0000000;"
         id="stop15575" />
    </radialGradient>
    <radialGradient
       id="aigrd2"
       cx="20.8921"
       cy="114.5684"
       r="5.256"
       fx="20.8921"
       fy="114.5684"
       gradientUnits="userSpaceOnUse">
      <stop
         offset="0"
         style="stop-color:#F0F0F0"
         id="stop15566" />
      <stop
         offset="1.0000000"
         style="stop-color:#9a9a9a;stop-opacity:1.0000000;"
         id="stop15568" />
    </radialGradient>
    <linearGradient
       id="linearGradient269">
      <stop
         id="stop270"
         offset="0.0000000"
         style="stop-color:#a3a3a3;stop-opacity:1.0000000;" />
      <stop
         id="stop271"
         offset="1.0000000"
         style="stop-color:#4c4c4c;stop-opacity:1.0000000;" />
    </linearGradient>
    <linearGradient
       id="linearGradient259">
      <stop
         id="stop260"
         offset="0.0000000"
         style="stop-color:#fafafa;stop-opacity:1.0000000;" />
      <stop
         id="stop261"
         offset="1.0000000"
         style="stop-color:#bbbbbb;stop-opacity:1.0000000;" />
    </linearGradient>
    <radialGradient
       inkscape:collect="always"
       xlink:href="#linearGradient269"
       id="radialGradient15656"
       gradientUnits="userSpaceOnUse"
       gradientTransform="matrix(0.968273,0.000000,0.000000,1.032767,3.353553,0.646447)"
       cx="8.8244190"
       cy="3.7561285"
       fx="8.8244190"
       fy="3.7561285"
       r="37.751713" />
    <radialGradient
       inkscape:collect="always"
       xlink:href="#linearGradient259"
       id="radialGradient15658"
       gradientUnits="userSpaceOnUse"
       gradientTransform="scale(0.960493,1.041132)"
       cx="33.966679"
       cy="35.736916"
       fx="33.966679"
       fy="35.736916"
       r="86.708450" />
    <radialGradient
       inkscape:collect="always"
       xlink:href="#linearGradient15662"
       id="radialGradient15668"
       gradientUnits="userSpaceOnUse"
       gradientTransform="matrix(0.968273,0.000000,0.000000,1.032767,3.353553,0.646447)"
       cx="8.1435566"
       cy="7.2678967"
       fx="8.1435566"
       fy="7.2678967"
       r="38.158695" />
    <radialGradient
       r="5.256"
       fy="114.5684"
       fx="20.8921"
       cy="114.5684"
       cx="20.8921"
       gradientTransform="matrix(0.229703,0.000000,0.000000,0.229703,4.613529,3.979808)"
       gradientUnits="userSpaceOnUse"
       id="radialGradient2283"
       xlink:href="#aigrd2"
       inkscape:collect="always" />
    <radialGradient
       r="5.257"
       fy="64.5679"
       fx="20.8921"
       cy="64.5679"
       cx="20.8921"
       gradientTransform="matrix(0.229703,0.000000,0.000000,0.229703,4.613529,3.979808)"
       gradientUnits="userSpaceOnUse"
       id="radialGradient2285"
       xlink:href="#aigrd3"
       inkscape:collect="always" />
    <radialGradient
       inkscape:collect="always"
       xlink:href="#linearGradient4542"
       id="radialGradient4548"
       cx="24.306795"
       cy="42.07798"
       fx="24.306795"
       fy="42.07798"
       r="15.821514"
       gradientTransform="matrix(1.000000,0.000000,0.000000,0.284916,0.000000,30.08928)"
       gradientUnits="userSpaceOnUse" />
    <linearGradient
       inkscape:collect="always"
       xlink:href="#linearGradient7648"
       id="linearGradient13118"
       gradientUnits="userSpaceOnUse"
       gradientTransform="matrix(0.834638,0,0,-0.603116,7.173497,30.07459)"
       x1="21.9326"
       y1="24.627399"
       x2="21.9326"
       y2="7.1090999" />
    <radialGradient
       inkscape:collect="always"
       xlink:href="#linearGradient39171"
       id="radialGradient13596"
       gradientUnits="userSpaceOnUse"
       gradientTransform="matrix(0.904883,0,0,0.696518,11.48288,20.25182)"
       cx="26.109201"
       cy="19.668886"
       fx="26.109201"
       fy="19.668886"
       r="20.278975" />
    <linearGradient
       inkscape:collect="always"
       xlink:href="#linearGradient3564"
       id="linearGradient13599"
       gradientUnits="userSpaceOnUse"
       gradientTransform="matrix(3.745857e-2,0,0,3.745857e-2,32.34966,38.28485)"
       x1="185.9903"
       y1="193.33229"
       x2="190.46461"
       y2="-458.05771" />
  </defs>
  <sodipodi:namedview
     inkscape:window-y="207"
     inkscape:window-x="271"
     inkscape:window-height="791"
     inkscape:window-width="1018"
     inkscape:document-units="px"
     inkscape:grid-bbox="true"
     showgrid="false"
     inkscape:current-layer="layer5"
     inkscape:cy="29.288954"
     inkscape:cx="28.429069"
     inkscape:zoom="7.4521643"
     inkscape:pageshadow="2"
     inkscape:pageopacity="0.0"
     borderopacity="0.25490196"
     bordercolor="#666666"
     pagecolor="#ffffff"
     id="base"
     inkscape:showpageshadow="false"
     fill="#729fcf" />
  <metadata
     id="metadata4">
    <rdf:RDF>
      <cc:Work
         rdf:about="">
        <dc:format>image/svg+xml</dc:format>
        <dc:type
           rdf:resource="http://purl.org/dc/dcmitype/StillImage" />
        <dc:title>Office Document</dc:title>
        <dc:subject>
          <rdf:Bag>
            <rdf:li>rich</rdf:li>
            <rdf:li>text</rdf:li>
            <rdf:li>document</rdf:li>
            <rdf:li>pdf</rdf:li>
            <rdf:li>openoffice</rdf:li>
            <rdf:li>word</rdf:li>
            <rdf:li>rtf</rdf:li>
          </rdf:Bag>
        </dc:subject>
        <cc:license
           rdf:resource="http://creativecommons.org/licenses/by-sa/2.0/" />
        <dc:creator>
          <cc:Agent>
            <dc:title>Jakub Steiner</dc:title>
          </cc:Agent>
        </dc:creator>
        <dc:source>http://jimmac.musichall.cz</dc:source>
      </cc:Work>
      <cc:License
         rdf:about="http://creativecommons.org/licenses/by/2.0/">
        <cc:permits
           rdf:resource="http://web.resource.org/cc/Reproduction" />
        <cc:permits
           rdf:resource="http://web.resource.org/cc/Distribution" />
        <cc:requires
           rdf:resource="http://web.resource.org/cc/Notice" />
        <cc:requires
           rdf:resource="http://web.resource.org/cc/Attribution" />
        <cc:permits
           rdf:resource="http://web.resource.org/cc/DerivativeWorks" />
        <cc:requires
           rdf:resource="http://web.resource.org/cc/ShareAlike" />
      </cc:License>
    </rdf:RDF>
  </metadata>
  <g
     inkscape:groupmode="layer"
     id="layer6"
     inkscape:label="Shadow">
    <g
       style="display:inline"
       transform="matrix(2.105461e-2,0,0,2.086758e-2,42.85172,41.1536)"
       id="g6707">
      <rect
         style="opacity:0.40206185;color:black;fill:url(#linearGradient6715);fill-opacity:1;fill-rule:nonzero;stroke:none;stroke-width:1;stroke-linecap:round;stroke-linejoin:miter;marker:none;marker-start:none;marker-mid:none;marker-end:none;stroke-miterlimit:4;stroke-dasharray:none;stroke-dashoffset:0;stroke-opacity:1;visibility:visible;display:inline;overflow:visible"
         id="rect6709"
         width="1339.6335"
         height="478.35718"
         x="-1559.2523"
         y="-150.69685" />
      <path
         style="opacity:0.40206185;color:black;fill:url(#radialGradient6717);fill-opacity:1;fill-rule:nonzero;stroke:none;stroke-width:1;stroke-linecap:round;stroke-linejoin:miter;marker:none;marker-start:none;marker-mid:none;marker-end:none;stroke-miterlimit:4;stroke-dasharray:none;stroke-dashoffset:0;stroke-opacity:1;visibility:visible;display:inline;overflow:visible"
         d="M -219.61876,-150.68038 C -219.61876,-150.68038 -219.61876,327.65041 -219.61876,327.65041 C -76.744594,328.55086 125.78146,220.48075 125.78138,88.454235 C 125.78138,-43.572302 -33.655436,-150.68036 -219.61876,-150.68038 z "
         id="path6711"
         sodipodi:nodetypes="cccc" />
      <path
         sodipodi:nodetypes="cccc"
         id="path6713"
         d="M -1559.2523,-150.68038 C -1559.2523,-150.68038 -1559.2523,327.65041 -1559.2523,327.65041 C -1702.1265,328.55086 -1904.6525,220.48075 -1904.6525,88.454235 C -1904.6525,-43.572302 -1745.2157,-150.68036 -1559.2523,-150.68038 z "
         style="opacity:0.40206185;color:black;fill:url(#radialGradient6719);fill-opacity:1;fill-rule:nonzero;stroke:none;stroke-width:1;stroke-linecap:round;stroke-linejoin:miter;marker:none;marker-start:none;marker-mid:none;marker-end:none;stroke-miterlimit:4;stroke-dasharray:none;stroke-dashoffset:0;stroke-opacity:1;visibility:visible;display:inline;overflow:visible" />
    </g>
  </g>
  <g
     style="display:inline"
     inkscape:groupmode="layer"
     inkscape:label="Base"
     id="layer1">
    <rect
       style="color:#000000;fill:url(#radialGradient15658);fill-opacity:1.0000000;fill-rule:nonzero;stroke:url(#radialGradient15656);stroke-width:1.0000000;stroke-linecap:round;stroke-linejoin:round;stroke-miterlimit:4.0000000;stroke-dashoffset:0.0000000;stroke-opacity:1.0000000;marker:none;marker-start:none;marker-mid:none;marker-end:none;visibility:visible;display:block;overflow:visible"
       id="rect15391"
       width="34.875000"
       height="40.920494"
       x="6.6035528"
       y="3.6464462"
       ry="1.1490486" />
    <rect
       style="color:#000000;fill:none;fill-opacity:1.0000000;fill-rule:nonzero;stroke:url(#radialGradient15668);stroke-width:1.0000000;stroke-linecap:round;stroke-linejoin:round;stroke-miterlimit:4.0000000;stroke-dashoffset:0.0000000;stroke-opacity:1.0000000;marker:none;marker-start:none;marker-mid:none;marker-end:none;visibility:visible;display:block;overflow:visible"
       id="rect15660"
       width="32.775887"
       height="38.946384"
       x="7.6660538"
       y="4.5839462"
       ry="0.14904857"
       rx="0.14904857" />
    <g
       transform="translate(0.646447,-3.798933e-2)"
       id="g2270">
      <g
         id="g1440"
         style="fill:#ffffff;fill-opacity:1.0000000;fill-rule:nonzero;stroke:#000000;stroke-miterlimit:4.0000000"
         transform="matrix(0.229703,0.000000,0.000000,0.229703,4.967081,4.244972)">
        <radialGradient
           id="radialGradient1442"
           cx="20.892099"
           cy="114.56840"
           r="5.2560000"
           fx="20.892099"
           fy="114.56840"
           gradientUnits="userSpaceOnUse">
          <stop
             offset="0"
             style="stop-color:#F0F0F0"
             id="stop1444" />
          <stop
             offset="1"
             style="stop-color:#474747"
             id="stop1446" />
        </radialGradient>
        <path
           style="stroke:none"
           d="M 23.428000,113.07000 C 23.428000,115.04300 21.828000,116.64200 19.855000,116.64200 C 17.881000,116.64200 16.282000,115.04200 16.282000,113.07000 C 16.282000,111.09600 17.882000,109.49700 19.855000,109.49700 C 21.828000,109.49700 23.428000,111.09700 23.428000,113.07000 z "
           id="path1448" />
        <radialGradient
           id="radialGradient1450"
           cx="20.892099"
           cy="64.567902"
           r="5.2570000"
           fx="20.892099"
           fy="64.567902"
           gradientUnits="userSpaceOnUse">
          <stop
             offset="0"
             style="stop-color:#F0F0F0"
             id="stop1452" />
          <stop
             offset="1"
             style="stop-color:#474747"
             id="stop1454" />
        </radialGradient>
        <path
           style="stroke:none"
           d="M 23.428000,63.070000 C 23.428000,65.043000 21.828000,66.643000 19.855000,66.643000 C 17.881000,66.643000 16.282000,65.043000 16.282000,63.070000 C 16.282000,61.096000 17.882000,59.497000 19.855000,59.497000 C 21.828000,59.497000 23.428000,61.097000 23.428000,63.070000 z "
           id="path1456" />
      </g>
      <path
         style="fill:url(#radialGradient2283);fill-rule:nonzero;stroke:none;stroke-miterlimit:4.0000000"
         d="M 9.9950109,29.952326 C 9.9950109,30.405530 9.6274861,30.772825 9.1742821,30.772825 C 8.7208483,30.772825 8.3535532,30.405301 8.3535532,29.952326 C 8.3535532,29.498892 8.7210780,29.131597 9.1742821,29.131597 C 9.6274861,29.131597 9.9950109,29.499122 9.9950109,29.952326 z "
         id="path15570" />
      <path
         style="fill:url(#radialGradient2285);fill-rule:nonzero;stroke:none;stroke-miterlimit:4.0000000"
         d="M 9.9950109,18.467176 C 9.9950109,18.920380 9.6274861,19.287905 9.1742821,19.287905 C 8.7208483,19.287905 8.3535532,18.920380 8.3535532,18.467176 C 8.3535532,18.013742 8.7210780,17.646447 9.1742821,17.646447 C 9.6274861,17.646447 9.9950109,18.013972 9.9950109,18.467176 z "
         id="path15577" />
    </g>
    <path
       style="fill:none;fill-opacity:0.75000000;fill-rule:evenodd;stroke:#000000;stroke-width:0.98855311;stroke-linecap:butt;stroke-linejoin:miter;stroke-miterlimit:4.0000000;stroke-opacity:0.017543854"
       d="M 11.505723,5.4942766 L 11.505723,43.400869"
       id="path15672"
       sodipodi:nodetypes="cc" />
    <path
       style="fill:none;fill-opacity:0.75000000;fill-rule:evenodd;stroke:#ffffff;stroke-width:1.0000000;stroke-linecap:butt;stroke-linejoin:miter;stroke-miterlimit:4.0000000;stroke-opacity:0.20467831"
       d="M 12.500000,5.0205154 L 12.500000,43.038228"
       id="path15674"
       sodipodi:nodetypes="cc" />
  </g>
  <g
     inkscape:groupmode="layer"
     id="layer5"
     inkscape:label="Text"
     style="display:inline">
    <path
       style="opacity:0.66477272;fill:url(#linearGradient13118);fill-opacity:1;fill-rule:nonzero;stroke:none;stroke-width:1.2166667;stroke-miterlimit:4"
       d="M 12.84405,24.537533 L 38.764829,24.537533 L 38.764829,16.695673 L 12.84405,16.695673 L 12.84405,24.537533 z "
       id="path7644" />
    <path
       id="path16203"
       d="M 12.84405,6.1505949 L 38.764829,6.1505949 L 38.764829,16.695673 L 12.84405,16.695673 L 12.84405,6.1505949 z "
       style="opacity:0.66477272;fill:#729fcf;fill-opacity:1;fill-rule:nonzero;stroke:none;stroke-width:1.2166667;stroke-miterlimit:4" />
    <g
       transform="matrix(0.903163,0,0,0.899066,5.980013,-3.083783)"
       style="opacity:0.86792453;fill-rule:nonzero;stroke:black;stroke-width:2.00197052;stroke-miterlimit:4;stroke-dasharray:none"
       id="g16205">
      <g
         id="g16207"
         style="stroke-width:2.00197052;stroke-miterlimit:4;stroke-dasharray:none">
        <path
           id="path16209"
           d="M 18.4,15.4 C 18.4,17.6 16.6,19.5 14.3,19.5 C 12.1,19.5 10.2,17.7 10.2,15.4 C 10.2,13.2 12,11.3 14.3,11.3 C 16.5,11.3 18.4,13.1 18.4,15.4 z "
           style="opacity:0.04999994;fill:#e8f52f;stroke:none;stroke-width:2.00197052;stroke-miterlimit:4;stroke-dasharray:none" />
        <path
           id="path16211"
           d="M 18,15.4 C 18,17.4 16.4,19.1 14.3,19.1 C 12.3,19.1 10.6,17.5 10.6,15.4 C 10.6,13.4 12.2,11.7 14.3,11.7 C 16.3,11.7 18,13.3 18,15.4 L 18,15.4 z "
           style="opacity:0.20829994;fill:#ecf751;stroke:none;stroke-width:2.00197052;stroke-miterlimit:4;stroke-dasharray:none" />
        <path
           id="path16213"
           d="M 17.6,15.4 C 17.6,17.2 16.1,18.7 14.3,18.7 C 12.5,18.7 11,17.2 11,15.4 C 11,13.6 12.5,12.1 14.3,12.1 C 16.1,12.1 17.6,13.6 17.6,15.4 L 17.6,15.4 z "
           style="opacity:0.36669994;fill:#f0f972;stroke:none;stroke-width:2.00197052;stroke-miterlimit:4;stroke-dasharray:none" />
        <path
           id="path16215"
           d="M 17.2,15.4 C 17.2,17 15.9,18.3 14.3,18.3 C 12.7,18.3 11.4,17 11.4,15.4 C 11.4,13.8 12.7,12.5 14.3,12.5 C 15.9,12.5 17.2,13.8 17.2,15.4 z "
           style="opacity:0.525;fill:#f4fa95;stroke:none;stroke-width:2.00197052;stroke-miterlimit:4;stroke-dasharray:none" />
        <path
           id="path16217"
           d="M 16.8,15.4 C 16.8,16.8 15.7,17.9 14.3,17.9 C 12.9,17.9 11.8,16.8 11.8,15.4 C 11.8,14 12.9,12.9 14.3,12.9 C 15.7,12.9 16.8,14 16.8,15.4 L 16.8,15.4 z "
           style="opacity:0.6833;fill:#f7fcb7;stroke:none;stroke-width:2.00197052;stroke-miterlimit:4;stroke-dasharray:none" />
        <path
           id="path16219"
           d="M 16.4,15.4 C 16.4,16.6 15.4,17.5 14.3,17.5 C 13.2,17.5 12.2,16.5 12.2,15.4 C 12.2,14.3 13.2,13.3 14.3,13.3 C 15.4,13.3 16.4,14.3 16.4,15.4 z "
           style="opacity:0.8417;fill:#fbfddb;stroke:none;stroke-width:2.00197052;stroke-miterlimit:4;stroke-dasharray:none" />
        <path
           id="path16221"
           d="M 16,15.4 C 16,16.4 15.2,17.2 14.2,17.2 C 13.2,17.2 12.4,16.4 12.4,15.4 C 12.4,14.4 13.2,13.6 14.2,13.6 C 15.2,13.6 16,14.4 16,15.4 L 16,15.4 z "
           style="fill:white;stroke:none;stroke-width:2.00197052;stroke-miterlimit:4;stroke-dasharray:none" />
      </g>
    </g>
    <path
       id="path16223"
       d="M 27.655923,18.224085 L 34.249015,18.224085 L 35.513443,18.583712 L 33.345852,18.583712 C 33.345852,18.583712 35.513443,18.763524 36.59724,20.112124 C 37.681035,21.370817 35.332812,22.89923 35.332812,22.89923 C 35.332812,22.89923 35.332812,22.89923 35.332812,22.89923 C 35.242495,22.62951 34.700596,20.47175 33.616801,19.572684 C 32.803953,18.853431 31.900791,18.673618 31.900791,18.673618 L 27.655923,18.673618 L 27.655923,18.313992 L 27.655923,18.224085 z "
       style="opacity:0.19943183;fill-rule:nonzero;stroke:none;stroke-width:1.2166667;stroke-miterlimit:4" />
    <path
       id="path16225"
       d="M 31.991109,18.763524 L 28.197822,18.763524 L 35.242495,22.719416 L 31.991109,18.763524 L 31.991109,18.763524 z "
       style="opacity:0.19943183;fill-rule:nonzero;stroke:none;stroke-width:1.2166667;stroke-miterlimit:4" />
    <path
       id="path16227"
       d="M 27.655923,18.313992 L 34.249015,18.313992 L 35.242495,17.684645 L 33.074904,17.684645 C 33.074904,17.684645 35.061861,17.325019 35.332812,15.077352 C 35.603759,12.829687 32.262056,10.312303 32.262056,10.312303 C 32.262056,10.312303 32.262056,10.312303 32.262056,10.402209 C 32.352372,10.941649 33.255534,14.717727 32.623322,16.156234 C 32.352372,17.414924 31.539525,17.684645 31.539525,17.684645 L 27.384975,17.684645 L 27.565608,18.313992 L 27.655923,18.313992 z "
       style="opacity:0.86163522;fill:#2e3436;fill-rule:nonzero;stroke:none;stroke-width:1.2166667;stroke-miterlimit:4" />
    <path
       id="path16229"
       d="M 31.629843,17.325019 L 27.836557,17.325019 L 32.352372,10.492115 L 31.629843,17.325019 z "
       style="opacity:0.66477272;fill:#2e3436;fill-rule:nonzero;stroke:none;stroke-width:1.2166667;stroke-miterlimit:4" />
    <rect
       style="opacity:0.66477272;color:black;fill:none;fill-opacity:1;fill-rule:nonzero;stroke:#9e9e9e;stroke-width:1.2470963;stroke-linecap:butt;stroke-linejoin:miter;marker:none;marker-start:none;marker-mid:none;marker-end:none;stroke-miterlimit:4;stroke-dasharray:none;stroke-dashoffset:0;stroke-opacity:1;visibility:visible;display:inline;overflow:visible"
       id="rect8163"
       width="24.936352"
       height="17.456209"
       x="13.253185"
       y="6.7563725" />
    <path
       sodipodi:nodetypes="ccccc"
       style="opacity:0.53142856;fill:url(#linearGradient13821);fill-opacity:1;fill-rule:evenodd;stroke:none;stroke-width:0.25pt;stroke-linecap:butt;stroke-linejoin:miter;stroke-opacity:1"
       d="M 14.08025,7.4658531 L 13.305275,21.392917 C 23.970689,19.52201 24.334574,13.215926 37.595626,11.147128 L 37.439697,7.5173401 L 14.08025,7.4658531 z "
       id="path3979" />
    <path
       sodipodi:type="arc"
       style="opacity:0.54857142;color:black;fill:url(#radialGradient35494);fill-opacity:1;fill-rule:nonzero;stroke:none;stroke-width:1;stroke-linecap:square;stroke-linejoin:miter;marker:none;marker-start:none;marker-mid:none;marker-end:none;stroke-miterlimit:4;stroke-dasharray:none;stroke-dashoffset:0;stroke-opacity:1;visibility:visible;display:inline;overflow:visible"
       id="path35486"
       sodipodi:cx="28.019106"
       sodipodi:cy="38.98439"
       sodipodi:rx="15.467961"
       sodipodi:ry="5.3033009"
       d="M 43.487067 38.98439 A 15.467961 5.3033009 0 1 1  12.551145,38.98439 A 15.467961 5.3033009 0 1 1  43.487067 38.98439 z"
       transform="matrix(0.700015,0,0,0.756508,15.82541,14.26183)" />
    <path
       style="fill:#f57900;fill-rule:evenodd;stroke:#ce5c00;stroke-width:1;stroke-linecap:butt;stroke-linejoin:miter;stroke-miterlimit:4;stroke-dasharray:none"
       id="path2482"
       d="M 28.799481,38.869676 C 28.804855,39.18647 28.907412,39.8024 29.058283,40.285556 C 29.37776,41.304106 29.91901,42.248157 30.67286,43.079767 C 31.446048,43.932955 32.396971,44.619689 33.496086,45.106696 C 34.652641,45.618445 35.904825,45.879884 37.204198,45.877826 C 38.503571,45.875075 39.755658,45.609371 40.911665,45.093909 C 42.010354,44.602093 42.961272,43.913714 43.733916,43.058324 C 44.486075,42.223415 45.026278,41.277854 45.345725,40.258751 C 45.507375,39.743277 45.607717,39.220834 45.649641,38.695713 C 45.689915,38.179715 45.672733,37.661026 45.599195,37.144493 C 45.456378,36.136127 45.106826,35.190579 44.570475,34.327714 C 44.078519,33.535732 43.445534,32.842004 42.693236,32.258367 C 42.693236,32.258367 42.694332,32.257279 42.694332,32.257279 C 42.694332,32.257279 35.097821,26.423453 35.097821,26.423453 C 35.091359,26.418082 35.085448,26.412712 35.078437,26.407882 C 34.579086,26.025583 33.74092,26.026654 33.193255,26.410565 C 32.638055,26.798235 32.593475,27.404463 33.085845,27.810399 C 34.129465,28.634277 35.168975,29.495793 36.218378,30.31957 C 36.218378,30.31957 26.576555,30.313139 26.576555,30.313139 C 25.480797,30.313139 24.836106,30.833866 24.700346,31.595122 C 24.580547,32.266874 25.111208,33.099284 26.062718,33.099284 C 27.686879,33.101405 29.326951,33.095516 30.956897,33.092298 C 30.956897,33.092298 22.221461,39.554811 22.221461,39.554811 C 22.210184,39.563404 22.198908,39.570921 22.187632,39.579514 C 21.365041,40.210369 21.098186,41.260119 21.61633,41.924309 C 22.143604,42.599771 23.26312,42.600319 24.096447,41.927608 C 24.096447,41.927608 28.863387,38.026148 28.863387,38.026148 C 28.863387,38.026148 28.794659,38.553417 28.799481,38.869676 z "
       sodipodi:nodetypes="csssssssssscccsscccscccssccc" />
    <path
       style="opacity:0.4857143;fill:none;fill-opacity:1;fill-rule:evenodd;stroke:url(#linearGradient13599);stroke-width:1;stroke-linecap:butt;stroke-linejoin:miter;stroke-miterlimit:4;stroke-dasharray:none;stroke-opacity:1"
       d="M 34.154712,26.747596 C 33.932311,26.747899 33.705012,26.816644 33.553036,26.923179 C 33.552644,26.923571 33.552255,26.923964 33.551863,26.924352 C 33.397933,27.031831 33.366813,27.126512 33.362228,27.177197 C 33.357642,27.227883 33.354955,27.269089 33.466413,27.360977 C 33.476845,27.369621 33.486995,27.378598 33.496845,27.3879 C 33.565105,27.443399 36.630491,29.936255 36.630491,29.936255 C 36.835756,30.103305 36.913862,30.381348 36.825615,30.630848 C 36.737372,30.880353 36.501822,30.841098 36.237177,30.84195 C 33.142123,30.870041 26.563499,30.852483 26.563499,30.852483 C 26.039997,30.852834 25.274047,31.136378 25.23763,31.723604 C 25.202712,32.286647 25.737147,32.524265 26.104629,32.524265 C 26.104629,32.524265 30.955513,32.514899 30.955513,32.514899 C 31.223791,32.514575 31.462475,32.636596 31.549056,32.890513 C 31.635637,33.144434 31.550882,33.182519 31.338294,33.346156 C 31.338294,33.346156 22.603423,40.051242 22.603423,40.051242 C 22.602642,40.052027 22.601862,40.052807 22.601081,40.053583 C 22.565903,40.080388 22.554513,40.087783 22.567135,40.078169 C 22.262979,40.311428 22.074867,40.616917 22.007594,40.889379 C 21.940325,41.16184 21.982,41.374197 22.110606,41.539052 C 22.373648,41.876024 23.082592,41.941229 23.702597,41.440723 C 23.702597,41.440723 28.466863,37.54152 28.466863,37.54152 C 28.665699,37.379052 28.943556,37.354412 29.16788,37.479352 C 29.3922,37.604292 29.517541,37.853497 29.484097,38.10808 C 29.484097,38.10808 29.422295,38.646457 29.425565,38.860762 C 29.531234,40.309043 30.221188,41.56076 31.136957,42.659298 C 32.717815,44.402246 34.899594,45.162243 37.202907,45.252134 C 39.512009,45.227997 41.699677,44.338897 43.268853,42.638227 C 46.135808,39.130221 45.434203,35.296915 42.308979,32.753845 C 39.838938,30.743914 37.247761,28.863861 34.716594,26.919669 C 34.714235,26.917737 34.711894,26.915784 34.70957,26.913818 C 34.705634,26.911131 34.701732,26.908397 34.697863,26.905621 C 34.582204,26.817075 34.376695,26.747288 34.154712,26.747596 z "
       id="path3562"
       sodipodi:nodetypes="cssssscscczccsccssssccscccccscssc" />
    <path
       style="opacity:0.51999996;fill:url(#radialGradient13596);fill-opacity:1;fill-rule:evenodd;stroke:none;stroke-width:1;stroke-linecap:butt;stroke-linejoin:miter;stroke-miterlimit:4;stroke-dasharray:none;stroke-opacity:1"
       d="M 34.163233,26.750051 C 33.940832,26.750355 33.697203,26.815185 33.545227,26.921719 C 33.391297,27.029199 33.360977,27.128536 33.356391,27.179222 C 33.351805,27.229908 33.347935,27.276169 33.459392,27.368057 C 33.469825,27.376701 33.483876,27.375922 33.493726,27.385224 C 33.561986,27.440723 36.635258,29.943084 36.635258,29.943084 C 36.840523,30.110133 36.912341,30.380257 36.824094,30.629758 C 36.735851,30.879262 36.505066,30.834908 36.240421,30.83576 C 33.145367,30.863851 26.558321,30.852926 26.558321,30.852926 C 26.034819,30.853277 25.272891,31.14121 25.236474,31.728436 C 25.201557,32.291479 25.744501,32.51811 26.111983,32.51811 C 26.111983,32.51811 30.953033,32.51811 30.953033,32.51811 C 31.221311,32.517785 31.467292,32.641864 31.553873,32.895781 C 31.640453,33.149702 31.543292,33.178482 31.330704,33.342119 C 31.330704,33.342119 22.609947,40.054355 22.609947,40.054355 C 22.609167,40.05514 22.593561,40.053579 22.59278,40.054355 C 22.557602,40.081159 22.562992,40.081136 22.575613,40.071522 C 22.271458,40.304781 22.07638,40.623068 22.009108,40.89553 C 21.941839,41.167992 21.983503,41.365848 22.112109,41.530703 C 22.37515,41.867675 23.08862,41.945376 23.708625,41.444869 C 23.708625,41.44487 28.463841,37.547996 28.463841,37.547996 C 28.662677,37.385527 28.943357,37.354388 29.167681,37.479328 C 29.392001,37.604268 29.510129,37.859918 29.476685,38.114501 C 29.476685,38.114501 29.421914,38.638371 29.425184,38.852676 C 29.47736,39.567781 29.673274,40.238013 29.968502,40.865582 C 31.409626,43.389441 35.239103,34.0901 44.257337,34.990136 C 43.791581,34.172956 43.138763,33.426741 42.317484,32.758446 C 39.847444,30.748515 37.243739,28.865911 34.712572,26.921719 C 34.708636,26.919032 34.699274,26.907328 34.695405,26.904552 C 34.579746,26.816006 34.385216,26.749743 34.163233,26.750051 z "
       id="path39166"
       sodipodi:nodetypes="csssscsccsscsccssssscsscccsssc" />
  </g>
</svg>
