<?xml version="1.0" encoding="UTF-8" standalone="no"?>
<!-- Created with Inkscape (http://www.inkscape.org/) -->
<svg
   xmlns:dc="http://purl.org/dc/elements/1.1/"
   xmlns:cc="http://web.resource.org/cc/"
   xmlns:rdf="http://www.w3.org/1999/02/22-rdf-syntax-ns#"
   xmlns:svg="http://www.w3.org/2000/svg"
   xmlns="http://www.w3.org/2000/svg"
   xmlns:xlink="http://www.w3.org/1999/xlink"
   xmlns:sodipodi="http://sodipodi.sourceforge.net/DTD/sodipodi-0.dtd"
   xmlns:inkscape="http://www.inkscape.org/namespaces/inkscape"
   inkscape:export-ydpi="97.5"
   inkscape:export-xdpi="97.5"
   inkscape:export-filename="/Users/izoo/Sites/spip-zone/_graphismes_/logos/spip_tango/tango_vignettes/png/tex.png"
   sodipodi:docname="template_latex.svg"
   sodipodi:docbase="/Users/izoo/Sites/spip-zone/_graphismes_/logos/spip_tango/tango_vignettes/svg"
   inkscape:version="0.44.1"
   sodipodi:version="0.32"
   id="svg249"
   viewBox="0 0 48 48" height="52.000000px"
   width="52.000000px">
  <defs
     id="defs3">
    <radialGradient
       inkscape:collect="always"
       xlink:href="#linearGradient5060"
       id="radialGradient6719"
       gradientUnits="userSpaceOnUse"
       gradientTransform="matrix(-2.774389,0,0,1.969706,112.7623,-872.8854)"
       cx="605.71429"
       cy="486.64789"
       fx="605.71429"
       fy="486.64789"
       r="117.14286" />
    <linearGradient
       inkscape:collect="always"
       id="linearGradient5060">
      <stop
         style="stop-color:black;stop-opacity:1;"
         offset="0"
         id="stop5062" />
      <stop
         style="stop-color:black;stop-opacity:0;"
         offset="1"
         id="stop5064" />
    </linearGradient>
    <radialGradient
       inkscape:collect="always"
       xlink:href="#linearGradient5060"
       id="radialGradient6717"
       gradientUnits="userSpaceOnUse"
       gradientTransform="matrix(2.774389,0,0,1.969706,-1891.633,-872.8854)"
       cx="605.71429"
       cy="486.64789"
       fx="605.71429"
       fy="486.64789"
       r="117.14286" />
    <linearGradient
       id="linearGradient5048">
      <stop
         style="stop-color:black;stop-opacity:0;"
         offset="0"
         id="stop5050" />
      <stop
         id="stop5056"
         offset="0.5"
         style="stop-color:black;stop-opacity:1;" />
      <stop
         style="stop-color:black;stop-opacity:0;"
         offset="1"
         id="stop5052" />
    </linearGradient>
    <linearGradient
       inkscape:collect="always"
       xlink:href="#linearGradient5048"
       id="linearGradient6715"
       gradientUnits="userSpaceOnUse"
       gradientTransform="matrix(2.774389,0,0,1.969706,-1892.179,-872.8854)"
       x1="302.85715"
       y1="366.64789"
       x2="302.85715"
       y2="609.50507" />
    <linearGradient
       inkscape:collect="always"
       id="linearGradient4542">
      <stop
         style="stop-color:#000000;stop-opacity:1;"
         offset="0"
         id="stop4544" />
      <stop
         style="stop-color:#000000;stop-opacity:0;"
         offset="1"
         id="stop4546" />
    </linearGradient>
    <linearGradient
       id="linearGradient15662">
      <stop
         id="stop15664"
         offset="0.0000000"
         style="stop-color:#ffffff;stop-opacity:1.0000000;" />
      <stop
         id="stop15666"
         offset="1.0000000"
         style="stop-color:#f8f8f8;stop-opacity:1.0000000;" />
    </linearGradient>
    <radialGradient
       id="aigrd3"
       cx="20.8921"
       cy="64.5679"
       r="5.257"
       fx="20.8921"
       fy="64.5679"
       gradientUnits="userSpaceOnUse">
      <stop
         offset="0"
         style="stop-color:#F0F0F0"
         id="stop15573" />
      <stop
         offset="1.0000000"
         style="stop-color:#9a9a9a;stop-opacity:1.0000000;"
         id="stop15575" />
    </radialGradient>
    <radialGradient
       id="aigrd2"
       cx="20.8921"
       cy="114.5684"
       r="5.256"
       fx="20.8921"
       fy="114.5684"
       gradientUnits="userSpaceOnUse">
      <stop
         offset="0"
         style="stop-color:#F0F0F0"
         id="stop15566" />
      <stop
         offset="1.0000000"
         style="stop-color:#9a9a9a;stop-opacity:1.0000000;"
         id="stop15568" />
    </radialGradient>
    <linearGradient
       id="linearGradient269">
      <stop
         id="stop270"
         offset="0.0000000"
         style="stop-color:#a3a3a3;stop-opacity:1.0000000;" />
      <stop
         id="stop271"
         offset="1.0000000"
         style="stop-color:#4c4c4c;stop-opacity:1.0000000;" />
    </linearGradient>
    <linearGradient
       id="linearGradient259">
      <stop
         id="stop260"
         offset="0.0000000"
         style="stop-color:#fafafa;stop-opacity:1.0000000;" />
      <stop
         id="stop261"
         offset="1.0000000"
         style="stop-color:#bbbbbb;stop-opacity:1.0000000;" />
    </linearGradient>
    <radialGradient
       inkscape:collect="always"
       xlink:href="#linearGradient269"
       id="radialGradient15656"
       gradientUnits="userSpaceOnUse"
       gradientTransform="matrix(0.968273,0.000000,0.000000,1.032767,3.353553,0.646447)"
       cx="8.8244190"
       cy="3.7561285"
       fx="8.8244190"
       fy="3.7561285"
       r="37.751713" />
    <radialGradient
       inkscape:collect="always"
       xlink:href="#linearGradient259"
       id="radialGradient15658"
       gradientUnits="userSpaceOnUse"
       gradientTransform="scale(0.960493,1.041132)"
       cx="33.966679"
       cy="35.736916"
       fx="33.966679"
       fy="35.736916"
       r="86.708450" />
    <radialGradient
       inkscape:collect="always"
       xlink:href="#linearGradient15662"
       id="radialGradient15668"
       gradientUnits="userSpaceOnUse"
       gradientTransform="matrix(0.968273,0.000000,0.000000,1.032767,3.353553,0.646447)"
       cx="8.1435566"
       cy="7.2678967"
       fx="8.1435566"
       fy="7.2678967"
       r="38.158695" />
    <radialGradient
       r="5.256"
       fy="114.5684"
       fx="20.8921"
       cy="114.5684"
       cx="20.8921"
       gradientTransform="matrix(0.229703,0.000000,0.000000,0.229703,4.613529,3.979808)"
       gradientUnits="userSpaceOnUse"
       id="radialGradient2283"
       xlink:href="#aigrd2"
       inkscape:collect="always" />
    <radialGradient
       r="5.257"
       fy="64.5679"
       fx="20.8921"
       cy="64.5679"
       cx="20.8921"
       gradientTransform="matrix(0.229703,0.000000,0.000000,0.229703,4.613529,3.979808)"
       gradientUnits="userSpaceOnUse"
       id="radialGradient2285"
       xlink:href="#aigrd3"
       inkscape:collect="always" />
    <radialGradient
       inkscape:collect="always"
       xlink:href="#linearGradient4542"
       id="radialGradient4548"
       cx="24.306795"
       cy="42.07798"
       fx="24.306795"
       fy="42.07798"
       r="15.821514"
       gradientTransform="matrix(1.000000,0.000000,0.000000,0.284916,0.000000,30.08928)"
       gradientUnits="userSpaceOnUse" />
  </defs>
  <sodipodi:namedview
     inkscape:window-y="22"
     inkscape:window-x="0"
     inkscape:window-height="1002"
     inkscape:window-width="1680"
     inkscape:document-units="px"
     inkscape:grid-bbox="true"
     showgrid="false"
     inkscape:current-layer="layer5"
     inkscape:cy="19.401241"
     inkscape:cx="28.664696"
     inkscape:zoom="8"
     inkscape:pageshadow="2"
     inkscape:pageopacity="0.0"
     borderopacity="0.25490196"
     bordercolor="#666666"
     pagecolor="#ffffff"
     id="base"
     inkscape:showpageshadow="false" />
  <metadata
     id="metadata4">
    <rdf:RDF>
      <cc:Work
         rdf:about="">
        <dc:format>image/svg+xml</dc:format>
        <dc:type
           rdf:resource="http://purl.org/dc/dcmitype/StillImage" />
        <dc:title>Generic Text</dc:title>
        <dc:subject>
          <rdf:Bag>
            <rdf:li>text</rdf:li>
            <rdf:li>plaintext</rdf:li>
            <rdf:li>regular</rdf:li>
            <rdf:li>document</rdf:li>
          </rdf:Bag>
        </dc:subject>
        <cc:license
           rdf:resource="http://creativecommons.org/licenses/by-sa/2.0/" />
        <dc:creator>
          <cc:Agent>
            <dc:title>Jakub Steiner</dc:title>
          </cc:Agent>
        </dc:creator>
        <dc:source>http://jimmac.musichall.cz</dc:source>
      </cc:Work>
      <cc:License
         rdf:about="http://creativecommons.org/licenses/by/2.0/">
        <cc:permits
           rdf:resource="http://web.resource.org/cc/Reproduction" />
        <cc:permits
           rdf:resource="http://web.resource.org/cc/Distribution" />
        <cc:requires
           rdf:resource="http://web.resource.org/cc/Notice" />
        <cc:requires
           rdf:resource="http://web.resource.org/cc/Attribution" />
        <cc:permits
           rdf:resource="http://web.resource.org/cc/DerivativeWorks" />
        <cc:requires
           rdf:resource="http://web.resource.org/cc/ShareAlike" />
      </cc:License>
    </rdf:RDF>
  </metadata>
  <g
     inkscape:groupmode="layer"
     id="layer6"
     inkscape:label="Shadow">
    <g
       style="display:inline"
       transform="matrix(2.105461e-2,0,0,2.086758e-2,42.85172,41.1536)"
       id="g6707">
      <rect
         style="opacity:0.40206185;color:black;fill:url(#linearGradient6715);fill-opacity:1;fill-rule:nonzero;stroke:none;stroke-width:1;stroke-linecap:round;stroke-linejoin:miter;marker:none;marker-start:none;marker-mid:none;marker-end:none;stroke-miterlimit:4;stroke-dasharray:none;stroke-dashoffset:0;stroke-opacity:1;visibility:visible;display:inline;overflow:visible"
         id="rect6709"
         width="1339.6335"
         height="478.35718"
         x="-1559.2523"
         y="-150.69685" />
      <path
         style="opacity:0.40206185;color:black;fill:url(#radialGradient6717);fill-opacity:1;fill-rule:nonzero;stroke:none;stroke-width:1;stroke-linecap:round;stroke-linejoin:miter;marker:none;marker-start:none;marker-mid:none;marker-end:none;stroke-miterlimit:4;stroke-dasharray:none;stroke-dashoffset:0;stroke-opacity:1;visibility:visible;display:inline;overflow:visible"
         d="M -219.61876,-150.68038 C -219.61876,-150.68038 -219.61876,327.65041 -219.61876,327.65041 C -76.744594,328.55086 125.78146,220.48075 125.78138,88.454235 C 125.78138,-43.572302 -33.655436,-150.68036 -219.61876,-150.68038 z "
         id="path6711"
         sodipodi:nodetypes="cccc" />
      <path
         sodipodi:nodetypes="cccc"
         id="path6713"
         d="M -1559.2523,-150.68038 C -1559.2523,-150.68038 -1559.2523,327.65041 -1559.2523,327.65041 C -1702.1265,328.55086 -1904.6525,220.48075 -1904.6525,88.454235 C -1904.6525,-43.572302 -1745.2157,-150.68036 -1559.2523,-150.68038 z "
         style="opacity:0.40206185;color:black;fill:url(#radialGradient6719);fill-opacity:1;fill-rule:nonzero;stroke:none;stroke-width:1;stroke-linecap:round;stroke-linejoin:miter;marker:none;marker-start:none;marker-mid:none;marker-end:none;stroke-miterlimit:4;stroke-dasharray:none;stroke-dashoffset:0;stroke-opacity:1;visibility:visible;display:inline;overflow:visible" />
    </g>
  </g>
  <g
     style="display:inline"
     inkscape:groupmode="layer"
     inkscape:label="Base"
     id="layer1">
    <rect
       style="color:#000000;fill:url(#radialGradient15658);fill-opacity:1.0000000;fill-rule:nonzero;stroke:url(#radialGradient15656);stroke-width:1.0000000;stroke-linecap:round;stroke-linejoin:round;stroke-miterlimit:4.0000000;stroke-dashoffset:0.0000000;stroke-opacity:1.0000000;marker:none;marker-start:none;marker-mid:none;marker-end:none;visibility:visible;display:block;overflow:visible"
       id="rect15391"
       width="34.875000"
       height="40.920494"
       x="6.6035528"
       y="3.6464462"
       ry="1.1490486" />
    <rect
       style="color:#000000;fill:none;fill-opacity:1.0000000;fill-rule:nonzero;stroke:url(#radialGradient15668);stroke-width:1.0000000;stroke-linecap:round;stroke-linejoin:round;stroke-miterlimit:4.0000000;stroke-dashoffset:0.0000000;stroke-opacity:1.0000000;marker:none;marker-start:none;marker-mid:none;marker-end:none;visibility:visible;display:block;overflow:visible"
       id="rect15660"
       width="32.775887"
       height="38.946384"
       x="7.6660538"
       y="4.5839462"
       ry="0.14904857"
       rx="0.14904857" />
    <g
       transform="translate(0.646447,-3.798933e-2)"
       id="g2270">
      <g
         id="g1440"
         style="fill:#ffffff;fill-opacity:1.0000000;fill-rule:nonzero;stroke:#000000;stroke-miterlimit:4.0000000"
         transform="matrix(0.229703,0.000000,0.000000,0.229703,4.967081,4.244972)">
        <radialGradient
           id="radialGradient1442"
           cx="20.892099"
           cy="114.56840"
           r="5.2560000"
           fx="20.892099"
           fy="114.56840"
           gradientUnits="userSpaceOnUse">
          <stop
             offset="0"
             style="stop-color:#F0F0F0"
             id="stop1444" />
          <stop
             offset="1"
             style="stop-color:#474747"
             id="stop1446" />
        </radialGradient>
        <path
           style="stroke:none"
           d="M 23.428000,113.07000 C 23.428000,115.04300 21.828000,116.64200 19.855000,116.64200 C 17.881000,116.64200 16.282000,115.04200 16.282000,113.07000 C 16.282000,111.09600 17.882000,109.49700 19.855000,109.49700 C 21.828000,109.49700 23.428000,111.09700 23.428000,113.07000 z "
           id="path1448" />
        <radialGradient
           id="radialGradient1450"
           cx="20.892099"
           cy="64.567902"
           r="5.2570000"
           fx="20.892099"
           fy="64.567902"
           gradientUnits="userSpaceOnUse">
          <stop
             offset="0"
             style="stop-color:#F0F0F0"
             id="stop1452" />
          <stop
             offset="1"
             style="stop-color:#474747"
             id="stop1454" />
        </radialGradient>
        <path
           style="stroke:none"
           d="M 23.428000,63.070000 C 23.428000,65.043000 21.828000,66.643000 19.855000,66.643000 C 17.881000,66.643000 16.282000,65.043000 16.282000,63.070000 C 16.282000,61.096000 17.882000,59.497000 19.855000,59.497000 C 21.828000,59.497000 23.428000,61.097000 23.428000,63.070000 z "
           id="path1456" />
      </g>
      <path
         style="fill:url(#radialGradient2283);fill-rule:nonzero;stroke:none;stroke-miterlimit:4.0000000"
         d="M 9.9950109,29.952326 C 9.9950109,30.405530 9.6274861,30.772825 9.1742821,30.772825 C 8.7208483,30.772825 8.3535532,30.405301 8.3535532,29.952326 C 8.3535532,29.498892 8.7210780,29.131597 9.1742821,29.131597 C 9.6274861,29.131597 9.9950109,29.499122 9.9950109,29.952326 z "
         id="path15570" />
      <path
         style="fill:url(#radialGradient2285);fill-rule:nonzero;stroke:none;stroke-miterlimit:4.0000000"
         d="M 9.9950109,18.467176 C 9.9950109,18.920380 9.6274861,19.287905 9.1742821,19.287905 C 8.7208483,19.287905 8.3535532,18.920380 8.3535532,18.467176 C 8.3535532,18.013742 8.7210780,17.646447 9.1742821,17.646447 C 9.6274861,17.646447 9.9950109,18.013972 9.9950109,18.467176 z "
         id="path15577" />
    </g>
    <path
       style="fill:none;fill-opacity:0.75000000;fill-rule:evenodd;stroke:#000000;stroke-width:0.98855311;stroke-linecap:butt;stroke-linejoin:miter;stroke-miterlimit:4.0000000;stroke-opacity:0.017543854"
       d="M 11.505723,5.4942766 L 11.505723,43.400869"
       id="path15672"
       sodipodi:nodetypes="cc" />
    <path
       style="fill:none;fill-opacity:0.75000000;fill-rule:evenodd;stroke:#ffffff;stroke-width:1.0000000;stroke-linecap:butt;stroke-linejoin:miter;stroke-miterlimit:4.0000000;stroke-opacity:0.20467831"
       d="M 12.500000,5.0205154 L 12.500000,43.038228"
       id="path15674"
       sodipodi:nodetypes="cc" />
  </g>
  <g
     inkscape:groupmode="layer"
     id="layer5"
     inkscape:label="Text"
     style="display:inline">
    <rect
       ry="0.065390877"
       rx="0.13778631"
       y="9"
       x="15.999994"
       height="1"
       width="20.000006"
       id="rect15686"
       style="color:black;fill:#9b9b9b;fill-opacity:0.54970757;fill-rule:nonzero;stroke:none;stroke-width:1;stroke-linecap:round;stroke-linejoin:round;marker:none;marker-start:none;marker-mid:none;marker-end:none;stroke-miterlimit:4;stroke-dashoffset:0;stroke-opacity:0.08187136;visibility:visible;display:block;overflow:visible" />
    <rect
       ry="0.065390877"
       rx="0.13778631"
       y="11"
       x="15.999994"
       height="1"
       width="20.000006"
       id="rect15688"
       style="color:black;fill:#9b9b9b;fill-opacity:0.54970757;fill-rule:nonzero;stroke:none;stroke-width:1;stroke-linecap:round;stroke-linejoin:round;marker:none;marker-start:none;marker-mid:none;marker-end:none;stroke-miterlimit:4;stroke-dashoffset:0;stroke-opacity:0.08187136;visibility:visible;display:block;overflow:visible" />
    <rect
       ry="0.065390877"
       rx="0.13778631"
       y="13"
       x="15.999994"
       height="1"
       width="20.000006"
       id="rect15690"
       style="color:black;fill:#9b9b9b;fill-opacity:0.54970757;fill-rule:nonzero;stroke:none;stroke-width:1;stroke-linecap:round;stroke-linejoin:round;marker:none;marker-start:none;marker-mid:none;marker-end:none;stroke-miterlimit:4;stroke-dashoffset:0;stroke-opacity:0.08187136;visibility:visible;display:block;overflow:visible" />
    <rect
       ry="0.065390877"
       rx="0.13778631"
       y="15"
       x="15.999994"
       height="1"
       width="20.000006"
       id="rect15692"
       style="color:black;fill:#9b9b9b;fill-opacity:0.54970757;fill-rule:nonzero;stroke:none;stroke-width:1;stroke-linecap:round;stroke-linejoin:round;marker:none;marker-start:none;marker-mid:none;marker-end:none;stroke-miterlimit:4;stroke-dashoffset:0;stroke-opacity:0.08187136;visibility:visible;display:block;overflow:visible" />
    <rect
       ry="0.065390877"
       rx="0.13778631"
       y="17"
       x="15.999994"
       height="1"
       width="20.000006"
       id="rect15694"
       style="color:black;fill:#9b9b9b;fill-opacity:0.54970757;fill-rule:nonzero;stroke:none;stroke-width:1;stroke-linecap:round;stroke-linejoin:round;marker:none;marker-start:none;marker-mid:none;marker-end:none;stroke-miterlimit:4;stroke-dashoffset:0;stroke-opacity:0.08187136;visibility:visible;display:block;overflow:visible" />
    <rect
       ry="0.065390877"
       rx="0.13778631"
       y="19"
       x="15.999994"
       height="1"
       width="20.000006"
       id="rect15696"
       style="color:black;fill:#9b9b9b;fill-opacity:0.54970757;fill-rule:nonzero;stroke:none;stroke-width:1;stroke-linecap:round;stroke-linejoin:round;marker:none;marker-start:none;marker-mid:none;marker-end:none;stroke-miterlimit:4;stroke-dashoffset:0;stroke-opacity:0.08187136;visibility:visible;display:block;overflow:visible" />
    <rect
       ry="0.065390877"
       rx="0.13778631"
       y="21"
       x="15.999994"
       height="1"
       width="20.000006"
       id="rect15698"
       style="color:black;fill:#9b9b9b;fill-opacity:0.54970757;fill-rule:nonzero;stroke:none;stroke-width:1;stroke-linecap:round;stroke-linejoin:round;marker:none;marker-start:none;marker-mid:none;marker-end:none;stroke-miterlimit:4;stroke-dashoffset:0;stroke-opacity:0.08187136;visibility:visible;display:block;overflow:visible" />
    <rect
       ry="0.065390877"
       rx="0.13778631"
       y="23"
       x="15.999994"
       height="1"
       width="20.000006"
       id="rect15700"
       style="color:black;fill:#9b9b9b;fill-opacity:0.54970757;fill-rule:nonzero;stroke:none;stroke-width:1;stroke-linecap:round;stroke-linejoin:round;marker:none;marker-start:none;marker-mid:none;marker-end:none;stroke-miterlimit:4;stroke-dashoffset:0;stroke-opacity:0.08187136;visibility:visible;display:block;overflow:visible" />
    <rect
       ry="0.065390877"
       rx="0.062003858"
       y="25"
       x="15.999986"
       height="1"
       width="9.0000057"
       id="rect15732"
       style="color:black;fill:#9b9b9b;fill-opacity:0.54970757;fill-rule:nonzero;stroke:none;stroke-width:1;stroke-linecap:round;stroke-linejoin:round;marker:none;marker-start:none;marker-mid:none;marker-end:none;stroke-miterlimit:4;stroke-dashoffset:0;stroke-opacity:0.08187136;visibility:visible;display:block;overflow:visible" />
    <g
       id="g12"
       transform="matrix(0.478953,0,0,0.478953,12.7157,29.9192)"
       style="stroke:#2e3436;stroke-opacity:1;fill:#2e3436;stroke-width:1.04394377;stroke-miterlimit:4;stroke-dasharray:none;stroke-linejoin:miter">
      <path
         style="fill:#2e3436;stroke:#2e3436;stroke-opacity:1;stroke-width:1.04394377;stroke-miterlimit:4;stroke-dasharray:none;stroke-linejoin:miter"
         d="M 12.16,11.125 L 11.715,11.125 C 11.519,13.598 11.199,16.793 6.96901,16.793 L 4.672,16.793 C 3.68301,16.793 3.637,16.672 3.637,15.824 L 3.637,2.242 C 3.637,1.34802 3.68301,1.09802 5.555,1.09802 L 6.094,1.09802 L 6.094,0.5 C 5.078,0.546997 3.89,0.546997 2.875,0.546997 C 2.109,0.546997 0.719002,0.546997 0,0.5 L 0,1.09802 C 1.75401,1.09802 2.035,1.09802 2.035,2.21497 L 2.035,15.672 C 2.035,16.789 1.758,16.789 0,16.789 L 0,17.387 L 11.574,17.387"
         id="path14" />
      <path
         style="fill:#2e3436;stroke:#2e3436;stroke-opacity:1;stroke-width:1.04394377;stroke-miterlimit:4;stroke-dasharray:none;stroke-linejoin:miter"
         d="M 12.328,0.328003 C 12.226,0.059021 12.183,0 11.98,0 C 11.777,0 11.734,0.059021 11.633,0.328003 L 7.254,12.746 C 6.86301,13.864 6.035,14.09 5.312,14.09 L 5.312,14.59 C 5.68301,14.551 6.508,14.551 6.90201,14.551 C 7.418,14.551 8.242,14.551 8.73801,14.59 L 8.73801,14.09 C 7.769,14.051 7.625,13.379 7.625,13.129 C 7.625,12.942 7.664,12.836 7.707,12.711 L 8.80101,9.59399 L 14.211,9.59399 L 15.449,13.149 C 15.551,13.399 15.551,13.442 15.551,13.524 C 15.551,14.086 14.664,14.086 14.273,14.086 L 14.273,14.586 C 14.871,14.547 15.945,14.547 16.586,14.547 C 17.121,14.547 18.152,14.547 18.648,14.586 L 18.648,14.086 C 17.555,14.086 17.183,14.086 16.914,13.321 L 12.328,0.328003 z M 11.5,1.96899 L 14.019,9.09399 L 8.98,9.09399"
         id="path16" />
      <path
         style="fill:#2e3436;stroke:#2e3436;stroke-opacity:1;stroke-width:1.04394377;stroke-miterlimit:4;stroke-dasharray:none;stroke-linejoin:miter"
         d="M 31.246,0.539001 L 16.945,0.539001 L 16.527,6.01599 L 16.973,6.01599 C 17.293,1.914 17.644,1.19598 21.484,1.19598 C 21.93,1.19598 22.652,1.19598 22.851,1.19598 C 23.324,1.27002 23.324,1.57098 23.324,2.14099 L 23.324,15.621 C 23.324,16.516 23.25,16.789 21.164,16.789 L 20.461,16.789 L 20.461,17.387 C 21.648,17.364 22.887,17.34 24.101,17.34 C 25.312,17.34 26.555,17.364 27.742,17.387 L 27.742,16.789 L 27.051,16.789 C 24.996,16.789 24.922,16.516 24.922,15.621 L 24.922,2.14099 C 24.922,1.59399 24.922,1.297 25.367,1.19598 C 25.562,1.19598 26.281,1.19598 26.726,1.19598 C 30.516,1.19598 30.887,1.90997 31.207,6.01599 L 31.652,6.01599"
         id="path18" />
      <path
         style="fill:#2e3436;stroke:#2e3436;stroke-opacity:1;stroke-width:1.04394377;stroke-miterlimit:4;stroke-dasharray:none;stroke-linejoin:miter"
         d="M 43.57,16.524 L 43.125,16.524 C 42.582,20.196 42.262,22.192 37.906,22.192 L 34.469,22.192 C 33.48,22.192 33.433,22.067 33.433,21.215 L 33.433,14.293 L 35.769,14.293 C 38.105,14.293 38.328,15.149 38.328,17.239 L 38.726,17.239 L 38.726,10.797 L 38.328,10.797 C 38.328,12.852 38.105,13.692 35.769,13.692 L 33.433,13.692 L 33.433,7.55499 C 33.433,6.71899 33.48,6.59399 34.469,6.59399 L 37.855,6.59399 C 41.687,6.59399 42.133,8.117 42.48,11.391 L 42.926,11.391 L 42.332,5.914 L 29.793,5.914 L 29.793,6.59399 C 31.547,6.59399 31.828,6.59399 31.828,7.70697 L 31.828,21.071 C 31.828,22.184 31.551,22.184 29.793,22.184 L 29.793,22.782 L 42.68,22.782"
         id="path20" />
      <path
         style="fill:#2e3436;stroke:#2e3436;stroke-opacity:1;stroke-width:1.04394377;stroke-miterlimit:4;stroke-dasharray:none;stroke-linejoin:miter"
         d="M 50.246,8.01599 L 53.91,2.71899 C 54.277,2.19897 55.023,1.12897 57.055,1.10199 L 57.055,0.503967 C 56.488,0.550964 55.547,0.550964 54.953,0.550964 C 54.137,0.550964 53.121,0.550964 52.504,0.503967 L 52.504,1.10199 C 53.297,1.17596 53.492,1.672 53.492,2.07098 C 53.492,2.367 53.371,2.56702 53.195,2.81299 L 49.926,7.55499 L 46.262,2.19202 C 46.09,1.922 46.066,1.84399 46.066,1.77002 C 46.066,1.547 46.336,1.125 47.156,1.10199 L 47.156,0.503967 C 46.363,0.550964 45.152,0.550964 44.336,0.550964 C 43.695,0.550964 42.457,0.550964 41.859,0.503967 L 41.859,1.10199 C 43.219,1.10199 43.664,1.15302 44.211,1.922 L 48.988,8.93799 L 44.68,15.231 C 43.617,16.77 42.008,16.797 41.535,16.797 L 41.535,17.395 C 42.101,17.348 43.043,17.348 43.637,17.348 C 44.305,17.348 45.469,17.348 46.086,17.395 L 46.086,16.797 C 45.32,16.723 45.098,16.227 45.098,15.828 C 45.098,15.508 45.219,15.332 45.344,15.156 L 49.305,9.375 L 53.613,15.707 C 53.808,15.981 53.808,16.055 53.808,16.129 C 53.808,16.324 53.586,16.75 52.719,16.801 L 52.719,17.399 C 53.512,17.352 54.723,17.352 55.539,17.352 C 56.18,17.352 57.418,17.352 58.019,17.399 L 58.019,16.801 C 56.433,16.801 56.183,16.68 55.691,15.981"
         id="path22" />
    </g>
  </g>
</svg>
