<svg height="52" viewBox="0 0 48 48" width="52" xmlns="http://www.w3.org/2000/svg" xmlns:xlink="http://www.w3.org/1999/xlink"><radialGradient id="a" cx="605.71429" cy="486.64789" gradientTransform="matrix(-2.774389 0 0 1.969706 112.7623 -872.8854)" gradientUnits="userSpaceOnUse" r="117.14286" xlink:href="#b"/><linearGradient id="b"><stop offset="0"/><stop offset="1" stop-opacity="0"/></linearGradient><radialGradient id="c" cx="605.71429" cy="486.64789" gradientTransform="matrix(2.774389 0 0 1.969706 -1891.633 -872.8854)" gradientUnits="userSpaceOnUse" r="117.14286" xlink:href="#b"/><linearGradient id="d" gradientTransform="matrix(2.774389 0 0 1.969706 -1892.179 -872.8854)" gradientUnits="userSpaceOnUse" x1="302.85715" x2="302.85715" y1="366.64789" y2="609.50507"><stop offset="0" stop-opacity="0"/><stop offset=".5"/><stop offset="1" stop-opacity="0"/></linearGradient><radialGradient id="e" cx="8.824419" cy="3.756129" gradientTransform="matrix(.971646 0 0 1.034707 3.240408 .495684)" gradientUnits="userSpaceOnUse" r="37.751713"><stop offset="0" stop-color="#a3a3a3"/><stop offset="1" stop-color="#4c4c4c"/></radialGradient><radialGradient id="f" cx="33.966679" cy="35.736916" gradientTransform="matrix(.963839 0 0 1.043088 -.124825 -.15197)" gradientUnits="userSpaceOnUse" r="86.70845"><stop offset="0" stop-color="#fafafa"/><stop offset="1" stop-color="#bbb"/></radialGradient><radialGradient id="g" cx="8.143557" cy="7.267897" gradientTransform="matrix(.974777 0 0 1.034091 3.161873 .559274)" gradientUnits="userSpaceOnUse" r="38.158695"><stop offset="0" stop-color="#fff"/><stop offset="1" stop-color="#f8f8f8"/></radialGradient><g><g transform="matrix(.02144924 0 0 .02086758 43.32772 41.1536)"><path d="m-1559.2523-150.69685h1339.6335v478.35718h-1339.6335z" fill="url(#d)" opacity=".402062"/><path d="m-219.61876-150.68038v478.33079c142.874166.90045 345.40022-107.16966 345.40014-239.196175 0-132.026537-159.436816-239.134595-345.40014-239.134615z" fill="url(#c)" opacity=".402062"/><path d="m-1559.2523-150.68038v478.33079c-142.8742.90045-345.4002-107.16966-345.4002-239.196175 0-132.026537 159.4368-239.134595 345.4002-239.134615z" fill="url(#a)" opacity=".402062"/></g><rect display="block" fill="url(#f)" height="40.997345" rx="1.149048" stroke="url(#e)" stroke-linecap="round" stroke-linejoin="round" width="34.996506" x="6.501741" y="3.501321"/><rect display="block" fill="none" height="38.996326" rx=".149048" ry=".149049" stroke="url(#g)" stroke-linecap="round" stroke-linejoin="round" width="32.996056" x="7.503351" y="4.501827"/><path d="m10 6.002203v4.964094 30.035906l10-.002203v-30h18v-4.997797h-28z" fill-opacity=".210526" fill-rule="evenodd"/><g stroke="#000" stroke-linecap="square"><path d="m37.500415 10.502203h-27.000832" fill-opacity=".157895" fill-rule="evenodd" stroke-opacity=".192982"/><path d="m37.500755 16.5h-27.001525" fill-opacity=".157895" fill-rule="evenodd" stroke-opacity=".192982"/><path d="m37.500755 22.5h-27.001525" fill-opacity=".157895" fill-rule="evenodd" stroke-opacity=".192982"/><path d="m37.500755 28.5h-27.001525" fill-opacity=".157895" fill-rule="evenodd" stroke-opacity=".192982"/><path d="m37.501332 34.5h-27.001509" fill-opacity=".157895" fill-rule="evenodd" stroke-opacity=".192982"/><path d="m37.500755 40.5h-27.001525" fill-opacity=".157895" fill-rule="evenodd" stroke-opacity=".192982"/><path d="m37.511644 13.5h-27.011644" fill-opacity=".157895" fill-rule="evenodd" stroke-opacity=".192982"/><path d="m37.500755 19.5h-27.001525" fill="none" stroke-opacity=".192982"/><path d="m37.500755 25.5h-27.001525" fill-opacity=".157895" fill-rule="evenodd" stroke-opacity=".192982"/><path d="m37.500755 31.5h-27.001525" fill-opacity=".157895" fill-rule="evenodd" stroke-opacity=".192982"/><path d="m37.500755 37.5h-27.001525" fill-opacity=".157895" fill-rule="evenodd" stroke-opacity=".192982"/><path d="m37.5 6.4997386v34.0005614" fill="none" stroke-opacity=".157895"/><path d="m31.5 6.4996867v34.0006283" fill="none" stroke-opacity=".157895"/><path d="m25.5 6.4996865v34.0006275" fill="none" stroke-opacity=".157895"/><path d="m19.5 6.4996867v34.0006283" fill="none" stroke-opacity=".157895"/><path d="m10.5 6.4996867v34.0006283" fill="none" stroke-opacity=".157895"/><path d="m37.500227 6.502203h-27.000767" fill-opacity=".157895" fill-rule="evenodd" stroke-opacity=".192982"/></g></g></svg>