<svg height="52" viewBox="0 0 48 48" width="52" xmlns="http://www.w3.org/2000/svg" xmlns:xlink="http://www.w3.org/1999/xlink"><radialGradient id="a" cx="605.71429" cy="486.64789" gradientTransform="matrix(-2.774389 0 0 1.969706 112.7623 -872.8854)" gradientUnits="userSpaceOnUse" r="117.14286" xlink:href="#b"/><linearGradient id="b"><stop offset="0"/><stop offset="1" stop-opacity="0"/></linearGradient><radialGradient id="c" cx="605.71429" cy="486.64789" gradientTransform="matrix(2.774389 0 0 1.969706 -1891.633 -872.8854)" gradientUnits="userSpaceOnUse" r="117.14286" xlink:href="#b"/><linearGradient id="d" gradientTransform="matrix(2.774389 0 0 1.969706 -1892.179 -872.8854)" gradientUnits="userSpaceOnUse" x1="302.85715" x2="302.85715" y1="366.64789" y2="609.50507"><stop offset="0" stop-opacity="0"/><stop offset=".5"/><stop offset="1" stop-opacity="0"/></linearGradient><linearGradient id="e" gradientUnits="userSpaceOnUse" x1="30.062469" x2="17.696169" y1="13.444801" y2="12.333632"><stop offset="0" stop-color="#fbf0e0"/><stop offset="1" stop-color="#f0ce99"/></linearGradient><linearGradient id="f" gradientUnits="userSpaceOnUse" x1="36.288929" x2="47.065835" y1="14.661557" y2="15.267649"><stop offset="0" stop-color="#de9523"/><stop offset="1" stop-color="#a36d18"/></linearGradient><linearGradient id="g" gradientTransform="matrix(1 0 0 .986355 0 .316638)" gradientUnits="userSpaceOnUse" x1="25.381256" x2="24.119167" y1="24.720648" y2="16.17037"><stop offset="0" stop-color="#e9b96e"/><stop offset="1" stop-color="#f1d19e"/></linearGradient><linearGradient id="h" gradientTransform="matrix(1 0 0 1.039184 0 -.040571)" gradientUnits="userSpaceOnUse" x1="16.148972" x2="34.193642" y1="12.636667" y2="12.636667"><stop offset="0" stop-color="#a36d18"/><stop offset="1" stop-color="#d79020"/></linearGradient><linearGradient id="i" gradientUnits="userSpaceOnUse" x1="21.906841" x2="22.071806" y1="9.757749" y2="16.020695"><stop offset="0" stop-color="#a0670c"/><stop offset="1" stop-color="#a0670c" stop-opacity="0"/></linearGradient><linearGradient id="j" gradientUnits="userSpaceOnUse" x1="18.706615" x2="30.014812" y1="19.912336" y2="47.388485"><stop offset="0" stop-color="#fff"/><stop offset="1" stop-color="#fff" stop-opacity=".686391"/></linearGradient><linearGradient id="k" gradientUnits="userSpaceOnUse" x1="24.990499" x2="24.990499" y1="34.004856" y2="22.585211"><stop offset="0" stop-color="#eaba6f"/><stop offset="1" stop-color="#b97a1b"/></linearGradient><g transform="matrix(.02105461 0 0 .02086758 42.60172 35.4036)"><path d="m-1559.2523-150.69685h1339.6335v478.35718h-1339.6335z" fill="url(#d)" opacity=".402062"/><path d="m-219.61876-150.68038v478.33079c142.874166.90045 345.40022-107.16966 345.40014-239.196175 0-132.026537-159.436816-239.134595-345.40014-239.134615z" fill="url(#c)" opacity=".402062"/><path d="m-1559.2523-150.68038v478.33079c-142.8742.90045-345.4002-107.16966-345.4002-239.196175 0-132.026537 159.4368-239.134595 345.4002-239.134615z" fill="url(#a)" opacity=".402062"/></g><g stroke-width="1.000001"><rect display="block" fill="url(#k)" height="23.112879" rx="2.424135" ry="2.394444" stroke="#a0670c" width="31.978371" x="7.462385" y="15.275433"/><rect display="block" fill="none" height="21.075352" opacity=".481013" rx="1.284688" stroke="url(#j)" width="29.804138" x="8.499" y="16.243698"/><path d="m8.7697819 16.547178 5.0499491-6.8108372 18.79556-.1010153 5.219973 6.7736155z" fill="url(#h)" fill-rule="evenodd" stroke="url(#i)"/><path d="m38.276321 16.325703 5.192948 7.194661h-39.5083235l4.6640688-7.199601 29.6513067.00494z" display="block" fill="url(#g)" stroke="#a0670c" stroke-linecap="round" stroke-linejoin="round"/><path d="m32.849333 9.6141009 4.682886 6.9222691 9.033616 4.384827-8.114506-8.912652-5.601996-2.3944441z" display="block" fill="url(#f)" stroke="#a0670c" stroke-linecap="round" stroke-linejoin="round"/></g><path d="m13.617702 9.7151161-3.9757787 6.7202389-9.13463147 4.384827 8.11450547-8.912652 4.9959047-2.1924139z" display="block" fill="#f8e8cf" stroke="#a0670c" stroke-linecap="round" stroke-linejoin="round"/><path d="m37.024959 16.43605 4.453912 6.056961h-35.8305918l4.141019-6.180317 27.2356608.123356z" display="block" fill="none" stroke="#f4e3ca"/><path d="m9.6523127 16.371803 3.3843303-5.778783 20.478198-.075221 3.841941 5.852081z" fill="none" opacity=".879747" stroke="url(#e)" stroke-linecap="round" stroke-linejoin="round"/><g fill="#ef2929" transform="matrix(.120197 0 0 .120197 16.726 25.06445)"><path d="m60.968 47.645c-1.494.02.282.768 2.233 1.069.54-.422 1.028-.846 1.463-1.26-1.214.297-2.45.304-3.696.191"/><path d="m68.987 45.646c.891-1.229 1.54-2.573 1.768-3.963-.201.99-.736 1.845-1.244 2.749-2.793 1.759-.264-1.044-.002-2.111-3.002 3.783-.413 2.268-.522 3.325"/><path d="m71.949 37.942c.181-2.691-.53-1.839-.768-.814.277.146.498 1.898.768.814"/><path d="m55.301 1.163c.798.142 1.725.252 1.592.443.874-.193 1.072-.367-1.592-.443"/><path d="m56.893 1.606-.562.117.525-.048z"/><path d="m81.761 38.962c.09 2.416-.705 3.59-1.424 5.666l-1.292.643c-1.056 2.054.105 1.304-.653 2.937-1.652 1.467-5.006 4.589-6.08 4.875-.785-.017.531-.926.703-1.281-2.209 1.516-1.774 2.276-5.151 3.199l-.099-.221c-8.33 3.92-19.902-3.847-19.75-14.443-.088.672-.253.504-.437.774-.43-5.451 2.518-10.926 7.49-13.165 4.863-2.406 10.564-1.42 14.046 1.829-1.913-2.506-5.721-5.163-10.234-4.917-4.421.072-8.557 2.881-9.938 5.932-2.264 1.425-2.528 5.496-3.514 6.242-1.329 9.76 2.497 13.975 8.97 18.936 1.016.686.286.791.422 1.313-2.15-1.006-4.118-2.526-5.738-4.387.86 1.257 1.787 2.479 2.986 3.439-2.029-.685-4.738-4.913-5.527-5.085 3.495 6.258 14.178 10.975 19.775 8.634-2.589.096-5.878.053-8.787-1.022-1.224-.629-2.884-1.93-2.587-2.173 7.635 2.851 15.522 2.158 22.129-3.137 1.68-1.31 3.516-3.537 4.047-3.567-.798 1.202.137.578-.476 1.639 1.673-2.701-.729-1.1 1.73-4.664l.909 1.25c-.339-2.244 2.785-4.966 2.466-8.512.717-1.084.799 1.168.039 3.662 1.055-2.767.28-3.212.549-5.496.292.768.678 1.583.875 2.394-.687-2.675.703-4.503 1.049-6.058-.342-.15-1.06 1.182-1.226-1.976.025-1.372.382-.719.519-1.057-.268-.155-.975-1.207-1.404-3.224.309-.475.832 1.229 1.256 1.298-.273-1.603-.743-2.826-.762-4.057-1.24-2.59-.44.346-1.443-1.112-1.32-4.114 1.093-.955 1.257-2.823 1.998 2.895 3.138 7.385 3.662 9.244-.4-2.267-1.044-4.464-1.834-6.589.61.257-.977-4.663.791-1.405-1.888-6.945-8.078-13.435-13.773-16.479.695.637 1.575 1.437 1.26 1.563-2.833-1.685-2.335-1.818-2.742-2.53-2.305-.939-2.458.077-3.985.002-4.348-2.308-5.187-2.062-9.19-3.507l.181.852c-2.881-.96-3.357.362-6.47.002-.189-.147.998-.536 1.975-.677-2.785.368-2.655-.55-5.381.101.671-.471 1.383-.784 2.099-1.184-2.271.138-5.424 1.322-4.451.244-3.705 1.654-10.286 3.975-13.979 7.438l-.116-.776c-1.692 2.031-7.379 6.066-7.832 8.699l-.453.105c-.879 1.491-1.45 3.18-2.148 4.713-1.151 1.963-1.688.756-1.524 1.064-2.265 4.592-3.392 8.45-4.363 11.616.692 1.035.017 6.232.278 10.391-1.136 20.544 14.418 40.49 31.42 45.093 2.492.893 6.197.86 9.35.949-3.719-1.064-4.199-.562-7.823-1.826-2.613-1.232-3.185-2.637-5.037-4.244l.733 1.295c-3.63-1.285-2.111-1.59-5.065-2.525l.783-1.022c-1.177-.09-3.117-1.982-3.647-3.033l-1.288.051c-1.546-1.907-2.371-3.284-2.31-4.35l-.416.742c-.471-.808-5.691-7.158-2.983-5.68-.503-.458-1.172-.747-1.897-2.066l.551-.629c-1.301-1.677-2.398-3.826-2.314-4.542.695.938 1.177 1.114 1.655 1.275-3.291-8.164-3.476-.449-5.967-8.31l.526-.042c-.403-.611-.65-1.27-.974-1.919l.23-2.285c-2.368-2.736-.662-11.645-.319-16.53.235-1.986 1.977-4.101 3.3-7.418l-.806-.138c1.542-2.688 8.802-10.799 12.166-10.383 1.629-2.046-.324-.008-.643-.522 3.579-3.703 4.704-2.616 7.119-3.283 2.603-1.545-2.235.604-1.001-.589 4.503-1.149 3.19-2.614 9.063-3.197.62.352-1.437.544-1.953 1.001 3.75-1.836 11.869-1.417 17.144 1.018 6.118 2.861 12.994 11.314 13.266 19.267l.308.083c-.156 3.162.484 6.819-.626 10.177z"/><path d="m44.658 49.695-.211 1.047c.983 1.335 1.763 2.781 3.016 3.821-.902-1.759-1.571-2.486-2.805-4.868"/><path d="m46.979 49.605c-.52-.576-.826-1.268-1.172-1.956.33 1.211 1.006 2.252 1.633 3.312z"/><path d="m88.062 40.675-.219.552c-.402 2.858-1.272 5.686-2.605 8.309 1.472-2.767 2.422-5.794 2.824-8.861"/><path d="m55.598.446c1.01-.369 2.482-.203 3.556-.446-1.398.117-2.789.187-4.162.362z"/><path d="m20.127 19.308c.233 2.154-1.62 2.991.41 1.569 1.09-2.454-.424-.677-.41-1.569"/><path d="m17.739 29.282c.469-1.437.553-2.299.732-3.132-1.293 1.654-.596 2.007-.732 3.132"/></g></svg>