<?xml version="1.0" encoding="UTF-8" standalone="no"?>
<!-- Created with Inkscape (http://www.inkscape.org/) -->
<svg
   xmlns:dc="http://purl.org/dc/elements/1.1/"
   xmlns:cc="http://web.resource.org/cc/"
   xmlns:rdf="http://www.w3.org/1999/02/22-rdf-syntax-ns#"
   xmlns:svg="http://www.w3.org/2000/svg"
   xmlns="http://www.w3.org/2000/svg"
   xmlns:xlink="http://www.w3.org/1999/xlink"
   xmlns:sodipodi="http://sodipodi.sourceforge.net/DTD/sodipodi-0.dtd"
   xmlns:inkscape="http://www.inkscape.org/namespaces/inkscape"
   sodipodi:docname="deb.svg"
   sodipodi:docbase="/Users/izoo/Sites/spip-zone/_graphismes_/logos/spip_tango/tango_vignettes/svg"
   inkscape:version="0.44.1"
   sodipodi:version="0.32"
   id="svg2963"
   viewBox="0 0 48 48" height="52px"
   width="52px"
   inkscape:export-filename="/Users/izoo/Sites/spip-zone/_graphismes_/logos/spip_tango/tango_vignettes/png/deb.png"
   inkscape:export-xdpi="97"
   inkscape:export-ydpi="97">
  <defs
     id="defs3">
    <radialGradient
       inkscape:collect="always"
       xlink:href="#linearGradient5060"
       id="radialGradient6719"
       gradientUnits="userSpaceOnUse"
       gradientTransform="matrix(-2.774389,0,0,1.969706,112.7623,-872.8854)"
       cx="605.71429"
       cy="486.64789"
       fx="605.71429"
       fy="486.64789"
       r="117.14286" />
    <linearGradient
       inkscape:collect="always"
       id="linearGradient5060">
      <stop
         style="stop-color:black;stop-opacity:1;"
         offset="0"
         id="stop5062" />
      <stop
         style="stop-color:black;stop-opacity:0;"
         offset="1"
         id="stop5064" />
    </linearGradient>
    <radialGradient
       inkscape:collect="always"
       xlink:href="#linearGradient5060"
       id="radialGradient6717"
       gradientUnits="userSpaceOnUse"
       gradientTransform="matrix(2.774389,0,0,1.969706,-1891.633,-872.8854)"
       cx="605.71429"
       cy="486.64789"
       fx="605.71429"
       fy="486.64789"
       r="117.14286" />
    <linearGradient
       id="linearGradient5048">
      <stop
         style="stop-color:black;stop-opacity:0;"
         offset="0"
         id="stop5050" />
      <stop
         id="stop5056"
         offset="0.5"
         style="stop-color:black;stop-opacity:1;" />
      <stop
         style="stop-color:black;stop-opacity:0;"
         offset="1"
         id="stop5052" />
    </linearGradient>
    <linearGradient
       inkscape:collect="always"
       xlink:href="#linearGradient5048"
       id="linearGradient6715"
       gradientUnits="userSpaceOnUse"
       gradientTransform="matrix(2.774389,0,0,1.969706,-1892.179,-872.8854)"
       x1="302.85715"
       y1="366.64789"
       x2="302.85715"
       y2="609.50507" />
    <linearGradient
       id="linearGradient2869">
      <stop
         style="stop-color:#ffffff;stop-opacity:1;"
         offset="0"
         id="stop2871" />
      <stop
         style="stop-color:#cccccc;stop-opacity:1.0000000;"
         offset="1.0000000"
         id="stop2873" />
    </linearGradient>
    <linearGradient
       id="linearGradient4995">
      <stop
         id="stop4997"
         offset="0"
         style="stop-color:#de9523;stop-opacity:1;" />
      <stop
         id="stop4999"
         offset="1.0000000"
         style="stop-color:#a36d18;stop-opacity:1.0000000;" />
    </linearGradient>
    <linearGradient
       id="linearGradient4987"
       inkscape:collect="always">
      <stop
         id="stop4989"
         offset="0"
         style="stop-color:#a0670c;stop-opacity:1;" />
      <stop
         id="stop4991"
         offset="1"
         style="stop-color:#a0670c;stop-opacity:0;" />
    </linearGradient>
    <linearGradient
       id="linearGradient4979">
      <stop
         id="stop4981"
         offset="0.0000000"
         style="stop-color:#fbf0e0;stop-opacity:1.0000000;" />
      <stop
         id="stop4983"
         offset="1.0000000"
         style="stop-color:#f0ce99;stop-opacity:1.0000000;" />
    </linearGradient>
    <linearGradient
       id="linearGradient4946"
       inkscape:collect="always">
      <stop
         id="stop4948"
         offset="0"
         style="stop-color:#000000;stop-opacity:1;" />
      <stop
         id="stop4950"
         offset="1"
         style="stop-color:#000000;stop-opacity:0;" />
    </linearGradient>
    <linearGradient
       id="linearGradient4222">
      <stop
         id="stop4224"
         offset="0"
         style="stop-color:#ffffff;stop-opacity:1;" />
      <stop
         id="stop4226"
         offset="1.0000000"
         style="stop-color:#ffffff;stop-opacity:0.68639052;" />
    </linearGradient>
    <linearGradient
       id="linearGradient4210">
      <stop
         id="stop4212"
         offset="0.0000000"
         style="stop-color:#eaba6f;stop-opacity:1.0000000;" />
      <stop
         id="stop4214"
         offset="1.0000000"
         style="stop-color:#b97a1b;stop-opacity:1.0000000;" />
    </linearGradient>
    <linearGradient
       id="linearGradient4192">
      <stop
         id="stop4194"
         offset="0"
         style="stop-color:#e9b96e;stop-opacity:1;" />
      <stop
         id="stop4196"
         offset="1.0000000"
         style="stop-color:#f1d19e;stop-opacity:1.0000000;" />
    </linearGradient>
    <linearGradient
       id="linearGradient4182">
      <stop
         id="stop4184"
         offset="0.0000000"
         style="stop-color:#a36d18;stop-opacity:1.0000000;" />
      <stop
         id="stop4186"
         offset="1.0000000"
         style="stop-color:#d79020;stop-opacity:1.0000000;" />
    </linearGradient>
    <radialGradient
       inkscape:collect="always"
       xlink:href="#linearGradient4946"
       id="radialGradient2252"
       gradientUnits="userSpaceOnUse"
       gradientTransform="matrix(1.000000,0.000000,0.000000,0.333333,2.658463e-16,23.58206)"
       cx="22.930462"
       cy="35.373093"
       fx="22.930462"
       fy="35.373093"
       r="17.576654" />
    <linearGradient
       inkscape:collect="always"
       xlink:href="#linearGradient4979"
       id="linearGradient2269"
       gradientUnits="userSpaceOnUse"
       x1="30.062469"
       y1="13.444801"
       x2="17.696169"
       y2="12.333632" />
    <linearGradient
       inkscape:collect="always"
       xlink:href="#linearGradient4995"
       id="linearGradient2274"
       gradientUnits="userSpaceOnUse"
       x1="36.288929"
       y1="14.661557"
       x2="47.065835"
       y2="15.267649" />
    <linearGradient
       inkscape:collect="always"
       xlink:href="#linearGradient4192"
       id="linearGradient2277"
       gradientUnits="userSpaceOnUse"
       gradientTransform="matrix(1.000000,0.000000,0.000000,0.986355,0.000000,0.316638)"
       x1="25.381256"
       y1="24.720648"
       x2="24.119167"
       y2="16.170370" />
    <linearGradient
       inkscape:collect="always"
       xlink:href="#linearGradient4182"
       id="linearGradient2280"
       gradientUnits="userSpaceOnUse"
       gradientTransform="matrix(1.000000,0.000000,0.000000,1.039184,0.000000,-4.057054e-2)"
       x1="16.148972"
       y1="12.636667"
       x2="34.193642"
       y2="12.636667" />
    <linearGradient
       inkscape:collect="always"
       xlink:href="#linearGradient4987"
       id="linearGradient2282"
       gradientUnits="userSpaceOnUse"
       x1="21.906841"
       y1="9.7577486"
       x2="22.071806"
       y2="16.020695" />
    <linearGradient
       inkscape:collect="always"
       xlink:href="#linearGradient4222"
       id="linearGradient2285"
       gradientUnits="userSpaceOnUse"
       x1="18.706615"
       y1="19.912336"
       x2="30.014812"
       y2="47.388485" />
    <linearGradient
       inkscape:collect="always"
       xlink:href="#linearGradient4210"
       id="linearGradient2288"
       gradientUnits="userSpaceOnUse"
       x1="24.990499"
       y1="34.004856"
       x2="24.990499"
       y2="22.585211" />
  </defs>
  <sodipodi:namedview
     inkscape:window-y="242"
     inkscape:window-x="392"
     inkscape:window-height="706"
     inkscape:window-width="872"
     stroke="#c17d11"
     fill="#e9b96e"
     inkscape:showpageshadow="false"
     inkscape:document-units="px"
     inkscape:grid-bbox="true"
     showgrid="false"
     inkscape:current-layer="layer1"
     inkscape:cy="24.965483"
     inkscape:cx="27.175542"
     inkscape:zoom="9.8944917"
     inkscape:pageshadow="2"
     inkscape:pageopacity="0.0"
     borderopacity="0.16470588"
     bordercolor="#666666"
     pagecolor="#ffffff"
     id="base" />
  <metadata
     id="metadata4">
    <rdf:RDF>
      <cc:Work
         rdf:about="">
        <dc:format>image/svg+xml</dc:format>
        <dc:type
           rdf:resource="http://purl.org/dc/dcmitype/StillImage" />
        <dc:title>Package</dc:title>
        <dc:creator>
          <cc:Agent>
            <dc:title>Jakub Steiner</dc:title>
          </cc:Agent>
        </dc:creator>
        <dc:source>http://jimmac.musichall.cz/</dc:source>
        <dc:subject>
          <rdf:Bag>
            <rdf:li>package</rdf:li>
            <rdf:li>archive</rdf:li>
            <rdf:li>tarball</rdf:li>
            <rdf:li>tar</rdf:li>
            <rdf:li>bzip</rdf:li>
            <rdf:li>gzip</rdf:li>
            <rdf:li>zip</rdf:li>
            <rdf:li>arj</rdf:li>
            <rdf:li>tar</rdf:li>
            <rdf:li>jar</rdf:li>
          </rdf:Bag>
        </dc:subject>
        <cc:license
           rdf:resource="http://creativecommons.org/licenses/by-sa/2.0/" />
      </cc:Work>
      <cc:License
         rdf:about="http://creativecommons.org/licenses/by-sa/2.0/">
        <cc:permits
           rdf:resource="http://web.resource.org/cc/Reproduction" />
        <cc:permits
           rdf:resource="http://web.resource.org/cc/Distribution" />
        <cc:requires
           rdf:resource="http://web.resource.org/cc/Notice" />
        <cc:requires
           rdf:resource="http://web.resource.org/cc/Attribution" />
        <cc:permits
           rdf:resource="http://web.resource.org/cc/DerivativeWorks" />
        <cc:requires
           rdf:resource="http://web.resource.org/cc/ShareAlike" />
      </cc:License>
    </rdf:RDF>
  </metadata>
  <g
     inkscape:groupmode="layer"
     inkscape:label="Layer 1"
     id="layer1">
    <g
       style="display:inline"
       transform="matrix(2.105461e-2,0,0,2.086758e-2,42.60172,35.4036)"
       id="g6707">
      <rect
         style="opacity:0.40206185;color:black;fill:url(#linearGradient6715);fill-opacity:1;fill-rule:nonzero;stroke:none;stroke-width:1;stroke-linecap:round;stroke-linejoin:miter;marker:none;marker-start:none;marker-mid:none;marker-end:none;stroke-miterlimit:4;stroke-dasharray:none;stroke-dashoffset:0;stroke-opacity:1;visibility:visible;display:inline;overflow:visible"
         id="rect6709"
         width="1339.6335"
         height="478.35718"
         x="-1559.2523"
         y="-150.69685" />
      <path
         style="opacity:0.40206185;color:black;fill:url(#radialGradient6717);fill-opacity:1;fill-rule:nonzero;stroke:none;stroke-width:1;stroke-linecap:round;stroke-linejoin:miter;marker:none;marker-start:none;marker-mid:none;marker-end:none;stroke-miterlimit:4;stroke-dasharray:none;stroke-dashoffset:0;stroke-opacity:1;visibility:visible;display:inline;overflow:visible"
         d="M -219.61876,-150.68038 C -219.61876,-150.68038 -219.61876,327.65041 -219.61876,327.65041 C -76.744594,328.55086 125.78146,220.48075 125.78138,88.454235 C 125.78138,-43.572302 -33.655436,-150.68036 -219.61876,-150.68038 z "
         id="path6711"
         sodipodi:nodetypes="cccc" />
      <path
         sodipodi:nodetypes="cccc"
         id="path6713"
         d="M -1559.2523,-150.68038 C -1559.2523,-150.68038 -1559.2523,327.65041 -1559.2523,327.65041 C -1702.1265,328.55086 -1904.6525,220.48075 -1904.6525,88.454235 C -1904.6525,-43.572302 -1745.2157,-150.68036 -1559.2523,-150.68038 z "
         style="opacity:0.40206185;color:black;fill:url(#radialGradient6719);fill-opacity:1;fill-rule:nonzero;stroke:none;stroke-width:1;stroke-linecap:round;stroke-linejoin:miter;marker:none;marker-start:none;marker-mid:none;marker-end:none;stroke-miterlimit:4;stroke-dasharray:none;stroke-dashoffset:0;stroke-opacity:1;visibility:visible;display:inline;overflow:visible" />
    </g>
    <rect
       ry="2.3944440"
       rx="2.4241352"
       y="15.275433"
       x="7.4623847"
       height="23.112879"
       width="31.978371"
       id="rect3115"
       style="opacity:1.0000000;color:#000000;fill:url(#linearGradient2288);fill-opacity:1.0000000;fill-rule:nonzero;stroke:#a0670c;stroke-width:1.0000007;stroke-linecap:butt;stroke-linejoin:miter;marker:none;marker-start:none;marker-mid:none;marker-end:none;stroke-miterlimit:4.0000000;stroke-dasharray:none;stroke-dashoffset:0.0000000;stroke-opacity:1.0000000;visibility:visible;display:block;overflow:visible" />
    <rect
       style="opacity:0.48101267;color:#000000;fill:none;fill-opacity:1.0000000;fill-rule:nonzero;stroke:url(#linearGradient2285);stroke-width:1.0000011;stroke-linecap:butt;stroke-linejoin:miter;marker:none;marker-start:none;marker-mid:none;marker-end:none;stroke-miterlimit:4.0000000;stroke-dasharray:none;stroke-dashoffset:0.0000000;stroke-opacity:1.0000000;visibility:visible;display:block;overflow:visible"
       id="rect4220"
       width="29.804138"
       height="21.075352"
       x="8.4989996"
       y="16.243698"
       rx="1.2846882"
       ry="1.2846882" />
    <path
       sodipodi:nodetypes="ccccc"
       id="path4162"
       d="M 8.7697819,16.547178 L 13.819731,9.7363408 L 32.615291,9.6353255 L 37.835264,16.408941 L 8.7697819,16.547178 z "
       style="fill:url(#linearGradient2280);fill-opacity:1.0000000;fill-rule:evenodd;stroke:url(#linearGradient2282);stroke-width:1.0000008;stroke-linecap:butt;stroke-linejoin:miter;stroke-miterlimit:4.0000000;stroke-dasharray:none;stroke-opacity:1.0000000" />
    <path
       sodipodi:nodetypes="ccccc"
       id="path4164"
       d="M 38.276321,16.325703 L 43.469269,23.520364 L 3.9609455,23.520364 L 8.6250143,16.320763 L 38.276321,16.325703 z "
       style="opacity:1.0000000;color:#000000;fill:url(#linearGradient2277);fill-opacity:1.0000000;fill-rule:nonzero;stroke:#a0670c;stroke-width:1.0000005;stroke-linecap:round;stroke-linejoin:round;marker:none;marker-start:none;marker-mid:none;marker-end:none;stroke-miterlimit:4.0000000;stroke-dasharray:none;stroke-dashoffset:0.0000000;stroke-opacity:1.0000000;visibility:visible;display:block;overflow:visible" />
    <path
       sodipodi:nodetypes="ccccc"
       id="path4178"
       d="M 32.849333,9.6141009 L 37.532219,16.536370 L 46.565835,20.921197 L 38.451329,12.008545 L 32.849333,9.6141009 z "
       style="opacity:1.0000000;color:#000000;fill:url(#linearGradient2274);fill-opacity:1.0000000;fill-rule:nonzero;stroke:#a0670c;stroke-width:1.0000005;stroke-linecap:round;stroke-linejoin:round;marker:none;marker-start:none;marker-mid:none;marker-end:none;stroke-miterlimit:4.0000000;stroke-dasharray:none;stroke-dashoffset:0.0000000;stroke-opacity:1.0000000;visibility:visible;display:block;overflow:visible" />
    <path
       sodipodi:nodetypes="ccccc"
       style="opacity:1.0000000;color:#000000;fill:#f8e8cf;fill-opacity:1.0000000;fill-rule:nonzero;stroke:#a0670c;stroke-width:1.0000000;stroke-linecap:round;stroke-linejoin:round;marker:none;marker-start:none;marker-mid:none;marker-end:none;stroke-miterlimit:4.0000000;stroke-dasharray:none;stroke-dashoffset:0.0000000;stroke-opacity:1.0000000;visibility:visible;display:block;overflow:visible"
       d="M 13.617702,9.7151161 L 9.6419233,16.435355 L 0.50729183,20.820182 L 8.6217973,11.907530 L 13.617702,9.7151161 z "
       id="path4180" />
    <path
       style="opacity:1.0000000;color:#000000;fill:none;fill-opacity:1.0000000;fill-rule:nonzero;stroke:#f4e3ca;stroke-width:1.0000000;stroke-linecap:butt;stroke-linejoin:miter;marker:none;marker-start:none;marker-mid:none;marker-end:none;stroke-miterlimit:4.0000000;stroke-dasharray:none;stroke-dashoffset:0.0000000;stroke-opacity:1.0000000;visibility:visible;display:block;overflow:visible"
       d="M 37.024959,16.436050 L 41.478871,22.493011 L 5.6482792,22.493011 L 9.7892982,16.312694 L 37.024959,16.436050 z "
       id="path4954"
       sodipodi:nodetypes="ccccc" />
    <path
       style="opacity:0.87974685;fill:none;fill-opacity:1.0000000;fill-rule:evenodd;stroke:url(#linearGradient2269);stroke-width:1.0000000;stroke-linecap:round;stroke-linejoin:round;stroke-miterlimit:4.0000000;stroke-dasharray:none;stroke-opacity:1.0000000"
       d="M 9.6523127,16.371803 L 13.036643,10.593020 L 33.514841,10.517799 L 37.356782,16.369880 L 9.6523127,16.371803 z "
       id="path4966"
       sodipodi:nodetypes="ccccc" />
    <g
       id="g8409"
       transform="matrix(0.120197,0,0,0.120197,16.726,25.06445)"
       style="fill:#ef2929">
      <path
         d="M 60.968,47.645 C 59.474,47.665 61.25,48.413 63.201,48.714 C 63.741,48.292 64.229,47.868 64.664,47.454 C 63.45,47.751 62.214,47.758 60.968,47.645"
         style="fill:#ef2929;stroke:none;stroke-miterlimit:10"
         id="path10" />
      <path
         d="M 68.987,45.646 C 69.878,44.417 70.527,43.073 70.755,41.683 C 70.554,42.673 70.019,43.528 69.511,44.432 C 66.718,46.191 69.247,43.388 69.509,42.321 C 66.507,46.104 69.096,44.589 68.987,45.646"
         style="fill:#ef2929;stroke:none;stroke-miterlimit:10"
         id="path12" />
      <path
         d="M 71.949,37.942 C 72.13,35.251 71.419,36.103 71.181,37.128 C 71.458,37.274 71.679,39.026 71.949,37.942"
         style="fill:#ef2929;stroke:none;stroke-miterlimit:10"
         id="path14" />
      <path
         d="M 55.301,1.163 C 56.099,1.305 57.026,1.415 56.893,1.606 C 57.767,1.413 57.965,1.239 55.301,1.163"
         style="fill:#ef2929;stroke:none;stroke-miterlimit:10"
         id="path16" />
      <path
         d="M 56.893,1.606 L 56.331,1.723 L 56.856,1.675 L 56.893,1.606"
         style="fill:#ef2929;stroke:none;stroke-miterlimit:10"
         id="path18" />
      <path
         d="M 81.761,38.962 C 81.851,41.378 81.056,42.552 80.337,44.628 L 79.045,45.271 C 77.989,47.325 79.15,46.575 78.392,48.208 C 76.74,49.675 73.386,52.797 72.312,53.083 C 71.527,53.066 72.843,52.157 73.015,51.802 C 70.806,53.318 71.241,54.078 67.864,55.001 L 67.765,54.78 C 59.435,58.7 47.863,50.933 48.015,40.337 C 47.927,41.009 47.762,40.841 47.578,41.111 C 47.148,35.66 50.096,30.185 55.068,27.946 C 59.931,25.54 65.632,26.526 69.114,29.775 C 67.201,27.269 63.393,24.612 58.88,24.858 C 54.459,24.93 50.323,27.739 48.942,30.79 C 46.678,32.215 46.414,36.286 45.428,37.032 C 44.099,46.792 47.925,51.007 54.398,55.968 C 55.414,56.654 54.684,56.759 54.82,57.281 C 52.67,56.275 50.702,54.755 49.082,52.894 C 49.942,54.151 50.869,55.373 52.068,56.333 C 50.039,55.648 47.33,51.42 46.541,51.248 C 50.036,57.506 60.719,62.223 66.316,59.882 C 63.727,59.978 60.438,59.935 57.529,58.86 C 56.305,58.231 54.645,56.93 54.942,56.687 C 62.577,59.538 70.464,58.845 77.071,53.55 C 78.751,52.24 80.587,50.013 81.118,49.983 C 80.32,51.185 81.255,50.561 80.642,51.622 C 82.315,48.921 79.913,50.522 82.372,46.958 L 83.281,48.208 C 82.942,45.964 86.066,43.242 85.747,39.696 C 86.464,38.612 86.546,40.864 85.786,43.358 C 86.841,40.591 86.066,40.146 86.335,37.862 C 86.627,38.63 87.013,39.445 87.21,40.256 C 86.523,37.581 87.913,35.753 88.259,34.198 C 87.917,34.048 87.199,35.38 87.033,32.222 C 87.058,30.85 87.415,31.503 87.552,31.165 C 87.284,31.01 86.577,29.958 86.148,27.941 C 86.457,27.466 86.98,29.17 87.404,29.239 C 87.131,27.636 86.661,26.413 86.642,25.182 C 85.402,22.592 86.202,25.528 85.199,24.07 C 83.879,19.956 86.292,23.115 86.456,21.247 C 88.454,24.142 89.594,28.632 90.118,30.491 C 89.718,28.224 89.074,26.027 88.284,23.902 C 88.894,24.159 87.307,19.239 89.075,22.497 C 87.187,15.552 80.997,9.062 75.302,6.018 C 75.997,6.655 76.877,7.455 76.562,7.581 C 73.729,5.896 74.227,5.763 73.82,5.051 C 71.515,4.112 71.362,5.128 69.835,5.053 C 65.487,2.745 64.648,2.991 60.645,1.546 L 60.826,2.398 C 57.945,1.438 57.469,2.76 54.356,2.4 C 54.167,2.253 55.354,1.864 56.331,1.723 C 53.546,2.091 53.676,1.173 50.95,1.824 C 51.621,1.353 52.333,1.04 53.049,0.64 C 50.778,0.778 47.625,1.962 48.598,0.884 C 44.893,2.538 38.312,4.859 34.619,8.322 L 34.503,7.546 C 32.811,9.577 27.124,13.612 26.671,16.245 L 26.218,16.35 C 25.339,17.841 24.768,19.53 24.07,21.063 C 22.919,23.026 22.382,21.819 22.546,22.127 C 20.281,26.719 19.154,30.577 18.183,33.743 C 18.875,34.778 18.2,39.975 18.461,44.134 C 17.325,64.678 32.879,84.624 49.881,89.227 C 52.373,90.12 56.078,90.087 59.231,90.176 C 55.512,89.112 55.032,89.614 51.408,88.35 C 48.795,87.118 48.223,85.713 46.371,84.106 L 47.104,85.401 C 43.474,84.116 44.993,83.811 42.039,82.876 L 42.822,81.854 C 41.645,81.764 39.705,79.872 39.175,78.821 L 37.887,78.872 C 36.341,76.965 35.516,75.588 35.577,74.522 L 35.161,75.264 C 34.69,74.456 29.47,68.106 32.178,69.584 C 31.675,69.126 31.006,68.837 30.281,67.518 L 30.832,66.889 C 29.531,65.212 28.434,63.063 28.518,62.347 C 29.213,63.285 29.695,63.461 30.173,63.622 C 26.882,55.458 26.697,63.173 24.206,55.312 L 24.732,55.27 C 24.329,54.659 24.082,54 23.758,53.351 L 23.988,51.066 C 21.62,48.33 23.326,39.421 23.669,34.536 C 23.904,32.55 25.646,30.435 26.969,27.118 L 26.163,26.98 C 27.705,24.292 34.965,16.181 38.329,16.597 C 39.958,14.551 38.005,16.589 37.686,16.075 C 41.265,12.372 42.39,13.459 44.805,12.792 C 47.408,11.247 42.57,13.396 43.804,12.203 C 48.307,11.054 46.994,9.589 52.867,9.006 C 53.487,9.358 51.43,9.55 50.914,10.007 C 54.664,8.171 62.783,8.59 68.058,11.025 C 74.176,13.886 81.052,22.339 81.324,30.292 L 81.632,30.375 C 81.476,33.537 82.116,37.194 81.006,40.552 L 81.761,38.962"
         style="fill:#ef2929;stroke:none;stroke-miterlimit:10"
         id="path20" />
      <path
         d="M 44.658,49.695 L 44.447,50.742 C 45.43,52.077 46.21,53.523 47.463,54.563 C 46.561,52.804 45.892,52.077 44.658,49.695"
         style="fill:#ef2929;stroke:none;stroke-miterlimit:10"
         id="path22" />
      <path
         d="M 46.979,49.605 C 46.459,49.029 46.153,48.337 45.807,47.649 C 46.137,48.86 46.813,49.901 47.44,50.961 L 46.979,49.605"
         style="fill:#ef2929;stroke:none;stroke-miterlimit:10"
         id="path24" />
      <path
         d="M 88.062,40.675 L 87.843,41.227 C 87.441,44.085 86.571,46.913 85.238,49.536 C 86.71,46.769 87.66,43.742 88.062,40.675"
         style="fill:#ef2929;stroke:none;stroke-miterlimit:10"
         id="path26" />
      <path
         d="M 55.598,0.446 C 56.608,0.077 58.08,0.243 59.154,-5.6843419e-14 C 57.756,0.117 56.365,0.187 54.992,0.362 L 55.598,0.446"
         style="fill:#ef2929;stroke:none;stroke-miterlimit:10"
         id="path28" />
      <path
         d="M 20.127,19.308 C 20.36,21.462 18.507,22.299 20.537,20.877 C 21.627,18.423 20.113,20.2 20.127,19.308"
         style="fill:#ef2929;stroke:none;stroke-miterlimit:10"
         id="path30" />
      <path
         d="M 17.739,29.282 C 18.208,27.845 18.292,26.983 18.471,26.15 C 17.178,27.804 17.875,28.157 17.739,29.282"
         style="fill:#ef2929;stroke:none;stroke-miterlimit:10"
         id="path32" />
    </g>
  </g>
</svg>
