<svg height="52" viewBox="0 0 48 48" width="52" xmlns="http://www.w3.org/2000/svg" xmlns:xlink="http://www.w3.org/1999/xlink"><radialGradient id="a" cx="605.71429" cy="486.64789" gradientTransform="matrix(-2.774389 0 0 1.969706 112.7623 -872.8854)" gradientUnits="userSpaceOnUse" r="117.14286" xlink:href="#b"/><linearGradient id="b"><stop offset="0"/><stop offset="1" stop-opacity="0"/></linearGradient><radialGradient id="c" cx="605.71429" cy="486.64789" gradientTransform="matrix(2.774389 0 0 1.969706 -1891.633 -872.8854)" gradientUnits="userSpaceOnUse" r="117.14286" xlink:href="#b"/><linearGradient id="d" gradientTransform="matrix(2.774389 0 0 1.969706 -1892.179 -872.8854)" gradientUnits="userSpaceOnUse" x1="302.85715" x2="302.85715" y1="366.64789" y2="609.50507"><stop offset="0" stop-opacity="0"/><stop offset=".5"/><stop offset="1" stop-opacity="0"/></linearGradient><radialGradient id="e" cx="8.824419" cy="3.756129" gradientTransform="matrix(.968273 0 0 1.032767 3.353553 .646447)" gradientUnits="userSpaceOnUse" r="37.751713"><stop offset="0" stop-color="#a3a3a3"/><stop offset="1" stop-color="#4c4c4c"/></radialGradient><radialGradient id="f" cx="33.966679" cy="35.736916" gradientTransform="scale(.960493 1.041132)" gradientUnits="userSpaceOnUse" r="86.70845"><stop offset="0" stop-color="#fafafa"/><stop offset="1" stop-color="#bbb"/></radialGradient><radialGradient id="g" cx="8.143557" cy="7.267897" gradientTransform="matrix(.968273 0 0 1.032767 3.353553 .646447)" gradientUnits="userSpaceOnUse" r="38.158695"><stop offset="0" stop-color="#fff"/><stop offset="1" stop-color="#f8f8f8"/></radialGradient><linearGradient id="h"><stop offset="0" stop-color="#f0f0f0"/><stop offset="1" stop-color="#9a9a9a"/></linearGradient><radialGradient id="i" cx="9.4125070463" cy="30.2965131852" gradientUnits="userSpaceOnUse" r="1.207318968" xlink:href="#h"/><radialGradient id="j" cx="9.4125070463" cy="18.8112483337" gradientUnits="userSpaceOnUse" r="1.207548671" xlink:href="#h"/><g transform="matrix(.02105461 0 0 .02086758 42.85172 41.1536)"><path d="m-1559.2523-150.69685h1339.6335v478.35718h-1339.6335z" fill="url(#d)" opacity=".402062"/><path d="m-219.61876-150.68038v478.33079c142.874166.90045 345.40022-107.16966 345.40014-239.196175 0-132.026537-159.436816-239.134595-345.40014-239.134615z" fill="url(#c)" opacity=".402062"/><path d="m-1559.2523-150.68038v478.33079c-142.8742.90045-345.4002-107.16966-345.4002-239.196175 0-132.026537 159.4368-239.134595 345.4002-239.134615z" fill="url(#a)" opacity=".402062"/></g><g><rect display="block" fill="url(#f)" height="40.920494" ry="1.149049" stroke="url(#e)" stroke-linecap="round" stroke-linejoin="round" width="34.875" x="6.603553" y="3.646446"/><rect display="block" fill="none" height="38.946384" rx=".149049" stroke="url(#g)" stroke-linecap="round" stroke-linejoin="round" width="32.775887" x="7.666054" y="4.583946"/><g transform="translate(.646447 -.037989)"><g fill="#fff" stroke="none" transform="matrix(.229703 0 0 .229703 4.967081 4.244972)"><path d="m23.428 113.07c0 1.973-1.6 3.572-3.573 3.572-1.974 0-3.573-1.6-3.573-3.572 0-1.974 1.6-3.573 3.573-3.573s3.573 1.6 3.573 3.573z"/><path d="m23.428 63.07c0 1.973-1.6 3.573-3.573 3.573-1.974 0-3.573-1.6-3.573-3.573 0-1.974 1.6-3.573 3.573-3.573s3.573 1.6 3.573 3.573z"/></g><path d="m9.9950109 29.952326c0 .453204-.3675248.820499-.8207288.820499-.4534338 0-.8207289-.367524-.8207289-.820499 0-.453434.3675248-.820729.8207289-.820729.453204 0 .8207288.367525.8207288.820729z" fill="url(#i)"/><path d="m9.9950109 18.467176c0 .453204-.3675248.820729-.8207288.820729-.4534338 0-.8207289-.367525-.8207289-.820729 0-.453434.3675248-.820729.8207289-.820729.453204 0 .8207288.367525.8207288.820729z" fill="url(#j)"/></g><g fill="none"><path d="m11.505723 5.4942766v37.9065924" stroke="#000" stroke-opacity=".017544" stroke-width=".988553"/><path d="m12.5 5.0205154v38.0177126" stroke="#fff" stroke-opacity=".204678"/></g></g><g><g fill="#9b9b9b" fill-opacity=".549708"><rect display="block" height="1" rx=".137786" ry=".065391" width="20.000006" x="15.999994" y="9"/><rect display="block" height="1" rx=".137786" ry=".065391" width="20.000006" x="15.999994" y="11"/><rect display="block" height="1" rx=".137786" ry=".065391" width="20.000006" x="15.999994" y="13"/><rect display="block" height="1" rx=".137786" ry=".065391" width="20.000006" x="15.999994" y="15"/><rect display="block" height="1" rx=".137786" ry=".065391" width="20.000006" x="15.999994" y="17"/><rect display="block" height="1" rx=".137786" ry=".065391" width="20.000006" x="15.999994" y="19"/><rect display="block" height="1" rx=".137786" ry=".065391" width="20.000006" x="15.999994" y="21"/><rect display="block" height="1" rx=".137786" ry=".065391" width="20.000006" x="15.999994" y="23"/><rect display="block" height="1" rx=".062004" ry=".065391" width="9.000006" x="15.999986" y="25"/></g><g fill="#2e3436" stroke="#2e3436" stroke-width="1.043944" transform="matrix(.478953 0 0 .478953 12.7157 29.9192)"><path d="m12.16 11.125h-.445c-.196 2.473-.516 5.668-4.74599 5.668h-2.29701c-.98899 0-1.035-.121-1.035-.969v-13.582c0-.89398.04601-1.14398 1.918-1.14398h.539v-.59802c-1.016.046997-2.204.046997-3.219.046997-.766 0-2.155998 0-2.875-.046997v.59802c1.75401 0 2.035 0 2.035 1.11695v13.45703c0 1.117-.277 1.117-2.035 1.117v.598h11.574"/><path d="m12.328.328003c-.102-.268982-.145-.328003-.348-.328003s-.246.059021-.347.328003l-4.379 12.417997c-.39099 1.118-1.219 1.344-1.942 1.344v.5c.37101-.039 1.196-.039 1.59001-.039.51599 0 1.33999 0 1.836.039v-.5c-.96901-.039-1.11301-.711-1.11301-.961 0-.187.039-.293.082-.418l1.09401-3.11701h5.40999l1.238 3.55501c.102.25.102.293.102.375 0 .562-.887.562-1.278.562v.5c.598-.039 1.672-.039 2.313-.039.535 0 1.566 0 2.062.039v-.5c-1.093 0-1.465 0-1.734-.765zm-.828 1.640987 2.519 7.125h-5.039"/><path d="m31.246.539001h-14.301l-.418 5.476989h.446c.32-4.10199.671-4.82001 4.511-4.82001h1.367c.473.07404.473.375.473.94501v13.48001c0 .895-.074 1.168-2.16 1.168h-.703v.598c1.187-.023 2.426-.047 3.64-.047 1.211 0 2.454.024 3.641.047v-.598h-.691c-2.055 0-2.129-.273-2.129-1.168v-13.48001c0-.547 0-.84399.445-.94501h1.359c3.79 0 4.161.71399 4.481 4.82001h.445"/><path d="m43.57 16.524h-.445c-.543 3.672-.863 5.668-5.219 5.668h-3.437c-.989 0-1.036-.125-1.036-.977v-6.922h2.336c2.336 0 2.559.856 2.559 2.946h.398v-6.442h-.398c0 2.055-.223 2.895-2.559 2.895h-2.336v-6.13701c0-.836.047-.961 1.036-.961h3.386c3.832 0 4.278 1.52301 4.625 4.79701h.446l-.594-5.477h-12.539v.67999c1.754 0 2.035 0 2.035 1.11298v13.36403c0 1.113-.277 1.113-2.035 1.113v.598h12.887"/><path d="m50.246 8.01599 3.664-5.297c.367-.52002 1.113-1.59002 3.145-1.617v-.598023c-.567.046997-1.508.046997-2.102.046997-.816 0-1.832 0-2.449-.046997v.598023c.793.07397.988.57001.988.96899 0 .29602-.121.49604-.297.74201l-3.269 4.742-3.664-5.36297c-.172-.27002-.196-.34803-.196-.422 0-.22302.27-.64502 1.09-.66803v-.598023c-.793.046997-2.004.046997-2.82.046997-.641 0-1.879 0-2.477-.046997v.598023c1.36 0 1.805.05103 2.352.82001l4.777 7.01599-4.308 6.29301c-1.063 1.539-2.672 1.566-3.145 1.566v.598c.566-.047 1.508-.047 2.102-.047.668 0 1.832 0 2.449.047v-.598c-.766-.074-.988-.57-.988-.969 0-.32.121-.496.246-.672l3.961-5.781 4.308 6.332c.195.274.195.348.195.422 0 .195-.222.621-1.089.672v.598c.793-.047 2.004-.047 2.82-.047.641 0 1.879 0 2.48.047v-.598c-1.586 0-1.836-.121-2.328-.82"/></g></g></svg>