<svg height="52" viewBox="0 0 48 48" width="52" xmlns="http://www.w3.org/2000/svg" xmlns:xlink="http://www.w3.org/1999/xlink"><linearGradient id="a"><stop offset="0" stop-color="#fff"/><stop offset="1" stop-color="#fcfcff" stop-opacity="0"/></linearGradient><linearGradient id="b" gradientTransform="matrix(.965584 0 0 .698254 12.84858 -39.7739)" gradientUnits="userSpaceOnUse" x1="11.492236" x2="17.199417" xlink:href="#a" y1="1.653758" y2="26.729263"/><radialGradient id="c" cx="11.826907" cy="10.476453" gradientTransform="scale(1.179536 .847791)" gradientUnits="userSpaceOnUse" r="32.664848"><stop offset="0" stop-color="#fff"/><stop offset="1" stop-color="#fff" stop-opacity="0"/></radialGradient><linearGradient id="d"><stop offset="0"/><stop offset="1" stop-opacity="0"/></linearGradient><radialGradient id="e" cx="605.71429" cy="486.64789" gradientTransform="matrix(-2.774389 0 0 1.969706 112.7623 -872.8854)" gradientUnits="userSpaceOnUse" r="117.14286" xlink:href="#d"/><radialGradient id="f" cx="605.71429" cy="486.64789" gradientTransform="matrix(2.774389 0 0 1.969706 -1891.633 -872.8854)" gradientUnits="userSpaceOnUse" r="117.14286" xlink:href="#d"/><linearGradient id="g" gradientTransform="matrix(2.774389 0 0 1.969706 -1892.179 -872.8854)" gradientUnits="userSpaceOnUse" x1="302.85715" x2="302.85715" y1="366.64789" y2="609.50507"><stop offset="0" stop-opacity="0"/><stop offset=".5"/><stop offset="1" stop-opacity="0"/></linearGradient><radialGradient id="h" cx="8.824419" cy="3.756129" gradientTransform="matrix(.968273 0 0 1.032767 3.353553 .646447)" gradientUnits="userSpaceOnUse" r="37.751713"><stop offset="0" stop-color="#a3a3a3"/><stop offset="1" stop-color="#4c4c4c"/></radialGradient><radialGradient id="i" cx="33.966679" cy="35.736916" gradientTransform="scale(.960493 1.041132)" gradientUnits="userSpaceOnUse" r="86.70845"><stop offset="0" stop-color="#fafafa"/><stop offset="1" stop-color="#bbb"/></radialGradient><radialGradient id="j" cx="8.143557" cy="7.267897" gradientTransform="matrix(.968273 0 0 1.032767 3.353553 .646447)" gradientUnits="userSpaceOnUse" r="38.158695"><stop offset="0" stop-color="#fff"/><stop offset="1" stop-color="#f8f8f8"/></radialGradient><linearGradient id="k"><stop offset="0" stop-color="#f0f0f0"/><stop offset="1" stop-color="#9a9a9a"/></linearGradient><radialGradient id="l" cx="9.4125070463" cy="30.2965131852" gradientUnits="userSpaceOnUse" r="1.207318968" xlink:href="#k"/><radialGradient id="m" cx="9.4125070463" cy="18.8112483337" gradientUnits="userSpaceOnUse" r="1.207548671" xlink:href="#k"/><radialGradient id="n" cx="15.115514" cy="63.965388" gradientTransform="scale(1.64399 .608276)" gradientUnits="userSpaceOnUse" r="12.289036" xlink:href="#d"/><linearGradient id="o" gradientTransform="matrix(1.2147186 0 0 .41136481 20.743115 32.221469)" gradientUnits="userSpaceOnUse" x1="11.492236" x2="17.199417" xlink:href="#a" y1="1.653758" y2="26.729263"/><g transform="matrix(.02105461 0 0 .02086758 42.85172 41.1536)"><path d="m-1559.2523-150.69685h1339.6335v478.35718h-1339.6335z" fill="url(#g)" opacity=".402062"/><path d="m-219.61876-150.68038v478.33079c142.874166.90045 345.40022-107.16966 345.40014-239.196175 0-132.026537-159.436816-239.134595-345.40014-239.134615z" fill="url(#f)" opacity=".402062"/><path d="m-1559.2523-150.68038v478.33079c-142.8742.90045-345.4002-107.16966-345.4002-239.196175 0-132.026537 159.4368-239.134595 345.4002-239.134615z" fill="url(#e)" opacity=".402062"/></g><g><rect display="block" fill="url(#i)" height="40.920494" ry="1.149049" stroke="url(#h)" stroke-linecap="round" stroke-linejoin="round" width="34.875" x="6.603553" y="3.646446"/><rect display="block" fill="none" height="38.946384" rx=".149049" stroke="url(#j)" stroke-linecap="round" stroke-linejoin="round" width="32.775887" x="7.666054" y="4.583946"/><g transform="translate(.646447 -.037989)"><g fill="#fff" stroke="none" transform="matrix(.229703 0 0 .229703 4.967081 4.244972)"><path d="m23.428 113.07c0 1.973-1.6 3.572-3.573 3.572-1.974 0-3.573-1.6-3.573-3.572 0-1.974 1.6-3.573 3.573-3.573s3.573 1.6 3.573 3.573z"/><path d="m23.428 63.07c0 1.973-1.6 3.573-3.573 3.573-1.974 0-3.573-1.6-3.573-3.573 0-1.974 1.6-3.573 3.573-3.573s3.573 1.6 3.573 3.573z"/></g><path d="m9.9950109 29.952326c0 .453204-.3675248.820499-.8207288.820499-.4534338 0-.8207289-.367524-.8207289-.820499 0-.453434.3675248-.820729.8207289-.820729.453204 0 .8207288.367525.8207288.820729z" fill="url(#l)"/><path d="m9.9950109 18.467176c0 .453204-.3675248.820729-.8207288.820729-.4534338 0-.8207289-.367525-.8207289-.820729 0-.453434.3675248-.820729.8207289-.820729.453204 0 .8207288.367525.8207288.820729z" fill="url(#m)"/></g><g fill="none"><path d="m11.505723 5.4942766v37.9065924" stroke="#000" stroke-opacity=".017544" stroke-width=".988553"/><path d="m12.5 5.0205154v38.0177126" stroke="#fff" stroke-opacity=".204678"/></g></g><g><g fill="#9b9b9b" fill-opacity=".549708" transform="matrix(.909091 0 0 1 2.363628 0)"><rect display="block" height="1" rx=".151565" ry=".065391" width="22.000004" x="15.000002" y="9"/><rect display="block" height="1" rx=".151565" ry=".065391" width="22.000004" x="15.000002" y="11"/><rect display="block" height="1" rx=".151565" ry=".065391" width="22.000004" x="15.000002" y="13"/><rect display="block" height="1" rx=".151565" ry=".065391" width="22.000004" x="15.000002" y="15"/><rect display="block" height="1" rx=".151565" ry=".065391" width="22.000004" x="15.000002" y="17"/><rect display="block" height="1" rx=".151565" ry=".065391" width="22.000004" x="15.000002" y="19"/><rect display="block" height="1" rx=".151565" ry=".065391" width="22.000004" x="15.000002" y="21"/><rect display="block" height="1" rx=".151565" ry=".065391" width="22.000004" x="15.000002" y="23"/><rect display="block" height="1" rx=".068204" ry=".065391" width="9.900005" x="14.999992" y="25"/><rect display="block" height="1" rx=".151565" ry=".065391" width="22.000004" x="14.999992" y="29"/><rect display="block" height="1" rx=".151565" ry=".065391" width="22.000004" x="14.999992" y="31"/><rect display="block" height="1" rx=".151565" ry=".065391" width="22.000004" x="14.999992" y="33"/><rect display="block" height="1" rx=".151565" ry=".065391" width="22.000004" x="14.999992" y="35"/><rect display="block" height="1" rx=".106096" ry=".065391" width="15.400014" x="14.999992" y="37"/></g><path d="m30.708637 15.271057a12.929953 9.2934036 0 1 1 -25.859905 0 12.929953 9.2934036 0 1 1 25.859905 0z" fill="url(#c)" opacity=".421594" transform="matrix(.569589 0 0 .681378 -26.09093 -9.346853)"/><path d="m19.177589-35.03716-.625444 13.927064c8.607529-1.870907 8.901203-8.176991 19.603544-10.245789l-.125842-3.629788z" fill="url(#b)" fill-rule="evenodd" opacity=".531429"/><path d="m45.052803 38.908627a20.203051 7.4751287 0 1 1 -40.4061012 0 20.203051 7.4751287 0 1 1 40.4061012 0z" fill="url(#n)" transform="matrix(.489222 0 0 .608223 23.87124 19.6498)"/><rect fill="#f57900" height="12.094853" rx=".212172" ry=".10174" stroke="#ce5c00" stroke-linejoin="round" stroke-width=".985743" width="25.222891" x="19.242855" y="33.557671"/><path d="m19.748396 34.07703s-.0808 6.575613-.02649 8.2592c10.828394-1.102213 10.763367-4.980263 24.227063-6.199059l.0046-2.138426z" fill="url(#o)" fill-rule="evenodd" opacity=".531429"/><g fill="#fff"><path d="m21.610002 35.587898h5.411476v1.51563h-3.406261v1.447921h3.203135v1.51563h-3.203135v1.781255h3.520845v1.51563h-5.52606z"/><path d="m28.901692 35.587898h3.328136q1.48438 0 2.276049.66146.796877.656252.796877 1.875006 0 1.223962-.796877 1.885423-.791669.656252-2.276049.656252h-1.322921v2.697925h-2.005215zm2.005215 1.453129v2.171882h1.109378q.583336 0 .901045-.281251.317709-.286459.317709-.807294 0-.520835-.317709-.802086-.317709-.281251-.901045-.281251z"/><path d="m42.125693 35.83269v1.645839q-.640627-.286459-1.250004-.432293-.609377-.145834-1.151046-.145834-.718752 0-1.062503.197917-.343751.197918-.343751.614586 0 .312501.229167.489584.234376.171876.843753.296876l.854169.171876q1.296879.260417 1.843756.791669.546877.531252.546877 1.510422 0 1.286462-.765628 1.916672-.760419.625002-2.328132.625002-.739586 0-1.48438-.140625-.744794-.140626-1.489588-.416668v-1.692714q.744794.395835 1.437505.59896.697919.197918 1.343754.197918.656252 0 1.005212-.218751.348959-.218751.348959-.625002 0-.364585-.239584-.562502-.234376-.197917-.942711-.354168l-.776044-.171875q-1.166671-.250001-1.708339-.796878-.53646-.546876-.53646-1.473963 0-1.161462.750002-1.786464.750002-.625002 2.156257-.625002.640627 0 1.317712.09896.677086.09375 1.401047.286459z"/></g></g></svg>