<svg height="52" viewBox="0 0 48 48" width="52" xmlns="http://www.w3.org/2000/svg" xmlns:xlink="http://www.w3.org/1999/xlink"><radialGradient id="a" cx="15.115514" cy="63.965388" gradientTransform="scale(1.64399 .608276)" gradientUnits="userSpaceOnUse" r="12.289036" xlink:href="#d"/><linearGradient id="b" gradientUnits="userSpaceOnUse" x1="31.50318756006" x2="39.46343213845" xlink:href="#j" y1="36.67200721588" y2="36.67200721588"/><linearGradient id="c" gradientTransform="matrix(.849077 0 0 .682478 21.12842 23.99121)" gradientUnits="userSpaceOnUse" x1="11.492236" x2="17.199417" xlink:href="#e" y1="1.653758" y2="26.729263"/><linearGradient id="d"><stop offset="0"/><stop offset="1" stop-opacity="0"/></linearGradient><linearGradient id="e"><stop offset="0" stop-color="#fff"/><stop offset="1" stop-color="#fcfcff" stop-opacity="0"/></linearGradient><linearGradient id="f" gradientTransform="matrix(1.662163 0 0 .441228 -3.179701 2.157646)" gradientUnits="userSpaceOnUse" x1="11.492236" x2="17.199417" xlink:href="#e" y1="1.653758" y2="26.729263"/><radialGradient id="g" cx="605.71429" cy="486.64789" gradientTransform="matrix(-2.774389 0 0 1.969706 112.7623 -872.8854)" gradientUnits="userSpaceOnUse" r="117.14286" xlink:href="#d"/><radialGradient id="h" cx="605.71429" cy="486.64789" gradientTransform="matrix(2.774389 0 0 1.969706 -1891.633 -872.8854)" gradientUnits="userSpaceOnUse" r="117.14286" xlink:href="#d"/><linearGradient id="i" gradientTransform="matrix(2.774389 0 0 1.969706 -1892.179 -872.8854)" gradientUnits="userSpaceOnUse" x1="302.85715" x2="302.85715" y1="366.64789" y2="609.50507"><stop offset="0" stop-opacity="0"/><stop offset=".5"/><stop offset="1" stop-opacity="0"/></linearGradient><linearGradient id="j"><stop offset="0" stop-color="#fff"/><stop offset="1" stop-color="#f8f8f8"/></linearGradient><radialGradient id="k" cx="8.824419" cy="3.756129" gradientTransform="matrix(.968273 0 0 1.032767 3.353553 .646447)" gradientUnits="userSpaceOnUse" r="37.751713"><stop offset="0" stop-color="#a3a3a3"/><stop offset="1" stop-color="#4c4c4c"/></radialGradient><radialGradient id="l" cx="33.966679" cy="35.736916" gradientTransform="scale(.960493 1.041132)" gradientUnits="userSpaceOnUse" r="86.70845"><stop offset="0" stop-color="#fafafa"/><stop offset="1" stop-color="#bbb"/></radialGradient><radialGradient id="m" cx="8.143557" cy="7.267897" gradientTransform="matrix(.968273 0 0 1.032767 3.353553 .646447)" gradientUnits="userSpaceOnUse" r="38.158695" xlink:href="#j"/><g transform="matrix(.02105461 0 0 .02086758 42.85172 41.1536)"><path d="m-1559.2523-150.69685h1339.6335v478.35718h-1339.6335z" fill="url(#i)" opacity=".402062"/><path d="m-219.61876-150.68038v478.33079c142.874166.90045 345.40022-107.16966 345.40014-239.196175 0-132.026537-159.436816-239.134595-345.40014-239.134615z" fill="url(#h)" opacity=".402062"/><path d="m-1559.2523-150.68038v478.33079c-142.8742.90045-345.4002-107.16966-345.4002-239.196175 0-132.026537 159.4368-239.134595 345.4002-239.134615z" fill="url(#g)" opacity=".402062"/></g><g><rect display="block" fill="url(#l)" height="40.920494" ry="1.149049" stroke="url(#k)" stroke-linecap="round" stroke-linejoin="round" width="34.875" x="6.603553" y="3.646446"/><rect display="block" fill="none" height="38.946384" rx=".149049" stroke="url(#m)" stroke-linecap="round" stroke-linejoin="round" width="32.775887" x="7.666054" y="4.583946"/><g transform="matrix(.55050293013 0 .242428779 .28469921433 50.04235729358 10.82198371624)"><path d="m-67.705475-19.589479h9.545941v16.263456h-9.545941z" fill="#2e3436"/><path d="m-26.601624-19.589479h9.545941v16.263456h-9.545941z" fill="#2e3436"/><path d="m-36.877586-19.589479h9.545941v16.263456h-9.545941z" fill="#eeeeec"/><path d="m-47.153549-19.589479h9.545941v16.263456h-9.545941z" fill="#2e3436"/><path d="m-57.429512-19.589479h9.545941v16.263456h-9.545941z" fill="#eeeeec"/></g><g transform="matrix(-.55050293013 0 -.242428779 .28469921433 -2.17439743164 15.26817079656)"><path d="m-67.705475-19.589479h9.545941v16.263456h-9.545941z" fill="#2e3436"/><path d="m-26.601624-19.589479h9.545941v16.263456h-9.545941z" fill="#2e3436"/><path d="m-36.877586-19.589479h9.545941v16.263456h-9.545941z" fill="#eeeeec"/><path d="m-47.153549-19.589479h9.545941v16.263456h-9.545941z" fill="#2e3436"/><path d="m-57.429512-19.589479h9.545941v16.263456h-9.545941z" fill="#eeeeec"/></g><path d="m8.021131 5.244875h5.656854v8.838835h-5.656854z" fill="#2e3436"/><path d="m7.7151042 5.1507989-1.0766438 8.8005401c14.8170616-1.18223 15.3225946-5.1670574 33.7456796-6.474335l-.216625-2.2936703z" fill="url(#f)" fill-rule="evenodd" opacity=".471698"/><path d="m45.052803 38.908627a20.203051 7.4751287 0 1 1 -40.4061012 0 20.203051 7.4751287 0 1 1 40.4061012 0z" fill="url(#a)" transform="matrix(.51549 0 0 .640881 22.03552 18.31362)"/><rect fill="#c00" height="17.718801" rx=".149048" stroke="#a40000" stroke-linejoin="round" width="17.718801" x="26.017027" y="27.993736"/><path d="m34.290805 43.426556 1.236011-6.615268h1.671226l.36558-1.914946h-1.688634l.08704-.417807c.156677-.853021.644118-1.549365 1.462322-1.549365.330764 0 .591893.05223.800796.139269l.435215-1.984581c-.261129-.12186-.713753-.208903-1.323054-.208903-.835612 0-1.74086.226312-2.419795.800796-.853021.713752-1.253419 1.775677-1.427505 2.785376l-.06963.435215h-1.11415l-.365581 1.914946h1.114151l-1.253419 6.615268z" fill="url(#b)" stroke="#a40000" stroke-width=".596398"/><path d="m26.693774 28.620929-.549978 13.612388c7.568946-1.828635 7.827186-7.992236 17.238184-10.01429l-.110658-3.547774z" fill="url(#c)" fill-rule="evenodd" opacity=".531429"/></g></svg>