<svg height="52" viewBox="0 0 48 48" width="52" xmlns="http://www.w3.org/2000/svg" xmlns:xlink="http://www.w3.org/1999/xlink"><linearGradient id="a" gradientTransform="matrix(1.196436 0 0 .698254 6.238107 2.729113)" gradientUnits="userSpaceOnUse" x1="11.492236" x2="17.199417" y1="1.653758" y2="26.729263"><stop offset="0" stop-color="#fff"/><stop offset="1" stop-color="#fcfcff" stop-opacity="0"/></linearGradient><radialGradient id="b" cx="605.71429" cy="486.64789" gradientTransform="matrix(-2.774389 0 0 1.969706 112.7623 -872.8854)" gradientUnits="userSpaceOnUse" r="117.14286" xlink:href="#c"/><linearGradient id="c"><stop offset="0"/><stop offset="1" stop-opacity="0"/></linearGradient><radialGradient id="d" cx="605.71429" cy="486.64789" gradientTransform="matrix(2.774389 0 0 1.969706 -1891.633 -872.8854)" gradientUnits="userSpaceOnUse" r="117.14286" xlink:href="#c"/><linearGradient id="e" gradientTransform="matrix(2.774389 0 0 1.969706 -1892.179 -872.8854)" gradientUnits="userSpaceOnUse" x1="302.85715" x2="302.85715" y1="366.64789" y2="609.50507"><stop offset="0" stop-opacity="0"/><stop offset=".5"/><stop offset="1" stop-opacity="0"/></linearGradient><radialGradient id="f" cx="8.824419" cy="3.756129" gradientTransform="matrix(.968273 0 0 1.032767 3.353553 .646447)" gradientUnits="userSpaceOnUse" r="37.751713"><stop offset="0" stop-color="#a3a3a3"/><stop offset="1" stop-color="#4c4c4c"/></radialGradient><radialGradient id="g" cx="33.966679" cy="35.736916" gradientTransform="scale(.960493 1.041132)" gradientUnits="userSpaceOnUse" r="86.70845"><stop offset="0" stop-color="#fafafa"/><stop offset="1" stop-color="#bbb"/></radialGradient><radialGradient id="h" cx="8.143557" cy="7.267897" gradientTransform="matrix(.968273 0 0 1.032767 3.353553 .646447)" gradientUnits="userSpaceOnUse" r="38.158695"><stop offset="0" stop-color="#fff"/><stop offset="1" stop-color="#f8f8f8"/></radialGradient><linearGradient id="i"><stop offset="0" stop-color="#f0f0f0"/><stop offset="1" stop-color="#9a9a9a"/></linearGradient><radialGradient id="j" cx="9.4125070463" cy="30.2965131852" gradientUnits="userSpaceOnUse" r="1.207318968" xlink:href="#i"/><radialGradient id="k" cx="9.4125070463" cy="18.8112483337" gradientUnits="userSpaceOnUse" r="1.207548671" xlink:href="#i"/><linearGradient id="l" gradientTransform="matrix(.834638 0 0 -.603116 7.173497 30.07459)" gradientUnits="userSpaceOnUse" x1="21.9326" x2="21.9326" y1="24.627399" y2="7.1091"><stop offset="0" stop-color="#8595bc"/><stop offset="1" stop-color="#041a3b"/></linearGradient><g transform="matrix(.02105461 0 0 .02086758 42.85172 41.1536)"><path d="m-1559.2523-150.69685h1339.6335v478.35718h-1339.6335z" fill="url(#e)" opacity=".402062"/><path d="m-219.61876-150.68038v478.33079c142.874166.90045 345.40022-107.16966 345.40014-239.196175 0-132.026537-159.436816-239.134595-345.40014-239.134615z" fill="url(#d)" opacity=".402062"/><path d="m-1559.2523-150.68038v478.33079c-142.8742.90045-345.4002-107.16966-345.4002-239.196175 0-132.026537 159.4368-239.134595 345.4002-239.134615z" fill="url(#b)" opacity=".402062"/></g><g><rect display="block" fill="url(#g)" height="40.920494" ry="1.149049" stroke="url(#f)" stroke-linecap="round" stroke-linejoin="round" width="34.875" x="6.603553" y="3.646446"/><rect display="block" fill="none" height="38.946384" rx=".149049" stroke="url(#h)" stroke-linecap="round" stroke-linejoin="round" width="32.775887" x="7.666054" y="4.583946"/><g transform="translate(.646447 -.037989)"><g fill="#fff" stroke="none" transform="matrix(.229703 0 0 .229703 4.967081 4.244972)"><path d="m23.428 113.07c0 1.973-1.6 3.572-3.573 3.572-1.974 0-3.573-1.6-3.573-3.572 0-1.974 1.6-3.573 3.573-3.573s3.573 1.6 3.573 3.573z"/><path d="m23.428 63.07c0 1.973-1.6 3.573-3.573 3.573-1.974 0-3.573-1.6-3.573-3.573 0-1.974 1.6-3.573 3.573-3.573s3.573 1.6 3.573 3.573z"/></g><path d="m9.9950109 29.952326c0 .453204-.3675248.820499-.8207288.820499-.4534338 0-.8207289-.367524-.8207289-.820499 0-.453434.3675248-.820729.8207289-.820729.453204 0 .8207288.367525.8207288.820729z" fill="url(#j)"/><path d="m9.9950109 18.467176c0 .453204-.3675248.820729-.8207288.820729-.4534338 0-.8207289-.367525-.8207289-.820729 0-.453434.3675248-.820729.8207289-.820729.453204 0 .8207288.367525.8207288.820729z" fill="url(#k)"/></g><g fill="none"><path d="m11.505723 5.4942766v37.9065924" stroke="#000" stroke-opacity=".017544" stroke-width=".988553"/><path d="m12.5 5.0205154v38.0177126" stroke="#fff" stroke-opacity=".204678"/></g></g><g><path d="m12.84405 24.537533h25.920779v-7.84186h-25.920779z" fill="url(#l)" opacity=".664773"/><path d="m12.84405 6.1505949h25.920779v10.5450781h-25.920779z" fill="#729fcf" opacity=".664773"/><g opacity=".867925" stroke="none" stroke-width="2.001971" transform="matrix(.903163 0 0 .899066 5.980013 -3.083783)"><path d="m18.4 15.4c0 2.2-1.8 4.1-4.1 4.1-2.2 0-4.1-1.8-4.1-4.1 0-2.2 1.8-4.1 4.1-4.1 2.2 0 4.1 1.8 4.1 4.1z" fill="#e8f52f" opacity=".05"/><path d="m18 15.4c0 2-1.6 3.7-3.7 3.7-2 0-3.7-1.6-3.7-3.7 0-2 1.6-3.7 3.7-3.7 2 0 3.7 1.6 3.7 3.7z" fill="#ecf751" opacity=".2083"/><path d="m17.6 15.4c0 1.8-1.5 3.3-3.3 3.3s-3.3-1.5-3.3-3.3 1.5-3.3 3.3-3.3 3.3 1.5 3.3 3.3z" fill="#f0f972" opacity=".3667"/><path d="m17.2 15.4c0 1.6-1.3 2.9-2.9 2.9s-2.9-1.3-2.9-2.9 1.3-2.9 2.9-2.9 2.9 1.3 2.9 2.9z" fill="#f4fa95" opacity=".525"/><path d="m16.8 15.4c0 1.4-1.1 2.5-2.5 2.5s-2.5-1.1-2.5-2.5 1.1-2.5 2.5-2.5 2.5 1.1 2.5 2.5z" fill="#f7fcb7" opacity=".6833"/><path d="m16.4 15.4c0 1.2-1 2.1-2.1 2.1s-2.1-1-2.1-2.1 1-2.1 2.1-2.1 2.1 1 2.1 2.1z" fill="#fbfddb" opacity=".8417"/><path d="m16 15.4c0 1-.8 1.8-1.8 1.8s-1.8-.8-1.8-1.8.8-1.8 1.8-1.8 1.8.8 1.8 1.8z" fill="#fff"/></g><path d="m27.655923 18.224085h6.593092l1.264428.359627h-2.167591s2.167591.179812 3.251388 1.528412c1.083795 1.258693-1.264428 2.787106-1.264428 2.787106-.090317-.26972-.632216-2.42748-1.716011-3.326546-.812848-.719253-1.71601-.899066-1.71601-.899066h-4.244868v-.359626z" opacity=".199432"/><path d="m31.991109 18.763524h-3.793287l7.044673 3.955892z" opacity=".199432"/><path d="m27.655923 18.313992h6.593092l.99348-.629347h-2.167591s1.986957-.359626 2.257908-2.607293c.270947-2.247665-3.070756-4.765049-3.070756-4.765049v.089906c.090316.53944.993478 4.315518.361266 5.754025-.27095 1.25869-1.083797 1.528411-1.083797 1.528411h-4.15455l.180633.629347z" fill="#2e3436" opacity=".861635"/><path d="m31.629843 17.325019h-3.793286l4.515815-6.832904z" fill="#2e3436" opacity=".664773"/><path d="m13.253185 6.756373h24.936352v17.456209h-24.936352z" fill="none" opacity=".664773" stroke="#9e9e9e" stroke-width="1.247096"/><path d="m14.08025 7.4658531-.774975 13.9270639c10.665414-1.870907 11.029299-8.176991 24.290351-10.245789l-.155929-3.6297879z" fill="url(#a)" fill-rule="evenodd" opacity=".531429"/></g></svg>