<svg height="52" viewBox="0 0 48 48" width="52" xmlns="http://www.w3.org/2000/svg" xmlns:xlink="http://www.w3.org/1999/xlink"><radialGradient id="a" cx="605.71429" cy="486.64789" gradientTransform="matrix(-2.774389 0 0 1.969706 112.7623 -872.8854)" gradientUnits="userSpaceOnUse" r="117.14286" xlink:href="#b"/><linearGradient id="b"><stop offset="0"/><stop offset="1" stop-opacity="0"/></linearGradient><radialGradient id="c" cx="605.71429" cy="486.64789" gradientTransform="matrix(2.774389 0 0 1.969706 -1891.633 -872.8854)" gradientUnits="userSpaceOnUse" r="117.14286" xlink:href="#b"/><linearGradient id="d" gradientTransform="matrix(2.774389 0 0 1.969706 -1892.179 -872.8854)" gradientUnits="userSpaceOnUse" x1="302.85715" x2="302.85715" y1="366.64789" y2="609.50507"><stop offset="0" stop-opacity="0"/><stop offset=".5"/><stop offset="1" stop-opacity="0"/></linearGradient><linearGradient id="e" gradientUnits="userSpaceOnUse" x1="30.062469" x2="17.696169" y1="13.444801" y2="12.333632"><stop offset="0" stop-color="#fbf0e0"/><stop offset="1" stop-color="#f0ce99"/></linearGradient><linearGradient id="f" gradientUnits="userSpaceOnUse" x1="36.288929" x2="47.065835" y1="14.661557" y2="15.267649"><stop offset="0" stop-color="#de9523"/><stop offset="1" stop-color="#a36d18"/></linearGradient><linearGradient id="g" gradientTransform="matrix(1 0 0 .986355 0 .316638)" gradientUnits="userSpaceOnUse" x1="25.381256" x2="24.119167" y1="24.720648" y2="16.17037"><stop offset="0" stop-color="#e9b96e"/><stop offset="1" stop-color="#f1d19e"/></linearGradient><linearGradient id="h" gradientTransform="matrix(1 0 0 1.039184 0 -.040571)" gradientUnits="userSpaceOnUse" x1="16.148972" x2="34.193642" y1="12.636667" y2="12.636667"><stop offset="0" stop-color="#a36d18"/><stop offset="1" stop-color="#d79020"/></linearGradient><linearGradient id="i" gradientUnits="userSpaceOnUse" x1="21.906841" x2="22.071806" y1="9.757749" y2="16.020695"><stop offset="0" stop-color="#a0670c"/><stop offset="1" stop-color="#a0670c" stop-opacity="0"/></linearGradient><linearGradient id="j" gradientUnits="userSpaceOnUse" x1="18.706615" x2="30.014812" y1="19.912336" y2="47.388485"><stop offset="0" stop-color="#fff"/><stop offset="1" stop-color="#fff" stop-opacity=".686391"/></linearGradient><linearGradient id="k" gradientUnits="userSpaceOnUse" x1="24.990499" x2="24.990499" y1="34.004856" y2="22.585211"><stop offset="0" stop-color="#eaba6f"/><stop offset="1" stop-color="#b97a1b"/></linearGradient><g transform="matrix(.02105461 0 0 .02086758 42.60172 35.4036)"><path d="m-1559.2523-150.69685h1339.6335v478.35718h-1339.6335z" fill="url(#d)" opacity=".402062"/><path d="m-219.61876-150.68038v478.33079c142.874166.90045 345.40022-107.16966 345.40014-239.196175 0-132.026537-159.436816-239.134595-345.40014-239.134615z" fill="url(#c)" opacity=".402062"/><path d="m-1559.2523-150.68038v478.33079c-142.8742.90045-345.4002-107.16966-345.4002-239.196175 0-132.026537 159.4368-239.134595 345.4002-239.134615z" fill="url(#a)" opacity=".402062"/></g><g stroke-width="1.000001"><rect display="block" fill="url(#k)" height="23.112879" rx="2.424135" ry="2.394444" stroke="#a0670c" width="31.978371" x="7.462385" y="15.275433"/><rect display="block" fill="none" height="21.075352" opacity=".481013" rx="1.284688" stroke="url(#j)" width="29.804138" x="8.499" y="16.243698"/><path d="m8.7697819 16.547178 5.0499491-6.8108372 18.79556-.1010153 5.219973 6.7736155z" fill="url(#h)" fill-rule="evenodd" stroke="url(#i)"/><path d="m38.276321 16.325703 5.192948 7.194661h-39.5083235l4.6640688-7.199601 29.6513067.00494z" display="block" fill="url(#g)" stroke="#a0670c" stroke-linecap="round" stroke-linejoin="round"/><path d="m32.849333 9.6141009 4.682886 6.9222691 9.033616 4.384827-8.114506-8.912652-5.601996-2.3944441z" display="block" fill="url(#f)" stroke="#a0670c" stroke-linecap="round" stroke-linejoin="round"/></g><path d="m13.617702 9.7151161-3.9757787 6.7202389-9.13463147 4.384827 8.11450547-8.912652 4.9959047-2.1924139z" display="block" fill="#f8e8cf" stroke="#a0670c" stroke-linecap="round" stroke-linejoin="round"/><path d="m37.024959 16.43605 4.453912 6.056961h-35.8305918l4.141019-6.180317 27.2356608.123356z" display="block" fill="none" stroke="#f4e3ca"/><path d="m9.6523127 16.371803 3.3843303-5.778783 20.478198-.075221 3.841941 5.852081z" fill="none" opacity=".879747" stroke="url(#e)" stroke-linecap="round" stroke-linejoin="round"/><g fill="#eeeeec" stroke="none"><g><path d="m23.013063 33.705654c-.5625.273437-1.146484.478516-1.751953.615235s-1.230469.205078-1.875.205078c-1.457031 0-2.611328-.40625-3.46289-1.21875-.851563-.816407-1.277344-1.921876-1.277344-3.316407 0-1.410156.433594-2.519531 1.300781-3.328125.867187-.808593 2.054687-1.21289 3.5625-1.21289.582031 0 1.138672.05469 1.669922.164062.535156.109375 1.039062.271485 1.511719.486328v1.810547c-.488281-.277343-.97461-.484374-1.458985-.621093-.480469-.136719-.96289-.205079-1.447265-.205079-.898437 0-1.591797.251953-2.080078.75586-.484375.5-.726563 1.216797-.726563 2.15039 0 .925781.234375 1.640625.703125 2.144532.46875.503906 1.134766.755859 1.998047.755859.234375 0 .451172-.01367.650391-.04102.203125-.03125.384765-.07812.544922-.140625v-1.699218h-1.376954v-1.511719h3.515625z" fill="#eeeeec"/><path d="m19.509766 24.949219c-1.597191 0-2.931395.440491-3.904297 1.347656-.97322.907462-1.458985 2.18071-1.458985 3.693359 0 1.496306.477418 2.762906 1.431641 3.677735v.001953c.954609.91082 2.258622 1.355469 3.808594 1.355469.679885 0 1.341723-.071683 1.984375-.216797.642876-.145167 1.264857-.362393 1.861328-.652344l.28125-.138672v-.3125-4.707031h-4.515625v2.511719h1.376953v.814453c-.043681.009116-.073334.023903-.121094.03125-.171296.023142-.362164.035156-.574218.035156-.765997 0-1.268321-.203874-1.632813-.595703-.364745-.392101-.568359-.963294-.568359-1.804688 0-.847121.209772-1.414435.585937-1.802734.381632-.393844.915744-.603516 1.720703-.603516.437332 0 .87262.062886 1.310547.1875.441582.12464.890433.314517 1.347656.574219l.748047.423828v-2.992187l-.292968-.132813c-.508274-.231033-1.049353-.405031-1.619141-.521484v.001953c-.566574-.116647-1.15618-.175781-1.769531-.175781zm0 1c.550711 0 1.072433.052195 1.568359.154297.396273.08099.757168.215978 1.113281.357422v.699218c-.274195-.118688-.54601-.273503-.822265-.351562-.52301-.148825-1.052567-.22461-1.583985-.22461-.991915 0-1.844522.294235-2.439453.908204-.592586.611701-.867187 1.477982-.867187 2.498046 0 1.01017.263182 1.870616.835937 2.486328.573008.615984 1.404668.914063 2.365235.914063.253821 0 .493358-.013983.71875-.044922h.003906l.003906-.001953c.233124-.035861.44983-.089697.650391-.167969l.318359-.125v-2.541015h-1.376953v-.511719h2.515625v3.357422c-.443345.194557-.892451.372198-1.363281.478515-.568286.128323-1.154494.191407-1.763672.191407-1.362914 0-2.368876-.365162-3.117188-1.078125l-.001953-.001954c-.747568-.717748-1.121094-1.663473-1.121094-2.955078 0-1.307663.37947-2.251211 1.140625-2.960937.761473-.710021 1.804222-1.080078 3.222657-1.080078z" fill="#d3d7cf"/></g><g><path d="m24.565798 25.607998h7.353515v1.365234l-4.693359 5.677735h4.828125v1.705078h-7.623047v-1.365235l4.69336-5.677734h-4.558594z" fill="#eeeeec"/><path d="m24.066406 25.107422v.5 2.205078h3.996094l-4.130859 4.998047v2.044922h8.623047v-2.705078h-4.267579l4.132813-4.998047v-2.044922zm1 1h6.353516v.685547l-5.25586 6.357422h5.390626v.705078h-6.623047v-.685547l5.253906-6.357422h-5.119141z" fill="#d3d7cf"/></g></g></svg>