<svg height="52" viewBox="0 0 48 48" width="52" xmlns="http://www.w3.org/2000/svg" xmlns:xlink="http://www.w3.org/1999/xlink"><radialGradient id="a" cx="605.71429" cy="486.64789" gradientTransform="matrix(-2.774389 0 0 1.969706 112.7623 -872.8854)" gradientUnits="userSpaceOnUse" r="117.14286" xlink:href="#b"/><linearGradient id="b"><stop offset="0"/><stop offset="1" stop-opacity="0"/></linearGradient><radialGradient id="c" cx="605.71429" cy="486.64789" gradientTransform="matrix(2.774389 0 0 1.969706 -1891.633 -872.8854)" gradientUnits="userSpaceOnUse" r="117.14286" xlink:href="#b"/><linearGradient id="d" gradientTransform="matrix(2.774389 0 0 1.969706 -1892.179 -872.8854)" gradientUnits="userSpaceOnUse" x1="302.85715" x2="302.85715" y1="366.64789" y2="609.50507"><stop offset="0" stop-opacity="0"/><stop offset=".5"/><stop offset="1" stop-opacity="0"/></linearGradient><radialGradient id="e" cx="8.824419" cy="3.756129" gradientTransform="matrix(.968273 0 0 1.032767 3.353553 .646447)" gradientUnits="userSpaceOnUse" r="37.751713"><stop offset="0" stop-color="#a3a3a3"/><stop offset="1" stop-color="#4c4c4c"/></radialGradient><radialGradient id="f" cx="33.966679" cy="35.736916" gradientTransform="scale(.960493 1.041132)" gradientUnits="userSpaceOnUse" r="86.70845"><stop offset="0" stop-color="#fafafa"/><stop offset="1" stop-color="#bbb"/></radialGradient><radialGradient id="g" cx="8.143557" cy="7.267897" gradientTransform="matrix(.968273 0 0 1.032767 3.353553 .646447)" gradientUnits="userSpaceOnUse" r="38.158695"><stop offset="0" stop-color="#fff"/><stop offset="1" stop-color="#f8f8f8"/></radialGradient><linearGradient id="h"><stop offset="0" stop-color="#f0f0f0"/><stop offset="1" stop-color="#9a9a9a"/></linearGradient><radialGradient id="i" cx="9.4125070463" cy="30.2965131852" gradientUnits="userSpaceOnUse" r="1.207318968" xlink:href="#h"/><radialGradient id="j" cx="9.4125070463" cy="18.8112483337" gradientUnits="userSpaceOnUse" r="1.207548671" xlink:href="#h"/><radialGradient id="k" cx="18.63378" cy="17.486208" fx="18.934305" fy="17.810213" gradientTransform="scale(1.036822 .964486)" gradientUnits="userSpaceOnUse" r="40.692665"><stop offset="0" stop-color="#fff"/><stop offset=".37931034" stop-color="#fefefe"/><stop offset="1" stop-color="#1d1d1d"/></radialGradient><radialGradient id="l" cx="15.115514" cy="63.965388" gradientTransform="scale(1.64399 .608276)" gradientUnits="userSpaceOnUse" r="12.289036" xlink:href="#b"/><radialGradient id="m" cx="18.247644" cy="15.716079" gradientTransform="matrix(.58713 0 0 .587142 11.29919 10.42967)" gradientUnits="userSpaceOnUse" r="29.993349"><stop offset="0" stop-color="#d3e9ff"/><stop offset=".15517241" stop-color="#d3e9ff"/><stop offset=".75" stop-color="#4074ae"/><stop offset="1" stop-color="#36486c"/></radialGradient><radialGradient id="n" cx="11.826907" cy="10.476453" gradientTransform="scale(1.179536 .847791)" gradientUnits="userSpaceOnUse" r="32.664848"><stop offset="0" stop-color="#fff"/><stop offset="1" stop-color="#fff" stop-opacity="0"/></radialGradient><radialGradient id="o" cx="15.601279" cy="12.142302" gradientTransform="matrix(.58713 0 0 .587142 11.29919 10.42967)" gradientUnits="userSpaceOnUse" r="43.526714"><stop offset="0" stop-color="#fff"/><stop offset="1" stop-color="#fff" stop-opacity=".164948"/></radialGradient><g transform="matrix(.02105461 0 0 .02086758 42.85172 41.1536)"><path d="m-1559.2523-150.69685h1339.6335v478.35718h-1339.6335z" fill="url(#d)" opacity=".402062"/><path d="m-219.61876-150.68038v478.33079c142.874166.90045 345.40022-107.16966 345.40014-239.196175 0-132.026537-159.436816-239.134595-345.40014-239.134615z" fill="url(#c)" opacity=".402062"/><path d="m-1559.2523-150.68038v478.33079c-142.8742.90045-345.4002-107.16966-345.4002-239.196175 0-132.026537 159.4368-239.134595 345.4002-239.134615z" fill="url(#a)" opacity=".402062"/></g><g><rect display="block" fill="url(#f)" height="40.920494" ry="1.149049" stroke="url(#e)" stroke-linecap="round" stroke-linejoin="round" width="34.875" x="6.603553" y="3.646446"/><rect display="block" fill="none" height="38.946384" rx=".149049" stroke="url(#g)" stroke-linecap="round" stroke-linejoin="round" width="32.775887" x="7.666054" y="4.583946"/><g transform="translate(.646447 -.037989)"><g fill="#fff" stroke="none" transform="matrix(.229703 0 0 .229703 4.967081 4.244972)"><path d="m23.428 113.07c0 1.973-1.6 3.572-3.573 3.572-1.974 0-3.573-1.6-3.573-3.572 0-1.974 1.6-3.573 3.573-3.573s3.573 1.6 3.573 3.573z"/><path d="m23.428 63.07c0 1.973-1.6 3.573-3.573 3.573-1.974 0-3.573-1.6-3.573-3.573 0-1.974 1.6-3.573 3.573-3.573s3.573 1.6 3.573 3.573z"/></g><path d="m9.9950109 29.952326c0 .453204-.3675248.820499-.8207288.820499-.4534338 0-.8207289-.367524-.8207289-.820499 0-.453434.3675248-.820729.8207289-.820729.453204 0 .8207288.367525.8207288.820729z" fill="url(#i)"/><path d="m9.9950109 18.467176c0 .453204-.3675248.820729-.8207288.820729-.4534338 0-.8207289-.367525-.8207289-.820729 0-.453434.3675248-.820729.8207289-.820729.453204 0 .8207288.367525.8207288.820729z" fill="url(#j)"/></g><g fill="none"><path d="m11.505723 5.4942766v37.9065924" stroke="#000" stroke-opacity=".017544" stroke-width=".988553"/><path d="m12.5 5.0205154v38.0177126" stroke="#fff" stroke-opacity=".204678"/></g></g><g><g fill="#9b9b9b" fill-opacity=".549708" transform="matrix(.909091 0 0 1 2.363628 0)"><rect display="block" height="1" rx=".151565" ry=".065391" width="22.000004" x="15.000002" y="9"/><rect display="block" height="1" rx=".151565" ry=".065391" width="22.000004" x="15.000002" y="11"/><rect display="block" height="1" rx=".151565" ry=".065391" width="22.000004" x="15.000002" y="13"/><rect display="block" height="1" rx=".151565" ry=".065391" width="22.000004" x="15.000002" y="15"/><rect display="block" height="1" rx=".151565" ry=".065391" width="22.000004" x="15.000002" y="17"/><rect display="block" height="1" rx=".151565" ry=".065391" width="22.000004" x="15.000002" y="19"/><rect display="block" height="1" rx=".151565" ry=".065391" width="22.000004" x="15.000002" y="21"/><rect display="block" height="1" rx=".151565" ry=".065391" width="22.000004" x="15.000002" y="23"/><rect display="block" height="1" rx=".068204" ry=".065391" width="9.900005" x="14.999992" y="25"/><rect display="block" height="1" rx=".151565" ry=".065391" width="22.000004" x="14.999992" y="29"/><rect display="block" height="1" rx=".151565" ry=".065391" width="22.000004" x="14.999992" y="31"/><rect display="block" height="1" rx=".151565" ry=".065391" width="22.000004" x="14.999992" y="33"/><rect display="block" height="1" rx=".151565" ry=".065391" width="22.000004" x="14.999992" y="35"/><rect display="block" height="1" rx=".106096" ry=".065391" width="15.400014" x="14.999992" y="37"/></g><g transform="matrix(1.160511 0 0 1.160511 1.847713 3.119486)"><path d="m45.052803 38.908627a20.203051 7.4751287 0 1 1 -40.4061012 0 20.203051 7.4751287 0 1 1 40.4061012 0z" fill="url(#l)" transform="matrix(.587136 0 0 .729954 11.29919 4.398359)"/><path d="m37.109606 24.218856c0 6.288063-5.097577 11.385582-11.384775 11.385582-6.287774 0-11.385064-5.097577-11.385064-11.385582 0-6.287775 5.09729-11.384775 11.385064-11.384775 6.287198 0 11.384775 5.097 11.384775 11.384775z" fill="url(#m)" stroke="#39396c" stroke-width="1.723379"/><path d="m30.708637 15.271057a12.929953 9.2934036 0 1 1 -25.859905 0 12.929953 9.2934036 0 1 1 25.859905 0z" fill="url(#n)" opacity=".421594" transform="matrix(.490809 0 0 .587136 17.10413 10.42967)"/><g fill-opacity=".71345" transform="matrix(.576786 0 0 .576786 11.37028 10.56642)"><path d="m44.0713 20.7144-.5449.6172c-.334-.3936-.709-.7246-1.0898-1.0703l-.8359.123-.7637-.8633v1.0684l.6543.4951.4355.4932.582-.6582c.1465.2744.291.5488.4365.8232v.8223l-.6553.7402-1.1992.8232-.9082.9063-.582-.6602.291-.7402-.5811-.6582-.9814-2.0977-.8359-.9453-.2188.2461.3281 1.1934.6172.6992c.3525 1.0176.7012 1.9902 1.1641 2.9629.7178 0 1.3945-.0762 2.1074-.166v.5762l-.8721 2.1392-.7998.9043-.6543 1.4004v2.3027l.2188.9063-.3633.4102-.8008.4941-.8359.6992.6914.7813-.9453.8242.1816.5332-1.418 1.6055h-.9443l-.7998.4941h-.5098v-.6582l-.2168-1.3184c-.2813-.8262-.5742-1.6465-.8721-2.4668 0-.6055.0361-1.2051.0723-1.8105l.3643-.8223-.5098-.9883.0371-1.3574-.6914-.7813.3457-1.1309-.5625-.6382h-.9824l-.3271-.3701-.9814.6177-.3994-.4536-.9092.7817c-.6172-.6997-1.2354-1.3989-1.8535-2.0981l-.7266-1.7285.6543-.9863-.3633-.4111.7988-1.8936c.6563-.8164 1.3418-1.5996 2.0352-2.3857l1.2363-.3291 1.3809-.1641.9453.2471 1.3447 1.3564.4727-.5342.6533-.082 1.2363.4111h.9453l.6543-.5762.291-.4111-.6553-.4111-1.0908-.082c-.3027-.4199-.584-.8613-.9434-1.2344l-.3643.1641-.1455 1.0703-.6543-.7402-.1445-.8242-.7266-.5742h-.292l.7275.8223-.291.7402-.5811.1641.3633-.7402-.6553-.3281-.5801-.6582-1.0918.2461-.1445.3281-.6543.4121-.3633.9053-.9082.4521-.4004-.4521h-.4355v-1.4814l.9453-.4941h.7266l-.1465-.5752-.5801-.5762.9805-.2061.5449-.6162.4355-.7412h.8008l-.2188-.5752.5098-.3291v.6582l1.0898.2461 1.0898-.9043.0732-.4121.9443-.6577c-.3418.0425-.6836.0737-1.0176.1646v-.7411l.3633-.8228h-.3633l-.7984.7402-.2188.4116.2188.5767-.3643.9863-.5811-.3291-.5078-.5752-.8008.5752-.291-1.3159 1.3809-.9048v-.4941l.873-.5757 1.3809-.3296.9453.3296 1.7441.3291-.4355.4932h-.9453l.9453.9873.7266-.8223.2207-.3618s2.7871 2.498 4.3799 5.2305c1.5928 2.7334 2.3408 5.9551 2.3408 6.6094z"/><path d="m26.0703 9.2363-.0732.4932.5098.3291.8711-.5757-.4355-.4937-.582.3296-.29-.0825"/><path d="m26.8701 5.8633-1.8906-.7407-2.1797.2466-2.6904.7402-.5088.4941 1.6719 1.1514v.6582l-.6543.6582.873 1.729.5801-.3301.7285-1.1514c1.123-.3472 2.1299-.7407 3.1973-1.2344l.873-2.2212"/><path d="m28.833 12.7749-.291-.7412-.5098.165.1465.9043z"/><path d="m29.123 12.6089-.1455.9883.7998-.165.5811-.5752-.5088-.4941c-.1709-.4551-.3672-.8799-.5811-1.3164h-.4355v.4932l.29.3291v.7402"/><path d="m18.3652 28.2422-.582-1.1523-1.0903-.2466-.5815-1.5625-1.4536.1641-1.2354-.9043-1.3091 1.1514v.1816c-.396-.1143-.8828-.1299-1.2354-.3467l-.291-.8223v-.9053l-.8721.082c.0728-.5762.145-1.1514.2183-1.7275h-.5093l-.5083.6582-.5093.2461-.7271-.4102-.0728-.9053.1455-.9873 1.0908-.8223h.8721l.145-.4941 1.0903.2461.7998.9883.1455-1.6465 1.3813-1.1514.5088-1.2344 1.0176-.4111.5815-.8223 1.3081-.248.6548-.9863c-.6543 0-1.3086 0-1.9629 0l1.2358-.5762h.8716l1.2363-.4121.1455-.4922-.4365-.4121-.5088-.165.1455-.4932-.3633-.7402-.8726.3281.1455-.6577-1.0176-.5762-.7993 1.3979.0723.4941-.7993.3301-.5093 1.0693-.2178-.9873-1.3813-.5762-.2183-.7402 1.8174-1.0703.7998-.7402.0728-.9048-.436-.2471-.5815-.0825-.3633.9053s-.6079.1191-.7642.1577c-1.9961 1.8394-6.0293 5.8101-6.9663 13.3062.0371.1738.6792 1.1816.6792 1.1816l1.5264.9043 1.5264.4121.6548.8232 1.0171.7402.5815-.082.436.1963v.1328l-.5811 1.563-.4365.6582.1455.3301-.3633 1.2324 1.3086 2.3867 1.3081 1.1523.582.8223-.0732 1.7285.4365.9863-.4365 1.8926s-.0342-.0117.0215.1777c.0562.1895 2.3291 1.4512 2.4736 1.3438.144-.1094.2671-.2051.2671-.2051l-.145-.4102.5811-.5762.2183-.5762.9453-.3301.7266-1.8105-.2178-.4922.5078-.7402 1.0908-.248.582-1.3164-.1455-1.6445.8721-1.2344.1455-1.2344c-1.1934-.5918-2.377-1.2012-3.5615-1.8105"/><path d="m16.7656 9.5649.7266.4937h.582v-.5757l-.7266-.3291z"/><path d="m14.876 8.9072-.3638.9048h.7271l.3638-.8228c.3135-.2217.6255-.4448.9448-.6582l.7271.2471c.4844.3291.9688.6582 1.4536.9868l.7275-.6577-.8003-.3291-.3638-.7407-1.3809-.1646-.0728-.4116-.6543.165-.2904.5758-.3638-.7407-.145.3291.0728.8228z"/><path d="m17.4922 6.8496.3638-.3286.7271-.1646c.498-.2422.998-.4053 1.5264-.5762l-.29-.4937-.9385.1348-.4434.4419-.731.106-.6499.3052-.3159.1528-.1929.2583z"/><path d="m18.7285 14.6665.4365-.6582-.6548-.4932z"/></g><g fill="url(#k)" stroke-width="1.017945" transform="matrix(.576786 0 0 .576786 11.25166 10.4478)"><path d="m44.0713 20.7144 0 0-.5449.6172c-.334-.3936-.709-.7246-1.0898-1.0703l-.8359.123-.7637-.8633v1.0684l.6543.4951.4355.4932.582-.6582c.1465.2744.291.5488.4365.8232v.8223l-.6553.7402-1.1992.8232-.9082.9063-.582-.6602.291-.7402-.5811-.6582-.9814-2.0977-.8359-.9453-.2188.2461.3281 1.1934.6172.6992c.3525 1.0176.7012 1.9902 1.1641 2.9629.7178 0 1.3945-.0762 2.1074-.166v.5762l-.8721 2.1392-.7998.9043-.6543 1.4004v2.3027l.2188.9063-.3633.4102-.8008.4941-.8359.6992.6914.7813-.9453.8242.1816.5332-1.418 1.6055h-.9443l-.7998.4941h-.5098v-.6582l-.2168-1.3184c-.2813-.8262-.5742-1.6465-.8721-2.4668 0-.6055.0361-1.2051.0723-1.8105l.3643-.8223-.5098-.9883.0371-1.3574-.6914-.7813.3457-1.1309-.5625-.6382h-.9824l-.3271-.3701-.9814.6177-.3994-.4536-.9092.7817c-.6172-.6997-1.2354-1.3989-1.8535-2.0981l-.7266-1.7285.6543-.9863-.3633-.4111.7988-1.8936c.6563-.8164 1.3418-1.5996 2.0352-2.3857l1.2363-.3291 1.3809-.1641.9453.2471 1.3447 1.3564.4727-.5342.6533-.082 1.2363.4111h.9453l.6543-.5762.291-.4111-.6553-.4111-1.0908-.082c-.3027-.4199-.584-.8613-.9434-1.2344l-.3643.1641-.1455 1.0703-.6543-.7402-.1445-.8242-.7266-.5742h-.292l.7275.8223-.291.7402-.5811.1641.3633-.7402-.6553-.3281-.5801-.6582-1.0918.2461-.1445.3281-.6543.4121-.3633.9053-.9082.4521-.4004-.4521h-.4355v-1.4814l.9453-.4941h.7266l-.1465-.5752-.5801-.5762.9805-.2061.5449-.6162.4355-.7412h.8008l-.2188-.5752.5098-.3291v.6582l1.0898.2461 1.0898-.9043.0732-.4121.9443-.6577c-.3418.0425-.6836.0737-1.0176.1646v-.7411l.3633-.8228h-.3633l-.7984.7402-.2188.4116.2188.5767-.3643.9863-.5811-.3291-.5078-.5752-.8008.5752-.291-1.3159 1.3809-.9048v-.4941l.873-.5757 1.3809-.3296.9453.3296 1.7441.3291-.4355.4932h-.9453l.9453.9873.7266-.8223.2207-.3618s2.7871 2.498 4.3799 5.2305c1.5928 2.7334 2.3408 5.9551 2.3408 6.6094z"/><path d="m26.0703 9.2363-.0732.4932.5098.3291.8711-.5757-.4355-.4937-.582.3296-.29-.0825"/><path d="m26.8701 5.8633-1.8906-.7407-2.1797.2466-2.6904.7402-.5088.4941 1.6719 1.1514v.6582l-.6543.6582.873 1.729.5801-.3301.7285-1.1514c1.123-.3472 2.1299-.7407 3.1973-1.2344l.873-2.2212"/><path d="m28.833 12.7749-.291-.7412-.5098.165.1465.9043.6543-.3281"/><path d="m29.123 12.6089-.1455.9883.7998-.165.5811-.5752-.5088-.4941c-.1709-.4551-.3672-.8799-.5811-1.3164h-.4355v.4932l.29.3291v.7402"/><path d="m18.3652 28.2422-.582-1.1523-1.0903-.2466-.5815-1.5625-1.4536.1641-1.2354-.9043-1.3091 1.1514v.1816c-.396-.1143-.8828-.1299-1.2354-.3467l-.291-.8223v-.9053l-.8721.082c.0728-.5762.145-1.1514.2183-1.7275h-.5093l-.5083.6582-.5093.2461-.7271-.4102-.0728-.9053.1455-.9873 1.0908-.8223h.8721l.145-.4941 1.0903.2461.7998.9883.1455-1.6465 1.3813-1.1514.5088-1.2344 1.0176-.4111.5815-.8223 1.3081-.248.6548-.9863c-.6543 0-1.3086 0-1.9629 0l1.2358-.5762h.8716l1.2363-.4121.1455-.4922-.4365-.4121-.5088-.165.1455-.4932-.3633-.7402-.8726.3281.1455-.6577-1.0176-.5762-.7993 1.3979.0723.4941-.7993.3301-.5093 1.0693-.2178-.9873-1.3813-.5762-.2183-.7402 1.8174-1.0703.7998-.7402.0728-.9048-.436-.2471-.5815-.0825-.3633.9053s-.6079.1191-.7642.1577c-1.9961 1.8394-6.0293 5.8101-6.9663 13.3062.0371.1738.6792 1.1816.6792 1.1816l1.5264.9043 1.5264.4121.6548.8232 1.0171.7402.5815-.082.436.1963v.1328l-.5811 1.563-.4365.6582.1455.3301-.3633 1.2324 1.3086 2.3867 1.3081 1.1523.582.8223-.0732 1.7285.4365.9863-.4365 1.8926s-.0342-.0117.0215.1777c.0562.1895 2.3291 1.4512 2.4736 1.3438.144-.1094.2671-.2051.2671-.2051l-.145-.4102.5811-.5762.2183-.5762.9453-.3301.7266-1.8105-.2178-.4922.5078-.7402 1.0908-.248.582-1.3164-.1455-1.6445.8721-1.2344.1455-1.2344c-1.1934-.5918-2.377-1.2012-3.5615-1.8105"/><path d="m16.7656 9.5649.7266.4937h.582v-.5757l-.7266-.3291-.582.4111"/><path d="m14.876 8.9072-.3638.9048h.7271l.3638-.8228c.3135-.2217.6255-.4448.9448-.6582l.7271.2471c.4844.3291.9688.6582 1.4536.9868l.7275-.6577-.8003-.3291-.3638-.7407-1.3809-.1646-.0728-.4116-.6543.165-.2904.5758-.3638-.7407-.145.3291.0728.8228-.5816.494"/><path d="m17.4922 6.8496.3638-.3286.7271-.1646c.498-.2422.998-.4053 1.5264-.5762l-.29-.4937-.9385.1348-.4434.4419-.731.106-.6499.3052-.3159.1528-.1929.2583.9443.1641"/><path d="m18.7285 14.6665.4365-.6582-.6548-.4932.2183 1.1514"/></g><path d="m36.531418 24.218876c0 5.968721-4.838694 10.807361-10.806594 10.807361-5.968447 0-10.806868-4.838694-10.806868-10.807361 0-5.968447 4.838421-10.806594 10.806868-10.806594 5.9679 0 10.806594 4.838147 10.806594 10.806594z" fill="none" stroke="url(#o)"/></g></g></svg>