<svg height="52" viewBox="0 0 48 48" width="52" xmlns="http://www.w3.org/2000/svg" xmlns:xlink="http://www.w3.org/1999/xlink"><radialGradient id="a" cx="605.71429" cy="486.64789" gradientTransform="matrix(-2.774389 0 0 1.969706 112.7623 -872.8854)" gradientUnits="userSpaceOnUse" r="117.14286" xlink:href="#b"/><linearGradient id="b"><stop offset="0"/><stop offset="1" stop-opacity="0"/></linearGradient><radialGradient id="c" cx="605.71429" cy="486.64789" gradientTransform="matrix(2.774389 0 0 1.969706 -1891.633 -872.8854)" gradientUnits="userSpaceOnUse" r="117.14286" xlink:href="#b"/><linearGradient id="d" gradientTransform="matrix(2.774389 0 0 1.969706 -1892.179 -872.8854)" gradientUnits="userSpaceOnUse" x1="302.85715" x2="302.85715" y1="366.64789" y2="609.50507"><stop offset="0" stop-opacity="0"/><stop offset=".5"/><stop offset="1" stop-opacity="0"/></linearGradient><radialGradient id="e" cx="8.824419" cy="3.756129" gradientTransform="matrix(.968273 0 0 1.032767 3.353553 .646447)" gradientUnits="userSpaceOnUse" r="37.751713"><stop offset="0" stop-color="#a3a3a3"/><stop offset="1" stop-color="#4c4c4c"/></radialGradient><radialGradient id="f" cx="33.966679" cy="35.736916" gradientTransform="scale(.960493 1.041132)" gradientUnits="userSpaceOnUse" r="86.70845"><stop offset="0" stop-color="#fafafa"/><stop offset="1" stop-color="#bbb"/></radialGradient><radialGradient id="g" cx="8.143557" cy="7.267897" gradientTransform="matrix(.968273 0 0 1.032767 3.353553 .646447)" gradientUnits="userSpaceOnUse" r="38.158695"><stop offset="0" stop-color="#fff"/><stop offset="1" stop-color="#f8f8f8"/></radialGradient><linearGradient id="h"><stop offset="0" stop-color="#f0f0f0"/><stop offset="1" stop-color="#9a9a9a"/></linearGradient><radialGradient id="i" cx="9.4125070463" cy="30.2965131852" gradientUnits="userSpaceOnUse" r="1.207318968" xlink:href="#h"/><radialGradient id="j" cx="9.4125070463" cy="18.8112483337" gradientUnits="userSpaceOnUse" r="1.207548671" xlink:href="#h"/><radialGradient id="k" cx="15.115514" cy="63.965388" gradientTransform="scale(1.64399 .608276)" gradientUnits="userSpaceOnUse" r="12.289036" xlink:href="#b"/><radialGradient id="l" cx="18.247644" cy="15.716079" gradientTransform="matrix(.58713 0 0 .587142 11.29919 10.42967)" gradientUnits="userSpaceOnUse" r="29.993349"><stop offset="0" stop-color="#d3e9ff"/><stop offset=".15517241" stop-color="#d3e9ff"/><stop offset=".75" stop-color="#4074ae"/><stop offset="1" stop-color="#36486c"/></radialGradient><radialGradient id="m" cx="11.826907" cy="10.476453" gradientTransform="scale(1.179536 .847791)" gradientUnits="userSpaceOnUse" r="32.664848"><stop offset="0" stop-color="#fff"/><stop offset="1" stop-color="#fff" stop-opacity="0"/></radialGradient><g transform="matrix(.02105461 0 0 .02086758 42.85172 41.1536)"><path d="m-1559.2523-150.69685h1339.6335v478.35718h-1339.6335z" fill="url(#d)" opacity=".402062"/><path d="m-219.61876-150.68038v478.33079c142.874166.90045 345.40022-107.16966 345.40014-239.196175 0-132.026537-159.436816-239.134595-345.40014-239.134615z" fill="url(#c)" opacity=".402062"/><path d="m-1559.2523-150.68038v478.33079c-142.8742.90045-345.4002-107.16966-345.4002-239.196175 0-132.026537 159.4368-239.134595 345.4002-239.134615z" fill="url(#a)" opacity=".402062"/></g><g><rect display="block" fill="url(#f)" height="40.920494" ry="1.149049" stroke="url(#e)" stroke-linecap="round" stroke-linejoin="round" width="34.875" x="6.603553" y="3.646446"/><rect display="block" fill="none" height="38.946384" rx=".149049" stroke="url(#g)" stroke-linecap="round" stroke-linejoin="round" width="32.775887" x="7.666054" y="4.583946"/><g transform="translate(.646447 -.037989)"><g fill="#fff" stroke="none" transform="matrix(.229703 0 0 .229703 4.967081 4.244972)"><path d="m23.428 113.07c0 1.973-1.6 3.572-3.573 3.572-1.974 0-3.573-1.6-3.573-3.572 0-1.974 1.6-3.573 3.573-3.573s3.573 1.6 3.573 3.573z"/><path d="m23.428 63.07c0 1.973-1.6 3.573-3.573 3.573-1.974 0-3.573-1.6-3.573-3.573 0-1.974 1.6-3.573 3.573-3.573s3.573 1.6 3.573 3.573z"/></g><path d="m9.9950109 29.952326c0 .453204-.3675248.820499-.8207288.820499-.4534338 0-.8207289-.367524-.8207289-.820499 0-.453434.3675248-.820729.8207289-.820729.453204 0 .8207288.367525.8207288.820729z" fill="url(#i)"/><path d="m9.9950109 18.467176c0 .453204-.3675248.820729-.8207288.820729-.4534338 0-.8207289-.367525-.8207289-.820729 0-.453434.3675248-.820729.8207289-.820729.453204 0 .8207288.367525.8207288.820729z" fill="url(#j)"/></g><g fill="none"><path d="m11.505723 5.4942766v37.9065924" stroke="#000" stroke-opacity=".017544" stroke-width=".988553"/><path d="m12.5 5.0205154v38.0177126" stroke="#fff" stroke-opacity=".204678"/></g></g><g><g fill="#9b9b9b" fill-opacity=".549708" transform="matrix(.909091 0 0 1 2.363628 0)"><rect display="block" height="1" rx=".151565" ry=".065391" width="22.000004" x="15.000002" y="9"/><rect display="block" height="1" rx=".151565" ry=".065391" width="22.000004" x="15.000002" y="11"/><rect display="block" height="1" rx=".151565" ry=".065391" width="22.000004" x="15.000002" y="13"/><rect display="block" height="1" rx=".151565" ry=".065391" width="22.000004" x="15.000002" y="15"/><rect display="block" height="1" rx=".151565" ry=".065391" width="22.000004" x="15.000002" y="17"/><rect display="block" height="1" rx=".151565" ry=".065391" width="22.000004" x="15.000002" y="19"/><rect display="block" height="1" rx=".151565" ry=".065391" width="22.000004" x="15.000002" y="21"/><rect display="block" height="1" rx=".151565" ry=".065391" width="22.000004" x="15.000002" y="23"/><rect display="block" height="1" rx=".068204" ry=".065391" width="9.900005" x="14.999992" y="25"/><rect display="block" height="1" rx=".151565" ry=".065391" width="22.000004" x="14.999992" y="29"/><rect display="block" height="1" rx=".151565" ry=".065391" width="22.000004" x="14.999992" y="31"/><rect display="block" height="1" rx=".151565" ry=".065391" width="22.000004" x="14.999992" y="33"/><rect display="block" height="1" rx=".151565" ry=".065391" width="22.000004" x="14.999992" y="35"/><rect display="block" height="1" rx=".106096" ry=".065391" width="15.400014" x="14.999992" y="37"/></g><g transform="matrix(1.160511 0 0 1.160511 1.847713 3.119486)"><path d="m45.052803 38.908627a20.203051 7.4751287 0 1 1 -40.4061012 0 20.203051 7.4751287 0 1 1 40.4061012 0z" fill="url(#k)" transform="matrix(.587136 0 0 .729954 11.29919 4.398359)"/><path d="m37.109606 24.218856c0 6.288063-5.097577 11.385582-11.384775 11.385582-6.287774 0-11.385064-5.097577-11.385064-11.385582 0-6.287775 5.09729-11.384775 11.385064-11.384775 6.287198 0 11.384775 5.097 11.384775 11.384775z" fill="url(#l)" stroke="#39396c" stroke-width="1.723379"/><path d="m30.708637 15.271057a12.929953 9.2934036 0 1 1 -25.859905 0 12.929953 9.2934036 0 1 1 25.859905 0z" fill="url(#m)" opacity=".421594" transform="matrix(.490809 0 0 .587136 17.10413 10.42967)"/></g><path d="m272.025 64.505c72.452-.276 132.891 59.034 132.748 132.92-.143 72.101-59.542 133.046-133.855 132.481-72.839-.559-131.662-61.606-131.425-133.312.243-72.457 59.983-132.295 132.532-132.089zm-117.563 96.691c.433.309.865.606 1.295.912 1.313-.794 2.734-1.463 3.91-2.418 2.618-2.138 5.07-4.498 7.673-6.657 15.617-12.968 32.616-16.757 51.371-7.317 6.344 3.19 12.696 6.516 18.602 10.437 26.109 17.328 51.671 35.521 78.208 52.165 20.999 13.181 43.87 22.61 68.46 27.382 3.797.741 5.5-.253 6.223-3.644.991-4.617 1.566-9.337 2.816-13.877.833-2.987-.274-4.095-2.812-4.688-13.072-3.082-25.069-8.878-35.495-17.01-19.068-14.881-37.6-30.478-56.083-46.105-12.788-10.826-24.94-22.409-37.687-33.302-17.305-14.769-37.589-17.497-59.173-13.176-5.329 1.062-11.588 2.252-15.325 5.664-12.852 11.752-23.042 25.716-29.133 42.282-1.123 3.051-1.912 6.236-2.85 9.352zm219.051 105.403c-.49-.529-.976-1.046-1.472-1.576-1.571.396-3.143.757-4.703 1.184-16.675 4.567-33.598 8.564-50.899 7.699-14.939-.751-29.922-2.787-44.624-5.579-25.423-4.831-48.977-15.414-72.792-25.196-7.538-3.093-15.704-5.762-23.738-6.308-10.747-.732-16.648 10.136-11.541 19.42 12.01 21.821 29.049 38.586 51.073 50.229 1.767.928 3.786 1.371 6.692 2.399-.583-2.896-.839-4.52-1.237-6.097-2.917-11.585 1.814-16.437 13.687-13.99 1.653.343 3.312.675 4.952 1.107 28.571 7.372 57.43 10.821 86.872 6.381 15.562-2.352 30.786-5.374 40.526-19.723 2.299-3.395 4.804-6.646 7.204-9.95zm-136.582-186.851c.087.707.171 1.405.258 2.112 1.237.206 2.463.546 3.7.604 6.415.358 12.83.585 19.24.973 23.457 1.421 44.149 9.851 60.054 27.108 12.355 13.387 22.744 28.582 34.383 42.654 5.136 6.225 10.815 12.139 16.954 17.378 4.614 3.937 10.172 3.375 14.074.192 4.262-3.478 4.947-6.787 2.769-13.239-7.693-22.805-21.151-41.7-40.136-56.252-27.527-21.12-58.725-30.048-93.379-25.444-6.031.797-11.945 2.585-17.917 3.914z" transform="matrix(.10041567 0 0 .10005973 4.387915 11.490246)"/></g></svg>