<svg height="52" viewBox="0 0 48 48" width="52" xmlns="http://www.w3.org/2000/svg" xmlns:xlink="http://www.w3.org/1999/xlink"><linearGradient id="a" gradientTransform="matrix(1.072527 0 0 .932378 .5 .75)" gradientUnits="userSpaceOnUse" x1="11.562314" x2="30.75012" y1="8.080926" y2="53.658985"><stop offset="0" stop-color="#fff" stop-opacity=".608247"/><stop offset="1" stop-color="#fff" stop-opacity="0"/></linearGradient><radialGradient id="b" cx="30.873167" cy="31.265368" gradientTransform="scale(1.287593 .776643)" gradientUnits="userSpaceOnUse" r="3.24886"><stop offset="0" stop-color="#fff"/><stop offset="1" stop-color="#939393"/></radialGradient><radialGradient id="c" cx="16.331211" cy="34.833511" gradientTransform="scale(1.347925 .741881)" gradientUnits="userSpaceOnUse" r="15.231354" xlink:href="#i"/><radialGradient id="d" cx="25.940556" cy="41.706387" gradientTransform="scale(1.347925 .741881)" gradientUnits="userSpaceOnUse" r="26.594908" xlink:href="#i"/><linearGradient id="e" gradientTransform="matrix(1.70088 0 0 .587931 -1.374996 -7.214286)" gradientUnits="userSpaceOnUse" x1="6.88355" x2="16.294504" y1="56.288612" y2="68.766663"><stop offset="0" stop-color="#aaa"/><stop offset="1" stop-color="#505050"/></linearGradient><linearGradient id="f" gradientTransform="matrix(1.411264 0 0 .708585 -1.517853 -6.857043)" gradientUnits="userSpaceOnUse" x1="5.162545" x2="26.171595" xlink:href="#i" y1="50.805511" y2="50.805479"/><linearGradient id="g"><stop offset="0"/><stop offset="1" stop-opacity="0"/></linearGradient><radialGradient id="h" cx="17.579761" cy="47.402553" gradientTransform="scale(1.357519 .736638)" gradientUnits="userSpaceOnUse" r="16.798437" xlink:href="#g"/><linearGradient id="i"><stop offset="0" stop-color="#adadad"/><stop offset="1" stop-color="#747474"/></linearGradient><linearGradient id="j" gradientTransform="matrix(1.411264 0 0 .708585 -1.517853 -5.016059)" gradientUnits="userSpaceOnUse" x1="5.162545" x2="26.171595" xlink:href="#i" y1="50.805511" y2="50.805479"/><radialGradient id="k" cx="605.71429" cy="486.64789" gradientTransform="matrix(-2.774389 0 0 1.969706 112.7623 -872.8854)" gradientUnits="userSpaceOnUse" r="117.14286" xlink:href="#g"/><radialGradient id="l" cx="605.71429" cy="486.64789" gradientTransform="matrix(2.774389 0 0 1.969706 -1891.633 -872.8854)" gradientUnits="userSpaceOnUse" r="117.14286" xlink:href="#g"/><linearGradient id="m" gradientTransform="matrix(2.774389 0 0 1.969706 -1892.179 -872.8854)" gradientUnits="userSpaceOnUse" x1="302.85715" x2="302.85715" y1="366.64789" y2="609.50507"><stop offset="0" stop-opacity="0"/><stop offset=".5"/><stop offset="1" stop-opacity="0"/></linearGradient><radialGradient id="n" cx="8.824419" cy="3.756129" gradientTransform="matrix(.968273 0 0 1.032767 3.353553 .646447)" gradientUnits="userSpaceOnUse" r="37.751713"><stop offset="0" stop-color="#a3a3a3"/><stop offset="1" stop-color="#4c4c4c"/></radialGradient><radialGradient id="o" cx="33.966679" cy="35.736916" gradientTransform="scale(.960493 1.041132)" gradientUnits="userSpaceOnUse" r="86.70845"><stop offset="0" stop-color="#fafafa"/><stop offset="1" stop-color="#bbb"/></radialGradient><radialGradient id="p" cx="8.143557" cy="7.267897" gradientTransform="matrix(.968273 0 0 1.032767 3.353553 .646447)" gradientUnits="userSpaceOnUse" r="38.158695"><stop offset="0" stop-color="#fff"/><stop offset="1" stop-color="#f8f8f8"/></radialGradient><g transform="matrix(.02105461 0 0 .02086758 42.85172 41.1536)"><path d="m-1559.2523-150.69685h1339.6335v478.35718h-1339.6335z" fill="url(#m)" opacity=".402062"/><path d="m-219.61876-150.68038v478.33079c142.874166.90045 345.40022-107.16966 345.40014-239.196175 0-132.026537-159.436816-239.134595-345.40014-239.134615z" fill="url(#l)" opacity=".402062"/><path d="m-1559.2523-150.68038v478.33079c-142.8742.90045-345.4002-107.16966-345.4002-239.196175 0-132.026537 159.4368-239.134595 345.4002-239.134615z" fill="url(#k)" opacity=".402062"/></g><g stroke-linecap="round" stroke-linejoin="round"><rect display="block" fill="url(#o)" height="40.920494" ry="1.149049" stroke="url(#n)" width="34.875" x="6.603553" y="3.646446"/><rect display="block" fill="none" height="38.946384" rx=".149049" stroke="url(#p)" width="32.775887" x="7.666054" y="4.583946"/></g><g><g transform="translate(-14.11961 18.553786)"><path d="m26.339728 8.5787964a1.1490486 1.1490486 0 1 1 -2.298097 0 1.1490486 1.1490486 0 1 1 2.298097 0z" fill="#fff"/><path d="m26.339728 8.5787964a1.1490486 1.1490486 0 1 1 -2.298097 0 1.1490486 1.1490486 0 1 1 2.298097 0z" fill-opacity=".111111" transform="translate(-.353553 -.265165)"/></g><g transform="translate(-14.11961 12.553786)"><path d="m26.339728 8.5787964a1.1490486 1.1490486 0 1 1 -2.298097 0 1.1490486 1.1490486 0 1 1 2.298097 0z" fill="#fff"/><path d="m26.339728 8.5787964a1.1490486 1.1490486 0 1 1 -2.298097 0 1.1490486 1.1490486 0 1 1 2.298097 0z" fill-opacity=".111111" transform="translate(-.353553 -.265165)"/></g><g transform="matrix(.537701 0 0 .537701 22.23208 24.15041)"><g fill-rule="evenodd"><path d="m24.0625 5.5839466c-4.179355 0-8.074575.8084374-11.3125 2.15625-.658579-.3095335-1.34941-.6249999-2.21875-.625-2.2244907 0-4.0312501 1.1872471-4.03125 2.65625 0 .5168724.269623.9977834.65625 1.4062504-2.2221871 2.043424-3.53125 4.854584-3.53125 7.509803 0 2.011001.7980122 3.724223 2.125 5.416973-1.300143.549948-2.1875 1.467916-2.1875 3.004442 0 1.707663 2.0703602 3.093751 4.65625 3.09375.3731121 0 .7145145-.10174 1.0625-.15625-.1107184.370632-.21875.738935-.21875 1.125-.0000003.69579 0 1.536444 0 2.232233-.0000003 4.211767 6.830316 7.624999 15.21875 7.625 8.388435.000001 15.1875-3.413234 15.1875-7.625 0-.697482 0-1.53475 0-2.232233 0-.408322-.095689-.796571-.21875-1.1875.528288.136458 1.086288.21875 1.6875.21875 2.585889 0 4.775888-1.386087 4.775888-3.09375 0-1.848189-1.360474-2.871441-3.119638-3.316942 1.181349-1.614638 1.875-3.21399 1.875-5.104473 0-2.43811-1.131701-5.040088-3.03125-6.978553.759491-.484082 1.25-1.185926 1.25-1.9375004 0-1.4690033-1.806761-2.6562498-4.03125-2.65625-1.132461 0-2.142685.315303-2.875.8125-3.324472-1.464707-7.345023-2.3437501-11.71875-2.34375z" fill="url(#j)" stroke="#4c4c4c" stroke-width="2"/><path d="m46.669048 34.918526a22.804193 12.374369 0 1 1 -45.6083867 0 22.804193 12.374369 0 1 1 45.6083867 0z" fill="url(#h)" transform="translate(.332106 -.646447)"/><path d="m24.294647 21.455457c-8.388434 0-15.2187501 3.413233-15.2187501 7.625v4c0 4.211766 6.8303161 7.624999 15.2187501 7.625 8.388435 0 15.1875-3.413234 15.1875-7.625 0-.697483 0-3.302517 0-4 0-4.211766-6.799065-7.625-15.1875-7.625z" fill="url(#f)"/><path d="m39.142858 35.142857a14.285714 6 0 1 1 -28.571429 0 14.285714 6 0 1 1 28.571429 0z" fill="#fff" fill-opacity=".596491" transform="translate(-.483935 -6.734736)"/><path d="m39.142858 35.142857a14.285714 6 0 1 1 -28.571429 0 14.285714 6 0 1 1 28.571429 0z" fill="#afafaf" transform="translate(-.660711 -6.9999)"/><path d="m43.482147 20.5-5.714286 9.571428c-5.857143 4.714286-19.428571 5.000001-26.857143.142858l-5.7142855-8.857143 38.2857145-.857143z" fill="url(#e)"/><path d="m24.0625 6.3062181c-11.276567 0-20.4374999 5.7021429-20.4375 12.7499979 0 2.011001.7980122 3.901 2.125 5.59375-1.300143.549948-2.1875 1.467916-2.1875 2.5625 0 1.707663 2.0703602 3.093751 4.65625 3.09375 1.434223 0 2.671716-.453892 3.53125-1.125 3.431878 1.632412 7.670156 2.65625 12.3125 2.65625 4.956638 0 9.429869-1.162723 12.96875-3 .828827.871764 2.233564 1.46875 3.90625 1.46875 2.585889 0 4.6875-1.386087 4.6875-3.09375 0-1.317859-1.272086-2.429499-3.03125-2.875 1.181349-1.614638 1.875-3.390767 1.875-5.28125 0-7.047854-9.129684-12.7499981-20.40625-12.7499979z" fill="#737373"/><path d="m47.729706 28.819729a4.6845822 3.0935922 0 1 1 -9.369164 0 4.6845822 3.0935922 0 1 1 9.369164 0z" fill="#cbcbcb" transform="translate(-34.81183 -2.226137)"/><path d="m47.729706 28.819729a4.6845822 3.0935922 0 1 1 -9.369164 0 4.6845822 3.0935922 0 1 1 9.369164 0z" fill="#cbcbcb" transform="matrix(.860242 0 0 .860242 -26.51038 -14.90547)"/><path d="m43.857143 23.714285a18.285715 11.428572 0 1 1 -36.5714298 0 18.285715 11.428572 0 1 1 36.5714298 0z" fill="#cbcbcb" transform="matrix(1.117187 0 0 1.117187 -4.514504 -8.045078)"/><path d="m47.729706 28.819729a4.6845822 3.0935922 0 1 1 -9.369164 0 4.6845822 3.0935922 0 1 1 9.369164 0z" fill="#cbcbcb" transform="translate(-2.104706 -2.226137)"/><path d="m47.729706 28.819729a4.6845822 3.0935922 0 1 1 -9.369164 0 4.6845822 3.0935922 0 1 1 9.369164 0z" fill="#cbcbcb" transform="matrix(.860242 0 0 .860242 1.625659 -14.90547)"/><path d="m43.857143 23.714285a18.285715 11.428572 0 1 1 -36.5714298 0 18.285715 11.428572 0 1 1 36.5714298 0z" fill="url(#d)" transform="translate(-1.517853 -5.266059)"/><path d="m35.428571 28.071428a9.2142859 5.0714288 0 1 1 -18.428572 0 9.2142859 5.0714288 0 1 1 18.428572 0z" fill="url(#c)" transform="matrix(.901236 0 0 1.02817 .552644 -6.002357)"/><path d="m38.839286 11.785714c11.546456 11.302037-12.989478 25.213025-30.5625002 12.34375 3.1588642 3.425594 9.0049492 5.75 15.7812502 5.75 10.093715 0 18.281249-5.128929 18.28125-11.4375 0-2.498316-1.321155-4.774918-3.5-6.65625z" fill="#fff" fill-opacity=".859649"/><path d="m43.398678 25.195807a2.7842331 1.6793786 0 1 1 -5.568466 0 2.7842331 1.6793786 0 1 1 5.568466 0z" fill="url(#b)" transform="matrix(.795827 0 0 .947763 9.518711 3.245336)"/><path d="m43.398678 25.195807a2.7842331 1.6793786 0 1 1 -5.568466 0 2.7842331 1.6793786 0 1 1 5.568466 0z" fill="url(#b)" transform="matrix(.795827 0 0 .947763 -24.91284 3.245336)"/><path d="m43.398678 25.195807a2.7842331 1.6793786 0 1 1 -5.568466 0 2.7842331 1.6793786 0 1 1 5.568466 0z" fill="url(#b)" transform="matrix(.672594 0 0 .801003 12.18531 -11.0271)"/><path d="m43.398678 25.195807a2.7842331 1.6793786 0 1 1 -5.568466 0 2.7842331 1.6793786 0 1 1 5.568466 0z" fill="url(#b)" transform="matrix(.672594 0 0 .801003 -17.56469 -11.0271)"/></g><path d="m24.083697 6.1675499c-4.012598 0-8.002397.9011805-11.111128 2.1952151-.632302-.2971831-1.295569-.6000623-2.130222-.6000624-2.1357327 0-3.745402 1.0148757-3.7454019 2.4252654 0 .496248.383865.957971.7550655 1.35014-2.1335213 1.961891-3.7653522 4.321439-3.7653522 6.870714 0 1.930761 1.1411713 4.245349 2.4152119 5.870558-1.2482669.528005-2.4752182 1.409345-2.4752182 2.460255 0 1.639527 2.3627523 2.97031 4.8454645 2.970309.3582248 0 .6860052-.097681 1.020106-.150016-.1063007.355844-.2100219.709452-.2100219 1.080113-.0000002.668027 0 1.492993 0 2.16102-.0000002 4.043716 6.5577843 7.320759 14.6115183 7.32076s14.581515-3.277045 14.581515-7.32076c0-.669653 0-1.491367 0-2.16102 0-.39203-.091871-.764788-.210022-1.140119.507209.131013 1.042945.210022 1.620168.210022 2.482712 0 4.875468-1.330782 4.875468-2.970309 0-1.265276-1.59633-2.332561-3.285302-2.760286 1.134212-1.550214 2.050187-3.755475 2.050187-5.570527 0-2.340829-1.336546-4.499541-3.160303-6.360661.729187-.464767 1.200125-1.138607 1.200125-1.860193 0-1.4103901-1.109671-2.4252652-3.245402-2.4252654-1.087276 0-2.057192.3027224-2.760287.7800811-3.191825-1.4062649-7.676955-2.3752339-11.876169-2.3752338z" fill="none" stroke="url(#a)" stroke-width=".9601"/></g><path d="m-12.16079 37.52854h-42.5v-48h42.5z" fill="none"/><g transform="translate(56.56854 12.55115)"><path d="m-25.16079 3.12854-.3-.1v5.1c-.4-.3-1-.4-1.601-.1-.899.3-1.5 1-1.3 1.5s1 .8 1.9.5c.8-.3 1.399-.8 1.3-1.4v-5.5z"/><path d="m-32.06079 2.12854c.4.4 1.9.5 1.9 1.8.4-1.9-1.5-1.8-2.2-3.5v5.1c-.399-.3-1-.4-1.6-.1-.9.3-1.5 1-1.3 1.5.2.6 1 .8 1.9.5.8-.3 1.4-.8 1.3-1.4z"/><path d="m-36.86079 2.12854c.4.4 1.9.5 1.9 1.8.4-1.9-1.5-1.8-2.2-3.5v5.1c-.4-.3-1-.4-1.6-.1-.9.3-1.5 1-1.3 1.5.2.6 1 .8 1.9.5.8-.3 1.4-.8 1.3-1.4z"/><g fill="none" stroke="#000" stroke-width=".4766" transform="translate(-54.66079 -10.47146)"><path d="m35.6 17.6h-23"/><path d="m12.6 15.6h23"/><path d="m35.6 19.4h-23v-5.8h23z"/><path d="m12.6 19.4v1.9h23v-1.9"/></g></g></g></svg>