<?xml version="1.0" encoding="UTF-8" standalone="no"?>
<!-- Created with Inkscape (http://www.inkscape.org/) -->
<svg
   xmlns:dc="http://purl.org/dc/elements/1.1/"
   xmlns:cc="http://web.resource.org/cc/"
   xmlns:rdf="http://www.w3.org/1999/02/22-rdf-syntax-ns#"
   xmlns:svg="http://www.w3.org/2000/svg"
   xmlns="http://www.w3.org/2000/svg"
   xmlns:xlink="http://www.w3.org/1999/xlink"
   xmlns:sodipodi="http://sodipodi.sourceforge.net/DTD/sodipodi-0.dtd"
   xmlns:inkscape="http://www.inkscape.org/namespaces/inkscape"
   width="48.000000px"
   height="48.000000px"
   id="svg249"
   sodipodi:version="0.32"
   inkscape:version="0.44.1"
   sodipodi:docbase="/Users/izoo/Sites/spip-zone/_graphismes_/logos/spip_tango/tango_vignettes/svg"
   sodipodi:docname="mid.svg"
   inkscape:export-filename="/Users/izoo/Sites/spip-zone/_graphismes_/logos/spip_tango/tango_vignettes/png/mid.png"
   inkscape:export-xdpi="97.5"
   inkscape:export-ydpi="97.5">
  <defs
     id="defs3"><linearGradient
   id="XMLID_99_"
   gradientUnits="userSpaceOnUse"
   x1="21.7002"
   y1="36.7559"
   x2="28.4666"
   y2="26.3623"
   gradientTransform="matrix(1,0,0,-1,-0.8574,45.8467)">
			<stop
   offset="0"
   style="stop-color:#FFFFFF"
   id="stop35738" />

			<stop
   offset="1"
   style="stop-color:#EFEFEF"
   id="stop35740" />

		</linearGradient>
<linearGradient
   id="XMLID_98_"
   gradientUnits="userSpaceOnUse"
   x1="21.7148"
   y1="28.7334"
   x2="28.4812"
   y2="18.3397"
   gradientTransform="matrix(1,0,0,-1,-0.8574,45.8467)">
			<stop
   offset="0"
   style="stop-color:#FFFFFF"
   id="stop35729" />

			<stop
   offset="1"
   style="stop-color:#EFEFEF"
   id="stop35731" />

		</linearGradient>
<linearGradient
   id="XMLID_97_"
   gradientUnits="userSpaceOnUse"
   x1="21.7168"
   y1="25.1328"
   x2="28.4825"
   y2="14.7401"
   gradientTransform="matrix(1,0,0,-1,-0.8574,45.8467)">
			<stop
   offset="0"
   style="stop-color:#FFFFFF"
   id="stop35720" />

			<stop
   offset="1"
   style="stop-color:#EFEFEF"
   id="stop35722" />

		</linearGradient>
<linearGradient
   id="XMLID_96_"
   gradientUnits="userSpaceOnUse"
   x1="21.7061"
   y1="21.249"
   x2="28.4723"
   y2="10.8554"
   gradientTransform="matrix(1,0,0,-1,-0.8574,45.8467)">
			<stop
   offset="0"
   style="stop-color:#FFFFFF"
   id="stop35711" />

			<stop
   offset="1"
   style="stop-color:#EFEFEF"
   id="stop35713" />

		</linearGradient>
<linearGradient
   id="XMLID_95_"
   gradientUnits="userSpaceOnUse"
   x1="21.731"
   y1="17.1104"
   x2="28.4966"
   y2="6.7176"
   gradientTransform="matrix(1,0,0,-1,-0.8574,45.8467)">
			<stop
   offset="0"
   style="stop-color:#FFFFFF"
   id="stop35702" />

			<stop
   offset="1"
   style="stop-color:#EFEFEF"
   id="stop35704" />

		</linearGradient>
<linearGradient
   id="XMLID_94_"
   gradientUnits="userSpaceOnUse"
   x1="21.7368"
   y1="32.9014"
   x2="28.5019"
   y2="22.5097"
   gradientTransform="matrix(1,0,0,-1,-0.8574,45.8467)">
			<stop
   offset="0"
   style="stop-color:#FFFFFF"
   id="stop35693" />

			<stop
   offset="1"
   style="stop-color:#EFEFEF"
   id="stop35695" />

		</linearGradient>
<linearGradient
   id="XMLID_93_"
   gradientUnits="userSpaceOnUse"
   x1="14.0669"
   y1="38.709"
   x2="35.9436"
   y2="5.1047"
   gradientTransform="matrix(1,0,0,-1,-0.8574,45.8467)">
		<stop
   offset="0"
   style="stop-color:#FFFFFF"
   id="stop35682" />

		<stop
   offset="1"
   style="stop-color:#EFEFEF"
   id="stop35684" />

	</linearGradient>
<linearGradient
   id="linearGradient2497">
  <stop
     style="stop-color:#ffffff;stop-opacity:0.60824740;"
     offset="0.0000000"
     id="stop2499" />
  <stop
     style="stop-color:#ffffff;stop-opacity:0;"
     offset="1"
     id="stop2501" />
</linearGradient>
<linearGradient
   inkscape:collect="always"
   xlink:href="#linearGradient2497"
   id="linearGradient2503"
   gradientTransform="matrix(1.072527,0,0,0.932378,0.5,0.75)"
   x1="11.562314"
   y1="8.0809259"
   x2="30.750120"
   y2="53.658985"
   gradientUnits="userSpaceOnUse" />
<radialGradient
   inkscape:collect="always"
   xlink:href="#linearGradient19474"
   id="radialGradient19496"
   gradientUnits="userSpaceOnUse"
   gradientTransform="scale(1.287593,0.776643)"
   cx="30.873167"
   cy="31.265368"
   fx="30.873167"
   fy="31.265368"
   r="3.2488604" />
<radialGradient
   inkscape:collect="always"
   xlink:href="#linearGradient19474"
   id="radialGradient19494"
   gradientUnits="userSpaceOnUse"
   gradientTransform="scale(1.287593,0.776643)"
   cx="30.873167"
   cy="31.265368"
   fx="30.873167"
   fy="31.265368"
   r="3.2488604" />
<radialGradient
   inkscape:collect="always"
   xlink:href="#linearGradient19474"
   id="radialGradient19488"
   gradientUnits="userSpaceOnUse"
   gradientTransform="scale(1.287593,0.776643)"
   cx="30.873167"
   cy="31.265368"
   fx="30.873167"
   fy="31.265368"
   r="3.2488604" />
<linearGradient
   id="linearGradient19474">
  <stop
     style="stop-color:#ffffff;stop-opacity:1.0000000;"
     offset="0.0000000"
     id="stop19476" />
  <stop
     style="stop-color:#939393;stop-opacity:1.0000000;"
     offset="1.0000000"
     id="stop19478" />
</linearGradient>
<radialGradient
   inkscape:collect="always"
   xlink:href="#linearGradient19474"
   id="radialGradient19480"
   gradientTransform="scale(1.287593,0.776643)"
   cx="30.873167"
   cy="31.265368"
   fx="30.873167"
   fy="31.265368"
   r="3.2488604"
   gradientUnits="userSpaceOnUse" />
<radialGradient
   inkscape:collect="always"
   xlink:href="#linearGradient19149"
   id="radialGradient19155"
   gradientTransform="scale(1.347925,0.741881)"
   cx="16.331211"
   cy="34.833511"
   fx="16.331211"
   fy="34.833511"
   r="15.231354"
   gradientUnits="userSpaceOnUse" />
<radialGradient
   inkscape:collect="always"
   xlink:href="#linearGradient19149"
   id="radialGradient19161"
   gradientUnits="userSpaceOnUse"
   gradientTransform="scale(1.347925,0.741881)"
   cx="25.940556"
   cy="41.706387"
   fx="25.940556"
   fy="41.706387"
   r="26.594908" />
<linearGradient
   id="linearGradient19270">
  <stop
     id="stop19272"
     offset="0.0000000"
     style="stop-color:#aaaaaa;stop-opacity:1.0000000;" />
  <stop
     id="stop19274"
     offset="1.0000000"
     style="stop-color:#505050;stop-opacity:1.0000000;" />
</linearGradient>
<linearGradient
   inkscape:collect="always"
   xlink:href="#linearGradient19270"
   id="linearGradient19175"
   gradientTransform="matrix(1.70088,0,0,0.587931,-1.374996,-7.214286)"
   x1="6.8835502"
   y1="56.288612"
   x2="16.294504"
   y2="68.766663"
   gradientUnits="userSpaceOnUse" />
<linearGradient
   inkscape:collect="always"
   xlink:href="#linearGradient19149"
   id="linearGradient19243"
   gradientUnits="userSpaceOnUse"
   gradientTransform="matrix(1.411264,0,0,0.708585,-1.517853,-6.857043)"
   x1="5.1625452"
   y1="50.805511"
   x2="26.171595"
   y2="50.805479" />
<linearGradient
   inkscape:collect="always"
   id="linearGradient19278">
  <stop
     style="stop-color:#000000;stop-opacity:1;"
     offset="0"
     id="stop19280" />
  <stop
     style="stop-color:#000000;stop-opacity:0;"
     offset="1"
     id="stop19282" />
</linearGradient>
<radialGradient
   inkscape:collect="always"
   xlink:href="#linearGradient19278"
   id="radialGradient19284"
   gradientTransform="scale(1.357519,0.736638)"
   cx="17.579761"
   cy="47.402553"
   fx="17.579761"
   fy="47.402553"
   r="16.798437"
   gradientUnits="userSpaceOnUse" />
<linearGradient
   id="linearGradient19149">
  <stop
     style="stop-color:#adadad;stop-opacity:1.0000000;"
     offset="0.0000000"
     id="stop19151" />
  <stop
     style="stop-color:#747474;stop-opacity:1.0000000;"
     offset="1.0000000"
     id="stop19153" />
</linearGradient>
<linearGradient
   inkscape:collect="always"
   xlink:href="#linearGradient19149"
   id="linearGradient2479"
   gradientUnits="userSpaceOnUse"
   gradientTransform="matrix(1.411264,0,0,0.708585,-1.517853,-5.016059)"
   x1="5.1625452"
   y1="50.805511"
   x2="26.171595"
   y2="50.805479" />
<linearGradient
   id="linearGradient10283">
  <stop
     id="stop10285"
     offset="0.0000000"
     style="stop-color:#000000;stop-opacity:0.23762377;" />
  <stop
     id="stop10287"
     offset="1"
     style="stop-color:#000000;stop-opacity:0;" />
</linearGradient>
<linearGradient
   id="linearGradient6536">
  <stop
     style="stop-color:#6b6b6b;stop-opacity:1;"
     offset="0"
     id="stop6538" />
  <stop
     id="stop6544"
     offset="0.37837839"
     style="stop-color:#a6a6a6;stop-opacity:1;" />
  <stop
     style="stop-color:#5b5b5b;stop-opacity:1;"
     offset="1"
     id="stop6540" />
</linearGradient>
<linearGradient
   id="linearGradient3543">
  <stop
     id="stop3545"
     offset="0.0000000"
     style="stop-color:#a4a4a4;stop-opacity:1.0000000;" />
  <stop
     id="stop3547"
     offset="1.0000000"
     style="stop-color:#6b6b6b;stop-opacity:1.0000000;" />
</linearGradient>
<radialGradient
   inkscape:collect="always"
   xlink:href="#linearGradient5060"
   id="radialGradient6719"
   gradientUnits="userSpaceOnUse"
   gradientTransform="matrix(-2.774389,0,0,1.969706,112.7623,-872.8854)"
   cx="605.71429"
   cy="486.64789"
   fx="605.71429"
   fy="486.64789"
   r="117.14286" />
<linearGradient
   inkscape:collect="always"
   id="linearGradient5060">
  <stop
     style="stop-color:black;stop-opacity:1;"
     offset="0"
     id="stop5062" />
  <stop
     style="stop-color:black;stop-opacity:0;"
     offset="1"
     id="stop5064" />
</linearGradient>
<radialGradient
   inkscape:collect="always"
   xlink:href="#linearGradient5060"
   id="radialGradient6717"
   gradientUnits="userSpaceOnUse"
   gradientTransform="matrix(2.774389,0,0,1.969706,-1891.633,-872.8854)"
   cx="605.71429"
   cy="486.64789"
   fx="605.71429"
   fy="486.64789"
   r="117.14286" />
<linearGradient
   id="linearGradient5048">
  <stop
     style="stop-color:black;stop-opacity:0;"
     offset="0"
     id="stop5050" />
  <stop
     id="stop5056"
     offset="0.5"
     style="stop-color:black;stop-opacity:1;" />
  <stop
     style="stop-color:black;stop-opacity:0;"
     offset="1"
     id="stop5052" />
</linearGradient>
<linearGradient
   inkscape:collect="always"
   xlink:href="#linearGradient5048"
   id="linearGradient6715"
   gradientUnits="userSpaceOnUse"
   gradientTransform="matrix(2.774389,0,0,1.969706,-1892.179,-872.8854)"
   x1="302.85715"
   y1="366.64789"
   x2="302.85715"
   y2="609.50507" />
<linearGradient
   inkscape:collect="always"
   id="linearGradient5853">
  <stop
     style="stop-color:#000000;stop-opacity:1;"
     offset="0"
     id="stop5855" />
  <stop
     style="stop-color:#000000;stop-opacity:0;"
     offset="1"
     id="stop5857" />
</linearGradient>
<linearGradient
   id="linearGradient3531">
  <stop
     id="stop3533"
     offset="0.0000000"
     style="stop-color:#000000;stop-opacity:0.092783503;" />
  <stop
     id="stop3535"
     offset="1.0000000"
     style="stop-color:#000000;stop-opacity:0.0000000;" />
</linearGradient>
<linearGradient
   id="linearGradient3519">
  <stop
     style="stop-color:#ffffff;stop-opacity:1.0000000;"
     offset="0.0000000"
     id="stop3521" />
  <stop
     style="stop-color:#ffffff;stop-opacity:0.0000000;"
     offset="1.0000000"
     id="stop3523" />
</linearGradient>
<linearGradient
   id="linearGradient15662">
  <stop
     style="stop-color:#ffffff;stop-opacity:1.0000000;"
     offset="0.0000000"
     id="stop15664" />
  <stop
     style="stop-color:#f8f8f8;stop-opacity:1.0000000;"
     offset="1.0000000"
     id="stop15666" />
</linearGradient>
<linearGradient
   id="linearGradient269">
  <stop
     style="stop-color:#a3a3a3;stop-opacity:1.0000000;"
     offset="0.0000000"
     id="stop270" />
  <stop
     style="stop-color:#4c4c4c;stop-opacity:1.0000000;"
     offset="1.0000000"
     id="stop271" />
</linearGradient>
<linearGradient
   id="linearGradient259">
  <stop
     style="stop-color:#fafafa;stop-opacity:1.0000000;"
     offset="0.0000000"
     id="stop260" />
  <stop
     style="stop-color:#bbbbbb;stop-opacity:1.0000000;"
     offset="1.0000000"
     id="stop261" />
</linearGradient>
<radialGradient
   r="37.751713"
   fy="3.7561285"
   fx="8.8244190"
   cy="3.7561285"
   cx="8.8244190"
   gradientTransform="matrix(0.968273,0.000000,0.000000,1.032767,3.353553,0.646447)"
   gradientUnits="userSpaceOnUse"
   id="radialGradient15656"
   xlink:href="#linearGradient269"
   inkscape:collect="always" />
<radialGradient
   r="86.708450"
   fy="35.736916"
   fx="33.966679"
   cy="35.736916"
   cx="33.966679"
   gradientTransform="scale(0.960493,1.041132)"
   gradientUnits="userSpaceOnUse"
   id="radialGradient15658"
   xlink:href="#linearGradient259"
   inkscape:collect="always" />
<radialGradient
   r="38.158695"
   fy="7.2678967"
   fx="8.1435566"
   cy="7.2678967"
   cx="8.1435566"
   gradientTransform="matrix(0.968273,0.000000,0.000000,1.032767,3.353553,0.646447)"
   gradientUnits="userSpaceOnUse"
   id="radialGradient15668"
   xlink:href="#linearGradient15662"
   inkscape:collect="always" />
<radialGradient
   inkscape:collect="always"
   xlink:href="#linearGradient5853"
   id="radialGradient5859"
   cx="24.875"
   cy="41.625"
   fx="24.875"
   fy="41.625"
   r="16.625"
   gradientTransform="matrix(0.834586,-4.742171e-18,1.889736e-18,0.332579,4.114662,27.78137)"
   gradientUnits="userSpaceOnUse" />

	
		<linearGradient
   gradientTransform="matrix(1,0,0,-1,-0.8574,45.8467)"
   y2="5.1047001"
   x2="35.9436"
   y1="38.709"
   x1="14.0669"
   gradientUnits="userSpaceOnUse"
   id="linearGradient35827">
		<stop
   id="stop35829"
   style="stop-color:#FFFFFF"
   offset="0" />

		<stop
   id="stop35831"
   style="stop-color:#EFEFEF"
   offset="1" />

	</linearGradient>

	
	
	
	
	
	
	
	

	
	
	
	
	
	
	
	
	
</defs>
  <sodipodi:namedview
     id="base"
     pagecolor="#ffffff"
     bordercolor="#666666"
     borderopacity="0.21568627"
     inkscape:pageopacity="0.0"
     inkscape:pageshadow="2"
     inkscape:zoom="5.6568542"
     inkscape:cx="-4.4194768"
     inkscape:cy="34.239466"
     inkscape:current-layer="layer5"
     showgrid="false"
     inkscape:grid-bbox="true"
     inkscape:document-units="px"
     inkscape:window-width="911"
     inkscape:window-height="768"
     inkscape:window-x="280"
     inkscape:window-y="66"
     inkscape:showpageshadow="false" />
  <metadata
     id="metadata4">
    <rdf:RDF>
      <cc:Work
         rdf:about="">
        <dc:format>image/svg+xml</dc:format>
        <dc:type
           rdf:resource="http://purl.org/dc/dcmitype/StillImage" />
        <dc:title>Document Template</dc:title>
        <dc:subject>
          <rdf:Bag>
            <rdf:li>template</rdf:li>
          </rdf:Bag>
        </dc:subject>
        <dc:creator>
          <cc:Agent>
            <dc:title>Jakub Steiner</dc:title>
          </cc:Agent>
        </dc:creator>
        <dc:source>http://jimmac.musichall.cz</dc:source>
        <cc:license
           rdf:resource="http://creativecommons.org/licenses/by-sa/2.0/" />
      </cc:Work>
      <cc:License
         rdf:about="http://creativecommons.org/licenses/by-sa/2.0/">
        <cc:permits
           rdf:resource="http://web.resource.org/cc/Reproduction" />
        <cc:permits
           rdf:resource="http://web.resource.org/cc/Distribution" />
        <cc:requires
           rdf:resource="http://web.resource.org/cc/Notice" />
        <cc:requires
           rdf:resource="http://web.resource.org/cc/Attribution" />
        <cc:permits
           rdf:resource="http://web.resource.org/cc/DerivativeWorks" />
        <cc:requires
           rdf:resource="http://web.resource.org/cc/ShareAlike" />
      </cc:License>
    </rdf:RDF>
  </metadata>
  <g
     inkscape:label="Shadow"
     id="layer6"
     inkscape:groupmode="layer">
    <g
       style="display:inline"
       transform="matrix(2.105461e-2,0,0,2.086758e-2,42.85172,41.1536)"
       id="g6707">
      <rect
         style="opacity:0.40206185;color:black;fill:url(#linearGradient6715);fill-opacity:1;fill-rule:nonzero;stroke:none;stroke-width:1;stroke-linecap:round;stroke-linejoin:miter;marker:none;marker-start:none;marker-mid:none;marker-end:none;stroke-miterlimit:4;stroke-dasharray:none;stroke-dashoffset:0;stroke-opacity:1;visibility:visible;display:inline;overflow:visible"
         id="rect6709"
         width="1339.6335"
         height="478.35718"
         x="-1559.2523"
         y="-150.69685" />
      <path
         style="opacity:0.40206185;color:black;fill:url(#radialGradient6717);fill-opacity:1;fill-rule:nonzero;stroke:none;stroke-width:1;stroke-linecap:round;stroke-linejoin:miter;marker:none;marker-start:none;marker-mid:none;marker-end:none;stroke-miterlimit:4;stroke-dasharray:none;stroke-dashoffset:0;stroke-opacity:1;visibility:visible;display:inline;overflow:visible"
         d="M -219.61876,-150.68038 C -219.61876,-150.68038 -219.61876,327.65041 -219.61876,327.65041 C -76.744594,328.55086 125.78146,220.48075 125.78138,88.454235 C 125.78138,-43.572302 -33.655436,-150.68036 -219.61876,-150.68038 z "
         id="path6711"
         sodipodi:nodetypes="cccc" />
      <path
         sodipodi:nodetypes="cccc"
         id="path6713"
         d="M -1559.2523,-150.68038 C -1559.2523,-150.68038 -1559.2523,327.65041 -1559.2523,327.65041 C -1702.1265,328.55086 -1904.6525,220.48075 -1904.6525,88.454235 C -1904.6525,-43.572302 -1745.2157,-150.68036 -1559.2523,-150.68038 z "
         style="opacity:0.40206185;color:black;fill:url(#radialGradient6719);fill-opacity:1;fill-rule:nonzero;stroke:none;stroke-width:1;stroke-linecap:round;stroke-linejoin:miter;marker:none;marker-start:none;marker-mid:none;marker-end:none;stroke-miterlimit:4;stroke-dasharray:none;stroke-dashoffset:0;stroke-opacity:1;visibility:visible;display:inline;overflow:visible" />
    </g>
  </g>
  <g
     id="layer1"
     inkscape:label="Base"
     inkscape:groupmode="layer"
     style="display:inline">
    <rect
       ry="1.1490486"
       y="3.6464462"
       x="6.6035528"
       height="40.920494"
       width="34.875000"
       id="rect15391"
       style="color:#000000;fill:url(#radialGradient15658);fill-opacity:1.0000000;fill-rule:nonzero;stroke:url(#radialGradient15656);stroke-width:1.0000000;stroke-linecap:round;stroke-linejoin:round;stroke-miterlimit:4.0000000;stroke-dashoffset:0.0000000;stroke-opacity:1.0000000;marker:none;marker-start:none;marker-mid:none;marker-end:none;visibility:visible;display:block;overflow:visible" />
    <rect
       rx="0.14904857"
       ry="0.14904857"
       y="4.5839462"
       x="7.6660538"
       height="38.946384"
       width="32.775887"
       id="rect15660"
       style="color:#000000;fill:none;fill-opacity:1.0000000;fill-rule:nonzero;stroke:url(#radialGradient15668);stroke-width:1.0000000;stroke-linecap:round;stroke-linejoin:round;stroke-miterlimit:4.0000000;stroke-dashoffset:0.0000000;stroke-opacity:1.0000000;marker:none;marker-start:none;marker-mid:none;marker-end:none;visibility:visible;display:block;overflow:visible" />
  </g>
  <g
     style="display:inline"
     inkscape:label="Text"
     id="layer5"
     inkscape:groupmode="layer">
    <g
       id="g28938"
       transform="translate(0,2.999996)">
      <g
         transform="translate(-14.11961,15.55379)"
         id="g3469">
        <path
           d="M 26.339728 8.5787964 A 1.1490486 1.1490486 0 1 1  24.041631,8.5787964 A 1.1490486 1.1490486 0 1 1  26.339728 8.5787964 z"
           sodipodi:ry="1.1490486"
           sodipodi:rx="1.1490486"
           sodipodi:cy="8.5787964"
           sodipodi:cx="25.19068"
           id="path3471"
           style="fill:white;fill-opacity:1"
           sodipodi:type="arc" />
        <path
           transform="translate(-0.353553,-0.265165)"
           sodipodi:type="arc"
           style="fill:black;fill-opacity:0.11111109"
           id="path3473"
           sodipodi:cx="25.19068"
           sodipodi:cy="8.5787964"
           sodipodi:rx="1.1490486"
           sodipodi:ry="1.1490486"
           d="M 26.339728 8.5787964 A 1.1490486 1.1490486 0 1 1  24.041631,8.5787964 A 1.1490486 1.1490486 0 1 1  26.339728 8.5787964 z" />
      </g>
      <g
         id="g3475"
         transform="translate(-14.11961,9.55379)">
        <path
           sodipodi:type="arc"
           style="fill:white;fill-opacity:1"
           id="path3477"
           sodipodi:cx="25.19068"
           sodipodi:cy="8.5787964"
           sodipodi:rx="1.1490486"
           sodipodi:ry="1.1490486"
           d="M 26.339728 8.5787964 A 1.1490486 1.1490486 0 1 1  24.041631,8.5787964 A 1.1490486 1.1490486 0 1 1  26.339728 8.5787964 z" />
        <path
           d="M 26.339728 8.5787964 A 1.1490486 1.1490486 0 1 1  24.041631,8.5787964 A 1.1490486 1.1490486 0 1 1  26.339728 8.5787964 z"
           sodipodi:ry="1.1490486"
           sodipodi:rx="1.1490486"
           sodipodi:cy="8.5787964"
           sodipodi:cx="25.19068"
           id="path3479"
           style="fill:black;fill-opacity:0.11111109"
           sodipodi:type="arc"
           transform="translate(-0.353553,-0.265165)" />
      </g>
    </g>
    <g
       id="g35093"
       transform="matrix(0.537701,0,0,0.537701,22.23208,24.15041)">
      <path
         id="path19447"
         d="M 24.0625,5.5839466 C 19.883145,5.5839466 15.987925,6.392384 12.75,7.7401966 C 12.091421,7.4306631 11.40059,7.1151967 10.53125,7.1151966 C 8.3067593,7.1151966 6.4999999,8.3024437 6.5,9.7714466 C 6.5,10.288319 6.769623,10.76923 7.15625,11.177697 C 4.9340629,13.221121 3.625,16.032281 3.625,18.6875 C 3.625,20.698501 4.4230122,22.411723 5.75,24.104473 C 4.449857,24.654421 3.5625,25.572389 3.5625,27.108915 C 3.5625,28.816578 5.6328602,30.202666 8.21875,30.202665 C 8.5918621,30.202665 8.9332645,30.100925 9.28125,30.046415 C 9.1705316,30.417047 9.0625,30.78535 9.0625,31.171415 C 9.0624997,31.867205 9.0625,32.707859 9.0625,33.403648 C 9.0624997,37.615415 15.892816,41.028647 24.28125,41.028648 C 32.669685,41.028649 39.46875,37.615414 39.46875,33.403648 C 39.46875,32.706166 39.46875,31.868898 39.46875,31.171415 C 39.46875,30.763093 39.373061,30.374844 39.25,29.983915 C 39.778288,30.120373 40.336288,30.202665 40.9375,30.202665 C 43.523389,30.202665 45.713388,28.816578 45.713388,27.108915 C 45.713388,25.260726 44.352914,24.237474 42.59375,23.791973 C 43.775099,22.177335 44.46875,20.577983 44.46875,18.6875 C 44.46875,16.24939 43.337049,13.647412 41.4375,11.708947 C 42.196991,11.224865 42.6875,10.523021 42.6875,9.7714466 C 42.6875,8.3024433 40.880739,7.1151968 38.65625,7.1151966 C 37.523789,7.1151966 36.513565,7.4304996 35.78125,7.9276966 C 32.456778,6.4629896 28.436227,5.5839465 24.0625,5.5839466 z "
         style="color:black;fill:url(#linearGradient2479);fill-opacity:1;fill-rule:evenodd;stroke:#4c4c4c;stroke-width:2;stroke-linecap:butt;stroke-linejoin:miter;marker:none;marker-start:none;marker-mid:none;marker-end:none;stroke-miterlimit:4;stroke-dashoffset:0;stroke-opacity:1;visibility:visible;display:inline;overflow:visible"
         sodipodi:nodetypes="cccccccscccccccccsccccccc" />
      <path
         transform="translate(0.332106,-0.646447)"
         d="M 46.669048 34.918526 A 22.804193 12.374369 0 1 1  1.0606613,34.918526 A 22.804193 12.374369 0 1 1  46.669048 34.918526 z"
         sodipodi:ry="12.374369"
         sodipodi:rx="22.804193"
         sodipodi:cy="34.918526"
         sodipodi:cx="23.864855"
         id="path19276"
         style="color:black;fill:url(#radialGradient19284);fill-opacity:1;fill-rule:evenodd;stroke:none;stroke-width:4;stroke-linecap:butt;stroke-linejoin:miter;marker:none;marker-start:none;marker-mid:none;marker-end:none;stroke-miterlimit:4;stroke-dashoffset:0;stroke-opacity:1;visibility:visible;display:inline;overflow:visible"
         sodipodi:type="arc" />
      <path
         sodipodi:nodetypes="ccccccc"
         id="path19181"
         d="M 24.294647,21.455457 C 15.906213,21.455457 9.0758969,24.86869 9.0758969,29.080457 C 9.0758969,29.776246 9.0758969,32.384668 9.0758969,33.080457 C 9.0758969,37.292223 15.906213,40.705456 24.294647,40.705457 C 32.683082,40.705457 39.482147,37.292223 39.482147,33.080457 C 39.482147,32.382974 39.482147,29.77794 39.482147,29.080457 C 39.482147,24.868691 32.683082,21.455457 24.294647,21.455457 z "
         style="color:black;fill:url(#linearGradient19243);fill-opacity:1;fill-rule:evenodd;stroke:none;stroke-width:2;stroke-linecap:butt;stroke-linejoin:miter;marker:none;marker-start:none;marker-mid:none;marker-end:none;stroke-miterlimit:4;stroke-dashoffset:0;stroke-opacity:1;visibility:visible;display:inline;overflow:visible" />
      <path
         sodipodi:type="arc"
         style="color:black;fill:white;fill-opacity:0.5964912;fill-rule:evenodd;stroke:none;stroke-width:4;stroke-linecap:butt;stroke-linejoin:miter;marker:none;marker-start:none;marker-mid:none;marker-end:none;stroke-miterlimit:4;stroke-dashoffset:0;stroke-opacity:1;visibility:visible;display:inline;overflow:visible"
         id="path19268"
         sodipodi:cx="24.857143"
         sodipodi:cy="35.142857"
         sodipodi:rx="14.285714"
         sodipodi:ry="6"
         d="M 39.142858 35.142857 A 14.285714 6 0 1 1  10.571429,35.142857 A 14.285714 6 0 1 1  39.142858 35.142857 z"
         transform="translate(-0.483935,-6.734736)" />
      <path
         transform="translate(-0.660711,-6.9999)"
         d="M 39.142858 35.142857 A 14.285714 6 0 1 1  10.571429,35.142857 A 14.285714 6 0 1 1  39.142858 35.142857 z"
         sodipodi:ry="6"
         sodipodi:rx="14.285714"
         sodipodi:cy="35.142857"
         sodipodi:cx="24.857143"
         id="path19218"
         style="color:black;fill:#afafaf;fill-opacity:1;fill-rule:evenodd;stroke:none;stroke-width:4;stroke-linecap:butt;stroke-linejoin:miter;marker:none;marker-start:none;marker-mid:none;marker-end:none;stroke-miterlimit:4;stroke-dashoffset:0;stroke-opacity:1;visibility:visible;display:inline;overflow:visible"
         sodipodi:type="arc" />
      <path
         sodipodi:nodetypes="ccccc"
         id="path19173"
         d="M 43.482147,20.5 L 37.767861,30.071428 C 31.910718,34.785714 18.33929,35.071429 10.910718,30.214286 L 5.1964325,21.357143 L 43.482147,20.5 z "
         style="color:black;fill:url(#linearGradient19175);fill-opacity:1;fill-rule:evenodd;stroke:none;stroke-width:2;stroke-linecap:butt;stroke-linejoin:miter;marker:none;marker-start:none;marker-mid:none;marker-end:none;stroke-miterlimit:4;stroke-dashoffset:0;stroke-opacity:1;visibility:visible;display:inline;overflow:visible" />
      <path
         id="path19500"
         d="M 24.0625,6.3062181 C 12.785933,6.3062181 3.6250001,12.008361 3.625,19.056216 C 3.625,21.067217 4.4230122,22.957216 5.75,24.649966 C 4.449857,25.199914 3.5625,26.117882 3.5625,27.212466 C 3.5625,28.920129 5.6328602,30.306217 8.21875,30.306216 C 9.652973,30.306216 10.890466,29.852324 11.75,29.181216 C 15.181878,30.813628 19.420156,31.837466 24.0625,31.837466 C 29.019138,31.837466 33.492369,30.674743 37.03125,28.837466 C 37.860077,29.70923 39.264814,30.306216 40.9375,30.306216 C 43.523389,30.306216 45.625,28.920129 45.625,27.212466 C 45.625,25.894607 44.352914,24.782967 42.59375,24.337466 C 43.775099,22.722828 44.46875,20.946699 44.46875,19.056216 C 44.46875,12.008362 35.339066,6.3062179 24.0625,6.3062181 z "
         style="color:black;fill:#737373;fill-opacity:1;fill-rule:evenodd;stroke:none;stroke-width:2.23437405;stroke-linecap:butt;stroke-linejoin:miter;marker:none;marker-start:none;marker-mid:none;marker-end:none;stroke-miterlimit:4;stroke-dashoffset:0;stroke-opacity:1;visibility:visible;display:inline;overflow:visible" />
      <path
         sodipodi:type="arc"
         style="color:black;fill:#cbcbcb;fill-opacity:1;fill-rule:evenodd;stroke:none;stroke-width:2.23437405;stroke-linecap:butt;stroke-linejoin:miter;marker:none;marker-start:none;marker-mid:none;marker-end:none;stroke-miterlimit:4;stroke-dashoffset:0;stroke-opacity:1;visibility:visible;display:inline;overflow:visible"
         id="path19441"
         sodipodi:cx="43.045124"
         sodipodi:cy="28.819729"
         sodipodi:rx="4.6845822"
         sodipodi:ry="3.0935922"
         d="M 47.729706 28.819729 A 4.6845822 3.0935922 0 1 1  38.360542,28.819729 A 4.6845822 3.0935922 0 1 1  47.729706 28.819729 z"
         transform="translate(-34.81183,-2.226137)" />
      <path
         transform="matrix(0.860242,0,0,0.860242,-26.51038,-14.90547)"
         d="M 47.729706 28.819729 A 4.6845822 3.0935922 0 1 1  38.360542,28.819729 A 4.6845822 3.0935922 0 1 1  47.729706 28.819729 z"
         sodipodi:ry="3.0935922"
         sodipodi:rx="4.6845822"
         sodipodi:cy="28.819729"
         sodipodi:cx="43.045124"
         id="path19443"
         style="color:black;fill:#cbcbcb;fill-opacity:1;fill-rule:evenodd;stroke:none;stroke-width:2.23437405;stroke-linecap:butt;stroke-linejoin:miter;marker:none;marker-start:none;marker-mid:none;marker-end:none;stroke-miterlimit:4;stroke-dashoffset:0;stroke-opacity:1;visibility:visible;display:inline;overflow:visible"
         sodipodi:type="arc" />
      <path
         transform="matrix(1.117187,0,0,1.117187,-4.514504,-8.045078)"
         sodipodi:type="arc"
         style="color:black;fill:#cbcbcb;fill-opacity:1;fill-rule:evenodd;stroke:none;stroke-width:2;stroke-linecap:butt;stroke-linejoin:miter;marker:none;marker-start:none;marker-mid:none;marker-end:none;stroke-miterlimit:4;stroke-dashoffset:0;stroke-opacity:1;visibility:visible;display:inline;overflow:visible"
         id="path19163"
         sodipodi:cx="25.571428"
         sodipodi:cy="23.714285"
         sodipodi:rx="18.285715"
         sodipodi:ry="11.428572"
         d="M 43.857143 23.714285 A 18.285715 11.428572 0 1 1  7.2857132,23.714285 A 18.285715 11.428572 0 1 1  43.857143 23.714285 z" />
      <path
         transform="translate(-2.104706,-2.226137)"
         d="M 47.729706 28.819729 A 4.6845822 3.0935922 0 1 1  38.360542,28.819729 A 4.6845822 3.0935922 0 1 1  47.729706 28.819729 z"
         sodipodi:ry="3.0935922"
         sodipodi:rx="4.6845822"
         sodipodi:cy="28.819729"
         sodipodi:cx="43.045124"
         id="path19439"
         style="color:black;fill:#cbcbcb;fill-opacity:1;fill-rule:evenodd;stroke:none;stroke-width:2.23437405;stroke-linecap:butt;stroke-linejoin:miter;marker:none;marker-start:none;marker-mid:none;marker-end:none;stroke-miterlimit:4;stroke-dashoffset:0;stroke-opacity:1;visibility:visible;display:inline;overflow:visible"
         sodipodi:type="arc" />
      <path
         sodipodi:type="arc"
         style="color:black;fill:#cbcbcb;fill-opacity:1;fill-rule:evenodd;stroke:none;stroke-width:2.23437405;stroke-linecap:butt;stroke-linejoin:miter;marker:none;marker-start:none;marker-mid:none;marker-end:none;stroke-miterlimit:4;stroke-dashoffset:0;stroke-opacity:1;visibility:visible;display:inline;overflow:visible"
         id="path19445"
         sodipodi:cx="43.045124"
         sodipodi:cy="28.819729"
         sodipodi:rx="4.6845822"
         sodipodi:ry="3.0935922"
         d="M 47.729706 28.819729 A 4.6845822 3.0935922 0 1 1  38.360542,28.819729 A 4.6845822 3.0935922 0 1 1  47.729706 28.819729 z"
         transform="matrix(0.860242,0,0,0.860242,1.625659,-14.90547)" />
      <path
         transform="translate(-1.517853,-5.266059)"
         d="M 43.857143 23.714285 A 18.285715 11.428572 0 1 1  7.2857132,23.714285 A 18.285715 11.428572 0 1 1  43.857143 23.714285 z"
         sodipodi:ry="11.428572"
         sodipodi:rx="18.285715"
         sodipodi:cy="23.714285"
         sodipodi:cx="25.571428"
         id="path19145"
         style="color:black;fill:url(#radialGradient19161);fill-opacity:1;fill-rule:evenodd;stroke:none;stroke-width:2;stroke-linecap:butt;stroke-linejoin:miter;marker:none;marker-start:none;marker-mid:none;marker-end:none;stroke-miterlimit:4;stroke-dashoffset:0;stroke-opacity:1;visibility:visible;display:inline;overflow:visible"
         sodipodi:type="arc" />
      <path
         transform="matrix(0.901236,0,0,1.02817,0.552644,-6.002357)"
         d="M 35.428571 28.071428 A 9.2142859 5.0714288 0 1 1  16.999999,28.071428 A 9.2142859 5.0714288 0 1 1  35.428571 28.071428 z"
         sodipodi:ry="5.0714288"
         sodipodi:rx="9.2142859"
         sodipodi:cy="28.071428"
         sodipodi:cx="26.214285"
         id="path19147"
         style="color:black;fill:url(#radialGradient19155);fill-opacity:1;fill-rule:evenodd;stroke:none;stroke-width:2;stroke-linecap:butt;stroke-linejoin:miter;marker:none;marker-start:none;marker-mid:none;marker-end:none;stroke-miterlimit:4;stroke-dashoffset:0;stroke-opacity:1;visibility:visible;display:inline;overflow:visible"
         sodipodi:type="arc" />
      <path
         sodipodi:nodetypes="ccccc"
         id="path19245"
         d="M 38.839286,11.785714 C 50.385742,23.087751 25.849808,36.998739 8.2767858,24.129464 C 11.43565,27.555058 17.281735,29.879464 24.058036,29.879464 C 34.151751,29.879464 42.339285,24.750535 42.339286,18.441964 C 42.339286,15.943648 41.018131,13.667046 38.839286,11.785714 z "
         style="color:black;fill:white;fill-opacity:0.85964912;fill-rule:evenodd;stroke:none;stroke-width:2;stroke-linecap:butt;stroke-linejoin:miter;marker:none;marker-start:none;marker-mid:none;marker-end:none;stroke-miterlimit:4;stroke-dashoffset:0;stroke-opacity:1;visibility:visible;display:inline;overflow:visible" />
      <path
         transform="matrix(0.795827,0,0,0.947763,9.518711,3.245336)"
         d="M 43.398678 25.195807 A 2.7842331 1.6793786 0 1 1  37.830212,25.195807 A 2.7842331 1.6793786 0 1 1  43.398678 25.195807 z"
         sodipodi:ry="1.6793786"
         sodipodi:rx="2.7842331"
         sodipodi:cy="25.195807"
         sodipodi:cx="40.614445"
         id="path19472"
         style="color:black;fill:url(#radialGradient19480);fill-opacity:1;fill-rule:evenodd;stroke:none;stroke-width:4;stroke-linecap:butt;stroke-linejoin:miter;marker:none;marker-start:none;marker-mid:none;marker-end:none;stroke-miterlimit:4;stroke-dashoffset:0;stroke-opacity:1;visibility:visible;display:inline;overflow:visible"
         sodipodi:type="arc" />
      <path
         sodipodi:type="arc"
         style="color:black;fill:url(#radialGradient19488);fill-opacity:1;fill-rule:evenodd;stroke:none;stroke-width:4;stroke-linecap:butt;stroke-linejoin:miter;marker:none;marker-start:none;marker-mid:none;marker-end:none;stroke-miterlimit:4;stroke-dashoffset:0;stroke-opacity:1;visibility:visible;display:inline;overflow:visible"
         id="path19486"
         sodipodi:cx="40.614445"
         sodipodi:cy="25.195807"
         sodipodi:rx="2.7842331"
         sodipodi:ry="1.6793786"
         d="M 43.398678 25.195807 A 2.7842331 1.6793786 0 1 1  37.830212,25.195807 A 2.7842331 1.6793786 0 1 1  43.398678 25.195807 z"
         transform="matrix(0.795827,0,0,0.947763,-24.91284,3.245336)" />
      <path
         sodipodi:type="arc"
         style="color:black;fill:url(#radialGradient19494);fill-opacity:1;fill-rule:evenodd;stroke:none;stroke-width:4;stroke-linecap:butt;stroke-linejoin:miter;marker:none;marker-start:none;marker-mid:none;marker-end:none;stroke-miterlimit:4;stroke-dashoffset:0;stroke-opacity:1;visibility:visible;display:inline;overflow:visible"
         id="path19490"
         sodipodi:cx="40.614445"
         sodipodi:cy="25.195807"
         sodipodi:rx="2.7842331"
         sodipodi:ry="1.6793786"
         d="M 43.398678 25.195807 A 2.7842331 1.6793786 0 1 1  37.830212,25.195807 A 2.7842331 1.6793786 0 1 1  43.398678 25.195807 z"
         transform="matrix(0.672594,0,0,0.801003,12.18531,-11.0271)" />
      <path
         transform="matrix(0.672594,0,0,0.801003,-17.56469,-11.0271)"
         d="M 43.398678 25.195807 A 2.7842331 1.6793786 0 1 1  37.830212,25.195807 A 2.7842331 1.6793786 0 1 1  43.398678 25.195807 z"
         sodipodi:ry="1.6793786"
         sodipodi:rx="2.7842331"
         sodipodi:cy="25.195807"
         sodipodi:cx="40.614445"
         id="path19492"
         style="color:black;fill:url(#radialGradient19496);fill-opacity:1;fill-rule:evenodd;stroke:none;stroke-width:4;stroke-linecap:butt;stroke-linejoin:miter;marker:none;marker-start:none;marker-mid:none;marker-end:none;stroke-miterlimit:4;stroke-dashoffset:0;stroke-opacity:1;visibility:visible;display:inline;overflow:visible"
         sodipodi:type="arc" />
      <path
         sodipodi:nodetypes="ccccccccccccccccccccccccc"
         id="path2495"
         d="M 24.083697,6.1675499 C 20.071099,6.1675499 16.0813,7.0687304 12.972569,8.362765 C 12.340267,8.0655819 11.677,7.7627027 10.842347,7.7627026 C 8.7066143,7.7627026 7.096945,8.7775783 7.0969451,10.187968 C 7.0969451,10.684216 7.4808101,11.145939 7.8520106,11.538108 C 5.7184893,13.499999 4.0866584,15.859547 4.0866584,18.408822 C 4.0866584,20.339583 5.2278297,22.654171 6.5018703,24.27938 C 5.2536034,24.807385 4.0266521,25.688725 4.0266521,26.739635 C 4.0266521,28.379162 6.3894044,29.709945 8.8721166,29.709944 C 9.2303414,29.709944 9.5581218,29.612263 9.8922226,29.559928 C 9.7859219,29.915772 9.6822007,30.26938 9.6822007,30.640041 C 9.6822005,31.308068 9.6822007,32.133034 9.6822007,32.801061 C 9.6822005,36.844777 16.239985,40.12182 24.293719,40.121821 C 32.347453,40.121822 38.875234,36.844776 38.875234,32.801061 C 38.875234,32.131408 38.875234,31.309694 38.875234,30.640041 C 38.875234,30.248011 38.783363,29.875253 38.665212,29.499922 C 39.172421,29.630935 39.708157,29.709944 40.28538,29.709944 C 42.768092,29.709944 45.160848,28.379162 45.160848,26.739635 C 45.160848,25.474359 43.564518,24.407074 41.875546,23.979349 C 43.009758,22.429135 43.925733,20.223874 43.925733,18.408822 C 43.925733,16.067993 42.589187,13.909281 40.76543,12.048161 C 41.494617,11.583394 41.965555,10.909554 41.965555,10.187968 C 41.965555,8.7775779 40.855884,7.7627028 38.720153,7.7627026 C 37.632877,7.7627026 36.662961,8.065425 35.959866,8.5427837 C 32.768041,7.1365188 28.282911,6.1675498 24.083697,6.1675499 z "
         style="color:black;fill:none;fill-opacity:1;fill-rule:evenodd;stroke:url(#linearGradient2503);stroke-width:0.96009976;stroke-linecap:butt;stroke-linejoin:miter;marker:none;marker-start:none;marker-mid:none;marker-end:none;stroke-miterlimit:4;stroke-dashoffset:0;stroke-opacity:1;visibility:visible;display:inline;overflow:visible" />
    </g>
    <path
       style="fill:none"
       id="path40510"
       d="M -12.16079,37.52854 L -54.66079,37.52854 L -54.66079,-10.47146 L -12.16079,-10.47146 L -12.16079,37.52854 z " />
    <g
       id="g40631"
       transform="translate(56.56854,12.55115)">
      <path
         d="M -25.16079,3.12854 L -25.46079,3.02854 L -25.46079,8.12854 C -25.86079,7.82854 -26.46079,7.72854 -27.06179,8.02854 C -27.96079,8.32854 -28.56179,9.02854 -28.36179,9.52854 C -28.16179,10.02854 -27.36179,10.32854 -26.46179,10.02854 C -25.66179,9.72854 -25.06279,9.22854 -25.16179,8.62854 L -25.16179,3.12854 L -25.16079,3.12854 z "
         id="path40512" />
      <path
         d="M -32.06079,2.12854 C -31.66079,2.52854 -30.16079,2.62854 -30.16079,3.92854 C -29.76079,2.02854 -31.66079,2.12854 -32.36079,0.42854 L -32.36079,5.52854 C -32.75979,5.22854 -33.36079,5.12854 -33.96079,5.42854 C -34.86079,5.72854 -35.46079,6.42854 -35.26079,6.92854 C -35.06079,7.52854 -34.26079,7.72854 -33.36079,7.42854 C -32.56079,7.12854 -31.96079,6.62854 -32.06079,6.02854 L -32.06079,2.12854 L -32.06079,2.12854 z "
         id="path40518" />
      <path
         d="M -36.86079,2.12854 C -36.46079,2.52854 -34.96079,2.62854 -34.96079,3.92854 C -34.56079,2.02854 -36.46079,2.12854 -37.16079,0.42854 L -37.16079,5.52854 C -37.56079,5.22854 -38.16079,5.12854 -38.76079,5.42854 C -39.66079,5.72854 -40.26079,6.42854 -40.06079,6.92854 C -39.86079,7.52854 -39.06079,7.72854 -38.16079,7.42854 C -37.36079,7.12854 -36.76079,6.62854 -36.86079,6.02854 L -36.86079,2.12854 z "
         id="path40520" />
      <g
         transform="translate(-54.66079,-10.47146)"
         id="g40542">
		<g
   id="g40544">
			<path
   d="M 35.6,17.6 L 12.6,17.6"
   id="path40546"
   style="fill:none;stroke:black;stroke-width:0.47659999" />

			<path
   d="M 12.6,15.6 L 35.6,15.6"
   id="path40548"
   style="fill:none;stroke:black;stroke-width:0.47659999" />

			<path
   d="M 35.6,19.4 L 12.6,19.4 L 12.6,13.6 L 35.6,13.6 L 35.6,19.4 z "
   id="path40550"
   style="fill:none;stroke:black;stroke-width:0.47659999" />

		</g>

		<path
   d="M 12.6,19.4 L 12.6,21.3 L 35.6,21.3 L 35.6,19.4"
   id="path40552"
   style="fill:none;stroke:black;stroke-width:0.47659999" />

	</g>
    </g>
  </g>
</svg>
