<svg height="52" viewBox="0 0 48 48" width="52" xmlns="http://www.w3.org/2000/svg" xmlns:xlink="http://www.w3.org/1999/xlink"><linearGradient id="a"><stop offset="0" stop-opacity=".237624"/><stop offset="1" stop-opacity="0"/></linearGradient><linearGradient id="b"><stop offset="0"/><stop offset="1" stop-opacity="0"/></linearGradient><linearGradient id="c"><stop offset="0" stop-color="#fff"/><stop offset="1" stop-color="#fff" stop-opacity="0"/></linearGradient><radialGradient id="d" cx="605.71429" cy="486.64789" gradientTransform="matrix(-2.774389 0 0 1.969706 112.7623 -872.8854)" gradientUnits="userSpaceOnUse" r="117.14286" xlink:href="#b"/><radialGradient id="e" cx="605.71429" cy="486.64789" gradientTransform="matrix(2.774389 0 0 1.969706 -1891.633 -872.8854)" gradientUnits="userSpaceOnUse" r="117.14286" xlink:href="#b"/><linearGradient id="f" gradientTransform="matrix(2.774389 0 0 1.969706 -1892.179 -872.8854)" gradientUnits="userSpaceOnUse" x1="302.85715" x2="302.85715" y1="366.64789" y2="609.50507"><stop offset="0" stop-opacity="0"/><stop offset=".5"/><stop offset="1" stop-opacity="0"/></linearGradient><radialGradient id="g" cx="8.824419" cy="3.756129" gradientTransform="matrix(.968273 0 0 1.032767 3.353553 .646447)" gradientUnits="userSpaceOnUse" r="37.751713"><stop offset="0" stop-color="#a3a3a3"/><stop offset="1" stop-color="#4c4c4c"/></radialGradient><radialGradient id="h" cx="33.966679" cy="35.736916" gradientTransform="scale(.960493 1.041132)" gradientUnits="userSpaceOnUse" r="86.70845"><stop offset="0" stop-color="#fafafa"/><stop offset="1" stop-color="#bbb"/></radialGradient><radialGradient id="i" cx="8.143557" cy="7.267897" gradientTransform="matrix(.968273 0 0 1.032767 3.353553 .646447)" gradientUnits="userSpaceOnUse" r="38.158695"><stop offset="0" stop-color="#fff"/><stop offset="1" stop-color="#f8f8f8"/></radialGradient><radialGradient id="j" cx="22.431479" cy="45.910061" gradientTransform="matrix(1.28838 0 0 .720991 1.085493 1.243262)" gradientUnits="userSpaceOnUse" r="6.793911" xlink:href="#b"/><linearGradient id="k" gradientUnits="userSpaceOnUse" x1="-32.868569" x2="-9.846556" y1="10.422998" y2="10.422998"><stop offset="0" stop-color="#6b6b6b"/><stop offset=".37837839" stop-color="#a6a6a6"/><stop offset="1" stop-color="#5b5b5b"/></linearGradient><linearGradient id="l" gradientTransform="scale(1.355874 .737532)" gradientUnits="userSpaceOnUse" x1="19.257353" x2="26.853251" y1="29.612534" y2="35.935814"><stop offset="0" stop-color="#a4a4a4"/><stop offset="1" stop-color="#6b6b6b"/></linearGradient><linearGradient id="m" gradientTransform="scale(1.395614 .716531)" gradientUnits="userSpaceOnUse" x1="21.904423" x2="21.939615" xlink:href="#c" y1="37.631317" y2="33.666641"/><linearGradient id="n" gradientTransform="matrix(1.50352 0 0 1.581134 -56.29699 -24.33806)" gradientUnits="userSpaceOnUse" x1="24.199377" x2="24.704542" xlink:href="#c" y1="13.916924" y2="19.617973"/><linearGradient id="o" gradientUnits="userSpaceOnUse" x1="-23.024889" x2="-22.179929" xlink:href="#c" y1="18.92271" y2="4.29771"/><radialGradient id="p" cx="30.471884" cy="30.293295" gradientTransform="matrix(.95059 0 0 .496452 1.50562 12.36491)" gradientUnits="userSpaceOnUse" r="6.752938" xlink:href="#c"/><radialGradient id="q" cx="30.889133" cy="30.218632" gradientTransform="matrix(.802279 0 0 .418995 6.107425 14.7036)" gradientUnits="userSpaceOnUse" r="6.752938"><stop offset="0" stop-color="#505050"/><stop offset="1" stop-color="#505050" stop-opacity="0"/></radialGradient><radialGradient id="r" cx="8.492752" cy="27.674625" gradientTransform="matrix(2.817094 0 0 .785919 -30.93384 -13.03907)" gradientUnits="userSpaceOnUse" r="6.065051" xlink:href="#a"/><radialGradient id="s" cx="6.563961" cy="33.367069" gradientTransform="matrix(2.817097 0 0 .785919 -30.73658 -12.80909)" gradientUnits="userSpaceOnUse" r="4.401387" xlink:href="#a"/><g transform="matrix(.02105461 0 0 .02086758 42.85172 41.1536)"><path d="m-1559.2523-150.69685h1339.6335v478.35718h-1339.6335z" fill="url(#f)" opacity=".402062"/><path d="m-219.61876-150.68038v478.33079c142.874166.90045 345.40022-107.16966 345.40014-239.196175 0-132.026537-159.436816-239.134595-345.40014-239.134615z" fill="url(#e)" opacity=".402062"/><path d="m-1559.2523-150.68038v478.33079c-142.8742.90045-345.4002-107.16966-345.4002-239.196175 0-132.026537 159.4368-239.134595 345.4002-239.134615z" fill="url(#d)" opacity=".402062"/></g><g stroke-linecap="round" stroke-linejoin="round"><rect display="block" fill="url(#h)" height="40.920494" ry="1.149049" stroke="url(#g)" width="34.875" x="6.603553" y="3.646446"/><rect display="block" fill="none" height="38.946384" rx=".149049" stroke="url(#i)" width="32.775887" x="7.666054" y="4.583946"/></g><g><g transform="translate(-14.11961 18.553786)"><path d="m26.339728 8.5787964a1.1490486 1.1490486 0 1 1 -2.298097 0 1.1490486 1.1490486 0 1 1 2.298097 0z" fill="#fff"/><path d="m26.339728 8.5787964a1.1490486 1.1490486 0 1 1 -2.298097 0 1.1490486 1.1490486 0 1 1 2.298097 0z" fill-opacity=".111111" transform="translate(-.353553 -.265165)"/></g><g transform="translate(-14.11961 12.553786)"><path d="m26.339728 8.5787964a1.1490486 1.1490486 0 1 1 -2.298097 0 1.1490486 1.1490486 0 1 1 2.298097 0z" fill="#fff"/><path d="m26.339728 8.5787964a1.1490486 1.1490486 0 1 1 -2.298097 0 1.1490486 1.1490486 0 1 1 2.298097 0z" fill-opacity=".111111" transform="translate(-.353553 -.265165)"/></g><g transform="translate(57.09887 22.98097)"><g fill-rule="evenodd"><path d="m39.067649 34.344002a9.0819025 5.0823302 0 1 1 -18.163805 0 9.0819025 5.0823302 0 1 1 18.163805 0z" fill="url(#j)" transform="matrix(1.459611 0 0 1.500591 -65.33428 -33.77135)"/><path d="m-21.357518-2.0770017c-6.078047 0-11.036491 2.74887197-11.010952 6.125497l.098309 12.9980037c.02461 3.254158 4.994181 5.8765 10.912643 5.8765 5.918473 0 10.941028-2.582129 10.912655-5.8765 0 0 .098308-12.9093467.098308-12.9980037 0-3.37672603-4.932906-6.125497-11.010963-6.125497z" fill="url(#k)" stroke="#505050" stroke-linecap="round" stroke-linejoin="round"/><path d="m36.902136 24.245632a6.4302521 3.2040777 0 1 1 -12.860504 0 6.4302521 3.2040777 0 1 1 12.860504 0z" fill="url(#l)" stroke="url(#m)" stroke-linecap="round" stroke-linejoin="round" stroke-width=".696526" transform="matrix(1.399634 0 0 1.472687 -63.89306 -32.53338)"/><path d="m-26.861042 7.3914607 13.422259-6.84793743c-9.085933-5.94471897-24.566796 1.99617803-13.422259 6.84793743z" fill="url(#n)" opacity=".245714"/></g><path d="m-21.368569-1.1085397c-2.892268 0-5.503005.68067497-7.3125 1.68749997-1.809495 1.00682503-2.727908 2.25793203-2.71875 3.46875003l.09375 13.0000007c.008577 1.1341.914712 2.346692 2.71875 3.3125s4.403238 1.59375 7.21875 1.59375c2.817723.000001 5.432511-.632342 7.25-1.59375s2.728635-2.164702 2.71875-3.3125c0 0 .007813-3.229848.03125-6.46875.011719-1.6194513.022461-3.2458763.03125-4.4687507.004394-.611437.028687-1.138532.03125-1.5s0-.637217 0-.5625c0-1.212292-.935167-2.461301-2.75-3.46875003-1.814833-1.007449-4.420221-1.68749997-7.3125-1.68749997z" fill="none" opacity=".388571" stroke="url(#o)" stroke-linecap="round" stroke-linejoin="round"/><g fill="none" stroke-linecap="round" stroke-linejoin="round" stroke-width=".645373" transform="translate(-55.74357 -22.60854)"><path d="m36.902136 24.245632a6.4302521 3.2040777 0 1 1 -12.860504 0 6.4302521 3.2040777 0 1 1 12.860504 0z" stroke="url(#p)" transform="matrix(1.497907 0 0 1.602854 -11.31652 -8.495358)"/><path d="m36.902136 24.245632a6.4302521 3.2040777 0 1 1 -12.860504 0 6.4302521 3.2040777 0 1 1 12.860504 0z" stroke="url(#q)" transform="matrix(1.497907 0 0 1.602854 -11.31652 -9.495358)"/></g><g fill="none" stroke-linecap="round" stroke-linejoin="round" stroke-width=".645373" transform="translate(-55.74357 -17.60854)"><path d="m36.902136 24.245632a6.4302521 3.2040777 0 1 1 -12.860504 0 6.4302521 3.2040777 0 1 1 12.860504 0z" stroke="url(#p)" transform="matrix(1.497907 0 0 1.602854 -11.31652 -8.495358)"/><path d="m36.902136 24.245632a6.4302521 3.2040777 0 1 1 -12.860504 0 6.4302521 3.2040777 0 1 1 12.860504 0z" stroke="url(#q)" transform="matrix(1.497907 0 0 1.602854 -11.31652 -9.495358)"/></g></g><g fill-rule="evenodd" transform="translate(25.63262 4.065864)"><path d="m-14.942673 3.8365786c3.999353-1.3632913 8.0612952 1.0834524 9.4695292 1.5168334 1.408235-.541726 5.09891195-2.4576321 8.404216-2.1325961-4.06085 1.3001441-8.404216 4.9495751-8.404216 4.9495751-2.326013-2.239136-6.1685852-4.2615822-9.4695292-4.3338124z" fill="url(#r)"/><path d="m-15.139931 3.2446968c3.999353-1.3632912 8.0612932 1.0834532 9.4695282 1.5168332 1.408234-.541725 5.09891395-2.4576318 8.404216-2.132596-4.060847 1.3001441-8.404216 4.949576-8.404216 4.949576-2.326011-2.239136-6.1685842-4.2615829-9.4695282-4.3338132z" fill="#3465a4"/><path d="m-23.906052 10.320512c5.548756-1.891447 11.184344 1.503198 13.138146 2.104474 1.9538042-.751598 7.0743012-3.409752 11.66012115-2.958791-5.63407195 1.803837-11.66012115 6.867106-11.66012115 6.867106-3.22714-3.106608-8.558373-5.912576-13.138146-6.012789z" fill="url(#s)"/><path d="m-24.497829 9.662865c5.548756-1.891447 11.184346 1.503198 13.138149 2.104476 1.9538032-.751597 7.0743002-3.409751 11.66012115-2.958793-5.63407295 1.803839-11.66012115 6.867106-11.66012115 6.867106-3.22714-3.106604-8.558375-5.912576-13.138149-6.012789z" fill="#2e3436"/></g></g></svg>