<svg height="52" viewBox="0 0 48 48" width="52" xmlns="http://www.w3.org/2000/svg" xmlns:xlink="http://www.w3.org/1999/xlink"><linearGradient id="a" gradientUnits="userSpaceOnUse" x1="19.8125" x2="17.5625" y1="28.15625" y2="18.65625"><stop offset="0" stop-color="#3465a4"/><stop offset="1" stop-color="#9fbce1"/></linearGradient><radialGradient id="b" cx="6.563961" cy="33.367069" gradientTransform="matrix(2.817097 0 0 .785919 -4.687925 -7.349469)" gradientUnits="userSpaceOnUse" r="4.401387" xlink:href="#c"/><linearGradient id="c"><stop offset="0" stop-opacity=".237624"/><stop offset="1" stop-opacity="0"/></linearGradient><radialGradient id="d" cx="8.492752" cy="27.674625" gradientTransform="matrix(2.817094 0 0 .785919 -4.885181 -7.579454)" gradientUnits="userSpaceOnUse" r="6.065051" xlink:href="#c"/><radialGradient id="e" cx="605.71429" cy="486.64789" gradientTransform="matrix(-2.774389 0 0 1.969706 112.7623 -872.8854)" gradientUnits="userSpaceOnUse" r="117.14286" xlink:href="#f"/><linearGradient id="f"><stop offset="0"/><stop offset="1" stop-opacity="0"/></linearGradient><radialGradient id="g" cx="605.71429" cy="486.64789" gradientTransform="matrix(2.774389 0 0 1.969706 -1891.633 -872.8854)" gradientUnits="userSpaceOnUse" r="117.14286" xlink:href="#f"/><linearGradient id="h" gradientTransform="matrix(2.774389 0 0 1.969706 -1892.179 -872.8854)" gradientUnits="userSpaceOnUse" x1="302.85715" x2="302.85715" y1="366.64789" y2="609.50507"><stop offset="0" stop-opacity="0"/><stop offset=".5"/><stop offset="1" stop-opacity="0"/></linearGradient><radialGradient id="i" cx="8.824419" cy="3.756129" gradientTransform="matrix(.971646 0 0 1.034707 3.240408 .495684)" gradientUnits="userSpaceOnUse" r="37.751713"><stop offset="0" stop-color="#a3a3a3"/><stop offset="1" stop-color="#4c4c4c"/></radialGradient><radialGradient id="j" cx="33.966679" cy="35.736916" gradientTransform="matrix(.963839 0 0 1.043088 -.124825 -.15197)" gradientUnits="userSpaceOnUse" r="86.70845"><stop offset="0" stop-color="#fafafa"/><stop offset="1" stop-color="#bbb"/></radialGradient><radialGradient id="k" cx="8.143557" cy="7.267897" gradientTransform="matrix(.974777 0 0 1.034091 3.161873 .559274)" gradientUnits="userSpaceOnUse" r="38.158695"><stop offset="0" stop-color="#fff"/><stop offset="1" stop-color="#f8f8f8"/></radialGradient><g><g transform="matrix(.02144924 0 0 .02086758 43.32772 41.1536)"><path d="m-1559.2523-150.69685h1339.6335v478.35718h-1339.6335z" fill="url(#h)" opacity=".402062"/><path d="m-219.61876-150.68038v478.33079c142.874166.90045 345.40022-107.16966 345.40014-239.196175 0-132.026537-159.436816-239.134595-345.40014-239.134615z" fill="url(#g)" opacity=".402062"/><path d="m-1559.2523-150.68038v478.33079c-142.8742.90045-345.4002-107.16966-345.4002-239.196175 0-132.026537 159.4368-239.134595 345.4002-239.134615z" fill="url(#e)" opacity=".402062"/></g><g stroke-linecap="round" stroke-linejoin="round"><rect display="block" fill="url(#j)" height="40.997345" rx="1.149048" stroke="url(#i)" width="34.996506" x="6.501741" y="3.501321"/><rect display="block" fill="none" height="38.996326" rx=".149048" ry=".149049" stroke="url(#k)" width="32.996056" x="7.503351" y="4.501827"/></g></g><g><g fill-rule="evenodd" transform="translate(.099578 -1.132735)"><path d="m10.367637 9.8367576c3.999353-1.3632913 8.061295 1.0834524 9.469529 1.5168334 1.408235-.541726 5.098912-2.4576321 8.404216-2.1325961-4.06085 1.3001441-8.404216 4.9495751-8.404216 4.9495751-2.326013-2.239136-6.168585-4.2615822-9.469529-4.3338124z" fill="url(#d)"/><path d="m10.170379 9.2448758c3.999353-1.3632912 8.061293 1.0834532 9.469528 1.5168332 1.408234-.541725 5.098914-2.4576318 8.404216-2.132596-4.060847 1.3001441-8.404216 4.949576-8.404216 4.949576-2.326011-2.239136-6.168584-4.2615829-9.469528-4.3338132z" fill="#3465a4"/><path d="m1.4042582 16.320691c5.5487558-1.891447 11.1843438 1.503198 13.1381458 2.104474 1.953804-.751598 7.074301-3.409752 11.660121-2.958791-5.634072 1.803837-11.660121 6.867106-11.660121 6.867106-3.22714-3.106608-8.558373-5.912576-13.1381458-6.012789z" fill="url(#b)"/><path d="m.81248068 15.663044c5.54875572-1.891447 11.18434632 1.503198 13.13814932 2.104476 1.953803-.751597 7.0743-3.409751 11.660121-2.958793-5.634073 1.803839-11.660121 6.867106-11.660121 6.867106-3.22714-3.106604-8.5583751-5.912576-13.13814932-6.012789z" fill="#2e3436"/></g><g fill="none" stroke-linecap="round" transform="matrix(1.209841 0 0 1.209841 .858392 5.21654)"><path d="m25.4375 16.50184-9.3125-.0625 4.375 6.03033-4.375 6.206496h9.375" stroke="url(#a)" stroke-width="1.92897"/><path d="m25.4375 16.546034-9.3125-.0625 4.375 6.03033-4.375 6.162302h9.375" stroke="#eeeeec" stroke-width=".64299"/></g></g></svg>