<svg height="52" viewBox="0 0 48 48" width="52" xmlns="http://www.w3.org/2000/svg" xmlns:xlink="http://www.w3.org/1999/xlink"><linearGradient id="a"><stop offset="0" stop-color="#fff"/><stop offset="1" stop-color="#fff" stop-opacity="0"/></linearGradient><linearGradient id="b" gradientUnits="userSpaceOnUse" x1="32.7904975" x2="32.7904975" xlink:href="#a" y1="18.6744815" y2="30.5365625"/><linearGradient id="c" gradientTransform="matrix(.737307 0 0 .770854 -8.532023 7.121636)" gradientUnits="userSpaceOnUse" x1="60.168766" x2="60.440994" xlink:href="#f" y1="40.119797" y2="43.869797"/><linearGradient id="d" gradientUnits="userSpaceOnUse" x1="33.94294324182" x2="43.22784983199" y1="23.77233260942" y2="23.77233260942"><stop offset="0" stop-color="#729fcf"/><stop offset="1" stop-color="#2b5582"/></linearGradient><linearGradient id="e" gradientTransform="matrix(.888619 0 0 .718914 -18.29768 9.471728)" gradientUnits="userSpaceOnUse" x1="61.871845" x2="61.871845" y1="29.615223" y2="41.459263"><stop offset="0" stop-color="#aeaeae"/><stop offset="1" stop-color="#c4c4c4" stop-opacity="0"/></linearGradient><linearGradient id="f"><stop offset="0" stop-color="#f2f2f2"/><stop offset="1" stop-color="#c3c3c3"/></linearGradient><linearGradient id="g" gradientTransform="matrix(.71944 0 0 .718914 -7.696252 9.471728)" gradientUnits="userSpaceOnUse" x1="53.168766" x2="69.690994" xlink:href="#f" y1="24.244797" y2="24.244797"/><linearGradient id="h" gradientTransform="matrix(.862482 0 0 .580718 -16.25697 11.01348)" gradientUnits="userSpaceOnUse" x1="52.717936" x2="67.465988" y1="2.316164" y2="2.316164"><stop offset="0" stop-color="#729fcf"/><stop offset="1" stop-color="#3c74b1"/></linearGradient><linearGradient id="i" gradientUnits="userSpaceOnUse" x1="9.60604143419" x2="4.93199999648" xlink:href="#a" y1="35.93014161361" y2="39.79096547151"/><radialGradient id="j" cx="15.415101" cy="35.356506" gradientTransform="matrix(.994655 0 0 .969322 -4.583017 .165919)" gradientUnits="userSpaceOnUse" r="7.579156"><stop offset="0" stop-color="#696969"/><stop offset="1"/></radialGradient><radialGradient id="k" cx="26.78167" cy="42.343147" gradientTransform="matrix(1 0 0 .282209 0 30.39355)" gradientUnits="userSpaceOnUse" r="14.407301" xlink:href="#n"/><linearGradient id="l" gradientUnits="userSpaceOnUse" x1="15.487785" x2="19.202381" y1="28.198475" y2="31.635975"><stop offset="0" stop-color="#bdbdbd"/><stop offset=".33333334" stop-color="#e2e2e2"/><stop offset=".66666669" stop-color="#a3a3a3"/><stop offset="1" stop-color="#ddd"/></linearGradient><linearGradient id="m" gradientUnits="userSpaceOnUse" x1="24.151682" x2="29.530035" y1="17.064911" y2="21.939911"><stop offset="0" stop-color="#6e3d09"/><stop offset=".24242425" stop-color="#ea8113"/><stop offset=".62121212" stop-color="#5c3307"/><stop offset="1" stop-color="#e07c12"/></linearGradient><linearGradient id="n"><stop offset="0"/><stop offset="1" stop-opacity="0"/></linearGradient><radialGradient id="o" cx="6.563961" cy="33.367069" gradientTransform="matrix(2.817097 0 0 .785919 -4.687925 -7.349469)" gradientUnits="userSpaceOnUse" r="4.401387" xlink:href="#p"/><linearGradient id="p"><stop offset="0" stop-opacity=".237624"/><stop offset="1" stop-opacity="0"/></linearGradient><radialGradient id="q" cx="8.492752" cy="27.674625" gradientTransform="matrix(2.817094 0 0 .785919 -4.885181 -7.579454)" gradientUnits="userSpaceOnUse" r="6.065051" xlink:href="#p"/><radialGradient id="r" cx="605.71429" cy="486.64789" gradientTransform="matrix(-2.774389 0 0 1.969706 112.7623 -872.8854)" gradientUnits="userSpaceOnUse" r="117.14286" xlink:href="#n"/><radialGradient id="s" cx="605.71429" cy="486.64789" gradientTransform="matrix(2.774389 0 0 1.969706 -1891.633 -872.8854)" gradientUnits="userSpaceOnUse" r="117.14286" xlink:href="#n"/><linearGradient id="t" gradientTransform="matrix(2.774389 0 0 1.969706 -1892.179 -872.8854)" gradientUnits="userSpaceOnUse" x1="302.85715" x2="302.85715" y1="366.64789" y2="609.50507"><stop offset="0" stop-opacity="0"/><stop offset=".5"/><stop offset="1" stop-opacity="0"/></linearGradient><radialGradient id="u" cx="8.824419" cy="3.756129" gradientTransform="matrix(.971646 0 0 1.034707 3.240408 .495684)" gradientUnits="userSpaceOnUse" r="37.751713"><stop offset="0" stop-color="#a3a3a3"/><stop offset="1" stop-color="#4c4c4c"/></radialGradient><radialGradient id="v" cx="33.966679" cy="35.736916" gradientTransform="matrix(.963839 0 0 1.043088 -.124825 -.15197)" gradientUnits="userSpaceOnUse" r="86.70845"><stop offset="0" stop-color="#fafafa"/><stop offset="1" stop-color="#bbb"/></radialGradient><radialGradient id="w" cx="8.143557" cy="7.267897" gradientTransform="matrix(.974777 0 0 1.034091 3.161873 .559274)" gradientUnits="userSpaceOnUse" r="38.158695"><stop offset="0" stop-color="#fff"/><stop offset="1" stop-color="#f8f8f8"/></radialGradient><g><g transform="matrix(.02144924 0 0 .02086758 43.32772 41.1536)"><path d="m-1559.2523-150.69685h1339.6335v478.35718h-1339.6335z" fill="url(#t)" opacity=".402062"/><path d="m-219.61876-150.68038v478.33079c142.874166.90045 345.40022-107.16966 345.40014-239.196175 0-132.026537-159.436816-239.134595-345.40014-239.134615z" fill="url(#s)" opacity=".402062"/><path d="m-1559.2523-150.68038v478.33079c-142.8742.90045-345.4002-107.16966-345.4002-239.196175 0-132.026537 159.4368-239.134595 345.4002-239.134615z" fill="url(#r)" opacity=".402062"/></g><g stroke-linecap="round" stroke-linejoin="round"><rect display="block" fill="url(#v)" height="40.997345" rx="1.149048" stroke="url(#u)" width="34.996506" x="6.501741" y="3.501321"/><rect display="block" fill="none" height="38.996326" rx=".149048" ry=".149049" stroke="url(#w)" width="32.996056" x="7.503351" y="4.501827"/></g></g><g><g fill-rule="evenodd" transform="translate(.099578 -1.132735)"><path d="m10.367637 9.8367576c3.999353-1.3632913 8.061295 1.0834524 9.469529 1.5168334 1.408235-.541726 5.098912-2.4576321 8.404216-2.1325961-4.06085 1.3001441-8.404216 4.9495751-8.404216 4.9495751-2.326013-2.239136-6.168585-4.2615822-9.469529-4.3338124z" fill="url(#q)"/><path d="m10.170379 9.2448758c3.999353-1.3632912 8.061293 1.0834532 9.469528 1.5168332 1.408234-.541725 5.098914-2.4576318 8.404216-2.132596-4.060847 1.3001441-8.404216 4.949576-8.404216 4.949576-2.326011-2.239136-6.168584-4.2615829-9.469528-4.3338132z" fill="#3465a4"/><path d="m1.4042582 16.320691c5.5487558-1.891447 11.1843438 1.503198 13.1381458 2.104474 1.953804-.751598 7.074301-3.409752 11.660121-2.958791-5.634072 1.803837-11.660121 6.867106-11.660121 6.867106-3.22714-3.106608-8.558373-5.912576-13.1381458-6.012789z" fill="url(#o)"/><path d="m.81248068 15.663044c5.54875572-1.891447 11.18434632 1.503198 13.13814932 2.104476 1.953803-.751597 7.0743-3.409751 11.660121-2.958793-5.634073 1.803839-11.660121 6.867106-11.660121 6.867106-3.22714-3.106604-8.5583751-5.912576-13.13814932-6.012789z" fill="#2e3436"/></g><g transform="matrix(.578913 0 0 .578913 9.792825 17.10605)"><path d="m41.188971 42.343147a14.407301 4.0658641 0 1 1 -28.814602 0 14.407301 4.0658641 0 1 1 28.814602 0z" fill="url(#k)" opacity=".3" transform="matrix(1.069224 0 0 1.122975 5.769028 -7.11616)"/><path d="m19.651682 22.586735 4.065864 3.800698c7.187499-7.062499 17.78306-23.9772875 17.78306-23.9772875.42949-1.2244462-1.087245-1.99589286-1.846352-1.170495 0 0-13.690073 14.0970855-20.002572 21.3470845z" fill="url(#m)" stroke="#673907" stroke-linecap="round"/><path d="m12.050285 32.813894 2.24632 1.93382 8.492766-7.367031.275061-.705828 1.094405-.017815c-.4375-1.5625-2.941514-4.383455-4.816514-4.383455l.082019 1.090075-.669991.380027-6.704066 9.070207z" fill="url(#l)" stroke="#888a85" stroke-linecap="round"/><path d="m41.188971 42.343147a14.407301 4.0658641 0 1 1 -28.814602 0 14.407301 4.0658641 0 1 1 28.814602 0z" fill="url(#k)" opacity=".3" transform="matrix(1.33837 0 0 1 -20.9264 -3.409011)"/><path d="m1.757709 40.723915c6.6053126 0 11.618187.786601 12.567225-4.019073.764793-3.872709-4.5603244-5.72836-7.1991314-2.271051-2.5420036 3.330479-5.3680936 6.290124-5.3680936 6.290124z" fill="url(#j)"/><path d="m8.8749989 37.75a1.2499999 1.2499999 0 1 1 -2.4999997 0 1.2499999 1.2499999 0 1 1 2.4999997 0z" fill="#fff" opacity=".527778" transform="matrix(.852298 0 0 .852298 3.733554 2.575604)"/><path d="m8.8749989 37.75a1.2499999 1.2499999 0 1 1 -2.4999997 0 1.2499999 1.2499999 0 1 1 2.4999997 0z" fill="#fff" transform="matrix(.787867 0 0 .787867 14.26538 -4.723366)"/><path d="m18.941438 26.398154-5.303301 6.14299" fill="none" stroke="#fff" stroke-linecap="round" stroke-linejoin="round"/><path d="m3.0708872 40.068976s3.3411114-1.641821 4.7648284-4.086829c.503707-.865037 1.644373-.126836.941666.734499-1.517828 1.860458-5.7064944 3.35233-5.7064944 3.35233z" fill="url(#i)" opacity=".427778"/><path d="m8.8749989 37.75a1.2499999 1.2499999 0 1 1 -2.4999997 0 1.2499999 1.2499999 0 1 1 2.4999997 0z" fill="#fff" opacity=".533333" transform="matrix(.237867 0 0 .237867 38.43389 -7.101028)"/><path d="m35.12694 7.3500759c-3.057856.0872889-5.484389 1.0560825-5.484389 2.2243336v3.5701185c0 1.225706 2.670932 2.224333 5.94142 2.224333 3.270486 0 5.916029-.998627 5.916029-2.224333 0-.277699 0-3.2924195 0-3.5701185 0-1.2257062-2.645543-2.2243336-5.916029-2.2243336-.153305 0-.306646-.0042933-.457031 0z" fill="url(#h)" stroke="#204a87" stroke-linecap="round"/><path d="m57.375 49.75a5.375 1.5 0 1 1 -10.75 0 5.375 1.5 0 1 1 10.75 0z" fill="#3465a4" transform="matrix(.886278 0 0 .468914 -10.44392 -9.718859)"/><path d="m27.926447 39.155467 1.047009-21.349435 2.486646-3.663512c1.971292-.635437 6.726427-.635437 8.506948 0l2.486647 3.031873 2.617523 22.486387-17.144773-.505313z" fill="url(#g)" stroke="#5a5a5a" stroke-linecap="round"/><path d="m28.828495 38.896108s2.590673-9.531543 7.540188-9.531543c5.106601 0 8.168535 9.912805 8.168535 9.912805l-15.708723-.381262z" fill="url(#e)"/><path d="m29.180138 20.498708-.295913 6.474742c1.662489-1.078371 11.992511-1.264486 14.343625.387648l-.701548-6.597313c-1.39796-.953154-10.582838-1.478245-13.346164-.265077z" fill="url(#d)"/><path d="m29.048762 38.222096.877497-20.194312 1.839967-3.032835c1.818556-.592175 6.205258-.592175 7.847823 0l1.960481 2.532586 2.452224 21.248365-14.977992-.553804z" fill="none" opacity=".594444" stroke="#fff" stroke-linecap="round"/><rect fill="url(#c)" height="3.927753" rx="1.526799" ry="1.526798" stroke="#5a5a5a" stroke-linecap="round" stroke-width="1.000001" width="19.974413" x="26.512789" y="37.536133"/><path d="m29.395219 17.996451c1.874537-1.366188 9.097934-1.655174 12.71992-.606704l-2.337406-2.885623c-2.478201-.667208-5.924347-.375766-8.275461.06904l-2.107053 3.423287z" fill="#fff"/><path d="m31.172941 17.416382v15.456651l3.235113-3.59457-.359457-12.580995-2.875656.718914z" fill="url(#b)" opacity=".861111"/><g fill="#e6e7e6" opacity=".577778"><path d="m31.009391 9.3809738v3.2400352s.611189-.347686.990609-.361321v-3.259688c-.481572.0694626-.990609.3809738-.990609.3809738z" opacity=".411111"/><path d="m33.009391 8.7599648v3.2400352s.611189-.082521.990609-.096156v-3.3149307c-.511601.0258046-.990609.1710515-.990609.1710515z"/><path d="m35.009391 8.561091v3.295278s.555946-.005182.990609.014329v-3.3370274c-.500552-.0515352-.990609.0274204-.990609.0274204z" opacity=".444444"/></g></g></g></svg>