<svg height="52" viewBox="0 0 48 48" width="52" xmlns="http://www.w3.org/2000/svg" xmlns:xlink="http://www.w3.org/1999/xlink"><radialGradient id="a" cx="6.563961" cy="33.367069" gradientTransform="matrix(2.817097 0 0 .785919 -4.687925 -7.349469)" gradientUnits="userSpaceOnUse" r="4.401387" xlink:href="#b"/><linearGradient id="b"><stop offset="0" stop-opacity=".237624"/><stop offset="1" stop-opacity="0"/></linearGradient><radialGradient id="c" cx="8.492752" cy="27.674625" gradientTransform="matrix(2.817094 0 0 .785919 -4.885181 -7.579454)" gradientUnits="userSpaceOnUse" r="6.065051" xlink:href="#b"/><linearGradient id="d"><stop offset="0" stop-color="#fff"/><stop offset="1" stop-color="#fff" stop-opacity="0"/></linearGradient><linearGradient id="e" gradientTransform="matrix(1.868867 0 0 1.5088 -20.39097 -10.01652)" gradientUnits="userSpaceOnUse" x1="27.2949" x2="20.9453" y1="25.4727" y2="11.0039"><stop offset="0" stop-color="#f5f5f5"/><stop offset="1" stop-color="#e1e1e1"/></linearGradient><radialGradient id="f" cx="24.8429149088" cy="35.6705547624" gradientUnits="userSpaceOnUse" r="2.0671914354"><stop offset="0" stop-color="#f0f0f0"/><stop offset="1" stop-color="#848484"/></radialGradient><radialGradient id="g" cx="26.162951" cy="44.022526" gradientTransform="matrix(1 0 0 .181159 0 36.04743)" gradientUnits="userSpaceOnUse" r="12.197592"><stop offset="0" stop-color="#5b5b5b"/><stop offset="1" stop-color="#5b5b5b" stop-opacity="0"/></radialGradient><linearGradient id="h" gradientTransform="matrix(1.905258 0 0 2.521777 -22.82065 -13.24604)" gradientUnits="userSpaceOnUse" x1="24.919374" x2="24.919374" y1="6.147868" y2="7.460026"><stop offset="0" stop-color="#f0f0f0"/><stop offset="1" stop-color="#686868"/></linearGradient><linearGradient id="i" gradientUnits="userSpaceOnUse" x1="23.379572" x2="24.24518" xlink:href="#d" y1="28.369167" y2="6.000002"/><radialGradient id="j" cx="28.283663" cy="47.400623" gradientTransform="scale(1.164226 .85894)" gradientUnits="userSpaceOnUse" r="13.804391"><stop offset="0"/><stop offset="1" stop-opacity="0"/></radialGradient><linearGradient id="k" gradientUnits="userSpaceOnUse" x1="-22.976406" x2="-14.360273" y1="18.516047" y2="33.016045"><stop offset="0" stop-color="#ff7171"/><stop offset="1" stop-color="#c00"/></linearGradient><linearGradient id="l" gradientUnits="userSpaceOnUse" x1="-16.387411" x2="-9.735273" y1="24.453547" y2="28.195539"><stop offset="0" stop-color="#5b8ccb"/><stop offset="1" stop-color="#3465a4"/></linearGradient><linearGradient id="m" gradientUnits="userSpaceOnUse" x1="-17.863041" x2="-20.821646" y1="30.827509" y2="25.015009"><stop offset="0" stop-color="#73d216"/><stop offset="1" stop-color="#d5f7b3"/></linearGradient><linearGradient id="n" gradientUnits="userSpaceOnUse" x1="-20.75" x2="-19.5" xlink:href="#d" y1="29" y2="18.75"/><path d="m26.482036 37.621562h-1.982042v-31.621562h1.982042v31.620112z" fill="#a4a4a4" stroke="#555753"/><path d="m26 37.621562h-1.017958v-31.621562h1.017958v31.620112z" fill="#a4a4a4"/><path d="m43.499996 32.499982h-35.9999959v-26.9999876h35.9999959z" fill="url(#e)" stroke="#888a85" stroke-linejoin="round"/><path d="m38.360542 44.022526a12.197592 2.2097087 0 1 1 -24.395183 0 12.197592 2.2097087 0 1 1 24.395183 0z" fill="url(#g)" opacity=".39011" transform="matrix(1.749254 0 0 1.452548 -20.38301 -20.43749)"/><g fill="#a4a4a4" stroke="#555753" transform="matrix(1.539016 0 0 1.539016 -12.89862 -11.05731)"><path d="m31.492 35.959-6.275-4.638-.065694.344948 4.864694 4.289052z"/><path d="m18.408 35.959 6.275-4.638-.05017.40238-4.74983 4.23162z"/></g><path d="m42.483508 31.500001h-33.9835081v-24.9999985h33.9835081z" fill="none" stroke="url(#i)"/><path d="m37.64607 5.8376811h-29.64607v2.1623189c1.671372-2.3485388 29.64607-2.1623189 29.64607-2.1623189z" opacity=".16"/><rect fill="url(#h)" height="4" rx="1.941476" stroke="#555753" width="40.779099" x="5.140312" y="1.5"/><g fill-opacity=".22807"><path d="m12.547512 9h9v1h-9z"/><path d="m12.547512 11h9v1h-9z"/><path d="m12.547512 13h9v1h-9z"/><path d="m12.547512 15h9v1h-9z"/><path d="m12.547512 17h6v1h-6z"/><path d="m11 22h23v1h-23z"/><path d="m11 24h23v1h-23z"/><path d="m11 26h23v1h-23z"/><path d="m11 28h16v1h-16z"/></g><path d="m48.999998 40.714287a16.071428 11.857142 0 1 1 -32.142857 0 16.071428 11.857142 0 1 1 32.142857 0z" fill="url(#j)" fill-rule="evenodd" transform="matrix(.512138 0 0 .512138 15.02915 -6.973422)"/><g transform="matrix(.587368 0 0 .587368 42.73285 -2.197106)"><path d="m-27.528542 18.092794c-2.569034 1.698331-3.982933 4.005039-3.982933 6.497902v2.069292c0 2.49084 1.413899 4.798223 3.982933 6.496553 2.426489 1.603904 5.633126 2.487468 9.029183 2.487468 3.394772 0 6.601409-.883564 9.0291816-2.487468 2.5677499-1.69833 3.9816497-4.005038 3.9816497-6.496553v-2.069292c0-2.492863-1.4145419-4.800246-3.9816497-6.497902-2.4271306-1.602555-5.6337676-2.486793-9.0291816-2.486793-3.396057 0-6.602694.884238-9.029183 2.486793z" fill="#670000"/><path d="m-7.0244261 24.453547c-1.3785844-3.386544-6.0530579-5.880082-11.6123419-5.880082-5.559285 0-10.233758 2.493538-11.612343 5.880082h-.414795v2.069967c0 4.390164 5.385276 7.948699 12.027138 7.948699 6.642503 0 12.0264951-3.558535 12.0264951-7.948699v-2.069967z" fill="#a40000"/><path d="m-6.6102729 24.453547c0 4.390838-5.3839921 7.949374-12.0264951 7.949374-6.642504 0-12.027138-3.558536-12.027138-7.949374 0-4.390839 5.385276-7.949374 12.027138-7.949374 6.642503 0 12.0264951 3.558535 12.0264951 7.949374z" fill="url(#k)"/><path d="m-6.6102729 26.833098-.0154104-2.166417c-1.304101 4.500778-4.2365627 6.407522-7.9234897 7.340997v1.994425c3.990639-1.00362 7.5619886-3.288745 7.9389001-7.169005z" fill="#204a87"/><path d="m-6.6102729 24.453547c-.27546 5.079478-6.5577471 7.395629-7.9613731 7.483985l-4.065765-7.483985h12.026496z" fill="url(#l)"/><path d="m-21.154435 34.298198v-2.069292c2.263396.294746 4.339941.346681 6.582789-.213809l.022473 1.987681c-1.87942.616471-4.819587.645473-6.605262.296095z" fill="#4e9a06"/><path d="m-18.637411 24.454221 4.065765 7.483311c-2.489414.948988-6.582789.291374-6.582789.291374z" fill="url(#m)"/><path d="m-6.875 24.375a11.75 7.75 0 1 1 -23.5 0 11.75 7.75 0 1 1 23.5 0z" display="block" fill="none" opacity=".311111" stroke="url(#n)" stroke-width="1.854799" transform="matrix(.946982 0 0 .889701 -.987461 2.688545)"/></g><g fill="#a4a4a4" transform="matrix(1.539016 0 0 1.539016 -12.89862 -11.05731)"><path d="m30.015 35.956 1.477.003-6.275-4.638-.439-.014 5.238 4.648z"/><path d="m19.884 35.956-1.476.003 6.275-4.638.438-.014-5.238 4.648z"/></g><path d="m27.839689 36.499985c0 1.292433-1.047259 2.339691-2.339691 2.339691-1.292433 0-2.33969-1.047258-2.33969-2.339691 0-1.288928 1.047257-2.339685 2.33969-2.339685 1.292432 0 2.339691 1.050757 2.339691 2.339685z" fill="url(#f)" stroke="#555753"/><g fill-rule="evenodd" transform="translate(-6.164936 -.851998)"><path d="m10.367637 9.8367576c3.999353-1.3632913 8.061295 1.0834524 9.469529 1.5168334 1.408235-.541726 5.098912-2.4576321 8.404216-2.1325961-4.06085 1.3001441-8.404216 4.9495751-8.404216 4.9495751-2.326013-2.239136-6.168585-4.2615822-9.469529-4.3338124z" fill="url(#c)"/><path d="m10.170379 9.2448758c3.999353-1.3632912 8.061293 1.0834532 9.469528 1.5168332 1.408234-.541725 5.098914-2.4576318 8.404216-2.132596-4.060847 1.3001441-8.404216 4.949576-8.404216 4.949576-2.326011-2.239136-6.168584-4.2615829-9.469528-4.3338132z" fill="#3465a4"/><path d="m1.4042582 16.320691c5.5487558-1.891447 11.1843438 1.503198 13.1381458 2.104474 1.953804-.751598 7.074301-3.409752 11.660121-2.958791-5.634072 1.803837-11.660121 6.867106-11.660121 6.867106-3.22714-3.106608-8.558373-5.912576-13.1381458-6.012789z" fill="url(#a)"/><path d="m.81248068 15.663044c5.54875572-1.891447 11.18434632 1.503198 13.13814932 2.104476 1.953803-.751597 7.0743-3.409751 11.660121-2.958793-5.634073 1.803839-11.660121 6.867106-11.660121 6.867106-3.22714-3.106604-8.5583751-5.912576-13.13814932-6.012789z" fill="#2e3436"/></g></svg>