<svg height="52" viewBox="0 0 48 48" width="52" xmlns="http://www.w3.org/2000/svg" xmlns:xlink="http://www.w3.org/1999/xlink"><linearGradient id="a" gradientUnits="userSpaceOnUse" x1="45.326289" x2="56.90689" y1="29.917709" y2="29.917709"><stop offset="0" stop-color="#a40000"/><stop offset="1" stop-color="#ef2929"/></linearGradient><radialGradient id="b" cx="6.563961" cy="33.367069" gradientTransform="matrix(2.817097 0 0 .785919 -4.687925 -7.349469)" gradientUnits="userSpaceOnUse" r="4.401387" xlink:href="#c"/><linearGradient id="c"><stop offset="0" stop-opacity=".237624"/><stop offset="1" stop-opacity="0"/></linearGradient><radialGradient id="d" cx="8.492752" cy="27.674625" gradientTransform="matrix(2.817094 0 0 .785919 -4.885181 -7.579454)" gradientUnits="userSpaceOnUse" r="6.065051" xlink:href="#c"/><radialGradient id="e" cx="605.71429" cy="486.64789" gradientTransform="matrix(-2.774389 0 0 1.969706 112.7623 -872.8854)" gradientUnits="userSpaceOnUse" r="117.14286" xlink:href="#f"/><linearGradient id="f"><stop offset="0"/><stop offset="1" stop-opacity="0"/></linearGradient><radialGradient id="g" cx="605.71429" cy="486.64789" gradientTransform="matrix(2.774389 0 0 1.969706 -1891.633 -872.8854)" gradientUnits="userSpaceOnUse" r="117.14286" xlink:href="#f"/><linearGradient id="h" gradientTransform="matrix(2.774389 0 0 1.969706 -1892.179 -872.8854)" gradientUnits="userSpaceOnUse" x1="302.85715" x2="302.85715" y1="366.64789" y2="609.50507"><stop offset="0" stop-opacity="0"/><stop offset=".5"/><stop offset="1" stop-opacity="0"/></linearGradient><radialGradient id="i" cx="8.824419" cy="3.756129" gradientTransform="matrix(.971646 0 0 1.034707 3.240408 .495684)" gradientUnits="userSpaceOnUse" r="37.751713"><stop offset="0" stop-color="#a3a3a3"/><stop offset="1" stop-color="#4c4c4c"/></radialGradient><radialGradient id="j" cx="33.966679" cy="35.736916" gradientTransform="matrix(.963839 0 0 1.043088 -.124825 -.15197)" gradientUnits="userSpaceOnUse" r="86.70845"><stop offset="0" stop-color="#fafafa"/><stop offset="1" stop-color="#bbb"/></radialGradient><radialGradient id="k" cx="8.143557" cy="7.267897" gradientTransform="matrix(.974777 0 0 1.034091 3.161873 .559274)" gradientUnits="userSpaceOnUse" r="38.158695"><stop offset="0" stop-color="#fff"/><stop offset="1" stop-color="#f8f8f8"/></radialGradient><g><g transform="matrix(.02144924 0 0 .02086758 43.32772 41.1536)"><path d="m-1559.2523-150.69685h1339.6335v478.35718h-1339.6335z" fill="url(#h)" opacity=".402062"/><path d="m-219.61876-150.68038v478.33079c142.874166.90045 345.40022-107.16966 345.40014-239.196175 0-132.026537-159.436816-239.134595-345.40014-239.134615z" fill="url(#g)" opacity=".402062"/><path d="m-1559.2523-150.68038v478.33079c-142.8742.90045-345.4002-107.16966-345.4002-239.196175 0-132.026537 159.4368-239.134595 345.4002-239.134615z" fill="url(#e)" opacity=".402062"/></g><g stroke-linecap="round" stroke-linejoin="round"><rect display="block" fill="url(#j)" height="40.997345" rx="1.149048" stroke="url(#i)" width="34.996506" x="6.501741" y="3.501321"/><rect display="block" fill="none" height="38.996326" rx=".149048" ry=".149049" stroke="url(#k)" width="32.996056" x="7.503351" y="4.501827"/></g></g><g><g fill-rule="evenodd" transform="matrix(.765155 0 0 .765155 .430368 .305593)"><path d="m10.367637 9.8367576c3.999353-1.3632913 8.061295 1.0834524 9.469529 1.5168334 1.408235-.541726 5.098912-2.4576321 8.404216-2.1325961-4.06085 1.3001441-8.404216 4.9495751-8.404216 4.9495751-2.326013-2.239136-6.168585-4.2615822-9.469529-4.3338124z" fill="url(#d)"/><path d="m10.170379 9.2448758c3.999353-1.3632912 8.061293 1.0834532 9.469528 1.5168332 1.408234-.541725 5.098914-2.4576318 8.404216-2.132596-4.060847 1.3001441-8.404216 4.949576-8.404216 4.949576-2.326011-2.239136-6.168584-4.2615829-9.469528-4.3338132z" fill="#3465a4"/><path d="m1.4042582 16.320691c5.5487558-1.891447 11.1843438 1.503198 13.1381458 2.104474 1.953804-.751598 7.074301-3.409752 11.660121-2.958791-5.634072 1.803837-11.660121 6.867106-11.660121 6.867106-3.22714-3.106608-8.558373-5.912576-13.1381458-6.012789z" fill="url(#b)"/><path d="m.81248068 15.663044c5.54875572-1.891447 11.18434632 1.503198 13.13814932 2.104476 1.953803-.751597 7.0743-3.409751 11.660121-2.958793-5.634073 1.803839-11.660121 6.867106-11.660121 6.867106-3.22714-3.106604-8.5583751-5.912576-13.13814932-6.012789z" fill="#2e3436"/></g><g transform="matrix(1.200949 0 0 1.200949 -36.67182 -6.620108)"><path d="m60.274816 25.065667h-1l-3.3-3.3c0-.1.1-.2.1-.2 0-.2-.2-.4-.4-.4-.1 0-.199 0-.199.1l-3.4-3.4v-1h-.1-1.101v1.2h1l3.4 3.4c0 .1-.101.2-.101.2 0 .2.2.4.4.4.1 0 .2 0 .2-.1l3.3 3.3v1h1.2v-1.2h-.099zm-8.3-7.3c-.101 0-.7 0-.801 0 0-.1 0-.7 0-.8h.801zm8.3 8.3c-.101 0-.7 0-.8 0 0-.1 0-.7 0-.8h.8z"/><g transform="translate(-.108996 .217991)"><path d="m55.883812 22.228636c-1.7-1.7-13.101-4.2-8.9 2.9 2.101 3.6-3.6 7.2-.5 12 3.8 5.7 14.3-.2 8.5-5.5-4.1-3.8 2.7-7.7.9-9.4z" fill="url(#a)" stroke="#a40000" stroke-width="1.025"/><path d="m49.437784 19.074663v-1.1h-.1-1.1v1l-1.1 1.1c-.1 0-.2-.1-.2-.1-.2 0-.4.2-.4.4 0 .1 0 .2.1.2l-1.1 1.1h-1v1.2h1.2v-1l1.1-1.1c.1 0 .2.1.2.1.2 0 .399-.2.399-.4 0-.1 0-.2-.1-.2l1.1-1.1h1v-.1zm-1-1h.801v.8c-.101 0-.7 0-.801 0 0-.1 0-.7 0-.8zm-3.8 4.8c0-.1 0-.7 0-.8h.8v.8c-.1 0-.7 0-.8 0z"/></g></g></g></svg>