<svg xmlns="http://www.w3.org/2000/svg" viewBox="0 0 64 64" width="64" height="64">
  <path d="M10.7 0C9.3 0 8 1.4 8 2.8v58.4c0 1.4 1.4 2.8 2.7 2.8h42.7c1.3 0 2.7-1.4 2.7-2.8V18L38 0" fill="#dcdcdc"/>
  <path d="M42 18l14 14V18H42z" fill-opacity=".196"/>
  <path d="M38 0l18 18H40.8c-1.3 0-2.8-1.4-2.8-2.8" fill="#fff" fill-opacity=".392"/>
  <path fill="#3e3e3e" d="M44.6 27.6c-2.9-2.3-5.8-4.6-8.8-6.9-1.3-1-1.9-2.2-1.6-3.8 0-.4-.2-.5-.6-.4-1 .3-1.8.9-2.3 1.8-.7 1.3-1.7 1.8-3 1.8-2-.1-3.2 1-4.3 2.5-1.1 1.6-1.7 3.5-2.2 5.3-.5 2-.7 4-.8 6.1v8.8h19.4v-3.1s.2-1.3-.8-2.3-2-1.9-2-1.9c-.5-.4-.9-.9-1.3-1.4l-3.6-4.6c.2.2.4.4.7.5 1.1.8 2.3 1.2 3.6.8.8-.2 1.6-.1 2.3.4.4.3.8.5 1.3.7 1 .5 2.3.3 3-.6.5-.5.9-1.1 1.4-1.6.5-.6.3-1.6-.4-2.1zM40.7 45.7c-.2-.4-.6-.6-1-.6H22.1c-.4 0-.8.2-1 .6l-2.2 4.4c-.2.3-.2.7 0 1.1.2.3.6.5.9.5h22.1c.4 0 .7-.2.9-.5.2-.3.2-.7 0-1.1l-2.1-4.4z"/>
</svg>