<svg height="52" viewBox="0 0 48 48" width="52" xmlns="http://www.w3.org/2000/svg" xmlns:xlink="http://www.w3.org/1999/xlink"><linearGradient id="a"><stop offset="0"/><stop offset="1" stop-opacity="0"/></linearGradient><linearGradient id="b"><stop offset="0" stop-color="#fff"/><stop offset="1" stop-color="#fcfcff" stop-opacity="0"/></linearGradient><radialGradient id="c" cx="605.71429" cy="486.64789" gradientTransform="matrix(-2.774389 0 0 1.969706 112.7623 -872.8854)" gradientUnits="userSpaceOnUse" r="117.14286" xlink:href="#a"/><radialGradient id="d" cx="605.71429" cy="486.64789" gradientTransform="matrix(2.774389 0 0 1.969706 -1891.633 -872.8854)" gradientUnits="userSpaceOnUse" r="117.14286" xlink:href="#a"/><linearGradient id="e" gradientTransform="matrix(2.774389 0 0 1.969706 -1892.179 -872.8854)" gradientUnits="userSpaceOnUse" x1="302.85715" x2="302.85715" y1="366.64789" y2="609.50507"><stop offset="0" stop-opacity="0"/><stop offset=".5"/><stop offset="1" stop-opacity="0"/></linearGradient><linearGradient id="f" gradientUnits="userSpaceOnUse" stroke-width="1.216667" x1="21.9326" x2="21.9326" y1="24.6274" y2="7.1091"><stop offset="0" stop-color="#8595bc"/><stop offset="1" stop-color="#041a3b"/></linearGradient><linearGradient id="g"><stop offset="0" stop-color="#fff"/><stop offset="1" stop-color="#f8f8f8"/></linearGradient><radialGradient id="h" cx="8.824419" cy="3.756129" gradientTransform="matrix(.968273 0 0 1.032767 3.353553 .646447)" gradientUnits="userSpaceOnUse" r="37.751713"><stop offset="0" stop-color="#a3a3a3"/><stop offset="1" stop-color="#4c4c4c"/></radialGradient><radialGradient id="i" cx="33.966679" cy="35.736916" gradientTransform="scale(.960493 1.041132)" gradientUnits="userSpaceOnUse" r="86.70845"><stop offset="0" stop-color="#fafafa"/><stop offset="1" stop-color="#bbb"/></radialGradient><radialGradient id="j" cx="8.143557" cy="7.267897" gradientTransform="matrix(.968273 0 0 1.032767 3.353553 .646447)" gradientUnits="userSpaceOnUse" r="38.158695" xlink:href="#g"/><linearGradient id="k"><stop offset="0" stop-color="#f0f0f0"/><stop offset="1" stop-color="#9a9a9a"/></linearGradient><radialGradient id="l" cx="9.4125070463" cy="30.2965131852" gradientUnits="userSpaceOnUse" r="1.207318968" xlink:href="#k"/><radialGradient id="m" cx="9.4125070463" cy="18.8112483337" gradientUnits="userSpaceOnUse" r="1.207548671" xlink:href="#k"/><linearGradient id="n" gradientTransform="matrix(.834638 0 0 -.603116 -26.68032 28.64415)" gradientUnits="userSpaceOnUse" x1="21.9326" x2="21.9326" xlink:href="#f" y1="24.627399" y2="7.1091"/><linearGradient id="o" gradientTransform="matrix(1.196436 0 0 .698254 -27.61571 1.29867)" gradientUnits="userSpaceOnUse" x1="11.492236" x2="17.199417" xlink:href="#b" y1="1.653758" y2="26.729263"/><radialGradient id="p" cx="15.115514" cy="63.965388" gradientTransform="scale(1.64399 .608276)" gradientUnits="userSpaceOnUse" r="12.289036" xlink:href="#a"/><linearGradient id="q" gradientTransform="matrix(.849077 0 0 .682478 21.12842 23.99121)" gradientUnits="userSpaceOnUse" x1="11.492236" x2="17.199417" xlink:href="#b" y1="1.653758" y2="26.729263"/><linearGradient id="r" gradientUnits="userSpaceOnUse" x1="25.67139710816" x2="44.08145920348" xlink:href="#f" y1="36.8531391521" y2="36.8531391521"/><linearGradient id="s" gradientUnits="userSpaceOnUse" x1="29.01805103271" x2="43.41621071808" xlink:href="#g" y1="36.45295527051" y2="36.45295527051"/><g transform="matrix(.02105461 0 0 .02086758 42.85172 41.1536)"><path d="m-1559.2523-150.69685h1339.6335v478.35718h-1339.6335z" fill="url(#e)" opacity=".402062"/><path d="m-219.61876-150.68038v478.33079c142.874166.90045 345.40022-107.16966 345.40014-239.196175 0-132.026537-159.436816-239.134595-345.40014-239.134615z" fill="url(#d)" opacity=".402062"/><path d="m-1559.2523-150.68038v478.33079c-142.8742.90045-345.4002-107.16966-345.4002-239.196175 0-132.026537 159.4368-239.134595 345.4002-239.134615z" fill="url(#c)" opacity=".402062"/></g><g><rect display="block" fill="url(#i)" height="40.920494" ry="1.149049" stroke="url(#h)" stroke-linecap="round" stroke-linejoin="round" width="34.875" x="6.603553" y="3.646446"/><rect display="block" fill="none" height="38.946384" rx=".149049" stroke="url(#j)" stroke-linecap="round" stroke-linejoin="round" width="32.775887" x="7.666054" y="4.583946"/><g transform="translate(.646447 -.037989)"><g fill="#fff" stroke="none" transform="matrix(.229703 0 0 .229703 4.967081 4.244972)"><path d="m23.428 113.07c0 1.973-1.6 3.572-3.573 3.572-1.974 0-3.573-1.6-3.573-3.572 0-1.974 1.6-3.573 3.573-3.573s3.573 1.6 3.573 3.573z"/><path d="m23.428 63.07c0 1.973-1.6 3.573-3.573 3.573-1.974 0-3.573-1.6-3.573-3.573 0-1.974 1.6-3.573 3.573-3.573s3.573 1.6 3.573 3.573z"/></g><path d="m9.9950109 29.952326c0 .453204-.3675248.820499-.8207288.820499-.4534338 0-.8207289-.367524-.8207289-.820499 0-.453434.3675248-.820729.8207289-.820729.453204 0 .8207288.367525.8207288.820729z" fill="url(#l)"/><path d="m9.9950109 18.467176c0 .453204-.3675248.820729-.8207288.820729-.4534338 0-.8207289-.367525-.8207289-.820729 0-.453434.3675248-.820729.8207289-.820729.453204 0 .8207288.367525.8207288.820729z" fill="url(#m)"/></g><g fill="none"><path d="m11.505723 5.4942766v37.9065924" stroke="#000" stroke-opacity=".017544" stroke-width=".988553"/><path d="m12.5 5.0205154v38.0177126" stroke="#fff" stroke-opacity=".204678"/></g></g><g><g transform="matrix(1.010338 0 0 1.010338 34.16355 1.515333)"><path d="m-21.009767 23.10709h25.9207785v-7.84186h-25.9207785z" fill="url(#n)" opacity=".664773"/><path d="m-21.168706 4.7201519h25.9207794v10.5450781h-25.9207794z" fill="#729fcf" opacity=".664773"/><g opacity=".867925" stroke="none" stroke-width="2.001971" transform="matrix(.903163 0 0 .899066 -28.19168 -3.32219)"><path d="m18.4 15.4c0 2.2-1.8 4.1-4.1 4.1-2.2 0-4.1-1.8-4.1-4.1 0-2.2 1.8-4.1 4.1-4.1 2.2 0 4.1 1.8 4.1 4.1z" fill="#e8f52f" opacity=".05"/><path d="m18 15.4c0 2-1.6 3.7-3.7 3.7-2 0-3.7-1.6-3.7-3.7 0-2 1.6-3.7 3.7-3.7 2 0 3.7 1.6 3.7 3.7z" fill="#ecf751" opacity=".2083"/><path d="m17.6 15.4c0 1.8-1.5 3.3-3.3 3.3s-3.3-1.5-3.3-3.3 1.5-3.3 3.3-3.3 3.3 1.5 3.3 3.3z" fill="#f0f972" opacity=".3667"/><path d="m17.2 15.4c0 1.6-1.3 2.9-2.9 2.9s-2.9-1.3-2.9-2.9 1.3-2.9 2.9-2.9 2.9 1.3 2.9 2.9z" fill="#f4fa95" opacity=".525"/><path d="m16.8 15.4c0 1.4-1.1 2.5-2.5 2.5s-2.5-1.1-2.5-2.5 1.1-2.5 2.5-2.5 2.5 1.1 2.5 2.5z" fill="#f7fcb7" opacity=".6833"/><path d="m16.4 15.4c0 1.2-1 2.1-2.1 2.1s-2.1-1-2.1-2.1 1-2.1 2.1-2.1 2.1 1 2.1 2.1z" fill="#fbfddb" opacity=".8417"/><path d="m16 15.4c0 1-.8 1.8-1.8 1.8s-1.8-.8-1.8-1.8.8-1.8 1.8-1.8 1.8.8 1.8 1.8z" fill="#fff"/></g><path d="m-6.1978945 16.793642h6.59309202l1.26442798.359627h-2.16759098s2.16759098.179812 3.25138798 1.528412c1.083795 1.258693-1.264428 2.787106-1.264428 2.787106-.090317-.26972-.63221598-2.42748-1.71601098-3.326546-.81284802-.719253-1.71601002-.899066-1.71601002-.899066h-4.244868v-.359626z" opacity=".199432"/><path d="m-1.8627085 17.333081h-3.793287l7.044673 3.955892z" opacity=".199432"/><path d="m-6.1978945 16.883549h6.59309202l.99347998-.629347h-2.16759098s1.98695698-.359626 2.25790798-2.607293c.270947-2.247665-3.070756-4.765049-3.070756-4.765049v.089906c.090316.53944.99347802 4.315518.361266 5.754025-.27095 1.25869-1.083797 1.528411-1.083797 1.528411h-4.15455l.180633.629347z" fill="#2e3436" opacity=".861635"/><path d="m-2.2239745 15.894576h-3.793286l4.515815-6.832904z" fill="#2e3436" opacity=".664773"/><path d="m-20.600632 5.32593h24.936352v17.456209h-24.936352z" fill="none" opacity=".664773" stroke="#9e9e9e" stroke-width="1.247096"/><path d="m-19.773567 6.0354101-.774975 13.9270639c10.6654135-1.870907 11.0292985-8.176991 24.2903505-10.245789l-.155929-3.6297879z" fill="url(#o)" fill-rule="evenodd" opacity=".531429"/></g><path d="m45.052803 38.908627a20.203051 7.4751287 0 1 1 -40.4061012 0 20.203051 7.4751287 0 1 1 40.4061012 0z" fill="url(#p)" transform="matrix(.51549 0 0 .640881 22.03552 18.31362)"/><rect fill="url(#r)" height="17.718801" rx=".149048" stroke="#041a3b" stroke-linejoin="round" width="17.718801" x="26.017027" y="27.993736"/><path d="m26.693774 28.620929-.549978 13.612388c7.568946-1.828635 7.827186-7.992236 17.238184-10.01429l-.110658-3.547774z" fill="url(#q)" fill-rule="evenodd" opacity=".531429"/><g fill="url(#s)"><path d="m28.837289 41.384861h2.083574v-3.339237c.193179.0414.441552.05519.717522.05519 1.241865 0 2.304349-.317366 3.021871-.979694.565739-.510544.855507-1.297059.855507-2.20776s-.386358-1.683417-.993492-2.152566c-.620932-.496746-1.545432-.745119-2.842491-.745119-1.28326 0-2.193961.08279-2.842491.193179zm2.083574-7.699563c.151783-.0414.441552-.06899.855507-.06899 1.062484 0 1.65582.510545 1.65582 1.366052 0 .938298-.689925 1.504036-1.807604 1.504036-.317365 0-.524343-.0138-.703723-.05519z"/><path d="m36.089695 41.053697c.510544.27597 1.297059.482947 2.180163.482947 1.93179 0 2.911483-.924499 2.911483-2.193961-.0138-.979694-.538141-1.642022-1.821402-2.083574-.82791-.289768-1.090081-.45535-1.090081-.786514s.289768-.538142.800313-.538142c.565738 0 1.159074.220776 1.462641.386358l.358761-1.448842c-.413955-.206978-1.10388-.400157-1.890395-.400157-1.669618 0-2.745901.952097-2.745901 2.221559-.0138.800313.524343 1.55923 1.93179 2.028379.772716.262172.979693.427754.979693.786515 0 .344962-.262171.55194-.896902.55194-.620933 0-1.421246-.262172-1.807604-.496746z"/></g></g></svg>