<?xml version="1.0" encoding="UTF-8" standalone="no"?>
<svg
   xmlns:dc="http://purl.org/dc/elements/1.1/"
   xmlns:cc="http://creativecommons.org/ns#"
   xmlns:rdf="http://www.w3.org/1999/02/22-rdf-syntax-ns#"
   xmlns:svg="http://www.w3.org/2000/svg"
   xmlns="http://www.w3.org/2000/svg"
   xmlns:xlink="http://www.w3.org/1999/xlink"
   xmlns:sodipodi="http://sodipodi.sourceforge.net/DTD/sodipodi-0.dtd"
   xmlns:inkscape="http://www.inkscape.org/namespaces/inkscape"
   version="1.1"
   width="48.000000px"
   height="48.000000px"
   id="svg249"
   sodipodi:version="0.32"
   inkscape:version="1.0 (4035a4f, 2020-05-01)"
   sodipodi:docname="psd.svg"
   inkscape:export-filename="/Users/izoo/Sites/spip-zone/_graphismes_/logos/spip_tango/tango_vignettes/png/psd.png"
   inkscape:export-xdpi="97.5"
   inkscape:export-ydpi="97.5">
  <defs
     id="defs3">
    <linearGradient
       y2="26.729263"
       x2="17.199417"
       y1="1.6537577"
       x1="11.492236"
       gradientTransform="matrix(1.122314,0,0,0.902103,13.79769,11.2288)"
       gradientUnits="userSpaceOnUse"
       id="linearGradient6854"
       xlink:href="#linearGradient2667"
       inkscape:collect="always" />
    <linearGradient
       inkscape:collect="always"
       id="linearGradient4114">
      <stop
         style="stop-color:#000000;stop-opacity:1;"
         offset="0"
         id="stop4116" />
      <stop
         style="stop-color:#000000;stop-opacity:0;"
         offset="1"
         id="stop4118" />
    </linearGradient>
    <radialGradient
       r="12.289036"
       fy="63.965388"
       fx="15.115514"
       cy="63.965388"
       cx="15.115514"
       gradientTransform="scale(1.64399,0.608276)"
       gradientUnits="userSpaceOnUse"
       id="radialGradient6852"
       xlink:href="#linearGradient4114"
       inkscape:collect="always" />
    <linearGradient
       id="linearGradient2667">
      <stop
         style="stop-color:#ffffff;stop-opacity:1.0000000;"
         offset="0.0000000"
         id="stop2669" />
      <stop
         style="stop-color:#fcfcff;stop-opacity:0.0000000;"
         offset="1.0000000"
         id="stop2671" />
    </linearGradient>
    <linearGradient
       y2="26.729263"
       x2="17.199417"
       y1="1.6537577"
       x1="11.492236"
       gradientTransform="matrix(1.196436,0,0,0.698254,-27.61571,1.29867)"
       gradientUnits="userSpaceOnUse"
       id="linearGradient13821"
       xlink:href="#linearGradient2667"
       inkscape:collect="always" />
    <radialGradient
       r="117.14286"
       fy="486.64789"
       fx="605.71429"
       cy="486.64789"
       cx="605.71429"
       gradientTransform="matrix(-2.774389,0,0,1.969706,112.7623,-872.8854)"
       gradientUnits="userSpaceOnUse"
       id="radialGradient6719"
       xlink:href="#linearGradient5060"
       inkscape:collect="always" />
    <linearGradient
       id="linearGradient5060"
       inkscape:collect="always">
      <stop
         id="stop5062"
         offset="0"
         style="stop-color:black;stop-opacity:1;" />
      <stop
         id="stop5064"
         offset="1"
         style="stop-color:black;stop-opacity:0;" />
    </linearGradient>
    <radialGradient
       r="117.14286"
       fy="486.64789"
       fx="605.71429"
       cy="486.64789"
       cx="605.71429"
       gradientTransform="matrix(2.774389,0,0,1.969706,-1891.633,-872.8854)"
       gradientUnits="userSpaceOnUse"
       id="radialGradient6717"
       xlink:href="#linearGradient5060"
       inkscape:collect="always" />
    <linearGradient
       id="linearGradient5048">
      <stop
         id="stop5050"
         offset="0"
         style="stop-color:black;stop-opacity:0;" />
      <stop
         style="stop-color:black;stop-opacity:1;"
         offset="0.5"
         id="stop5056" />
      <stop
         id="stop5052"
         offset="1"
         style="stop-color:black;stop-opacity:0;" />
    </linearGradient>
    <linearGradient
       y2="609.50507"
       x2="302.85715"
       y1="366.64789"
       x1="302.85715"
       gradientTransform="matrix(2.774389,0,0,1.969706,-1892.179,-872.8854)"
       gradientUnits="userSpaceOnUse"
       id="linearGradient6715"
       xlink:href="#linearGradient5048"
       inkscape:collect="always" />
    <linearGradient
       style="stroke-dasharray:none;stroke-miterlimit:4.0000000;stroke-width:1.2166667"
       y2="7.1091"
       x2="21.9326"
       y1="24.6274"
       x1="21.9326"
       gradientUnits="userSpaceOnUse"
       id="linearGradient7648">
      <stop
         id="stop7650"
         style="stop-color:#8595bc;stop-opacity:1;"
         offset="0" />
      <stop
         id="stop7652"
         style="stop-color:#041a3b;stop-opacity:1;"
         offset="1" />
    </linearGradient>
    <linearGradient
       id="linearGradient4542"
       inkscape:collect="always">
      <stop
         id="stop4544"
         offset="0"
         style="stop-color:#000000;stop-opacity:1;" />
      <stop
         id="stop4546"
         offset="1"
         style="stop-color:#000000;stop-opacity:0;" />
    </linearGradient>
    <linearGradient
       id="linearGradient15662">
      <stop
         style="stop-color:#ffffff;stop-opacity:1.0000000;"
         offset="0.0000000"
         id="stop15664" />
      <stop
         style="stop-color:#f8f8f8;stop-opacity:1.0000000;"
         offset="1.0000000"
         id="stop15666" />
    </linearGradient>
    <radialGradient
       gradientUnits="userSpaceOnUse"
       fy="64.5679"
       fx="20.8921"
       r="5.257"
       cy="64.5679"
       cx="20.8921"
       id="aigrd3">
      <stop
         id="stop15573"
         style="stop-color:#F0F0F0"
         offset="0" />
      <stop
         id="stop15575"
         style="stop-color:#9a9a9a;stop-opacity:1.0000000;"
         offset="1.0000000" />
    </radialGradient>
    <radialGradient
       gradientUnits="userSpaceOnUse"
       fy="114.5684"
       fx="20.8921"
       r="5.256"
       cy="114.5684"
       cx="20.8921"
       id="aigrd2">
      <stop
         id="stop15566"
         style="stop-color:#F0F0F0"
         offset="0" />
      <stop
         id="stop15568"
         style="stop-color:#9a9a9a;stop-opacity:1.0000000;"
         offset="1.0000000" />
    </radialGradient>
    <linearGradient
       id="linearGradient269">
      <stop
         style="stop-color:#a3a3a3;stop-opacity:1.0000000;"
         offset="0.0000000"
         id="stop270" />
      <stop
         style="stop-color:#4c4c4c;stop-opacity:1.0000000;"
         offset="1.0000000"
         id="stop271" />
    </linearGradient>
    <linearGradient
       id="linearGradient259">
      <stop
         style="stop-color:#fafafa;stop-opacity:1.0000000;"
         offset="0.0000000"
         id="stop260" />
      <stop
         style="stop-color:#bbbbbb;stop-opacity:1.0000000;"
         offset="1.0000000"
         id="stop261" />
    </linearGradient>
    <radialGradient
       r="37.751713"
       fy="3.7561285"
       fx="8.8244190"
       cy="3.7561285"
       cx="8.8244190"
       gradientTransform="matrix(0.968273,0.000000,0.000000,1.032767,3.353553,0.646447)"
       gradientUnits="userSpaceOnUse"
       id="radialGradient15656"
       xlink:href="#linearGradient269"
       inkscape:collect="always" />
    <radialGradient
       r="86.708450"
       fy="35.736916"
       fx="33.966679"
       cy="35.736916"
       cx="33.966679"
       gradientTransform="scale(0.960493,1.041132)"
       gradientUnits="userSpaceOnUse"
       id="radialGradient15658"
       xlink:href="#linearGradient259"
       inkscape:collect="always" />
    <radialGradient
       r="38.158695"
       fy="7.2678967"
       fx="8.1435566"
       cy="7.2678967"
       cx="8.1435566"
       gradientTransform="matrix(0.968273,0.000000,0.000000,1.032767,3.353553,0.646447)"
       gradientUnits="userSpaceOnUse"
       id="radialGradient15668"
       xlink:href="#linearGradient15662"
       inkscape:collect="always" />
    <radialGradient
       inkscape:collect="always"
       xlink:href="#aigrd2"
       id="radialGradient2283"
       gradientUnits="userSpaceOnUse"
       gradientTransform="matrix(0.229703,0.000000,0.000000,0.229703,4.613529,3.979808)"
       cx="20.8921"
       cy="114.5684"
       fx="20.8921"
       fy="114.5684"
       r="5.256" />
    <radialGradient
       inkscape:collect="always"
       xlink:href="#aigrd3"
       id="radialGradient2285"
       gradientUnits="userSpaceOnUse"
       gradientTransform="matrix(0.229703,0.000000,0.000000,0.229703,4.613529,3.979808)"
       cx="20.8921"
       cy="64.5679"
       fx="20.8921"
       fy="64.5679"
       r="5.257" />
    <radialGradient
       gradientUnits="userSpaceOnUse"
       gradientTransform="matrix(1.000000,0.000000,0.000000,0.284916,0.000000,30.08928)"
       r="15.821514"
       fy="42.07798"
       fx="24.306795"
       cy="42.07798"
       cx="24.306795"
       id="radialGradient4548"
       xlink:href="#linearGradient4542"
       inkscape:collect="always" />
    <linearGradient
       y2="7.1090999"
       x2="21.9326"
       y1="24.627399"
       x1="21.9326"
       gradientTransform="matrix(0.834638,0,0,-0.603116,-26.68032,28.64415)"
       gradientUnits="userSpaceOnUse"
       id="linearGradient13118"
       xlink:href="#linearGradient7648"
       inkscape:collect="always" />
    <linearGradient
       y2="26.729263"
       x2="17.199417"
       y1="1.6537577"
       x1="11.492236"
       gradientTransform="matrix(1.122314,0,0,0.902103,13.79769,11.2288)"
       gradientUnits="userSpaceOnUse"
       id="linearGradient14319"
       xlink:href="#linearGradient2667"
       inkscape:collect="always" />
    <linearGradient
       y2="26.729263"
       x2="17.199417"
       y1="1.6537577"
       x1="11.492236"
       gradientTransform="matrix(1.122314,0,0,0.902103,-54.3699,-13.1828)"
       gradientUnits="userSpaceOnUse"
       id="linearGradient14322"
       xlink:href="#linearGradient2667"
       inkscape:collect="always" />
    <linearGradient
       gradientUnits="userSpaceOnUse"
       y2="4.077096"
       x2="-23.771521"
       y1="4.077096"
       x1="-48.106041"
       id="linearGradient14341"
       xlink:href="#linearGradient7648"
       inkscape:collect="always" />
    <linearGradient
       y2="285.60751"
       x2="253.024"
       y1="285.60751"
       x1="131.68948"
       gradientUnits="userSpaceOnUse"
       id="linearGradient14347"
       xlink:href="#linearGradient15662"
       inkscape:collect="always" />
    <linearGradient
       y2="285.60751"
       x2="253.024"
       y1="285.60751"
       x1="131.68948"
       gradientUnits="userSpaceOnUse"
       id="linearGradient14349"
       xlink:href="#linearGradient15662"
       inkscape:collect="always" />
    <radialGradient
       r="12.289036"
       fy="63.965388"
       fx="15.115514"
       cy="63.965388"
       cx="15.115514"
       gradientTransform="scale(1.64399,0.608276)"
       gradientUnits="userSpaceOnUse"
       id="radialGradient14362"
       xlink:href="#linearGradient4114"
       inkscape:collect="always" />
    <linearGradient
       y2="4.077096"
       x2="-23.771521"
       y1="4.077096"
       x1="-48.106041"
       gradientUnits="userSpaceOnUse"
       id="linearGradient14364"
       xlink:href="#linearGradient7648"
       inkscape:collect="always" />
    <linearGradient
       y2="285.60751"
       x2="253.024"
       y1="285.60751"
       x1="131.68948"
       gradientUnits="userSpaceOnUse"
       id="linearGradient14366"
       xlink:href="#linearGradient15662"
       inkscape:collect="always" />
    <linearGradient
       y2="285.60751"
       x2="253.024"
       y1="285.60751"
       x1="131.68948"
       gradientUnits="userSpaceOnUse"
       id="linearGradient14368"
       xlink:href="#linearGradient15662"
       inkscape:collect="always" />
    <linearGradient
       y2="26.729263"
       x2="17.199417"
       y1="1.6537577"
       x1="11.492236"
       gradientTransform="matrix(1.122314,0,0,0.902103,-54.3699,-13.1828)"
       gradientUnits="userSpaceOnUse"
       id="linearGradient14370"
       xlink:href="#linearGradient2667"
       inkscape:collect="always" />
    <linearGradient
       y2="7.1090999"
       x2="21.9326"
       y1="24.627399"
       x1="21.9326"
       gradientTransform="matrix(0.834638,0,0,-0.603116,-26.68032,28.64415)"
       gradientUnits="userSpaceOnUse"
       id="linearGradient14391"
       xlink:href="#linearGradient7648"
       inkscape:collect="always" />
    <linearGradient
       y2="26.729263"
       x2="17.199417"
       y1="1.6537577"
       x1="11.492236"
       gradientTransform="matrix(1.196436,0,0,0.698254,-27.61571,1.29867)"
       gradientUnits="userSpaceOnUse"
       id="linearGradient14393"
       xlink:href="#linearGradient2667"
       inkscape:collect="always" />
    <linearGradient
       y2="26.729263"
       x2="17.199417"
       y1="1.6537577"
       x1="11.492236"
       gradientTransform="matrix(1.122314,0,0,0.902103,16.18284,18.38502)"
       gradientUnits="userSpaceOnUse"
       id="linearGradient14396"
       xlink:href="#linearGradient2667"
       inkscape:collect="always" />
    <linearGradient
       gradientUnits="userSpaceOnUse"
       y2="35.644917"
       x2="46.781219"
       y1="35.644917"
       x1="22.446699"
       id="linearGradient14410"
       xlink:href="#linearGradient7648"
       inkscape:collect="always" />
    <radialGradient
       r="12.289036"
       fy="63.965388"
       fx="15.115514"
       cy="63.965388"
       cx="15.115514"
       gradientTransform="scale(1.64399,0.608276)"
       gradientUnits="userSpaceOnUse"
       id="radialGradient14431"
       xlink:href="#linearGradient4114"
       inkscape:collect="always" />
    <linearGradient
       y2="35.644917"
       x2="46.781219"
       y1="35.644917"
       x1="22.446699"
       gradientUnits="userSpaceOnUse"
       id="linearGradient14433"
       xlink:href="#linearGradient7648"
       inkscape:collect="always" />
    <linearGradient
       y2="26.729263"
       x2="17.199417"
       y1="1.6537577"
       x1="11.492236"
       gradientTransform="matrix(1.122314,0,0,0.902103,16.18284,18.38502)"
       gradientUnits="userSpaceOnUse"
       id="linearGradient14439"
       xlink:href="#linearGradient2667"
       inkscape:collect="always" />
    <linearGradient
       y2="26.729263"
       x2="17.199417"
       y1="1.6537577"
       x1="11.492236"
       gradientTransform="matrix(0.849077,0,0,0.682478,21.12842,23.99121)"
       gradientUnits="userSpaceOnUse"
       id="linearGradient11895"
       xlink:href="#linearGradient2667"
       inkscape:collect="always" />
    <linearGradient
       gradientTransform="matrix(0.756541,0,0,0.756541,8.689549,9.886298)"
       y2="35.644917"
       x2="46.781219"
       y1="35.644917"
       x1="22.446699"
       gradientUnits="userSpaceOnUse"
       id="linearGradient11904"
       xlink:href="#linearGradient7648"
       inkscape:collect="always" />
    <linearGradient
       gradientTransform="matrix(1.149876,0,0,1.149876,-30.75016,7.138726)"
       gradientUnits="userSpaceOnUse"
       y2="25.493383"
       x2="64.499451"
       y1="25.493383"
       x1="51.977962"
       id="linearGradient2887"
       xlink:href="#linearGradient15662"
       inkscape:collect="always" />
  </defs>
  <sodipodi:namedview
     inkscape:window-maximized="0"
     inkscape:document-rotation="0"
     fill="#729fcf"
     inkscape:showpageshadow="false"
     id="base"
     pagecolor="#ffffff"
     bordercolor="#666666"
     borderopacity="0.25490196"
     inkscape:pageopacity="0.0"
     inkscape:pageshadow="2"
     inkscape:zoom="10.209932"
     inkscape:cx="38.594816"
     inkscape:cy="17.254527"
     inkscape:current-layer="layer5"
     showgrid="false"
     inkscape:grid-bbox="true"
     inkscape:document-units="px"
     inkscape:window-width="1018"
     inkscape:window-height="791"
     inkscape:window-x="408"
     inkscape:window-y="214" />
  <metadata
     id="metadata4">
    <rdf:RDF>
      <cc:Work
         rdf:about="">
        <dc:format>image/svg+xml</dc:format>
        <dc:type
           rdf:resource="http://purl.org/dc/dcmitype/StillImage" />
        <dc:title>Office Document</dc:title>
        <dc:subject>
          <rdf:Bag>
            <rdf:li>rich</rdf:li>
            <rdf:li>text</rdf:li>
            <rdf:li>document</rdf:li>
            <rdf:li>pdf</rdf:li>
            <rdf:li>openoffice</rdf:li>
            <rdf:li>word</rdf:li>
            <rdf:li>rtf</rdf:li>
          </rdf:Bag>
        </dc:subject>
        <cc:license
           rdf:resource="http://creativecommons.org/licenses/by-sa/2.0/" />
        <dc:creator>
          <cc:Agent>
            <dc:title>Jakub Steiner</dc:title>
          </cc:Agent>
        </dc:creator>
        <dc:source>http://jimmac.musichall.cz</dc:source>
      </cc:Work>
      <cc:License
         rdf:about="http://creativecommons.org/licenses/by/2.0/">
        <cc:permits
           rdf:resource="http://web.resource.org/cc/Reproduction" />
        <cc:permits
           rdf:resource="http://web.resource.org/cc/Distribution" />
        <cc:requires
           rdf:resource="http://web.resource.org/cc/Notice" />
        <cc:requires
           rdf:resource="http://web.resource.org/cc/Attribution" />
        <cc:permits
           rdf:resource="http://web.resource.org/cc/DerivativeWorks" />
        <cc:requires
           rdf:resource="http://web.resource.org/cc/ShareAlike" />
      </cc:License>
    </rdf:RDF>
  </metadata>
  <g
     inkscape:label="Shadow"
     id="layer6"
     inkscape:groupmode="layer">
    <g
       id="g6707"
       transform="matrix(2.105461e-2,0,0,2.086758e-2,42.85172,41.1536)"
       style="display:inline">
      <rect
         y="-150.69685"
         x="-1559.2523"
         height="478.35718"
         width="1339.6335"
         id="rect6709"
         style="opacity:0.40206185;color:black;fill:url(#linearGradient6715);fill-opacity:1;fill-rule:nonzero;stroke:none;stroke-width:1;stroke-linecap:round;stroke-linejoin:miter;marker:none;marker-start:none;marker-mid:none;marker-end:none;stroke-miterlimit:4;stroke-dasharray:none;stroke-dashoffset:0;stroke-opacity:1;visibility:visible;display:inline;overflow:visible" />
      <path
         sodipodi:nodetypes="cccc"
         id="path6711"
         d="M -219.61876,-150.68038 C -219.61876,-150.68038 -219.61876,327.65041 -219.61876,327.65041 C -76.744594,328.55086 125.78146,220.48075 125.78138,88.454235 C 125.78138,-43.572302 -33.655436,-150.68036 -219.61876,-150.68038 z "
         style="opacity:0.40206185;color:black;fill:url(#radialGradient6717);fill-opacity:1;fill-rule:nonzero;stroke:none;stroke-width:1;stroke-linecap:round;stroke-linejoin:miter;marker:none;marker-start:none;marker-mid:none;marker-end:none;stroke-miterlimit:4;stroke-dasharray:none;stroke-dashoffset:0;stroke-opacity:1;visibility:visible;display:inline;overflow:visible" />
      <path
         style="opacity:0.40206185;color:black;fill:url(#radialGradient6719);fill-opacity:1;fill-rule:nonzero;stroke:none;stroke-width:1;stroke-linecap:round;stroke-linejoin:miter;marker:none;marker-start:none;marker-mid:none;marker-end:none;stroke-miterlimit:4;stroke-dasharray:none;stroke-dashoffset:0;stroke-opacity:1;visibility:visible;display:inline;overflow:visible"
         d="M -1559.2523,-150.68038 C -1559.2523,-150.68038 -1559.2523,327.65041 -1559.2523,327.65041 C -1702.1265,328.55086 -1904.6525,220.48075 -1904.6525,88.454235 C -1904.6525,-43.572302 -1745.2157,-150.68036 -1559.2523,-150.68038 z "
         id="path6713"
         sodipodi:nodetypes="cccc" />
    </g>
  </g>
  <g
     id="layer1"
     inkscape:label="Base"
     inkscape:groupmode="layer"
     style="display:inline">
    <rect
       ry="1.1490486"
       y="3.6464462"
       x="6.6035528"
       height="40.920494"
       width="34.875000"
       id="rect15391"
       style="color:#000000;fill:url(#radialGradient15658);fill-opacity:1.0000000;fill-rule:nonzero;stroke:url(#radialGradient15656);stroke-width:1.0000000;stroke-linecap:round;stroke-linejoin:round;stroke-miterlimit:4.0000000;stroke-dashoffset:0.0000000;stroke-opacity:1.0000000;marker:none;marker-start:none;marker-mid:none;marker-end:none;visibility:visible;display:block;overflow:visible" />
    <rect
       rx="0.14904857"
       ry="0.14904857"
       y="4.5839462"
       x="7.6660538"
       height="38.946384"
       width="32.775887"
       id="rect15660"
       style="color:#000000;fill:none;fill-opacity:1.0000000;fill-rule:nonzero;stroke:url(#radialGradient15668);stroke-width:1.0000000;stroke-linecap:round;stroke-linejoin:round;stroke-miterlimit:4.0000000;stroke-dashoffset:0.0000000;stroke-opacity:1.0000000;marker:none;marker-start:none;marker-mid:none;marker-end:none;visibility:visible;display:block;overflow:visible" />
    <g
       id="g2270"
       transform="translate(0.646447,-3.798933e-2)">
      <g
         transform="matrix(0.229703,0.000000,0.000000,0.229703,4.967081,4.244972)"
         style="fill:#ffffff;fill-opacity:1.0000000;fill-rule:nonzero;stroke:#000000;stroke-miterlimit:4.0000000"
         id="g1440">
        <radialGradient
           gradientUnits="userSpaceOnUse"
           fy="114.56840"
           fx="20.892099"
           r="5.2560000"
           cy="114.56840"
           cx="20.892099"
           id="radialGradient1442">
          <stop
             id="stop1444"
             style="stop-color:#F0F0F0"
             offset="0" />
          <stop
             id="stop1446"
             style="stop-color:#474747"
             offset="1" />
        </radialGradient>
        <path
           id="path1448"
           d="M 23.428000,113.07000 C 23.428000,115.04300 21.828000,116.64200 19.855000,116.64200 C 17.881000,116.64200 16.282000,115.04200 16.282000,113.07000 C 16.282000,111.09600 17.882000,109.49700 19.855000,109.49700 C 21.828000,109.49700 23.428000,111.09700 23.428000,113.07000 z "
           style="stroke:none" />
        <radialGradient
           gradientUnits="userSpaceOnUse"
           fy="64.567902"
           fx="20.892099"
           r="5.2570000"
           cy="64.567902"
           cx="20.892099"
           id="radialGradient1450">
          <stop
             id="stop1452"
             style="stop-color:#F0F0F0"
             offset="0" />
          <stop
             id="stop1454"
             style="stop-color:#474747"
             offset="1" />
        </radialGradient>
        <path
           id="path1456"
           d="M 23.428000,63.070000 C 23.428000,65.043000 21.828000,66.643000 19.855000,66.643000 C 17.881000,66.643000 16.282000,65.043000 16.282000,63.070000 C 16.282000,61.096000 17.882000,59.497000 19.855000,59.497000 C 21.828000,59.497000 23.428000,61.097000 23.428000,63.070000 z "
           style="stroke:none" />
      </g>
      <path
         id="path15570"
         d="M 9.9950109,29.952326 C 9.9950109,30.405530 9.6274861,30.772825 9.1742821,30.772825 C 8.7208483,30.772825 8.3535532,30.405301 8.3535532,29.952326 C 8.3535532,29.498892 8.7210780,29.131597 9.1742821,29.131597 C 9.6274861,29.131597 9.9950109,29.499122 9.9950109,29.952326 z "
         style="fill:url(#radialGradient2283);fill-rule:nonzero;stroke:none;stroke-miterlimit:4.0000000" />
      <path
         id="path15577"
         d="M 9.9950109,18.467176 C 9.9950109,18.920380 9.6274861,19.287905 9.1742821,19.287905 C 8.7208483,19.287905 8.3535532,18.920380 8.3535532,18.467176 C 8.3535532,18.013742 8.7210780,17.646447 9.1742821,17.646447 C 9.6274861,17.646447 9.9950109,18.013972 9.9950109,18.467176 z "
         style="fill:url(#radialGradient2285);fill-rule:nonzero;stroke:none;stroke-miterlimit:4.0000000" />
    </g>
    <path
       sodipodi:nodetypes="cc"
       id="path15672"
       d="M 11.505723,5.4942766 L 11.505723,43.400869"
       style="fill:none;fill-opacity:0.75000000;fill-rule:evenodd;stroke:#000000;stroke-width:0.98855311;stroke-linecap:butt;stroke-linejoin:miter;stroke-miterlimit:4.0000000;stroke-opacity:0.017543854" />
    <path
       sodipodi:nodetypes="cc"
       id="path15674"
       d="M 12.500000,5.0205154 L 12.500000,43.038228"
       style="fill:none;fill-opacity:0.75000000;fill-rule:evenodd;stroke:#ffffff;stroke-width:1.0000000;stroke-linecap:butt;stroke-linejoin:miter;stroke-miterlimit:4.0000000;stroke-opacity:0.20467831" />
  </g>
  <g
     style="display:inline"
     inkscape:label="Text"
     id="layer5"
     inkscape:groupmode="layer">
    <g
       transform="matrix(1.010338,0,0,1.010338,34.16355,1.515333)"
       id="g14372">
      <path
         style="opacity:0.66477272;fill:url(#linearGradient14391);fill-opacity:1;fill-rule:nonzero;stroke:none;stroke-width:1.2166667;stroke-miterlimit:4"
         d="M -21.009767,23.10709 L 4.9110115,23.10709 L 4.9110115,15.26523 L -21.009767,15.26523 L -21.009767,23.10709 z "
         id="path7644" />
      <path
         id="path16203"
         d="M -21.168706,4.7201519 L 4.7520734,4.7201519 L 4.7520734,15.26523 L -21.168706,15.26523 L -21.168706,4.7201519 z "
         style="opacity:0.66477272;fill:#729fcf;fill-opacity:1;fill-rule:nonzero;stroke:none;stroke-width:1.2166667;stroke-miterlimit:4" />
      <g
         transform="matrix(0.903163,0,0,0.899066,-28.19168,-3.32219)"
         style="opacity:0.86792453;fill-rule:nonzero;stroke:black;stroke-width:2.00197053;stroke-miterlimit:4;stroke-dasharray:none"
         id="g16205">
        <g
           id="g16207"
           style="stroke-width:2.00197053;stroke-miterlimit:4;stroke-dasharray:none">
          <path
             id="path16209"
             d="M 18.4,15.4 C 18.4,17.6 16.6,19.5 14.3,19.5 C 12.1,19.5 10.2,17.7 10.2,15.4 C 10.2,13.2 12,11.3 14.3,11.3 C 16.5,11.3 18.4,13.1 18.4,15.4 z "
             style="opacity:0.04999994;fill:#e8f52f;stroke:none;stroke-width:2.00197053;stroke-miterlimit:4;stroke-dasharray:none" />
          <path
             id="path16211"
             d="M 18,15.4 C 18,17.4 16.4,19.1 14.3,19.1 C 12.3,19.1 10.6,17.5 10.6,15.4 C 10.6,13.4 12.2,11.7 14.3,11.7 C 16.3,11.7 18,13.3 18,15.4 L 18,15.4 z "
             style="opacity:0.20829994;fill:#ecf751;stroke:none;stroke-width:2.00197053;stroke-miterlimit:4;stroke-dasharray:none" />
          <path
             id="path16213"
             d="M 17.6,15.4 C 17.6,17.2 16.1,18.7 14.3,18.7 C 12.5,18.7 11,17.2 11,15.4 C 11,13.6 12.5,12.1 14.3,12.1 C 16.1,12.1 17.6,13.6 17.6,15.4 L 17.6,15.4 z "
             style="opacity:0.36669994;fill:#f0f972;stroke:none;stroke-width:2.00197053;stroke-miterlimit:4;stroke-dasharray:none" />
          <path
             id="path16215"
             d="M 17.2,15.4 C 17.2,17 15.9,18.3 14.3,18.3 C 12.7,18.3 11.4,17 11.4,15.4 C 11.4,13.8 12.7,12.5 14.3,12.5 C 15.9,12.5 17.2,13.8 17.2,15.4 z "
             style="opacity:0.525;fill:#f4fa95;stroke:none;stroke-width:2.00197053;stroke-miterlimit:4;stroke-dasharray:none" />
          <path
             id="path16217"
             d="M 16.8,15.4 C 16.8,16.8 15.7,17.9 14.3,17.9 C 12.9,17.9 11.8,16.8 11.8,15.4 C 11.8,14 12.9,12.9 14.3,12.9 C 15.7,12.9 16.8,14 16.8,15.4 L 16.8,15.4 z "
             style="opacity:0.6833;fill:#f7fcb7;stroke:none;stroke-width:2.00197053;stroke-miterlimit:4;stroke-dasharray:none" />
          <path
             id="path16219"
             d="M 16.4,15.4 C 16.4,16.6 15.4,17.5 14.3,17.5 C 13.2,17.5 12.2,16.5 12.2,15.4 C 12.2,14.3 13.2,13.3 14.3,13.3 C 15.4,13.3 16.4,14.3 16.4,15.4 z "
             style="opacity:0.8417;fill:#fbfddb;stroke:none;stroke-width:2.00197053;stroke-miterlimit:4;stroke-dasharray:none" />
          <path
             id="path16221"
             d="M 16,15.4 C 16,16.4 15.2,17.2 14.2,17.2 C 13.2,17.2 12.4,16.4 12.4,15.4 C 12.4,14.4 13.2,13.6 14.2,13.6 C 15.2,13.6 16,14.4 16,15.4 L 16,15.4 z "
             style="fill:white;stroke:none;stroke-width:2.00197053;stroke-miterlimit:4;stroke-dasharray:none" />
        </g>
      </g>
      <path
         id="path16223"
         d="M -6.1978945,16.793642 L 0.39519752,16.793642 L 1.6596255,17.153269 L -0.50796548,17.153269 C -0.50796548,17.153269 1.6596255,17.333081 2.7434225,18.681681 C 3.8272175,19.940374 1.4789945,21.468787 1.4789945,21.468787 C 1.4789945,21.468787 1.4789945,21.468787 1.4789945,21.468787 C 1.3886775,21.199067 0.84677852,19.041307 -0.23701648,18.142241 C -1.0498645,17.422988 -1.9530265,17.243175 -1.9530265,17.243175 L -6.1978945,17.243175 L -6.1978945,16.883549 L -6.1978945,16.793642 z "
         style="opacity:0.19943183;fill-rule:nonzero;stroke:none;stroke-width:1.2166667;stroke-miterlimit:4" />
      <path
         id="path16225"
         d="M -1.8627085,17.333081 L -5.6559955,17.333081 L 1.3886775,21.288973 L -1.8627085,17.333081 L -1.8627085,17.333081 z "
         style="opacity:0.19943183;fill-rule:nonzero;stroke:none;stroke-width:1.2166667;stroke-miterlimit:4" />
      <path
         id="path16227"
         d="M -6.1978945,16.883549 L 0.39519752,16.883549 L 1.3886775,16.254202 L -0.77891348,16.254202 C -0.77891348,16.254202 1.2080435,15.894576 1.4789945,13.646909 C 1.7499415,11.399244 -1.5917615,8.88186 -1.5917615,8.88186 C -1.5917615,8.88186 -1.5917615,8.88186 -1.5917615,8.971766 C -1.5014455,9.511206 -0.59828348,13.287284 -1.2304955,14.725791 C -1.5014455,15.984481 -2.3142925,16.254202 -2.3142925,16.254202 L -6.4688425,16.254202 L -6.2882095,16.883549 L -6.1978945,16.883549 z "
         style="opacity:0.86163522;fill:#2e3436;fill-rule:nonzero;stroke:none;stroke-width:1.2166667;stroke-miterlimit:4" />
      <path
         id="path16229"
         d="M -2.2239745,15.894576 L -6.0172605,15.894576 L -1.5014455,9.061672 L -2.2239745,15.894576 z "
         style="opacity:0.66477272;fill:#2e3436;fill-rule:nonzero;stroke:none;stroke-width:1.2166667;stroke-miterlimit:4" />
      <rect
         style="opacity:0.66477272;color:black;fill:none;fill-opacity:1;fill-rule:nonzero;stroke:#9e9e9e;stroke-width:1.2470963;stroke-linecap:butt;stroke-linejoin:miter;marker:none;marker-start:none;marker-mid:none;marker-end:none;stroke-miterlimit:4;stroke-dasharray:none;stroke-dashoffset:0;stroke-opacity:1;visibility:visible;display:inline;overflow:visible"
         id="rect8163"
         width="24.936352"
         height="17.456209"
         x="-20.600632"
         y="5.3259296" />
      <path
         sodipodi:nodetypes="ccccc"
         style="opacity:0.53142856;fill:url(#linearGradient14393);fill-opacity:1;fill-rule:evenodd;stroke:none;stroke-width:0.25pt;stroke-linecap:butt;stroke-linejoin:miter;stroke-opacity:1"
         d="M -19.773567,6.0354101 L -20.548542,19.962474 C -9.8831285,18.091567 -9.5192435,11.785483 3.7418085,9.716685 L 3.5858795,6.0868971 L -19.773567,6.0354101 z "
         id="path3979" />
    </g>
    <path
       sodipodi:type="arc"
       style="fill:url(#radialGradient14431);fill-opacity:1;stroke:none;stroke-opacity:1"
       id="path4112"
       sodipodi:cx="24.849752"
       sodipodi:cy="38.908627"
       sodipodi:rx="20.203051"
       sodipodi:ry="7.4751287"
       d="M 45.052803 38.908627 A 20.203051 7.4751287 0 1 1  4.6467018,38.908627 A 20.203051 7.4751287 0 1 1  45.052803 38.908627 z"
       transform="matrix(0.51549,0,0,0.640881,22.03552,18.31362)" />
    <rect
       ry="0.14904843"
       rx="0.14904843"
       y="27.993736"
       x="26.017027"
       height="17.718801"
       width="17.718801"
       id="rect5329"
       style="fill:url(#linearGradient11904);fill-opacity:1;stroke:#041a3b;stroke-width:1;stroke-linejoin:round;stroke-miterlimit:4;stroke-dasharray:none;stroke-opacity:1;display:inline" />
    <path
       id="path6770"
       d="M 26.693774,28.620929 L 26.143796,42.233317 C 33.712742,40.404682 33.970982,34.241081 43.38198,32.219027 L 43.271322,28.671253 L 26.693774,28.620929 z "
       style="opacity:0.53142856;fill:url(#linearGradient11895);fill-opacity:1;fill-rule:evenodd;stroke:none;stroke-width:0.25pt;stroke-linecap:butt;stroke-linejoin:miter;stroke-opacity:1"
       sodipodi:nodetypes="ccccc" />
    <g
       style="font-style:normal;font-weight:normal;line-height:0%;font-family:'Bitstream Vera Sans';fill:url(#linearGradient2887);fill-opacity:1;stroke:none;stroke-width:1px;stroke-linecap:butt;stroke-linejoin:miter;stroke-opacity:1"
       id="text1989"
       aria-label="Ps">
      <path
         id="path231"
         style="font-weight:bold;font-size:13.7985px;line-height:1.25;font-family:'Myriad Pro';fill:url(#linearGradient2887);fill-opacity:1"
         d="m 28.837289,41.384861 h 2.083574 v -3.339237 c 0.193179,0.0414 0.441552,0.05519 0.717522,0.05519 1.241865,0 2.304349,-0.317366 3.021871,-0.979694 0.565739,-0.510544 0.855507,-1.297059 0.855507,-2.20776 0,-0.910701 -0.386358,-1.683417 -0.993492,-2.152566 -0.620932,-0.496746 -1.545432,-0.745119 -2.842491,-0.745119 -1.28326,0 -2.193961,0.08279 -2.842491,0.193179 z m 2.083574,-7.699563 c 0.151783,-0.0414 0.441552,-0.06899 0.855507,-0.06899 1.062484,0 1.65582,0.510545 1.65582,1.366052 0,0.938298 -0.689925,1.504036 -1.807604,1.504036 -0.317365,0 -0.524343,-0.0138 -0.703723,-0.05519 z" />
      <path
         id="path233"
         style="font-weight:bold;font-size:13.7985px;line-height:1.25;font-family:'Myriad Pro';fill:url(#linearGradient2887);fill-opacity:1"
         d="m 36.089695,41.053697 c 0.510544,0.27597 1.297059,0.482947 2.180163,0.482947 1.93179,0 2.911483,-0.924499 2.911483,-2.193961 -0.0138,-0.979694 -0.538141,-1.642022 -1.821402,-2.083574 -0.82791,-0.289768 -1.090081,-0.45535 -1.090081,-0.786514 0,-0.331164 0.289768,-0.538142 0.800313,-0.538142 0.565738,0 1.159074,0.220776 1.462641,0.386358 l 0.358761,-1.448842 c -0.413955,-0.206978 -1.10388,-0.400157 -1.890395,-0.400157 -1.669618,0 -2.745901,0.952097 -2.745901,2.221559 -0.0138,0.800313 0.524343,1.55923 1.93179,2.028379 0.772716,0.262172 0.979693,0.427754 0.979693,0.786515 0,0.344962 -0.262171,0.55194 -0.896902,0.55194 -0.620933,0 -1.421246,-0.262172 -1.807604,-0.496746 z" />
    </g>
  </g>
</svg>
