<svg height="52" viewBox="0 0 48 48" width="52" xmlns="http://www.w3.org/2000/svg" xmlns:xlink="http://www.w3.org/1999/xlink"><linearGradient id="a"><stop offset="0"/><stop offset="1" stop-opacity="0"/></linearGradient><linearGradient id="b" gradientTransform="matrix(1.662163 0 0 .441228 -3.179701 2.157646)" gradientUnits="userSpaceOnUse" x1="11.492236" x2="17.199417" y1="1.653758" y2="26.729263"><stop offset="0" stop-color="#fff"/><stop offset="1" stop-color="#fcfcff" stop-opacity="0"/></linearGradient><radialGradient id="c" cx="605.71429" cy="486.64789" gradientTransform="matrix(-2.774389 0 0 1.969706 112.7623 -872.8854)" gradientUnits="userSpaceOnUse" r="117.14286" xlink:href="#a"/><radialGradient id="d" cx="605.71429" cy="486.64789" gradientTransform="matrix(2.774389 0 0 1.969706 -1891.633 -872.8854)" gradientUnits="userSpaceOnUse" r="117.14286" xlink:href="#a"/><linearGradient id="e" gradientTransform="matrix(2.774389 0 0 1.969706 -1892.179 -872.8854)" gradientUnits="userSpaceOnUse" x1="302.85715" x2="302.85715" y1="366.64789" y2="609.50507"><stop offset="0" stop-opacity="0"/><stop offset=".5"/><stop offset="1" stop-opacity="0"/></linearGradient><radialGradient id="f" cx="8.824419" cy="3.756129" gradientTransform="matrix(.968273 0 0 1.032767 3.353553 .646447)" gradientUnits="userSpaceOnUse" r="37.751713"><stop offset="0" stop-color="#a3a3a3"/><stop offset="1" stop-color="#4c4c4c"/></radialGradient><radialGradient id="g" cx="33.966679" cy="35.736916" gradientTransform="scale(.960493 1.041132)" gradientUnits="userSpaceOnUse" r="86.70845"><stop offset="0" stop-color="#fafafa"/><stop offset="1" stop-color="#bbb"/></radialGradient><radialGradient id="h" cx="8.143557" cy="7.267897" gradientTransform="matrix(.968273 0 0 1.032767 3.353553 .646447)" gradientUnits="userSpaceOnUse" r="38.158695"><stop offset="0" stop-color="#fff"/><stop offset="1" stop-color="#f8f8f8"/></radialGradient><radialGradient id="i" cx="21.148216" cy="41.692692" gradientTransform="matrix(.901746 .00739379 -.00120184 .329372 2.127997 26.71591)" gradientUnits="userSpaceOnUse" r="17.02107" xlink:href="#a"/><linearGradient id="j" gradientUnits="userSpaceOnUse" x1="-55.824735" x2="-29.18188" y1="-11.497086" y2="9.288628"><stop offset="0" stop-color="#3675d1"/><stop offset="1" stop-color="#25579f"/></linearGradient><linearGradient id="k" gradientUnits="userSpaceOnUse" x1="-30.980594" x2="-54.883162" y1="8.612289" y2="-15.530568"><stop offset="0" stop-color="#fff" stop-opacity=".729412"/><stop offset="1" stop-color="#fff"/></linearGradient><linearGradient id="l" gradientUnits="userSpaceOnUse" x1="-49.306833" x2="-33.342749" y1="-3.211371" y2="-3.211371"><stop offset="0" stop-color="#bdcce1"/><stop offset="1" stop-color="#bdcce1" stop-opacity="0"/></linearGradient><g transform="matrix(.02105461 0 0 .02086758 42.85172 41.1536)"><path d="m-1559.2523-150.69685h1339.6335v478.35718h-1339.6335z" fill="url(#e)" opacity=".402062"/><path d="m-219.61876-150.68038v478.33079c142.874166.90045 345.40022-107.16966 345.40014-239.196175 0-132.026537-159.436816-239.134595-345.40014-239.134615z" fill="url(#d)" opacity=".402062"/><path d="m-1559.2523-150.68038v478.33079c-142.8742.90045-345.4002-107.16966-345.4002-239.196175 0-132.026537 159.4368-239.134595 345.4002-239.134615z" fill="url(#c)" opacity=".402062"/></g><g><rect display="block" fill="url(#g)" height="40.920494" ry="1.149049" stroke="url(#f)" stroke-linecap="round" stroke-linejoin="round" width="34.875" x="6.603553" y="3.646446"/><rect display="block" fill="none" height="38.946384" rx=".149049" stroke="url(#h)" stroke-linecap="round" stroke-linejoin="round" width="32.775887" x="7.666054" y="4.583946"/><g transform="matrix(.55050293013 0 .242428779 .28469921433 50.04235729358 10.82198371624)"><path d="m-67.705475-19.589479h9.545941v16.263456h-9.545941z" fill="#2e3436"/><path d="m-26.601624-19.589479h9.545941v16.263456h-9.545941z" fill="#2e3436"/><path d="m-36.877586-19.589479h9.545941v16.263456h-9.545941z" fill="#eeeeec"/><path d="m-47.153549-19.589479h9.545941v16.263456h-9.545941z" fill="#2e3436"/><path d="m-57.429512-19.589479h9.545941v16.263456h-9.545941z" fill="#eeeeec"/></g><g transform="matrix(-.55050293013 0 -.242428779 .28469921433 -2.17439743164 15.26817079656)"><path d="m-67.705475-19.589479h9.545941v16.263456h-9.545941z" fill="#2e3436"/><path d="m-26.601624-19.589479h9.545941v16.263456h-9.545941z" fill="#2e3436"/><path d="m-36.877586-19.589479h9.545941v16.263456h-9.545941z" fill="#eeeeec"/><path d="m-47.153549-19.589479h9.545941v16.263456h-9.545941z" fill="#2e3436"/><path d="m-57.429512-19.589479h9.545941v16.263456h-9.545941z" fill="#eeeeec"/></g><path d="m8.021131 5.244875h5.656854v8.838835h-5.656854z" fill="#2e3436"/><path d="m7.7151042 5.1507989-1.0766438 8.8005401c14.8170616-1.18223 15.3225946-5.1670574 33.7456796-6.474335l-.216625-2.2936703z" fill="url(#b)" fill-rule="evenodd" opacity=".471698"/><g transform="matrix(.5238575 0 0 .5238575 57.319753 33.695182)"><path d="m37.375645 40.070301a17.02107 5.6063466 0 1 1 -34.0421413 0 17.02107 5.6063466 0 1 1 34.0421413 0z" fill="url(#i)" opacity=".244565" transform="matrix(1.292516 0 0 .802661 -68.204773 -16.017096)"/><path d="m-41.896165-17.854229c-12.419981 0-22.499998 6.272-22.499998 14.0000003 0 7.603901 9.761622 13.771771 21.906248 13.9687497l-4.21875 9.90625 19.875-13.4687497c4.940022-2.917654 7.411023-6.25457805 7.4375-10.40625.048863-7.7278463-10.080019-14.0000003-22.5-14.0000003z" fill="url(#j)" stroke="#16386b" stroke-linecap="round" stroke-linejoin="round" stroke-width=".966378"/><path d="m-41.646165-13.854229c-9.798002 0-17.749998 4.5919973-17.749998 10.2500003 0 5.658002 8.666283 10.25 18.464284 10.25l-1.688112 4.9985087 11.036326-6.8110087c4.141291-2.556162 7.6875-4.53079005 7.6875-8.4375 0-5.658002-7.951998-10.2500003-17.75-10.2500003z" fill="#fff" fill-rule="evenodd"/><path d="m-41.896165-16.854229c-11.867982 0-21.499998 5.824002-21.499998 13.0000003 0 7.175999 10.096302 13.142857 22.249998 13.142857l-3.3125 8.0758927 16.299107-11.0848207c4.578497-2.848811 7.763392-6.07318305 7.763393-10.133929 0-7.1759993-9.632018-13.0000003-21.5-13.0000003z" fill="none" opacity=".4" stroke="url(#k)" stroke-linecap="round" stroke-width="1.026"/><path d="m-44.614081-9.9727307-4.4528 13.522717h6.00411l2.0684-6.072698c.01178-.015356.01664-.016021.02872-.031303 1.25713-1.589257 4.16061-2.77389 6.26266-3.067654l1.12039-3.72501c-.26004-.034216-1.07969-.12521-1.35021-.12521-.02328 0-.03424-.00026-.05745 0-.11514.001285-.23139-.007568-.34474 0-1.59019.106179-2.99555.815717-3.90698 1.878156l.74693-2.191182z" fill="#1d4879" stroke="url(#l)" stroke-linejoin="round"/></g></g></svg>