<svg height="52" viewBox="0 0 48 48" width="52" xmlns="http://www.w3.org/2000/svg" xmlns:xlink="http://www.w3.org/1999/xlink"><radialGradient id="a" cx="605.71429" cy="486.64789" gradientTransform="matrix(-2.774389 0 0 1.969706 112.7623 -872.8854)" gradientUnits="userSpaceOnUse" r="117.14286" xlink:href="#b"/><linearGradient id="b"><stop offset="0"/><stop offset="1" stop-opacity="0"/></linearGradient><radialGradient id="c" cx="605.71429" cy="486.64789" gradientTransform="matrix(2.774389 0 0 1.969706 -1891.633 -872.8854)" gradientUnits="userSpaceOnUse" r="117.14286" xlink:href="#b"/><linearGradient id="d" gradientTransform="matrix(2.774389 0 0 1.969706 -1892.179 -872.8854)" gradientUnits="userSpaceOnUse" x1="302.85715" x2="302.85715" y1="366.64789" y2="609.50507"><stop offset="0" stop-opacity="0"/><stop offset=".5"/><stop offset="1" stop-opacity="0"/></linearGradient><linearGradient id="e" gradientUnits="userSpaceOnUse" x1="30.062469" x2="17.696169" y1="13.444801" y2="12.333632"><stop offset="0" stop-color="#fbf0e0"/><stop offset="1" stop-color="#f0ce99"/></linearGradient><linearGradient id="f" gradientUnits="userSpaceOnUse" x1="36.288929" x2="47.065835" y1="14.661557" y2="15.267649"><stop offset="0" stop-color="#de9523"/><stop offset="1" stop-color="#a36d18"/></linearGradient><linearGradient id="g" gradientTransform="matrix(1 0 0 .986355 0 .316638)" gradientUnits="userSpaceOnUse" x1="25.381256" x2="24.119167" y1="24.720648" y2="16.17037"><stop offset="0" stop-color="#e9b96e"/><stop offset="1" stop-color="#f1d19e"/></linearGradient><linearGradient id="h" gradientTransform="matrix(1 0 0 1.039184 0 -.040571)" gradientUnits="userSpaceOnUse" x1="16.148972" x2="34.193642" y1="12.636667" y2="12.636667"><stop offset="0" stop-color="#a36d18"/><stop offset="1" stop-color="#d79020"/></linearGradient><linearGradient id="i" gradientUnits="userSpaceOnUse" x1="21.906841" x2="22.071806" y1="9.757749" y2="16.020695"><stop offset="0" stop-color="#a0670c"/><stop offset="1" stop-color="#a0670c" stop-opacity="0"/></linearGradient><linearGradient id="j" gradientUnits="userSpaceOnUse" x1="18.706615" x2="30.014812" y1="19.912336" y2="47.388485"><stop offset="0" stop-color="#fff"/><stop offset="1" stop-color="#fff" stop-opacity=".686391"/></linearGradient><linearGradient id="k" gradientUnits="userSpaceOnUse" x1="24.990499" x2="24.990499" y1="34.004856" y2="22.585211"><stop offset="0" stop-color="#eaba6f"/><stop offset="1" stop-color="#b97a1b"/></linearGradient><g transform="matrix(.02105461 0 0 .02086758 42.60172 35.4036)"><path d="m-1559.2523-150.69685h1339.6335v478.35718h-1339.6335z" fill="url(#d)" opacity=".402062"/><path d="m-219.61876-150.68038v478.33079c142.874166.90045 345.40022-107.16966 345.40014-239.196175 0-132.026537-159.436816-239.134595-345.40014-239.134615z" fill="url(#c)" opacity=".402062"/><path d="m-1559.2523-150.68038v478.33079c-142.8742.90045-345.4002-107.16966-345.4002-239.196175 0-132.026537 159.4368-239.134595 345.4002-239.134615z" fill="url(#a)" opacity=".402062"/></g><g stroke-width="1.000001"><rect display="block" fill="url(#k)" height="23.112879" rx="2.424135" ry="2.394444" stroke="#a0670c" width="31.978371" x="7.462385" y="15.275433"/><rect display="block" fill="none" height="21.075352" opacity=".481013" rx="1.284688" stroke="url(#j)" width="29.804138" x="8.499" y="16.243698"/><path d="m8.7697819 16.547178 5.0499491-6.8108372 18.79556-.1010153 5.219973 6.7736155z" fill="url(#h)" fill-rule="evenodd" stroke="url(#i)"/><path d="m38.276321 16.325703 5.192948 7.194661h-39.5083235l4.6640688-7.199601 29.6513067.00494z" display="block" fill="url(#g)" stroke="#a0670c" stroke-linecap="round" stroke-linejoin="round"/><path d="m32.849333 9.6141009 4.682886 6.9222691 9.033616 4.384827-8.114506-8.912652-5.601996-2.3944441z" display="block" fill="url(#f)" stroke="#a0670c" stroke-linecap="round" stroke-linejoin="round"/></g><path d="m13.617702 9.7151161-3.9757787 6.7202389-9.13463147 4.384827 8.11450547-8.912652 4.9959047-2.1924139z" display="block" fill="#f8e8cf" stroke="#a0670c" stroke-linecap="round" stroke-linejoin="round"/><path d="m37.024959 16.43605 4.453912 6.056961h-35.8305918l4.141019-6.180317 27.2356608.123356z" display="block" fill="none" stroke="#f4e3ca"/><path d="m9.6523127 16.371803 3.3843303-5.778783 20.478198-.075221 3.841941 5.852081z" fill="none" opacity=".879747" stroke="url(#e)" stroke-linecap="round" stroke-linejoin="round"/><g fill="#eeeeec" stroke="#d3d7cf" stroke-width=".937793"><path d="m13.527197 29.618777q.66488 0 .950613-.247269.291228-.247269.291228-.813241 0-.560477-.291228-.802252-.285733-.241774-.950613-.241774h-.890169v2.104536zm-.890169 1.461636v3.104604h-2.115527v-8.203846h3.230986q1.620987 0 2.373785.543993.758292.543992.758292 1.719895 0 .813241-.39563 1.335254-.390136.522013-1.181398.769282.434095.09891.774777.45058.346177.346177.697849 1.055015l1.148428 2.329827h-2.252898l-1.000067-2.038598q-.302218-.615426-.615425-.840716-.307713-.22529-.824231-.22529z"/><path d="m19.181421 25.981171h3.511224q1.566039 0 2.40126.697849.840715.692354.840715 1.978154 0 1.291296-.840715 1.989144-.835221.692354-2.40126.692354h-1.395698v2.846345h-2.115526zm2.115526 1.53307v2.291362h1.170408q.615426 0 .950613-.296723.335188-.302218.335188-.851706 0-.549487-.335188-.84621-.335187-.296723-.950613-.296723z"/><path d="m27.423731 25.981171h2.692488l1.868256 4.390404 1.879247-4.390404h2.686993v8.203846h-2.000134v-6.000402l-1.890236 4.423373h-1.340749l-1.890237-4.423373v6.000402h-2.005628z"/></g></svg>