<svg xmlns="http://www.w3.org/2000/svg" viewBox="0 0 64 64" width="64" height="64">
  <path d="M10.7 0C9.3 0 8 1.4 8 2.8v58.4c0 1.4 1.4 2.8 2.7 2.8h42.7c1.3 0 2.7-1.4 2.7-2.8V18L38 0" fill="#e00d6f"/>
  <path d="M42 18l14 14V18H42z" fill="#420027" fill-opacity=".196"/>
  <path d="M38 0l18 18H40.8c-1.3 0-2.8-1.4-2.8-2.8" fill="#e5aeca" fill-opacity=".392"/>
  <path fill="#fff" d="M39.445 44.871c-1.475-5.851-7.613-5.237-8.588-9.178-.688-2.785 1.19-4.908 3.997-5.616 1.89-.466 3.886.142 5.186 1.581l.024.024.119.141.071.093.071.12.024.022c.262.331.405.568.619.52.19-.048.285-.472.332-.779.993-7.734-6.175-14.035-13.797-12.128-5.979 1.521-9.615 7.524-8.16 13.472 1.975 7.999 9.563 9.344 13.68 11.373 2.321 1.079 2.596 4.246.493 5.701-.343.238-.729.409-1.136.504h-.047l-.167.048c-.357.094-.453.047-.453.189 0 .095.239.212.382.283 3.906 1.563 8.052-1.652 7.465-5.789-.027-.195-.066-.39-.115-.581z"/>
</svg>