<svg height="52" viewBox="0 0 48 48" width="52" xmlns="http://www.w3.org/2000/svg" xmlns:xlink="http://www.w3.org/1999/xlink"><radialGradient id="a" cx="605.71429" cy="486.64789" gradientTransform="matrix(-2.774389 0 0 1.969706 112.7623 -872.8854)" gradientUnits="userSpaceOnUse" r="117.14286" xlink:href="#b"/><linearGradient id="b"><stop offset="0"/><stop offset="1" stop-opacity="0"/></linearGradient><radialGradient id="c" cx="605.71429" cy="486.64789" gradientTransform="matrix(2.774389 0 0 1.969706 -1891.633 -872.8854)" gradientUnits="userSpaceOnUse" r="117.14286" xlink:href="#b"/><linearGradient id="d" gradientTransform="matrix(2.774389 0 0 1.969706 -1892.179 -872.8854)" gradientUnits="userSpaceOnUse" x1="302.85715" x2="302.85715" y1="366.64789" y2="609.50507"><stop offset="0" stop-opacity="0"/><stop offset=".5"/><stop offset="1" stop-opacity="0"/></linearGradient><linearGradient id="e" gradientUnits="userSpaceOnUse" x1="30.062469" x2="17.696169" y1="13.444801" y2="12.333632"><stop offset="0" stop-color="#fbf0e0"/><stop offset="1" stop-color="#f0ce99"/></linearGradient><linearGradient id="f" gradientUnits="userSpaceOnUse" x1="36.288929" x2="47.065835" y1="14.661557" y2="15.267649"><stop offset="0" stop-color="#de9523"/><stop offset="1" stop-color="#a36d18"/></linearGradient><linearGradient id="g" gradientTransform="matrix(1 0 0 .986355 0 .316638)" gradientUnits="userSpaceOnUse" x1="25.381256" x2="24.119167" y1="24.720648" y2="16.17037"><stop offset="0" stop-color="#e9b96e"/><stop offset="1" stop-color="#f1d19e"/></linearGradient><linearGradient id="h" gradientTransform="matrix(1 0 0 1.039184 0 -.040571)" gradientUnits="userSpaceOnUse" x1="16.148972" x2="34.193642" y1="12.636667" y2="12.636667"><stop offset="0" stop-color="#a36d18"/><stop offset="1" stop-color="#d79020"/></linearGradient><linearGradient id="i" gradientUnits="userSpaceOnUse" x1="21.906841" x2="22.071806" y1="9.757749" y2="16.020695"><stop offset="0" stop-color="#a0670c"/><stop offset="1" stop-color="#a0670c" stop-opacity="0"/></linearGradient><linearGradient id="j" gradientUnits="userSpaceOnUse" x1="18.706615" x2="30.014812" y1="19.912336" y2="47.388485"><stop offset="0" stop-color="#fff"/><stop offset="1" stop-color="#fff" stop-opacity=".686391"/></linearGradient><linearGradient id="k" gradientUnits="userSpaceOnUse" x1="24.990499" x2="24.990499" y1="34.004856" y2="22.585211"><stop offset="0" stop-color="#eaba6f"/><stop offset="1" stop-color="#b97a1b"/></linearGradient><g transform="matrix(.02105461 0 0 .02086758 42.60172 35.4036)"><path d="m-1559.2523-150.69685h1339.6335v478.35718h-1339.6335z" fill="url(#d)" opacity=".402062"/><path d="m-219.61876-150.68038v478.33079c142.874166.90045 345.40022-107.16966 345.40014-239.196175 0-132.026537-159.436816-239.134595-345.40014-239.134615z" fill="url(#c)" opacity=".402062"/><path d="m-1559.2523-150.68038v478.33079c-142.8742.90045-345.4002-107.16966-345.4002-239.196175 0-132.026537 159.4368-239.134595 345.4002-239.134615z" fill="url(#a)" opacity=".402062"/></g><rect display="block" fill="url(#k)" height="23.112879" rx="2.424135" ry="2.394444" stroke="#a0670c" stroke-width="1.000001" width="31.978371" x="7.462385" y="15.275433"/><rect display="block" fill="none" height="21.075352" opacity=".481013" rx="1.284688" stroke="url(#j)" stroke-width="1.000001" width="29.804138" x="8.499" y="16.243698"/><path d="m8.7697819 16.547178 5.0499491-6.8108372 18.79556-.1010153 5.219973 6.7736155z" fill="url(#h)" fill-rule="evenodd" stroke="url(#i)" stroke-width="1.000001"/><g fill="#5c3566" transform="matrix(.390712 0 0 .390712 12.00646 16.94223)"><path d="m11.678 24.311c-.4.698-2.965-.511-3.411-.788-1.464-.91-2.355-2.371-2.135-4.117.449-3.56 4.181-6.086 7.588-5.817 3.763.297 6.867 3.716 7.823 7.178 1.024 3.704-.804 7.564-3.439 10.112-.455.438-.878 1.138-.693 1.799.172.612.87.497 1.24.14 3.663-3.541 6.022-8.574 4.826-13.711-1.138-4.888-6.118-8.783-11.16-7.954-4.543.746-8.742 6.118-8.174 10.719.459 3.714 6.592 7.439 8.981 3.274.846-1.472-.601-2.309-1.446-.835z"/><path d="m37.562 30.855c.118-1.394 2.321-2.193 3.415-2.604 1.371-.514 2.844-.758 4.299-.833 2.606-.133 5.398.477 7.525 2.034 1.614 1.183 3.416 4.204 1.523 5.868-2.311 2.035-6.456 1.165-9.08.391-.597-.176-1.305 1.294-.569 1.512 3.396 1.002 8.276 1.589 10.77-1.586 1.771-2.256.609-5.463-1.324-7.193-2.778-2.488-6.956-2.876-10.488-2.303-2.874.466-6.976 2.014-7.263 5.376-.082.956 1.138-.055 1.192-.662z"/><path d="m38.145 34.33c-5.344-4.174-14.994-3.603-19.914.999-.459.43-.877 1.145-.692 1.799.174.618.866.489 1.24.14 4.444-4.156 13.252-4.216 17.974-.526.863.674 2.319-1.688 1.392-2.412z"/><path d="m34.947 41.377c-1.04 5.027 4.915 5.396 8.243 3.824.966-.456 1.464-3.005-.038-2.296-1.836.867-6.933 1.258-6.254-2.023.103-.498-.109-1.165-.74-1.005-.647.165-1.085.889-1.211 1.5z"/><path d="m16.488 43.652c.753-.118 1.477-.138 2.168.217.373.192.521.591.646.959.156.455.392.021-.005.244-.875.494-2.21.577-3.198.646-2.091.148-5.528-.231-5.337 2.961.099 1.655 2.071-.052 2.007-1.115-.757.748-.9 1.021-.428.817.168-.043.339-.072.512-.092.397-.056.822-.025 1.222-.021.665.006 1.306-.015 1.965-.097 1.334-.169 2.882-.317 3.95-1.231 1.231-1.054 1.656-2.569 1.134-4.099-.62-1.816-2.538-1.947-4.163-1.693-1.031.162-1.9 2.729-.473 2.504z"/><path d="m46.049 29.834c.212-.947 1.441-1.478 2.745-1.187s2.19 1.294 1.979 2.242c-.21.946-1.439 1.478-2.745 1.187-1.305-.291-2.19-1.294-1.979-2.242z"/><path d="m43.933 26.382s-4.45-2.671-5.086-1.527-.254 2.924.636 2.924"/></g><g stroke="#a0670c"><path d="m38.276321 16.325703 5.192948 7.194661h-39.5083235l4.6640688-7.199601 29.6513067.00494z" display="block" fill="url(#g)" stroke-linecap="round" stroke-linejoin="round" stroke-width="1.000001"/><path d="m32.849333 9.6141009 4.682886 6.9222691 9.033616 4.384827-8.114506-8.912652-5.601996-2.3944441z" display="block" fill="url(#f)" stroke-linecap="round" stroke-linejoin="round"/><path d="m13.617702 9.7151161-3.9757787 6.7202389-9.13463147 4.384827 8.11450547-8.912652 4.9959047-2.1924139z" display="block" fill="#f8e8cf" stroke-linecap="round" stroke-linejoin="round"/></g><path d="m37.024959 16.43605 4.453912 6.056961h-35.8305918l4.141019-6.180317 27.2356608.123356z" display="block" fill="none" stroke="#f4e3ca"/><path d="m9.6523127 16.371803 3.3843303-5.778783 20.478198-.075221 3.841941 5.852081z" fill="none" opacity=".879747" stroke="url(#e)" stroke-linecap="round" stroke-linejoin="round"/></svg>