<?xml version="1.0" encoding="UTF-8" standalone="no"?>
<!-- Created with Inkscape (http://www.inkscape.org/) -->
<svg
   xmlns:dc="http://purl.org/dc/elements/1.1/"
   xmlns:cc="http://web.resource.org/cc/"
   xmlns:rdf="http://www.w3.org/1999/02/22-rdf-syntax-ns#"
   xmlns:svg="http://www.w3.org/2000/svg"
   xmlns="http://www.w3.org/2000/svg"
   xmlns:xlink="http://www.w3.org/1999/xlink"
   xmlns:sodipodi="http://sodipodi.sourceforge.net/DTD/sodipodi-0.dtd"
   xmlns:inkscape="http://www.inkscape.org/namespaces/inkscape"
   inkscape:export-ydpi="97.5"
   inkscape:export-xdpi="97.5"
   inkscape:export-filename="/Users/izoo/Sites/spip-zone/_graphismes_/logos/spip_tango/tango_vignettes/png/svg.png"
   sodipodi:docname="svg.svg"
   sodipodi:docbase="/Users/izoo/Sites/spip-zone/_graphismes_/logos/spip_tango/tango_vignettes/svg"
   inkscape:version="0.44.1"
   sodipodi:version="0.32"
   id="svg249"
   height="48.000000px"
   width="48.000000px">
  <defs
     id="defs3">
    <linearGradient
       id="linearGradient2804">
      <stop
         style="stop-color:#fcaf3e;stop-opacity:1;"
         offset="0"
         id="stop2806" />
      <stop
         id="stop2812"
         offset="1"
         style="stop-color:#ce5c00;stop-opacity:1;" />
    </linearGradient>
    <linearGradient
       id="linearGradient7564">
      <stop
         style="stop-color:#ffffff;stop-opacity:1.0000000;"
         offset="0.0000000"
         id="stop7566" />
      <stop
         style="stop-color:#f9b575;stop-opacity:1"
         offset="1.0000000"
         id="stop7568" />
    </linearGradient>
    <linearGradient
       inkscape:collect="always"
       xlink:href="#linearGradient15662"
       id="linearGradient2887"
       x1="51.977962"
       y1="25.493383"
       x2="64.499451"
       y2="25.493383"
       gradientUnits="userSpaceOnUse"
       gradientTransform="matrix(1.279235,0,0,1.279235,-29.66414,6.209384)" />
    <linearGradient
       id="linearGradient4114"
       inkscape:collect="always">
      <stop
         id="stop4116"
         offset="0"
         style="stop-color:#000000;stop-opacity:1;" />
      <stop
         id="stop4118"
         offset="1"
         style="stop-color:#000000;stop-opacity:0;" />
    </linearGradient>
    <radialGradient
       inkscape:collect="always"
       xlink:href="#linearGradient4114"
       id="radialGradient14431"
       gradientUnits="userSpaceOnUse"
       gradientTransform="scale(1.64399,0.608276)"
       cx="15.115514"
       cy="63.965388"
       fx="15.115514"
       fy="63.965388"
       r="12.289036" />
    <linearGradient
       id="linearGradient19880">
      <stop
         style="stop-color:#a40000;stop-opacity:1;"
         offset="0"
         id="stop19882" />
      <stop
         id="stop19888"
         offset="1"
         style="stop-color:#ef2929;stop-opacity:1;" />
    </linearGradient>
    <radialGradient
       id="XMLID_43_"
       cx="20.1311"
       cy="32.8232"
       r="20.1525"
       gradientTransform="matrix(1,0,0,-1,-0.8574,45.8467)"
       gradientUnits="userSpaceOnUse">
      <stop
         offset="0"
         style="stop-color:#23ACCD"
         id="stop18997" />
      <stop
         offset="1"
         style="stop-color:#274773"
         id="stop18999" />
    </radialGradient>
    <linearGradient
       id="linearGradient2667">
      <stop
         id="stop2669"
         offset="0.0000000"
         style="stop-color:#ffffff;stop-opacity:1.0000000;" />
      <stop
         id="stop2671"
         offset="1.0000000"
         style="stop-color:#fcfcff;stop-opacity:0.0000000;" />
    </linearGradient>
    <linearGradient
       inkscape:collect="always"
       xlink:href="#linearGradient2667"
       id="linearGradient13821"
       gradientUnits="userSpaceOnUse"
       gradientTransform="matrix(1.034068,0,0,2.216501,7.851164,-12.81899)"
       x1="11.492236"
       y1="1.6537577"
       x2="17.199417"
       y2="26.729263" />
    <radialGradient
       inkscape:collect="always"
       xlink:href="#linearGradient5060"
       id="radialGradient6719"
       gradientUnits="userSpaceOnUse"
       gradientTransform="matrix(-2.774389,0,0,1.969706,112.7623,-872.8854)"
       cx="605.71429"
       cy="486.64789"
       fx="605.71429"
       fy="486.64789"
       r="117.14286" />
    <linearGradient
       inkscape:collect="always"
       id="linearGradient5060">
      <stop
         style="stop-color:black;stop-opacity:1;"
         offset="0"
         id="stop5062" />
      <stop
         style="stop-color:black;stop-opacity:0;"
         offset="1"
         id="stop5064" />
    </linearGradient>
    <radialGradient
       inkscape:collect="always"
       xlink:href="#linearGradient5060"
       id="radialGradient6717"
       gradientUnits="userSpaceOnUse"
       gradientTransform="matrix(2.774389,0,0,1.969706,-1891.633,-872.8854)"
       cx="605.71429"
       cy="486.64789"
       fx="605.71429"
       fy="486.64789"
       r="117.14286" />
    <linearGradient
       id="linearGradient5048">
      <stop
         style="stop-color:black;stop-opacity:0;"
         offset="0"
         id="stop5050" />
      <stop
         id="stop5056"
         offset="0.5"
         style="stop-color:black;stop-opacity:1;" />
      <stop
         style="stop-color:black;stop-opacity:0;"
         offset="1"
         id="stop5052" />
    </linearGradient>
    <linearGradient
       inkscape:collect="always"
       xlink:href="#linearGradient5048"
       id="linearGradient6715"
       gradientUnits="userSpaceOnUse"
       gradientTransform="matrix(2.774389,0,0,1.969706,-1892.179,-872.8854)"
       x1="302.85715"
       y1="366.64789"
       x2="302.85715"
       y2="609.50507" />
    <linearGradient
       id="linearGradient7648"
       gradientUnits="userSpaceOnUse"
       x1="21.9326"
       y1="24.6274"
       x2="21.9326"
       y2="7.1091"
       style="stroke-dasharray:none;stroke-miterlimit:4.0000000;stroke-width:1.2166667">
      <stop
         offset="0"
         style="stop-color:#8595bc;stop-opacity:1;"
         id="stop7650" />
      <stop
         offset="1"
         style="stop-color:#041a3b;stop-opacity:1;"
         id="stop7652" />
    </linearGradient>
    <linearGradient
       inkscape:collect="always"
       id="linearGradient4542">
      <stop
         style="stop-color:#000000;stop-opacity:1;"
         offset="0"
         id="stop4544" />
      <stop
         style="stop-color:#000000;stop-opacity:0;"
         offset="1"
         id="stop4546" />
    </linearGradient>
    <linearGradient
       id="linearGradient15662">
      <stop
         id="stop15664"
         offset="0.0000000"
         style="stop-color:#ffffff;stop-opacity:1.0000000;" />
      <stop
         id="stop15666"
         offset="1.0000000"
         style="stop-color:#f8f8f8;stop-opacity:1.0000000;" />
    </linearGradient>
    <radialGradient
       id="aigrd3"
       cx="20.8921"
       cy="64.5679"
       r="5.257"
       fx="20.8921"
       fy="64.5679"
       gradientUnits="userSpaceOnUse">
      <stop
         offset="0"
         style="stop-color:#F0F0F0"
         id="stop15573" />
      <stop
         offset="1.0000000"
         style="stop-color:#9a9a9a;stop-opacity:1.0000000;"
         id="stop15575" />
    </radialGradient>
    <radialGradient
       id="aigrd2"
       cx="20.8921"
       cy="114.5684"
       r="5.256"
       fx="20.8921"
       fy="114.5684"
       gradientUnits="userSpaceOnUse">
      <stop
         offset="0"
         style="stop-color:#F0F0F0"
         id="stop15566" />
      <stop
         offset="1.0000000"
         style="stop-color:#9a9a9a;stop-opacity:1.0000000;"
         id="stop15568" />
    </radialGradient>
    <linearGradient
       id="linearGradient269">
      <stop
         id="stop270"
         offset="0.0000000"
         style="stop-color:#a3a3a3;stop-opacity:1.0000000;" />
      <stop
         id="stop271"
         offset="1.0000000"
         style="stop-color:#4c4c4c;stop-opacity:1.0000000;" />
    </linearGradient>
    <linearGradient
       id="linearGradient259">
      <stop
         id="stop260"
         offset="0.0000000"
         style="stop-color:#fafafa;stop-opacity:1.0000000;" />
      <stop
         id="stop261"
         offset="1.0000000"
         style="stop-color:#bbbbbb;stop-opacity:1.0000000;" />
    </linearGradient>
    <radialGradient
       inkscape:collect="always"
       xlink:href="#linearGradient269"
       id="radialGradient15656"
       gradientUnits="userSpaceOnUse"
       gradientTransform="matrix(0.968273,0.000000,0.000000,1.032767,3.353553,0.646447)"
       cx="8.8244190"
       cy="3.7561285"
       fx="8.8244190"
       fy="3.7561285"
       r="37.751713" />
    <radialGradient
       inkscape:collect="always"
       xlink:href="#linearGradient259"
       id="radialGradient15658"
       gradientUnits="userSpaceOnUse"
       gradientTransform="scale(0.960493,1.041132)"
       cx="33.966679"
       cy="35.736916"
       fx="33.966679"
       fy="35.736916"
       r="86.708450" />
    <radialGradient
       inkscape:collect="always"
       xlink:href="#linearGradient15662"
       id="radialGradient15668"
       gradientUnits="userSpaceOnUse"
       gradientTransform="matrix(0.968273,0.000000,0.000000,1.032767,3.353553,0.646447)"
       cx="8.1435566"
       cy="7.2678967"
       fx="8.1435566"
       fy="7.2678967"
       r="38.158695" />
    <radialGradient
       r="5.256"
       fy="114.5684"
       fx="20.8921"
       cy="114.5684"
       cx="20.8921"
       gradientTransform="matrix(0.229703,0.000000,0.000000,0.229703,4.613529,3.979808)"
       gradientUnits="userSpaceOnUse"
       id="radialGradient2283"
       xlink:href="#aigrd2"
       inkscape:collect="always" />
    <radialGradient
       r="5.257"
       fy="64.5679"
       fx="20.8921"
       cy="64.5679"
       cx="20.8921"
       gradientTransform="matrix(0.229703,0.000000,0.000000,0.229703,4.613529,3.979808)"
       gradientUnits="userSpaceOnUse"
       id="radialGradient2285"
       xlink:href="#aigrd3"
       inkscape:collect="always" />
    <radialGradient
       inkscape:collect="always"
       xlink:href="#linearGradient4542"
       id="radialGradient4548"
       cx="24.306795"
       cy="42.07798"
       fx="24.306795"
       fy="42.07798"
       r="15.821514"
       gradientTransform="matrix(1.000000,0.000000,0.000000,0.284916,0.000000,30.08928)"
       gradientUnits="userSpaceOnUse" />
    <linearGradient
       inkscape:collect="always"
       xlink:href="#linearGradient7648"
       id="linearGradient13118"
       gradientUnits="userSpaceOnUse"
       gradientTransform="matrix(0.834638,0,0,-0.603116,7.173497,30.07459)"
       x1="21.9326"
       y1="24.627399"
       x2="21.9326"
       y2="7.1090999" />
    <radialGradient
       gradientUnits="userSpaceOnUse"
       gradientTransform="matrix(1,0,0,-1,-0.8574,45.8467)"
       r="20.1525"
       cy="32.8232"
       cx="20.1311"
       id="radialGradient19854">
      <stop
         id="stop19856"
         style="stop-color:#23ACCD"
         offset="0" />
      <stop
         id="stop19858"
         style="stop-color:#274773"
         offset="1" />
    </radialGradient>
    <linearGradient
       inkscape:collect="always"
       xlink:href="#linearGradient19880"
       id="linearGradient19902"
       x1="54.26392"
       y1="30.1357"
       x2="65.844521"
       y2="30.1357"
       gradientUnits="userSpaceOnUse"
       gradientTransform="translate(-8.937631,-0.217991)" />
    <linearGradient
       inkscape:collect="always"
       xlink:href="#linearGradient19880"
       id="linearGradient19908"
       gradientUnits="userSpaceOnUse"
       gradientTransform="translate(-8.937631,-0.217991)"
       x1="54.26392"
       y1="30.1357"
       x2="65.844521"
       y2="30.1357" />
    <linearGradient
       inkscape:collect="always"
       xlink:href="#linearGradient19880"
       id="linearGradient7526"
       gradientUnits="userSpaceOnUse"
       gradientTransform="translate(-8.937631,-0.217991)"
       x1="54.26392"
       y1="30.1357"
       x2="65.844521"
       y2="30.1357" />
    <linearGradient
       inkscape:collect="always"
       xlink:href="#linearGradient19880"
       id="linearGradient7535"
       gradientUnits="userSpaceOnUse"
       gradientTransform="translate(-8.937631,-0.217991)"
       x1="54.26392"
       y1="30.1357"
       x2="65.844521"
       y2="30.1357" />
    <linearGradient
       inkscape:collect="always"
       xlink:href="#linearGradient19880"
       id="linearGradient7539"
       gradientUnits="userSpaceOnUse"
       gradientTransform="matrix(1.200949,0,0,1.200949,-82.56502,-13.29075)"
       x1="54.26392"
       y1="30.1357"
       x2="65.844521"
       y2="30.1357" />
    <linearGradient
       inkscape:collect="always"
       xlink:href="#linearGradient2667"
       id="linearGradient7543"
       gradientUnits="userSpaceOnUse"
       gradientTransform="matrix(1.02739,0,0,2.641105,-26.71547,-20.83)"
       x1="11.492236"
       y1="1.6537577"
       x2="17.199417"
       y2="26.729263" />
    <linearGradient
       inkscape:collect="always"
       xlink:href="#linearGradient2804"
       id="linearGradient3091"
       gradientUnits="userSpaceOnUse"
       gradientTransform="matrix(0.305669,0,0,0.305669,26.1305,25.86295)"
       x1="6.922461"
       y1="32.181786"
       x2="57.804615"
       y2="32.181786" />
    <linearGradient
       inkscape:collect="always"
       xlink:href="#linearGradient19880"
       id="linearGradient3101"
       gradientUnits="userSpaceOnUse"
       gradientTransform="translate(-8.937631,-0.217991)"
       x1="54.26392"
       y1="30.1357"
       x2="65.844521"
       y2="30.1357" />
    <linearGradient
       inkscape:collect="always"
       xlink:href="#linearGradient7564"
       id="linearGradient3116"
       gradientUnits="userSpaceOnUse"
       x1="17.818773"
       y1="18.44412"
       x2="41.323605"
       y2="22.476954"
       gradientTransform="translate(-2.506897,-3.743928)" />
    <linearGradient
       inkscape:collect="always"
       xlink:href="#linearGradient2804"
       id="linearGradient3292"
       gradientUnits="userSpaceOnUse"
       gradientTransform="matrix(0.305669,0,0,0.305669,26.2395,27.75396)"
       x1="6.922461"
       y1="32.181786"
       x2="57.804615"
       y2="32.181786" />
  </defs>
  <sodipodi:namedview
     inkscape:window-y="212"
     inkscape:window-x="248"
     inkscape:window-height="791"
     inkscape:window-width="1018"
     inkscape:document-units="px"
     inkscape:grid-bbox="true"
     showgrid="false"
     inkscape:current-layer="layer5"
     inkscape:cy="24.309966"
     inkscape:cx="27.744088"
     inkscape:zoom="9.1746904"
     inkscape:pageshadow="2"
     inkscape:pageopacity="0.0"
     borderopacity="0.25490196"
     bordercolor="#666666"
     pagecolor="#ffffff"
     id="base"
     inkscape:showpageshadow="false"
     fill="#729fcf" />
  <metadata
     id="metadata4">
    <rdf:RDF>
      <cc:Work
         rdf:about="">
        <dc:format>image/svg+xml</dc:format>
        <dc:type
           rdf:resource="http://purl.org/dc/dcmitype/StillImage" />
        <dc:title>Office Document</dc:title>
        <dc:subject>
          <rdf:Bag>
            <rdf:li>rich</rdf:li>
            <rdf:li>text</rdf:li>
            <rdf:li>document</rdf:li>
            <rdf:li>pdf</rdf:li>
            <rdf:li>openoffice</rdf:li>
            <rdf:li>word</rdf:li>
            <rdf:li>rtf</rdf:li>
          </rdf:Bag>
        </dc:subject>
        <cc:license
           rdf:resource="http://creativecommons.org/licenses/by-sa/2.0/" />
        <dc:creator>
          <cc:Agent>
            <dc:title>Jakub Steiner</dc:title>
          </cc:Agent>
        </dc:creator>
        <dc:source>http://jimmac.musichall.cz</dc:source>
      </cc:Work>
      <cc:License
         rdf:about="http://creativecommons.org/licenses/by/2.0/">
        <cc:permits
           rdf:resource="http://web.resource.org/cc/Reproduction" />
        <cc:permits
           rdf:resource="http://web.resource.org/cc/Distribution" />
        <cc:requires
           rdf:resource="http://web.resource.org/cc/Notice" />
        <cc:requires
           rdf:resource="http://web.resource.org/cc/Attribution" />
        <cc:permits
           rdf:resource="http://web.resource.org/cc/DerivativeWorks" />
        <cc:requires
           rdf:resource="http://web.resource.org/cc/ShareAlike" />
      </cc:License>
    </rdf:RDF>
  </metadata>
  <g
     inkscape:groupmode="layer"
     id="layer6"
     inkscape:label="Shadow">
    <g
       style="display:inline"
       transform="matrix(2.105461e-2,0,0,2.086758e-2,42.85172,41.1536)"
       id="g6707">
      <rect
         style="opacity:0.40206185;color:black;fill:url(#linearGradient6715);fill-opacity:1;fill-rule:nonzero;stroke:none;stroke-width:1;stroke-linecap:round;stroke-linejoin:miter;marker:none;marker-start:none;marker-mid:none;marker-end:none;stroke-miterlimit:4;stroke-dasharray:none;stroke-dashoffset:0;stroke-opacity:1;visibility:visible;display:inline;overflow:visible"
         id="rect6709"
         width="1339.6335"
         height="478.35718"
         x="-1559.2523"
         y="-150.69685" />
      <path
         style="opacity:0.40206185;color:black;fill:url(#radialGradient6717);fill-opacity:1;fill-rule:nonzero;stroke:none;stroke-width:1;stroke-linecap:round;stroke-linejoin:miter;marker:none;marker-start:none;marker-mid:none;marker-end:none;stroke-miterlimit:4;stroke-dasharray:none;stroke-dashoffset:0;stroke-opacity:1;visibility:visible;display:inline;overflow:visible"
         d="M -219.61876,-150.68038 C -219.61876,-150.68038 -219.61876,327.65041 -219.61876,327.65041 C -76.744594,328.55086 125.78146,220.48075 125.78138,88.454235 C 125.78138,-43.572302 -33.655436,-150.68036 -219.61876,-150.68038 z "
         id="path6711"
         sodipodi:nodetypes="cccc" />
      <path
         sodipodi:nodetypes="cccc"
         id="path6713"
         d="M -1559.2523,-150.68038 C -1559.2523,-150.68038 -1559.2523,327.65041 -1559.2523,327.65041 C -1702.1265,328.55086 -1904.6525,220.48075 -1904.6525,88.454235 C -1904.6525,-43.572302 -1745.2157,-150.68036 -1559.2523,-150.68038 z "
         style="opacity:0.40206185;color:black;fill:url(#radialGradient6719);fill-opacity:1;fill-rule:nonzero;stroke:none;stroke-width:1;stroke-linecap:round;stroke-linejoin:miter;marker:none;marker-start:none;marker-mid:none;marker-end:none;stroke-miterlimit:4;stroke-dasharray:none;stroke-dashoffset:0;stroke-opacity:1;visibility:visible;display:inline;overflow:visible" />
    </g>
  </g>
  <g
     style="display:inline"
     inkscape:groupmode="layer"
     inkscape:label="Base"
     id="layer1">
    <rect
       style="color:#000000;fill:url(#radialGradient15658);fill-opacity:1.0000000;fill-rule:nonzero;stroke:url(#radialGradient15656);stroke-width:1.0000000;stroke-linecap:round;stroke-linejoin:round;stroke-miterlimit:4.0000000;stroke-dashoffset:0.0000000;stroke-opacity:1.0000000;marker:none;marker-start:none;marker-mid:none;marker-end:none;visibility:visible;display:block;overflow:visible"
       id="rect15391"
       width="34.875000"
       height="40.920494"
       x="6.6035528"
       y="3.6464462"
       ry="1.1490486" />
    <rect
       style="color:#000000;fill:none;fill-opacity:1.0000000;fill-rule:nonzero;stroke:url(#radialGradient15668);stroke-width:1.0000000;stroke-linecap:round;stroke-linejoin:round;stroke-miterlimit:4.0000000;stroke-dashoffset:0.0000000;stroke-opacity:1.0000000;marker:none;marker-start:none;marker-mid:none;marker-end:none;visibility:visible;display:block;overflow:visible"
       id="rect15660"
       width="32.775887"
       height="38.946384"
       x="7.6660538"
       y="4.5839462"
       ry="0.14904857"
       rx="0.14904857" />
    <g
       transform="translate(0.646447,-3.798933e-2)"
       id="g2270">
      <g
         id="g1440"
         style="fill:#ffffff;fill-opacity:1.0000000;fill-rule:nonzero;stroke:#000000;stroke-miterlimit:4.0000000"
         transform="matrix(0.229703,0.000000,0.000000,0.229703,4.967081,4.244972)">
        <radialGradient
           id="radialGradient1442"
           cx="20.892099"
           cy="114.56840"
           r="5.2560000"
           fx="20.892099"
           fy="114.56840"
           gradientUnits="userSpaceOnUse">
          <stop
             offset="0"
             style="stop-color:#F0F0F0"
             id="stop1444" />
          <stop
             offset="1"
             style="stop-color:#474747"
             id="stop1446" />
        </radialGradient>
        <path
           style="stroke:none"
           d="M 23.428000,113.07000 C 23.428000,115.04300 21.828000,116.64200 19.855000,116.64200 C 17.881000,116.64200 16.282000,115.04200 16.282000,113.07000 C 16.282000,111.09600 17.882000,109.49700 19.855000,109.49700 C 21.828000,109.49700 23.428000,111.09700 23.428000,113.07000 z "
           id="path1448" />
        <radialGradient
           id="radialGradient1450"
           cx="20.892099"
           cy="64.567902"
           r="5.2570000"
           fx="20.892099"
           fy="64.567902"
           gradientUnits="userSpaceOnUse">
          <stop
             offset="0"
             style="stop-color:#F0F0F0"
             id="stop1452" />
          <stop
             offset="1"
             style="stop-color:#474747"
             id="stop1454" />
        </radialGradient>
        <path
           style="stroke:none"
           d="M 23.428000,63.070000 C 23.428000,65.043000 21.828000,66.643000 19.855000,66.643000 C 17.881000,66.643000 16.282000,65.043000 16.282000,63.070000 C 16.282000,61.096000 17.882000,59.497000 19.855000,59.497000 C 21.828000,59.497000 23.428000,61.097000 23.428000,63.070000 z "
           id="path1456" />
      </g>
      <path
         style="fill:url(#radialGradient2283);fill-rule:nonzero;stroke:none;stroke-miterlimit:4.0000000"
         d="M 9.9950109,29.952326 C 9.9950109,30.405530 9.6274861,30.772825 9.1742821,30.772825 C 8.7208483,30.772825 8.3535532,30.405301 8.3535532,29.952326 C 8.3535532,29.498892 8.7210780,29.131597 9.1742821,29.131597 C 9.6274861,29.131597 9.9950109,29.499122 9.9950109,29.952326 z "
         id="path15570" />
      <path
         style="fill:url(#radialGradient2285);fill-rule:nonzero;stroke:none;stroke-miterlimit:4.0000000"
         d="M 9.9950109,18.467176 C 9.9950109,18.920380 9.6274861,19.287905 9.1742821,19.287905 C 8.7208483,19.287905 8.3535532,18.920380 8.3535532,18.467176 C 8.3535532,18.013742 8.7210780,17.646447 9.1742821,17.646447 C 9.6274861,17.646447 9.9950109,18.013972 9.9950109,18.467176 z "
         id="path15577" />
    </g>
    <path
       style="fill:none;fill-opacity:0.75000000;fill-rule:evenodd;stroke:#000000;stroke-width:0.98855311;stroke-linecap:butt;stroke-linejoin:miter;stroke-miterlimit:4.0000000;stroke-opacity:0.017543854"
       d="M 11.505723,5.4942766 L 11.505723,43.400869"
       id="path15672"
       sodipodi:nodetypes="cc" />
    <path
       style="fill:none;fill-opacity:0.75000000;fill-rule:evenodd;stroke:#ffffff;stroke-width:1.0000000;stroke-linecap:butt;stroke-linejoin:miter;stroke-miterlimit:4.0000000;stroke-opacity:0.20467831"
       d="M 12.500000,5.0205154 L 12.500000,43.038228"
       id="path15674"
       sodipodi:nodetypes="cc" />
  </g>
  <g
     inkscape:groupmode="layer"
     id="layer5"
     inkscape:label="Text"
     style="display:inline">
    <path
       transform="matrix(0.5047,0,0,0.553394,23.06662,21.75568)"
       d="M 45.052803 38.908627 A 20.203051 7.4751287 0 1 1  4.6467018,38.908627 A 20.203051 7.4751287 0 1 1  45.052803 38.908627 z"
       sodipodi:ry="7.4751287"
       sodipodi:rx="20.203051"
       sodipodi:cy="38.908627"
       sodipodi:cx="24.849752"
       id="path4112"
       style="fill:url(#radialGradient14431);fill-opacity:1;stroke:none;stroke-opacity:1;display:inline"
       sodipodi:type="arc" />
    <g
       id="g19910"
       transform="matrix(1.200949,0,0,1.200949,-39.22868,-14.65376)">
      <path
         d="M 60.274816,25.065667 L 59.274816,25.065667 L 55.974816,21.765667 C 55.974816,21.665667 56.074816,21.565667 56.074816,21.565667 C 56.074816,21.365667 55.874816,21.165667 55.674816,21.165667 C 55.574816,21.165667 55.475816,21.165667 55.475816,21.265667 L 52.075816,17.865667 L 52.075816,16.865667 L 51.975816,16.865667 L 50.874816,16.865667 L 50.874816,18.065667 L 51.874816,18.065667 L 55.274816,21.465667 C 55.274816,21.565667 55.173816,21.665667 55.173816,21.665667 C 55.173816,21.865667 55.373816,22.065667 55.573816,22.065667 C 55.673816,22.065667 55.773816,22.065667 55.773816,21.965667 L 59.073816,25.265667 L 59.073816,26.265667 L 60.273816,26.265667 L 60.273816,25.065667 L 60.174816,25.065667 L 60.274816,25.065667 z M 51.974816,17.765667 C 51.873816,17.765667 51.274816,17.765667 51.173816,17.765667 C 51.173816,17.665667 51.173816,17.065667 51.173816,16.965667 C 51.274816,16.965667 51.873816,16.965667 51.974816,16.965667 C 51.974816,17.065667 51.974816,17.665667 51.974816,17.765667 z M 60.274816,26.065667 C 60.173816,26.065667 59.574816,26.065667 59.474816,26.065667 C 59.474816,25.965667 59.474816,25.365667 59.474816,25.265667 C 59.574816,25.265667 60.173816,25.265667 60.274816,25.265667 C 60.274816,25.365667 60.274816,25.965667 60.274816,26.065667 z "
         id="path19003" />
      <g
         transform="translate(-0.108996,0.217991)"
         id="g19904">
        <path
           style="fill:url(#linearGradient3101);fill-opacity:1;stroke:#a40000;stroke-width:1.02499998;stroke-miterlimit:4;stroke-dasharray:none;stroke-opacity:1"
           id="path19001"
           d="M 55.883812,22.228636 C 54.183812,20.528636 42.782812,18.028636 46.983812,25.128636 C 49.084812,28.728636 43.383812,32.328636 46.483812,37.128636 C 50.283812,42.828636 60.783812,36.928636 54.983812,31.628636 C 50.883812,27.828636 57.683812,23.928636 55.883812,22.228636 z " />
        <path
           id="path19007"
           d="M 49.437784,19.074663 L 49.437784,17.974663 L 49.337784,17.974663 L 48.237784,17.974663 L 48.237784,18.974663 L 47.137784,20.074663 C 47.037784,20.074663 46.937784,19.974663 46.937784,19.974663 C 46.737784,19.974663 46.537784,20.174663 46.537784,20.374663 C 46.537784,20.474663 46.537784,20.574663 46.637784,20.574663 L 45.537784,21.674663 L 44.537784,21.674663 L 44.537784,22.874663 L 45.737784,22.874663 L 45.737784,21.874663 L 46.837784,20.774663 C 46.937784,20.774663 47.037784,20.874663 47.037784,20.874663 C 47.237784,20.874663 47.436784,20.674663 47.436784,20.474663 C 47.436784,20.374663 47.436784,20.274663 47.336784,20.274663 L 48.436784,19.174663 L 49.436784,19.174663 L 49.436784,19.074663 L 49.437784,19.074663 z M 48.437784,18.074663 C 48.538784,18.074663 49.137784,18.074663 49.238784,18.074663 C 49.238784,18.174663 49.238784,18.774663 49.238784,18.874663 C 49.137784,18.874663 48.538784,18.874663 48.437784,18.874663 C 48.437784,18.774663 48.437784,18.174663 48.437784,18.074663 z M 44.637784,22.874663 C 44.637784,22.774663 44.637784,22.174663 44.637784,22.074663 C 44.738784,22.074663 45.238784,22.074663 45.437784,22.074663 L 45.437784,22.074663 C 45.437784,22.274663 45.437784,22.774663 45.437784,22.874663 C 45.337784,22.874663 44.737784,22.874663 44.637784,22.874663 z " />
      </g>
    </g>
    <path
       style="opacity:0.2201258;fill:url(#linearGradient3116);fill-opacity:1;stroke:none;stroke-width:1.23097265;stroke-miterlimit:4;stroke-dasharray:none;stroke-opacity:1"
       d="M 19.413935,9.5466874 C 16.120715,9.6122814 13.78386,11.136507 16.509797,15.793697 C 17.286288,17.138674 17.215678,18.474623 16.847488,19.85596 C 19.556473,18.868648 20.335795,20.157958 27.282122,15.588877 C 27.290051,15.576177 27.307994,15.567405 27.315891,15.55474 C 28.244344,14.065803 28.934795,12.806717 28.05881,11.97039 C 26.955716,10.855289 22.707155,9.4810944 19.413935,9.5466874 z "
       id="path7522" />
    <path
       style="fill:#2e3436;stroke:#2e3436;stroke-opacity:1"
       id="path10"
       d="M 27.135093,37.590931 C 27.135093,39.039603 28.312164,40.221869 29.758718,40.230917 C 28.742184,41.260155 28.745842,42.928458 29.770266,43.952692 C 30.795268,44.977694 32.465112,44.980775 33.494158,43.962316 C 33.500898,45.409642 34.683164,46.587864 36.132027,46.587864 C 37.581853,46.587864 38.764697,45.407907 38.769896,43.959426 C 39.797979,44.980001 41.468783,44.977884 42.493788,43.952689 C 43.518408,42.928264 43.521103,41.258807 42.502259,40.230723 C 43.950354,40.223409 45.128962,39.040563 45.128962,37.590928 C 45.128962,36.142065 43.9517,34.959795 42.504759,34.951133 C 43.521871,33.922086 43.518213,32.253592 42.493788,31.229167 C 41.469555,30.204934 39.801446,30.201084 38.772205,31.217618 C 38.763157,29.771064 37.580699,28.593992 36.132027,28.593992 C 34.683546,28.593992 33.50128,29.770678 33.491849,31.216845 C 32.462417,30.200888 30.7945,30.204932 29.770266,31.229165 C 28.746033,32.253398 28.741993,33.921507 29.758332,34.950939 C 28.311969,34.960179 27.135093,36.142445 27.135093,37.590926 L 27.135093,37.590931 z " />
    <path
       style="fill:url(#linearGradient3292);fill-opacity:1;stroke:#eeeeec;stroke-width:1;stroke-linejoin:round;stroke-miterlimit:4;stroke-dasharray:none;stroke-opacity:1"
       id="path12"
       d="M 33.70551,36.588252 C 33.705896,36.58729 33.706278,36.586328 33.706665,36.585172 L 33.70551,36.58652 L 33.70551,36.588252 z M 33.704742,36.58575 L 31.633946,34.514955 C 31.271294,34.514185 30.90884,34.375977 30.633195,34.100333 C 30.080174,33.54712 30.080174,32.645117 30.633195,32.092095 C 31.186217,31.539074 32.088411,31.539074 32.641433,32.092095 C 32.917846,32.368317 33.056054,32.731929 33.056246,33.095541 L 35.126273,35.165568 C 35.12685,35.165376 35.127232,35.165184 35.127618,35.164991 L 35.127232,35.164991 L 35.127232,32.236079 C 34.870838,31.979107 34.712033,31.624736 34.712033,31.234365 C 34.712033,30.452282 35.349941,29.814375 36.132024,29.814375 C 36.914107,29.814375 37.552014,30.452282 37.552014,31.234365 C 37.552014,31.624732 37.393213,31.979105 37.136624,32.23627 L 37.136624,35.1648 L 39.207997,33.093427 C 39.208574,32.730585 39.346783,32.367935 39.62281,32.092099 C 40.175831,31.539077 41.077835,31.539077 41.630856,32.092099 C 42.184069,32.64512 42.184069,33.547124 41.630856,34.100336 C 41.35502,34.376173 40.992372,34.514381 40.629528,34.514958 L 38.558537,36.585948 L 41.486872,36.585948 C 41.744038,36.329746 42.09841,36.170941 42.488586,36.170941 C 43.270669,36.170941 43.908576,36.808848 43.908576,37.590931 C 43.908576,38.373014 43.270669,39.010922 42.488586,39.010922 C 42.098601,39.010922 41.744615,38.852311 41.487453,38.5963 L 38.558155,38.5963 L 38.558155,38.594567 C 38.557964,38.595145 38.557578,38.595915 38.557387,38.596685 L 40.627414,40.666712 C 40.991026,40.666905 41.354638,40.805112 41.63086,41.081525 C 42.184072,41.634546 42.184072,42.536741 41.63086,43.089762 C 41.077839,43.642784 40.175835,43.642784 39.622814,43.089762 C 39.346978,42.814118 39.208769,42.451469 39.208001,42.08882 L 37.136628,40.017447 L 37.136628,42.945395 C 37.393217,43.202561 37.552018,43.557125 37.552018,43.947492 C 37.552018,44.729575 36.914111,45.367482 36.132027,45.367482 C 35.349945,45.367482 34.712037,44.729575 34.712037,43.947492 C 34.712037,43.557125 34.871033,43.202562 35.127427,42.945395 L 35.127427,40.016675 C 35.126078,40.016098 35.124541,40.015521 35.123001,40.014751 L 35.126464,40.018215 L 33.056246,42.088434 C 33.055477,42.451275 32.917269,42.813926 32.641433,43.089762 C 32.088411,43.642783 31.186217,43.642783 30.633195,43.089762 C 30.080174,42.53674 30.080174,41.634546 30.633195,41.081524 C 30.909031,40.805688 31.271489,40.66748 31.634329,40.666712 L 33.704742,38.596493 L 33.708014,38.599958 C 33.707245,38.597841 33.706282,38.595723 33.705514,38.593606 L 33.705514,38.596301 L 30.776603,38.596301 C 30.519628,38.852311 30.16545,39.010922 29.775469,39.010922 C 28.993386,39.010922 28.355479,38.373015 28.355479,37.590932 C 28.355479,36.808849 28.993386,36.170942 29.775469,36.170942 C 30.165645,36.170942 30.519823,36.329552 30.776989,36.585754 L 33.704746,36.585754 L 33.704742,36.58575 z M 38.558151,36.586328 L 38.557956,36.586712 C 38.557956,36.586905 38.558151,36.587098 38.558151,36.58729 L 38.558151,36.586328 z " />
    <path
       style="opacity:0.22641512;fill:white;fill-opacity:1;stroke:none;stroke-opacity:1"
       d="M 36.244061,28.633183 C 34.795576,28.633183 33.628489,29.812016 33.619058,31.258183 C 32.589626,30.242226 30.924542,30.23395 29.900308,31.258183 C 28.876075,32.282416 28.883969,33.947501 29.900308,34.976933 C 28.453944,34.986173 27.275308,36.184702 27.275308,37.633183 C 27.275309,38.95454 28.25548,40.036977 29.525308,40.226933 C 32.473719,39.775909 36.210728,38.823873 43.462808,35.133183 C 43.199073,35.042416 42.912569,34.97869 42.619058,34.976933 C 43.636174,33.947886 43.643483,32.282608 42.619058,31.258183 C 41.594826,30.23395 39.929549,30.241649 38.900308,31.258183 C 38.891262,29.811629 37.69273,28.633183 36.244061,28.633183 z "
       id="path3107" />
  </g>
</svg>
