<svg height="52" viewBox="0 0 48 48" width="52" xmlns="http://www.w3.org/2000/svg" xmlns:xlink="http://www.w3.org/1999/xlink"><linearGradient id="a"><stop offset="0"/><stop offset="1" stop-opacity="0"/></linearGradient><radialGradient id="b" cx="15.115514" cy="63.965388" gradientTransform="scale(1.64399 .608276)" gradientUnits="userSpaceOnUse" r="12.289036" xlink:href="#a"/><radialGradient id="c" cx="605.71429" cy="486.64789" gradientTransform="matrix(-2.774389 0 0 1.969706 112.7623 -872.8854)" gradientUnits="userSpaceOnUse" r="117.14286" xlink:href="#a"/><radialGradient id="d" cx="605.71429" cy="486.64789" gradientTransform="matrix(2.774389 0 0 1.969706 -1891.633 -872.8854)" gradientUnits="userSpaceOnUse" r="117.14286" xlink:href="#a"/><linearGradient id="e" gradientTransform="matrix(2.774389 0 0 1.969706 -1892.179 -872.8854)" gradientUnits="userSpaceOnUse" x1="302.85715" x2="302.85715" y1="366.64789" y2="609.50507"><stop offset="0" stop-opacity="0"/><stop offset=".5"/><stop offset="1" stop-opacity="0"/></linearGradient><radialGradient id="f" cx="8.824419" cy="3.756129" gradientTransform="matrix(.968273 0 0 1.032767 3.353553 .646447)" gradientUnits="userSpaceOnUse" r="37.751713"><stop offset="0" stop-color="#a3a3a3"/><stop offset="1" stop-color="#4c4c4c"/></radialGradient><radialGradient id="g" cx="33.966679" cy="35.736916" gradientTransform="scale(.960493 1.041132)" gradientUnits="userSpaceOnUse" r="86.70845"><stop offset="0" stop-color="#fafafa"/><stop offset="1" stop-color="#bbb"/></radialGradient><radialGradient id="h" cx="8.143557" cy="7.267897" gradientTransform="matrix(.968273 0 0 1.032767 3.353553 .646447)" gradientUnits="userSpaceOnUse" r="38.158695"><stop offset="0" stop-color="#fff"/><stop offset="1" stop-color="#f8f8f8"/></radialGradient><linearGradient id="i"><stop offset="0" stop-color="#f0f0f0"/><stop offset="1" stop-color="#9a9a9a"/></linearGradient><radialGradient id="j" cx="9.4125070463" cy="30.2965131852" gradientUnits="userSpaceOnUse" r="1.207318968" xlink:href="#i"/><radialGradient id="k" cx="9.4125070463" cy="18.8112483337" gradientUnits="userSpaceOnUse" r="1.207548671" xlink:href="#i"/><linearGradient id="l" gradientUnits="userSpaceOnUse" x1="45.326289" x2="56.90689" y1="29.917709" y2="29.917709"><stop offset="0" stop-color="#a40000"/><stop offset="1" stop-color="#ef2929"/></linearGradient><linearGradient id="m" gradientUnits="userSpaceOnUse" x1="15.311876" x2="38.816708" y1="14.700192" y2="18.733026"><stop offset="0" stop-color="#fff"/><stop offset="1" stop-color="#f9b575"/></linearGradient><linearGradient id="n" gradientUnits="userSpaceOnUse" x1="28.35548173141" x2="43.90857886244" y1="37.59093434483" y2="37.59093434483"><stop offset="0" stop-color="#fcaf3e"/><stop offset="1" stop-color="#ce5c00"/></linearGradient><g transform="matrix(.02105461 0 0 .02086758 42.85172 41.1536)"><path d="m-1559.2523-150.69685h1339.6335v478.35718h-1339.6335z" fill="url(#e)" opacity=".402062"/><path d="m-219.61876-150.68038v478.33079c142.874166.90045 345.40022-107.16966 345.40014-239.196175 0-132.026537-159.436816-239.134595-345.40014-239.134615z" fill="url(#d)" opacity=".402062"/><path d="m-1559.2523-150.68038v478.33079c-142.8742.90045-345.4002-107.16966-345.4002-239.196175 0-132.026537 159.4368-239.134595 345.4002-239.134615z" fill="url(#c)" opacity=".402062"/></g><g><rect display="block" fill="url(#g)" height="40.920494" ry="1.149049" stroke="url(#f)" stroke-linecap="round" stroke-linejoin="round" width="34.875" x="6.603553" y="3.646446"/><rect display="block" fill="none" height="38.946384" rx=".149049" stroke="url(#h)" stroke-linecap="round" stroke-linejoin="round" width="32.775887" x="7.666054" y="4.583946"/><g transform="translate(.646447 -.037989)"><g fill="#fff" stroke="none" transform="matrix(.229703 0 0 .229703 4.967081 4.244972)"><path d="m23.428 113.07c0 1.973-1.6 3.572-3.573 3.572-1.974 0-3.573-1.6-3.573-3.572 0-1.974 1.6-3.573 3.573-3.573s3.573 1.6 3.573 3.573z"/><path d="m23.428 63.07c0 1.973-1.6 3.573-3.573 3.573-1.974 0-3.573-1.6-3.573-3.573 0-1.974 1.6-3.573 3.573-3.573s3.573 1.6 3.573 3.573z"/></g><path d="m9.9950109 29.952326c0 .453204-.3675248.820499-.8207288.820499-.4534338 0-.8207289-.367524-.8207289-.820499 0-.453434.3675248-.820729.8207289-.820729.453204 0 .8207288.367525.8207288.820729z" fill="url(#j)"/><path d="m9.9950109 18.467176c0 .453204-.3675248.820729-.8207288.820729-.4534338 0-.8207289-.367525-.8207289-.820729 0-.453434.3675248-.820729.8207289-.820729.453204 0 .8207288.367525.8207288.820729z" fill="url(#k)"/></g><g fill="none"><path d="m11.505723 5.4942766v37.9065924" stroke="#000" stroke-opacity=".017544" stroke-width=".988553"/><path d="m12.5 5.0205154v38.0177126" stroke="#fff" stroke-opacity=".204678"/></g></g><g><path d="m45.052803 38.908627a20.203051 7.4751287 0 1 1 -40.4061012 0 20.203051 7.4751287 0 1 1 40.4061012 0z" fill="url(#b)" transform="matrix(.5047 0 0 .553394 23.06662 21.75568)"/><g transform="matrix(1.200949 0 0 1.200949 -39.22868 -14.65376)"><path d="m60.274816 25.065667h-1l-3.3-3.3c0-.1.1-.2.1-.2 0-.2-.2-.4-.4-.4-.1 0-.199 0-.199.1l-3.4-3.4v-1h-.1-1.101v1.2h1l3.4 3.4c0 .1-.101.2-.101.2 0 .2.2.4.4.4.1 0 .2 0 .2-.1l3.3 3.3v1h1.2v-1.2h-.099zm-8.3-7.3c-.101 0-.7 0-.801 0 0-.1 0-.7 0-.8h.801zm8.3 8.3c-.101 0-.7 0-.8 0 0-.1 0-.7 0-.8h.8z"/><g transform="translate(-.108996 .217991)"><path d="m55.883812 22.228636c-1.7-1.7-13.101-4.2-8.9 2.9 2.101 3.6-3.6 7.2-.5 12 3.8 5.7 14.3-.2 8.5-5.5-4.1-3.8 2.7-7.7.9-9.4z" fill="url(#l)" stroke="#a40000" stroke-width="1.025"/><path d="m49.437784 19.074663v-1.1h-.1-1.1v1l-1.1 1.1c-.1 0-.2-.1-.2-.1-.2 0-.4.2-.4.4 0 .1 0 .2.1.2l-1.1 1.1h-1v1.2h1.2v-1l1.1-1.1c.1 0 .2.1.2.1.2 0 .399-.2.399-.4 0-.1 0-.2-.1-.2l1.1-1.1h1v-.1zm-1-1h.801v.8c-.101 0-.7 0-.801 0 0-.1 0-.7 0-.8zm-3.8 4.8c0-.1 0-.7 0-.8h.8v.8c-.1 0-.7 0-.8 0z"/></g></g><path d="m19.413935 9.5466874c-3.29322.065594-5.630075 1.5898196-2.904138 6.2470096.776491 1.344977.705881 2.680926.337691 4.062263 2.708985-.987312 3.488307.301998 10.434634-4.267083.007929-.0127.025872-.021472.033769-.034137.928453-1.488937 1.618904-2.748023.742919-3.58435-1.103094-1.115101-5.351655-2.4892956-8.644875-2.4237026z" fill="url(#m)" opacity=".220126"/><path d="m27.135093 37.590931c0 1.448672 1.177071 2.630938 2.623625 2.639986-1.016534 1.029238-1.012876 2.697541.011548 3.721775 1.025002 1.025002 2.694846 1.028083 3.723892.009624.00674 1.447326 1.189006 2.625548 2.637869 2.625548 1.449826 0 2.63267-1.179957 2.637869-2.628438 1.028083 1.020575 2.698887 1.018458 3.723892-.006737 1.02462-1.024425 1.027315-2.693882.008471-3.721966 1.448095-.007314 2.626703-1.19016 2.626703-2.639795 0-1.448863-1.177262-2.631133-2.624203-2.639795 1.017112-1.029047 1.013454-2.697541-.010971-3.721966-1.024233-1.024233-2.692342-1.028083-3.721583-.011549-.009048-1.446554-1.191506-2.623626-2.640178-2.623626-1.448481 0-2.630747 1.176686-2.640178 2.622853-1.029432-1.015957-2.697349-1.011913-3.721583.01232-1.024233 1.024233-1.028273 2.692342-.011934 3.721774-1.446363.00924-2.623239 1.191506-2.623239 2.639987z" fill="#2e3436" stroke="#2e3436"/><path d="m33.70551 36.588252c.000386-.000962.000768-.001924.001155-.00308l-.001155.001348zm-.000768-.002502-2.070796-2.070795c-.362652-.00077-.725106-.138978-1.000751-.414622-.553021-.553213-.553021-1.455216 0-2.008238.553022-.553021 1.455216-.553021 2.008238 0 .276413.276222.414621.639834.414813 1.003446l2.070027 2.070027c.000577-.000192.000959-.000384.001345-.000577h-.000386v-2.928912c-.256394-.256972-.415199-.611343-.415199-1.001714 0-.782083.637908-1.41999 1.419991-1.41999s1.41999.637907 1.41999 1.41999c0 .390367-.158801.74474-.41539 1.001905v2.92853l2.071373-2.071373c.000577-.362842.138786-.725492.414813-1.001328.553021-.553022 1.455025-.553022 2.008046 0 .553213.553021.553213 1.455025 0 2.008237-.275836.275837-.638484.414045-1.001328.414622l-2.070991 2.07099h2.928335c.257166-.256202.611538-.415007 1.001714-.415007.782083 0 1.41999.637907 1.41999 1.41999s-.637907 1.419991-1.41999 1.419991c-.389985 0-.743971-.158611-1.001133-.414622h-2.929298v-.001733c-.000191.000578-.000577.001348-.000768.002118l2.070027 2.070027c.363612.000193.727224.1384 1.003446.414813.553212.553021.553212 1.455216 0 2.008237-.553021.553022-1.455025.553022-2.008046 0-.275836-.275644-.414045-.638293-.414813-1.000942l-2.071373-2.071373v2.927948c.256589.257166.41539.61173.41539 1.002097 0 .782083-.637907 1.41999-1.419991 1.41999-.782082 0-1.41999-.637907-1.41999-1.41999 0-.390367.158996-.74493.41539-1.002097v-2.92872c-.001349-.000577-.002886-.001154-.004426-.001924l.003463.003464-2.070218 2.070219c-.000769.362841-.138977.725492-.414813 1.001328-.553022.553021-1.455216.553021-2.008238 0-.553021-.553022-.553021-1.455216 0-2.008238.275836-.275836.638294-.414044 1.001134-.414812l2.070413-2.070219.003272.003465c-.000769-.002117-.001732-.004235-.0025-.006352v.002695h-2.928911c-.256975.25601-.611153.414621-1.001134.414621-.782083 0-1.41999-.637907-1.41999-1.41999s.637907-1.41999 1.41999-1.41999c.390176 0 .744354.15861 1.00152.414812h2.927757zm4.853409.000578-.000195.000384c0 .000193.000195.000386.000195.000578z" fill="url(#n)" stroke="#eeeeec" stroke-linejoin="round"/><path d="m36.244061 28.633183c-1.448485 0-2.615572 1.178833-2.625003 2.625-1.029432-1.015957-2.694516-1.024233-3.71875 0-1.024233 1.024233-1.016339 2.689318 0 3.71875-1.446364.00924-2.625 1.207769-2.625 2.65625.000001 1.321357.980172 2.403794 2.25 2.59375 2.948411-.451024 6.68542-1.40306 13.9375-5.09375-.263735-.090767-.550239-.154493-.84375-.15625 1.017116-1.029047 1.024425-2.694325 0-3.71875-1.024232-1.024233-2.689509-1.016534-3.71875 0-.009046-1.446554-1.207578-2.625-2.656247-2.625z" fill="#fff" opacity=".226415"/></g></svg>