<svg height="52" viewBox="0 0 48 48" width="52" xmlns="http://www.w3.org/2000/svg" xmlns:xlink="http://www.w3.org/1999/xlink"><linearGradient id="a" gradientTransform="matrix(.849077 0 0 .682478 21.12842 23.99121)" gradientUnits="userSpaceOnUse" x1="11.492236" x2="17.199417" y1="1.653758" y2="26.729263"><stop offset="0" stop-color="#fff"/><stop offset="1" stop-color="#fcfcff" stop-opacity="0"/></linearGradient><radialGradient id="b" cx="15.115514" cy="63.965388" gradientTransform="scale(1.64399 .608276)" gradientUnits="userSpaceOnUse" r="12.289036" xlink:href="#d"/><radialGradient id="c" cx="605.71429" cy="486.64789" gradientTransform="matrix(-2.774389 0 0 1.969706 112.7623 -872.8854)" gradientUnits="userSpaceOnUse" r="117.14286" xlink:href="#d"/><linearGradient id="d"><stop offset="0"/><stop offset="1" stop-opacity="0"/></linearGradient><radialGradient id="e" cx="605.71429" cy="486.64789" gradientTransform="matrix(2.774389 0 0 1.969706 -1891.633 -872.8854)" gradientUnits="userSpaceOnUse" r="117.14286" xlink:href="#d"/><linearGradient id="f" gradientTransform="matrix(2.774389 0 0 1.969706 -1892.179 -872.8854)" gradientUnits="userSpaceOnUse" x1="302.85715" x2="302.85715" y1="366.64789" y2="609.50507"><stop offset="0" stop-opacity="0"/><stop offset=".5"/><stop offset="1" stop-opacity="0"/></linearGradient><linearGradient id="g"><stop offset="0" stop-color="#fff"/><stop offset="1" stop-color="#f8f8f8"/></linearGradient><radialGradient id="h" cx="8.824419" cy="3.756129" gradientTransform="matrix(.968273 0 0 1.032767 3.353553 .646447)" gradientUnits="userSpaceOnUse" r="37.751713"><stop offset="0" stop-color="#a3a3a3"/><stop offset="1" stop-color="#4c4c4c"/></radialGradient><radialGradient id="i" cx="33.966679" cy="35.736916" gradientTransform="scale(.960493 1.041132)" gradientUnits="userSpaceOnUse" r="86.70845"><stop offset="0" stop-color="#fafafa"/><stop offset="1" stop-color="#bbb"/></radialGradient><radialGradient id="j" cx="8.143557" cy="7.267897" gradientTransform="matrix(.968273 0 0 1.032767 3.353553 .646447)" gradientUnits="userSpaceOnUse" r="38.158695" xlink:href="#g"/><linearGradient id="k"><stop offset="0" stop-color="#f0f0f0"/><stop offset="1" stop-color="#9a9a9a"/></linearGradient><radialGradient id="l" cx="9.4125070463" cy="30.2965131852" gradientUnits="userSpaceOnUse" r="1.207318968" xlink:href="#k"/><radialGradient id="m" cx="9.4125070463" cy="18.8112483337" gradientUnits="userSpaceOnUse" r="1.207548671" xlink:href="#k"/><radialGradient id="n" cx="11.826907" cy="10.476453" gradientTransform="scale(1.179536 .847791)" gradientUnits="userSpaceOnUse" r="32.664848"><stop offset="0" stop-color="#fff"/><stop offset="1" stop-color="#fff" stop-opacity="0"/></radialGradient><linearGradient id="o" gradientUnits="userSpaceOnUse" x1="31.50318756006" x2="39.46343213845" xlink:href="#g" y1="36.67200721588" y2="36.67200721588"/><g transform="matrix(.02105461 0 0 .02086758 42.85172 41.1536)"><path d="m-1559.2523-150.69685h1339.6335v478.35718h-1339.6335z" fill="url(#f)" opacity=".402062"/><path d="m-219.61876-150.68038v478.33079c142.874166.90045 345.40022-107.16966 345.40014-239.196175 0-132.026537-159.436816-239.134595-345.40014-239.134615z" fill="url(#e)" opacity=".402062"/><path d="m-1559.2523-150.68038v478.33079c-142.8742.90045-345.4002-107.16966-345.4002-239.196175 0-132.026537 159.4368-239.134595 345.4002-239.134615z" fill="url(#c)" opacity=".402062"/></g><g><rect display="block" fill="url(#i)" height="40.920494" ry="1.149049" stroke="url(#h)" stroke-linecap="round" stroke-linejoin="round" width="34.875" x="6.603553" y="3.646446"/><rect display="block" fill="none" height="38.946384" rx=".149049" stroke="url(#j)" stroke-linecap="round" stroke-linejoin="round" width="32.775887" x="7.666054" y="4.583946"/><g transform="translate(.646447 -.037989)"><g fill="#fff" stroke="none" transform="matrix(.229703 0 0 .229703 4.967081 4.244972)"><path d="m23.428 113.07c0 1.973-1.6 3.572-3.573 3.572-1.974 0-3.573-1.6-3.573-3.572 0-1.974 1.6-3.573 3.573-3.573s3.573 1.6 3.573 3.573z"/><path d="m23.428 63.07c0 1.973-1.6 3.573-3.573 3.573-1.974 0-3.573-1.6-3.573-3.573 0-1.974 1.6-3.573 3.573-3.573s3.573 1.6 3.573 3.573z"/></g><path d="m9.9950109 29.952326c0 .453204-.3675248.820499-.8207288.820499-.4534338 0-.8207289-.367524-.8207289-.820499 0-.453434.3675248-.820729.8207289-.820729.453204 0 .8207288.367525.8207288.820729z" fill="url(#l)"/><path d="m9.9950109 18.467176c0 .453204-.3675248.820729-.8207288.820729-.4534338 0-.8207289-.367525-.8207289-.820729 0-.453434.3675248-.820729.8207289-.820729.453204 0 .8207288.367525.8207288.820729z" fill="url(#m)"/></g><g fill="none"><path d="m11.505723 5.4942766v37.9065924" stroke="#000" stroke-opacity=".017544" stroke-width=".988553"/><path d="m12.5 5.0205154v38.0177126" stroke="#fff" stroke-opacity=".204678"/></g></g><g><g fill="#9b9b9b" fill-opacity=".549708" transform="matrix(.909091 0 0 1 2.363628 0)"><rect display="block" height="1" rx=".151565" ry=".065391" width="22.000004" x="15.000002" y="9"/><rect display="block" height="1" rx=".151565" ry=".065391" width="22.000004" x="15.000002" y="11"/><rect display="block" height="1" rx=".151565" ry=".065391" width="22.000004" x="15.000002" y="13"/><rect display="block" height="1" rx=".151565" ry=".065391" width="22.000004" x="15.000002" y="15"/><rect display="block" height="1" rx=".151565" ry=".065391" width="22.000004" x="15.000002" y="17"/><rect display="block" height="1" rx=".151565" ry=".065391" width="22.000004" x="15.000002" y="19"/><rect display="block" height="1" rx=".151565" ry=".065391" width="22.000004" x="15.000002" y="21"/><rect display="block" height="1" rx=".151565" ry=".065391" width="22.000004" x="15.000002" y="23"/><rect display="block" height="1" rx=".068204" ry=".065391" width="9.900005" x="14.999992" y="25"/><rect display="block" height="1" rx=".151565" ry=".065391" width="22.000004" x="14.999992" y="29"/><rect display="block" height="1" rx=".151565" ry=".065391" width="22.000004" x="14.999992" y="31"/><rect display="block" height="1" rx=".151565" ry=".065391" width="22.000004" x="14.999992" y="33"/><rect display="block" height="1" rx=".151565" ry=".065391" width="22.000004" x="14.999992" y="35"/><rect display="block" height="1" rx=".106096" ry=".065391" width="15.400014" x="14.999992" y="37"/></g><path d="m30.708637 15.271057a12.929953 9.2934036 0 1 1 -25.859905 0 12.929953 9.2934036 0 1 1 25.859905 0z" fill="url(#n)" opacity=".36478" transform="matrix(.569589 0 0 .681378 21.6372 15.2754)"/><path d="m45.052803 38.908627a20.203051 7.4751287 0 1 1 -40.4061012 0 20.203051 7.4751287 0 1 1 40.4061012 0z" fill="url(#b)" transform="matrix(.51549 0 0 .640881 22.03552 18.31362)"/><rect fill="#c00" height="17.718801" rx=".149048" stroke="#a40000" stroke-linejoin="round" width="17.718801" x="26.017027" y="27.993736"/><path d="m34.290805 43.426556 1.236011-6.615268h1.671226l.36558-1.914946h-1.688634l.08704-.417807c.156677-.853021.644118-1.549365 1.462322-1.549365.330764 0 .591893.05223.800796.139269l.435215-1.984581c-.261129-.12186-.713753-.208903-1.323054-.208903-.835612 0-1.74086.226312-2.419795.800796-.853021.713752-1.253419 1.775677-1.427505 2.785376l-.06963.435215h-1.11415l-.365581 1.914946h1.114151l-1.253419 6.615268z" fill="url(#o)" stroke="#a40000" stroke-width=".596398"/><path d="m26.693774 28.620929-.549978 13.612388c7.568946-1.828635 7.827186-7.992236 17.238184-10.01429l-.110658-3.547774z" fill="url(#a)" fill-rule="evenodd" opacity=".531429"/></g></svg>