<svg height="52" viewBox="0 0 48 48" width="52" xmlns="http://www.w3.org/2000/svg" xmlns:xlink="http://www.w3.org/1999/xlink"><linearGradient id="a"><stop offset="0" stop-color="#fff"/><stop offset="1" stop-color="#fcfcff" stop-opacity="0"/></linearGradient><linearGradient id="b" gradientTransform="matrix(.965584 0 0 .698254 12.84858 -39.7739)" gradientUnits="userSpaceOnUse" x1="11.492236" x2="17.199417" xlink:href="#a" y1="1.653758" y2="26.729263"/><radialGradient id="c" cx="11.826907" cy="10.476453" gradientTransform="scale(1.179536 .847791)" gradientUnits="userSpaceOnUse" r="32.664848"><stop offset="0" stop-color="#fff"/><stop offset="1" stop-color="#fff" stop-opacity="0"/></radialGradient><linearGradient id="d"><stop offset="0"/><stop offset="1" stop-opacity="0"/></linearGradient><radialGradient id="e" cx="605.71429" cy="486.64789" gradientTransform="matrix(-2.774389 0 0 1.969706 112.7623 -872.8854)" gradientUnits="userSpaceOnUse" r="117.14286" xlink:href="#d"/><radialGradient id="f" cx="605.71429" cy="486.64789" gradientTransform="matrix(2.774389 0 0 1.969706 -1891.633 -872.8854)" gradientUnits="userSpaceOnUse" r="117.14286" xlink:href="#d"/><linearGradient id="g" gradientTransform="matrix(2.774389 0 0 1.969706 -1892.179 -872.8854)" gradientUnits="userSpaceOnUse" x1="302.85715" x2="302.85715" y1="366.64789" y2="609.50507"><stop offset="0" stop-opacity="0"/><stop offset=".5"/><stop offset="1" stop-opacity="0"/></linearGradient><radialGradient id="h" cx="8.824419" cy="3.756129" gradientTransform="matrix(.968273 0 0 1.032767 3.353553 .646447)" gradientUnits="userSpaceOnUse" r="37.751713"><stop offset="0" stop-color="#a3a3a3"/><stop offset="1" stop-color="#4c4c4c"/></radialGradient><radialGradient id="i" cx="33.966679" cy="35.736916" gradientTransform="scale(.960493 1.041132)" gradientUnits="userSpaceOnUse" r="86.70845"><stop offset="0" stop-color="#fafafa"/><stop offset="1" stop-color="#bbb"/></radialGradient><radialGradient id="j" cx="8.143557" cy="7.267897" gradientTransform="matrix(.968273 0 0 1.032767 3.353553 .646447)" gradientUnits="userSpaceOnUse" r="38.158695"><stop offset="0" stop-color="#fff"/><stop offset="1" stop-color="#f8f8f8"/></radialGradient><linearGradient id="k"><stop offset="0" stop-color="#f0f0f0"/><stop offset="1" stop-color="#9a9a9a"/></linearGradient><radialGradient id="l" cx="9.4125070463" cy="30.2965131852" gradientUnits="userSpaceOnUse" r="1.207318968" xlink:href="#k"/><radialGradient id="m" cx="9.4125070463" cy="18.8112483337" gradientUnits="userSpaceOnUse" r="1.207548671" xlink:href="#k"/><radialGradient id="n" cx="15.115514" cy="63.965388" gradientTransform="scale(1.64399 .608276)" gradientUnits="userSpaceOnUse" r="12.289036" xlink:href="#d"/><linearGradient id="o" gradientTransform="matrix(.961581 0 0 .963244 -25.31754 -5.734385)" gradientUnits="userSpaceOnUse" x1="54.213894" x2="72.618874" xlink:href="#a" y1="43.580585" y2="43.580585"/><linearGradient id="p" gradientUnits="userSpaceOnUse" x1="33.598223" x2="44.902958" y1="39.125997" y2="39.125997"><stop offset="0" stop-color="#729fcf"/><stop offset="1" stop-color="#729fcf" stop-opacity="0"/></linearGradient><linearGradient id="q" gradientUnits="userSpaceOnUse" x1="29.393008" x2="44.520954" y1="37.561772" y2="37.561772"><stop offset="0" stop-color="#3465a4"/><stop offset="1" stop-color="#3465a4" stop-opacity="0"/></linearGradient><linearGradient id="r" gradientUnits="userSpaceOnUse" x1="16.021408" x2="34.889088" y1="12.992114" y2="12.992114"><stop offset="0" stop-color="#8595bc"/><stop offset="1" stop-color="#041a3b"/></linearGradient><g transform="matrix(.02105461 0 0 .02086758 42.85172 41.1536)"><path d="m-1559.2523-150.69685h1339.6335v478.35718h-1339.6335z" fill="url(#g)" opacity=".402062"/><path d="m-219.61876-150.68038v478.33079c142.874166.90045 345.40022-107.16966 345.40014-239.196175 0-132.026537-159.436816-239.134595-345.40014-239.134615z" fill="url(#f)" opacity=".402062"/><path d="m-1559.2523-150.68038v478.33079c-142.8742.90045-345.4002-107.16966-345.4002-239.196175 0-132.026537 159.4368-239.134595 345.4002-239.134615z" fill="url(#e)" opacity=".402062"/></g><g><rect display="block" fill="url(#i)" height="40.920494" ry="1.149049" stroke="url(#h)" stroke-linecap="round" stroke-linejoin="round" width="34.875" x="6.603553" y="3.646446"/><rect display="block" fill="none" height="38.946384" rx=".149049" stroke="url(#j)" stroke-linecap="round" stroke-linejoin="round" width="32.775887" x="7.666054" y="4.583946"/><g transform="translate(.646447 -.037989)"><g fill="#fff" stroke="none" transform="matrix(.229703 0 0 .229703 4.967081 4.244972)"><path d="m23.428 113.07c0 1.973-1.6 3.572-3.573 3.572-1.974 0-3.573-1.6-3.573-3.572 0-1.974 1.6-3.573 3.573-3.573s3.573 1.6 3.573 3.573z"/><path d="m23.428 63.07c0 1.973-1.6 3.573-3.573 3.573-1.974 0-3.573-1.6-3.573-3.573 0-1.974 1.6-3.573 3.573-3.573s3.573 1.6 3.573 3.573z"/></g><path d="m9.9950109 29.952326c0 .453204-.3675248.820499-.8207288.820499-.4534338 0-.8207289-.367524-.8207289-.820499 0-.453434.3675248-.820729.8207289-.820729.453204 0 .8207288.367525.8207288.820729z" fill="url(#l)"/><path d="m9.9950109 18.467176c0 .453204-.3675248.820729-.8207288.820729-.4534338 0-.8207289-.367525-.8207289-.820729 0-.453434.3675248-.820729.8207289-.820729.453204 0 .8207288.367525.8207288.820729z" fill="url(#m)"/></g><g fill="none"><path d="m11.505723 5.4942766v37.9065924" stroke="#000" stroke-opacity=".017544" stroke-width=".988553"/><path d="m12.5 5.0205154v38.0177126" stroke="#fff" stroke-opacity=".204678"/></g></g><g><g fill="#9b9b9b" fill-opacity=".549708" transform="matrix(.909091 0 0 1 2.363628 0)"><rect display="block" height="1" rx=".151565" ry=".065391" width="22.000004" x="15.000002" y="9"/><rect display="block" height="1" rx=".151565" ry=".065391" width="22.000004" x="15.000002" y="11"/><rect display="block" height="1" rx=".151565" ry=".065391" width="22.000004" x="15.000002" y="13"/><rect display="block" height="1" rx=".151565" ry=".065391" width="22.000004" x="15.000002" y="15"/><rect display="block" height="1" rx=".151565" ry=".065391" width="22.000004" x="15.000002" y="17"/><rect display="block" height="1" rx=".151565" ry=".065391" width="22.000004" x="15.000002" y="19"/><rect display="block" height="1" rx=".151565" ry=".065391" width="22.000004" x="15.000002" y="21"/><rect display="block" height="1" rx=".151565" ry=".065391" width="22.000004" x="15.000002" y="23"/><rect display="block" height="1" rx=".068204" ry=".065391" width="9.900005" x="14.999992" y="25"/><rect display="block" height="1" rx=".151565" ry=".065391" width="22.000004" x="14.999992" y="29"/><rect display="block" height="1" rx=".151565" ry=".065391" width="22.000004" x="14.999992" y="31"/><rect display="block" height="1" rx=".151565" ry=".065391" width="22.000004" x="14.999992" y="33"/><rect display="block" height="1" rx=".151565" ry=".065391" width="22.000004" x="14.999992" y="35"/><rect display="block" height="1" rx=".106096" ry=".065391" width="15.400014" x="14.999992" y="37"/></g><path d="m30.708637 15.271057a12.929953 9.2934036 0 1 1 -25.859905 0 12.929953 9.2934036 0 1 1 25.859905 0z" fill="url(#c)" opacity=".421594" transform="matrix(.569589 0 0 .681378 -26.09093 -9.346853)"/><path d="m19.177589-35.03716-.625444 13.927064c8.607529-1.870907 8.901203-8.176991 19.603544-10.245789l-.125842-3.629788z" fill="url(#b)" fill-rule="evenodd" opacity=".531429"/><path d="m45.052803 38.908627a20.203051 7.4751287 0 1 1 -40.4061012 0 20.203051 7.4751287 0 1 1 40.4061012 0z" fill="url(#n)" transform="matrix(.489222 0 0 .608223 23.87124 19.6498)"/><path d="m44.6461 43.546912h-18.362938s11.502229-11.300048 2.824773-12.713393c-8.676498-1.412387 16.74933-6.659487 15.538165 12.713393z" fill="#204a87" stroke="#204a87"/><path d="m44.486394 43.491449h-15.093386s9.454237-9.288055 2.321817-10.449752c-7.131633-1.160908 13.767083-5.473754 12.771569 10.449752z" fill="url(#q)"/><path d="m44.877132 43.557096h-11.278909s7.064914-6.940731 1.735035-7.808838c-5.32929-.867518 10.287797-4.090399 9.543874 7.808838z" fill="url(#p)"/><path d="m30.888821 29.293759c-3.014115.103663-4.472433 1.146073-1.34375 1.65625 4.421977.721478 3.349459 4.091749 1.40625 7.125 1.453161-.2142 3.005403-.3125 4.65625-.3125 3.308846 0 6.330244.47326 8.625 1.25-1.466838-8.060381-8.992078-9.868413-13.34375-9.71875z" fill="url(#o)" opacity=".5"/><path d="m29.901103 3.9341362h-9.692021v6.8679708h-4.187674l8.966549 11.247985 9.90113-11.139047h-4.990897l.002913-6.9769088z" fill="url(#r)" fill-rule="evenodd" opacity=".779874"/></g></svg>