<svg height="52" viewBox="0 0 48 48" width="52" xmlns="http://www.w3.org/2000/svg" xmlns:xlink="http://www.w3.org/1999/xlink"><radialGradient id="a" cx="605.71429" cy="486.64789" gradientTransform="matrix(-2.774389 0 0 1.969706 112.7623 -872.8854)" gradientUnits="userSpaceOnUse" r="117.14286" xlink:href="#b"/><linearGradient id="b"><stop offset="0"/><stop offset="1" stop-opacity="0"/></linearGradient><radialGradient id="c" cx="605.71429" cy="486.64789" gradientTransform="matrix(2.774389 0 0 1.969706 -1891.633 -872.8854)" gradientUnits="userSpaceOnUse" r="117.14286" xlink:href="#b"/><linearGradient id="d" gradientTransform="matrix(2.774389 0 0 1.969706 -1892.179 -872.8854)" gradientUnits="userSpaceOnUse" x1="302.85715" x2="302.85715" y1="366.64789" y2="609.50507"><stop offset="0" stop-opacity="0"/><stop offset=".5"/><stop offset="1" stop-opacity="0"/></linearGradient><linearGradient id="e" gradientUnits="userSpaceOnUse" x1="36.668537" x2="10.303555" y1="36.383247" y2="7.492883"><stop offset="0" stop-color="#eeeeec"/><stop offset="1" stop-color="#fff"/></linearGradient><linearGradient id="f" gradientUnits="userSpaceOnUse" x1="17.561554" x2="29.935921" y1="11.998214" y2="32.681091"><stop offset="0" stop-color="#729fcf"/><stop offset="1" stop-color="#3465a4"/></linearGradient><g transform="matrix(.0247484 0 0 .02086758 46.13711 41.50715)"><path d="m-1559.2523-150.69685h1339.6335v478.35718h-1339.6335z" fill="url(#d)" opacity=".402062"/><path d="m-219.61876-150.68038v478.33079c142.874166.90045 345.40022-107.16966 345.40014-239.196175 0-132.026537-159.436816-239.134595-345.40014-239.134615z" fill="url(#c)" opacity=".402062"/><path d="m-1559.2523-150.68038v478.33079c-142.8742.90045-345.4002-107.16966-345.4002-239.196175 0-132.026537 159.4368-239.134595 345.4002-239.134615z" fill="url(#a)" opacity=".402062"/></g><rect fill="url(#e)" height="42.98724" rx=".999061" ry=".999149" stroke="#888a85" stroke-linecap="round" stroke-linejoin="round" stroke-width="1.024925" width="41.011471" x="3.48837" y="2.512193"/><path d="m39 39.008527c-2.656226-.233002-2.935832-.23081-3.541638-3.632643l-4.380448-26.3758842h-.836613l-13.889145 23.3002512c-3.681436 6.19786-4.553697 6.335472-6.417715 6.708276v1.120608h9.120544v-1.120608c-2.376623-.233002-2.74943-.091006-2.74943-1.256017 0-.885409.139803-1.304816.93201-2.889232l2.656229-4.703356h10.25211l.93201 5.542165c.046601.419405.093201.83881.093201 1.211613 0 1.770818-.24616 1.815224-3.228589 2.094827v1.120608h11.057474zm-18.127596-11.088723 6.990076-12.116131 2.050422 12.116131z" fill="url(#f)"/><g fill="#888a85"><path d="m23.246135 9.9819622a1.1048543.93912619 0 1 1 -2.209708 0 1.1048543.93912619 0 1 1 2.209708 0z" transform="matrix(.45255 0 0 -.532412 -2.52006 11.81453)"/><path d="m23.246135 9.9819622a1.1048543.93912619 0 1 1 -2.209708 0 1.1048543.93912619 0 1 1 2.209708 0z" transform="matrix(.45255 0 0 -.532412 -2.520061 13.81454)"/><path d="m23.246135 9.9819622a1.1048543.93912619 0 1 1 -2.209708 0 1.1048543.93912619 0 1 1 2.209708 0z" transform="matrix(.45255 0 0 -.532412 -2.520065 17.81454)"/><path d="m23.246135 9.9819622a1.1048543.93912619 0 1 1 -2.209708 0 1.1048543.93912619 0 1 1 2.209708 0z" transform="matrix(.45255 0 0 -.532412 -2.520061 19.81454)"/><path d="m23.246135 9.9819622a1.1048543.93912619 0 1 1 -2.209708 0 1.1048543.93912619 0 1 1 2.209708 0z" transform="matrix(.45255 0 0 -.532412 -2.520056 21.81454)"/><path d="m23.246135 9.9819622a1.1048543.93912619 0 1 1 -2.209708 0 1.1048543.93912619 0 1 1 2.209708 0z" transform="matrix(.45255 0 0 -.532412 -2.520057 23.81455)"/><path d="m23.246135 9.9819622a1.1048543.93912619 0 1 1 -2.209708 0 1.1048543.93912619 0 1 1 2.209708 0z" transform="matrix(.45255 0 0 -.532412 -2.520061 25.81454)"/><path d="m23.246135 9.9819622a1.1048543.93912619 0 1 1 -2.209708 0 1.1048543.93912619 0 1 1 2.209708 0z" transform="matrix(.45255 0 0 -.532412 -2.520061 27.81455)"/><path d="m23.246135 9.9819622a1.1048543.93912619 0 1 1 -2.209708 0 1.1048543.93912619 0 1 1 2.209708 0z" transform="matrix(.45255 0 0 -.532412 -2.520057 29.81455)"/><path d="m23.246135 9.9819622a1.1048543.93912619 0 1 1 -2.209708 0 1.1048543.93912619 0 1 1 2.209708 0z" transform="matrix(.45255 0 0 -.532412 -2.520065 31.81454)"/><path d="m23.246135 9.9819622a1.1048543.93912619 0 1 1 -2.209708 0 1.1048543.93912619 0 1 1 2.209708 0z" transform="matrix(.45255 0 0 -.532412 -2.520066 33.81455)"/><path d="m23.246135 9.9819622a1.1048543.93912619 0 1 1 -2.209708 0 1.1048543.93912619 0 1 1 2.209708 0z" transform="matrix(.45255 0 0 -.532412 -2.52007 35.81454)"/><path d="m23.246135 9.9819622a1.1048543.93912619 0 1 1 -2.209708 0 1.1048543.93912619 0 1 1 2.209708 0z" transform="matrix(.45255 0 0 -.532412 -2.52007 37.81455)"/><path d="m23.246135 9.9819622a1.1048543.93912619 0 1 1 -2.209708 0 1.1048543.93912619 0 1 1 2.209708 0z" transform="matrix(.45255 0 0 -.532412 -2.520066 39.81455)"/><path d="m23.246135 9.9819622a1.1048543.93912619 0 1 1 -2.209708 0 1.1048543.93912619 0 1 1 2.209708 0z" transform="matrix(.45255 0 0 -.532412 -2.520061 15.81454)"/><path d="m23.246135 9.9819622a1.1048543.93912619 0 1 1 -2.209708 0 1.1048543.93912619 0 1 1 2.209708 0z" transform="matrix(.45255 0 0 -.532412 -2.520065 41.81454)"/><path d="m23.246135 9.9819622a1.1048543.93912619 0 1 1 -2.209708 0 1.1048543.93912619 0 1 1 2.209708 0z" transform="matrix(.45255 0 0 -.532412 -2.520066 43.81455)"/><path d="m23.246135 9.9819622a1.1048543.93912619 0 1 1 -2.209708 0 1.1048543.93912619 0 1 1 2.209708 0z" transform="matrix(.45255 0 0 -.532412 -2.52007 45.81454)"/><path d="m23.246135 9.9819622a1.1048543.93912619 0 1 1 -2.209708 0 1.1048543.93912619 0 1 1 2.209708 0z" transform="matrix(-.45255 0 0 .532412 15.52001 1.185496)"/><path d="m23.246135 9.9819622a1.1048543.93912619 0 1 1 -2.209708 0 1.1048543.93912619 0 1 1 2.209708 0z" transform="matrix(-.45255 0 0 .532412 21.52002 1.185496)"/><path d="m23.246135 9.9819622a1.1048543.93912619 0 1 1 -2.209708 0 1.1048543.93912619 0 1 1 2.209708 0z" transform="matrix(-.45255 0 0 .532412 23.52002 1.185496)"/><path d="m23.246135 9.9819622a1.1048543.93912619 0 1 1 -2.209708 0 1.1048543.93912619 0 1 1 2.209708 0z" transform="matrix(-.45255 0 0 .532412 25.52002 1.185486)"/><path d="m23.246135 9.9819622a1.1048543.93912619 0 1 1 -2.209708 0 1.1048543.93912619 0 1 1 2.209708 0z" transform="matrix(-.45255 0 0 .532412 27.52003 1.185486)"/><path d="m23.246135 9.9819622a1.1048543.93912619 0 1 1 -2.209708 0 1.1048543.93912619 0 1 1 2.209708 0z" transform="matrix(-.45255 0 0 .532412 29.52002 1.185496)"/><path d="m23.246135 9.9819622a1.1048543.93912619 0 1 1 -2.209708 0 1.1048543.93912619 0 1 1 2.209708 0z" transform="matrix(-.45255 0 0 .532412 31.52003 1.185496)"/><path d="m23.246135 9.9819622a1.1048543.93912619 0 1 1 -2.209708 0 1.1048543.93912619 0 1 1 2.209708 0z" transform="matrix(-.45255 0 0 .532412 33.52003 1.185486)"/><path d="m23.246135 9.9819622a1.1048543.93912619 0 1 1 -2.209708 0 1.1048543.93912619 0 1 1 2.209708 0z" transform="matrix(-.45255 0 0 .532412 35.52002 1.185496)"/><path d="m23.246135 9.9819622a1.1048543.93912619 0 1 1 -2.209708 0 1.1048543.93912619 0 1 1 2.209708 0z" transform="matrix(-.45255 0 0 .532412 37.52003 1.185496)"/><path d="m23.246135 9.9819622a1.1048543.93912619 0 1 1 -2.209708 0 1.1048543.93912619 0 1 1 2.209708 0z" transform="matrix(-.45255 0 0 .532412 39.52002 1.185506)"/><path d="m23.246135 9.9819622a1.1048543.93912619 0 1 1 -2.209708 0 1.1048543.93912619 0 1 1 2.209708 0z" transform="matrix(-.45255 0 0 .532412 41.52003 1.185506)"/><path d="m23.246135 9.9819622a1.1048543.93912619 0 1 1 -2.209708 0 1.1048543.93912619 0 1 1 2.209708 0z" transform="matrix(-.45255 0 0 .532412 43.52003 1.185496)"/><path d="m23.246135 9.9819622a1.1048543.93912619 0 1 1 -2.209708 0 1.1048543.93912619 0 1 1 2.209708 0z" transform="matrix(-.45255 0 0 .532412 19.52002 1.185496)"/><path d="m23.246135 9.9819622a1.1048543.93912619 0 1 1 -2.209708 0 1.1048543.93912619 0 1 1 2.209708 0z" transform="matrix(-.45255 0 0 .532412 45.52002 1.185496)"/><path d="m23.246135 9.9819622a1.1048543.93912619 0 1 1 -2.209708 0 1.1048543.93912619 0 1 1 2.209708 0z" transform="matrix(-.45255 0 0 .532412 47.52003 1.185496)"/><path d="m23.246135 9.9819622a1.1048543.93912619 0 1 1 -2.209708 0 1.1048543.93912619 0 1 1 2.209708 0z" transform="matrix(-.45255 0 0 .532412 49.52002 1.185506)"/><path d="m23.246135 9.9819622a1.1048543.93912619 0 1 1 -2.209708 0 1.1048543.93912619 0 1 1 2.209708 0z" transform="matrix(-.45255 0 0 .532412 17.52 -.814489)"/></g><path d="m4.487088 3.5125h39.013622v41.033813h-39.013622z" fill="none" stroke="#fff" stroke-width="1.025"/></svg>