<svg height="52" viewBox="0 0 48 48" width="52" xmlns="http://www.w3.org/2000/svg" xmlns:xlink="http://www.w3.org/1999/xlink"><linearGradient id="a" gradientTransform="matrix(1.662163 0 0 .441228 -3.179701 2.157646)" gradientUnits="userSpaceOnUse" x1="11.492236" x2="17.199417" y1="1.653758" y2="26.729263"><stop offset="0" stop-color="#fff"/><stop offset="1" stop-color="#fcfcff" stop-opacity="0"/></linearGradient><radialGradient id="b" cx="605.71429" cy="486.64789" gradientTransform="matrix(-2.774389 0 0 1.969706 112.7623 -872.8854)" gradientUnits="userSpaceOnUse" r="117.14286" xlink:href="#c"/><linearGradient id="c"><stop offset="0"/><stop offset="1" stop-opacity="0"/></linearGradient><radialGradient id="d" cx="605.71429" cy="486.64789" gradientTransform="matrix(2.774389 0 0 1.969706 -1891.633 -872.8854)" gradientUnits="userSpaceOnUse" r="117.14286" xlink:href="#c"/><linearGradient id="e" gradientTransform="matrix(2.774389 0 0 1.969706 -1892.179 -872.8854)" gradientUnits="userSpaceOnUse" x1="302.85715" x2="302.85715" y1="366.64789" y2="609.50507"><stop offset="0" stop-opacity="0"/><stop offset=".5"/><stop offset="1" stop-opacity="0"/></linearGradient><radialGradient id="f" cx="8.824419" cy="3.756129" gradientTransform="matrix(.968273 0 0 1.032767 3.353553 .646447)" gradientUnits="userSpaceOnUse" r="37.751713"><stop offset="0" stop-color="#a3a3a3"/><stop offset="1" stop-color="#4c4c4c"/></radialGradient><radialGradient id="g" cx="33.966679" cy="35.736916" gradientTransform="scale(.960493 1.041132)" gradientUnits="userSpaceOnUse" r="86.70845"><stop offset="0" stop-color="#fafafa"/><stop offset="1" stop-color="#bbb"/></radialGradient><radialGradient id="h" cx="8.143557" cy="7.267897" gradientTransform="matrix(.968273 0 0 1.032767 3.353553 .646447)" gradientUnits="userSpaceOnUse" r="38.158695"><stop offset="0" stop-color="#fff"/><stop offset="1" stop-color="#f8f8f8"/></radialGradient><g transform="matrix(.02105461 0 0 .02086758 42.85172 41.1536)"><path d="m-1559.2523-150.69685h1339.6335v478.35718h-1339.6335z" fill="url(#e)" opacity=".402062"/><path d="m-219.61876-150.68038v478.33079c142.874166.90045 345.40022-107.16966 345.40014-239.196175 0-132.026537-159.436816-239.134595-345.40014-239.134615z" fill="url(#d)" opacity=".402062"/><path d="m-1559.2523-150.68038v478.33079c-142.8742.90045-345.4002-107.16966-345.4002-239.196175 0-132.026537 159.4368-239.134595 345.4002-239.134615z" fill="url(#b)" opacity=".402062"/></g><g><rect display="block" fill="url(#g)" height="40.920494" ry="1.149049" stroke="url(#f)" stroke-linecap="round" stroke-linejoin="round" width="34.875" x="6.603553" y="3.646446"/><rect display="block" fill="none" height="38.946384" rx=".149049" stroke="url(#h)" stroke-linecap="round" stroke-linejoin="round" width="32.775887" x="7.666054" y="4.583946"/><g transform="matrix(.55050293013 0 .242428779 .28469921433 50.04235729358 10.82198371624)"><path d="m-67.705475-19.589479h9.545941v16.263456h-9.545941z" fill="#2e3436"/><path d="m-26.601624-19.589479h9.545941v16.263456h-9.545941z" fill="#2e3436"/><path d="m-36.877586-19.589479h9.545941v16.263456h-9.545941z" fill="#eeeeec"/><path d="m-47.153549-19.589479h9.545941v16.263456h-9.545941z" fill="#2e3436"/><path d="m-57.429512-19.589479h9.545941v16.263456h-9.545941z" fill="#eeeeec"/></g><g transform="matrix(-.55050293013 0 -.242428779 .28469921433 -2.17439743164 15.26817079656)"><path d="m-67.705475-19.589479h9.545941v16.263456h-9.545941z" fill="#2e3436"/><path d="m-26.601624-19.589479h9.545941v16.263456h-9.545941z" fill="#2e3436"/><path d="m-36.877586-19.589479h9.545941v16.263456h-9.545941z" fill="#eeeeec"/><path d="m-47.153549-19.589479h9.545941v16.263456h-9.545941z" fill="#2e3436"/><path d="m-57.429512-19.589479h9.545941v16.263456h-9.545941z" fill="#eeeeec"/></g><path d="m8.021131 5.244875h5.656854v8.838835h-5.656854z" fill="#2e3436"/><path d="m7.7151042 5.1507989-1.0766438 8.8005401c14.8170616-1.18223 15.3225946-5.1670574 33.7456796-6.474335l-.216625-2.2936703z" fill="url(#a)" fill-rule="evenodd" opacity=".471698"/><g transform="translate(-54.089983 16.867651)"><path d="m97.683 18.958h1.192l-14.958-7.5.57.832z" fill="#c2ea54"/><path d="m97.683 18.958h.005l-13.207 6.172-.564.828 14.958-7z" fill="#6f7f42"/><path d="m84.481 25.13-.002.001v-12.845l.008.004-.57-.832v14.5z" fill="#c0e65a"/><path d="m84.487 12.29-.008-.004v12.845l.002-.001 13.207-6.172h-.005z" fill="#acd147"/></g></g></svg>