<svg height="52" viewBox="0 0 48 48" width="52" xmlns="http://www.w3.org/2000/svg" xmlns:xlink="http://www.w3.org/1999/xlink"><linearGradient id="a"><stop offset="0"/><stop offset="1" stop-opacity="0"/></linearGradient><linearGradient id="b" gradientTransform="matrix(1.196436 0 0 .698254 6.238107 2.729113)" gradientUnits="userSpaceOnUse" x1="11.492236" x2="17.199417" y1="1.653758" y2="26.729263"><stop offset="0" stop-color="#fff"/><stop offset="1" stop-color="#fcfcff" stop-opacity="0"/></linearGradient><radialGradient id="c" cx="605.71429" cy="486.64789" gradientTransform="matrix(-2.774389 0 0 1.969706 112.7623 -872.8854)" gradientUnits="userSpaceOnUse" r="117.14286" xlink:href="#a"/><radialGradient id="d" cx="605.71429" cy="486.64789" gradientTransform="matrix(2.774389 0 0 1.969706 -1891.633 -872.8854)" gradientUnits="userSpaceOnUse" r="117.14286" xlink:href="#a"/><linearGradient id="e" gradientTransform="matrix(2.774389 0 0 1.969706 -1892.179 -872.8854)" gradientUnits="userSpaceOnUse" x1="302.85715" x2="302.85715" y1="366.64789" y2="609.50507"><stop offset="0" stop-opacity="0"/><stop offset=".5"/><stop offset="1" stop-opacity="0"/></linearGradient><radialGradient id="f" cx="8.824419" cy="3.756129" gradientTransform="matrix(.968273 0 0 1.032767 3.353553 .646447)" gradientUnits="userSpaceOnUse" r="37.751713"><stop offset="0" stop-color="#a3a3a3"/><stop offset="1" stop-color="#4c4c4c"/></radialGradient><radialGradient id="g" cx="33.966679" cy="35.736916" gradientTransform="scale(.960493 1.041132)" gradientUnits="userSpaceOnUse" r="86.70845"><stop offset="0" stop-color="#fafafa"/><stop offset="1" stop-color="#bbb"/></radialGradient><radialGradient id="h" cx="8.143557" cy="7.267897" gradientTransform="matrix(.968273 0 0 1.032767 3.353553 .646447)" gradientUnits="userSpaceOnUse" r="38.158695"><stop offset="0" stop-color="#fff"/><stop offset="1" stop-color="#f8f8f8"/></radialGradient><linearGradient id="i"><stop offset="0" stop-color="#f0f0f0"/><stop offset="1" stop-color="#9a9a9a"/></linearGradient><radialGradient id="j" cx="9.4125070463" cy="30.2965131852" gradientUnits="userSpaceOnUse" r="1.207318968" xlink:href="#i"/><radialGradient id="k" cx="9.4125070463" cy="18.8112483337" gradientUnits="userSpaceOnUse" r="1.207548671" xlink:href="#i"/><linearGradient id="l" gradientTransform="matrix(.834638 0 0 -.603116 7.173497 30.07459)" gradientUnits="userSpaceOnUse" x1="21.9326" x2="21.9326" y1="24.627399" y2="7.1091"><stop offset="0" stop-color="#8595bc"/><stop offset="1" stop-color="#041a3b"/></linearGradient><radialGradient id="m" cx="25.375" cy="43.375" gradientTransform="matrix(1 0 0 .343066 0 28.49453)" gradientUnits="userSpaceOnUse" r="17.125" xlink:href="#a"/><g transform="matrix(.02105461 0 0 .02086758 42.85172 41.1536)"><path d="m-1559.2523-150.69685h1339.6335v478.35718h-1339.6335z" fill="url(#e)" opacity=".402062"/><path d="m-219.61876-150.68038v478.33079c142.874166.90045 345.40022-107.16966 345.40014-239.196175 0-132.026537-159.436816-239.134595-345.40014-239.134615z" fill="url(#d)" opacity=".402062"/><path d="m-1559.2523-150.68038v478.33079c-142.8742.90045-345.4002-107.16966-345.4002-239.196175 0-132.026537 159.4368-239.134595 345.4002-239.134615z" fill="url(#c)" opacity=".402062"/></g><g><rect display="block" fill="url(#g)" height="40.920494" ry="1.149049" stroke="url(#f)" stroke-linecap="round" stroke-linejoin="round" width="34.875" x="6.603553" y="3.646446"/><rect display="block" fill="none" height="38.946384" rx=".149049" stroke="url(#h)" stroke-linecap="round" stroke-linejoin="round" width="32.775887" x="7.666054" y="4.583946"/><g transform="translate(.646447 -.037989)"><g fill="#fff" stroke="none" transform="matrix(.229703 0 0 .229703 4.967081 4.244972)"><path d="m23.428 113.07c0 1.973-1.6 3.572-3.573 3.572-1.974 0-3.573-1.6-3.573-3.572 0-1.974 1.6-3.573 3.573-3.573s3.573 1.6 3.573 3.573z"/><path d="m23.428 63.07c0 1.973-1.6 3.573-3.573 3.573-1.974 0-3.573-1.6-3.573-3.573 0-1.974 1.6-3.573 3.573-3.573s3.573 1.6 3.573 3.573z"/></g><path d="m9.9950109 29.952326c0 .453204-.3675248.820499-.8207288.820499-.4534338 0-.8207289-.367524-.8207289-.820499 0-.453434.3675248-.820729.8207289-.820729.453204 0 .8207288.367525.8207288.820729z" fill="url(#j)"/><path d="m9.9950109 18.467176c0 .453204-.3675248.820729-.8207288.820729-.4534338 0-.8207289-.367525-.8207289-.820729 0-.453434.3675248-.820729.8207289-.820729.453204 0 .8207288.367525.8207288.820729z" fill="url(#k)"/></g><g fill="none"><path d="m11.505723 5.4942766v37.9065924" stroke="#000" stroke-opacity=".017544" stroke-width=".988553"/><path d="m12.5 5.0205154v38.0177126" stroke="#fff" stroke-opacity=".204678"/></g></g><g><path d="m12.84405 24.537533h25.920779v-7.84186h-25.920779z" fill="url(#l)" opacity=".664773"/><path d="m12.84405 6.1505949h25.920779v10.5450781h-25.920779z" fill="#729fcf" opacity=".664773"/><g opacity=".867925" stroke="none" stroke-width="2.001971" transform="matrix(.903163 0 0 .899066 5.980013 -3.083783)"><path d="m18.4 15.4c0 2.2-1.8 4.1-4.1 4.1-2.2 0-4.1-1.8-4.1-4.1 0-2.2 1.8-4.1 4.1-4.1 2.2 0 4.1 1.8 4.1 4.1z" fill="#e8f52f" opacity=".05"/><path d="m18 15.4c0 2-1.6 3.7-3.7 3.7-2 0-3.7-1.6-3.7-3.7 0-2 1.6-3.7 3.7-3.7 2 0 3.7 1.6 3.7 3.7z" fill="#ecf751" opacity=".2083"/><path d="m17.6 15.4c0 1.8-1.5 3.3-3.3 3.3s-3.3-1.5-3.3-3.3 1.5-3.3 3.3-3.3 3.3 1.5 3.3 3.3z" fill="#f0f972" opacity=".3667"/><path d="m17.2 15.4c0 1.6-1.3 2.9-2.9 2.9s-2.9-1.3-2.9-2.9 1.3-2.9 2.9-2.9 2.9 1.3 2.9 2.9z" fill="#f4fa95" opacity=".525"/><path d="m16.8 15.4c0 1.4-1.1 2.5-2.5 2.5s-2.5-1.1-2.5-2.5 1.1-2.5 2.5-2.5 2.5 1.1 2.5 2.5z" fill="#f7fcb7" opacity=".6833"/><path d="m16.4 15.4c0 1.2-1 2.1-2.1 2.1s-2.1-1-2.1-2.1 1-2.1 2.1-2.1 2.1 1 2.1 2.1z" fill="#fbfddb" opacity=".8417"/><path d="m16 15.4c0 1-.8 1.8-1.8 1.8s-1.8-.8-1.8-1.8.8-1.8 1.8-1.8 1.8.8 1.8 1.8z" fill="#fff"/></g><path d="m27.655923 18.224085h6.593092l1.264428.359627h-2.167591s2.167591.179812 3.251388 1.528412c1.083795 1.258693-1.264428 2.787106-1.264428 2.787106-.090317-.26972-.632216-2.42748-1.716011-3.326546-.812848-.719253-1.71601-.899066-1.71601-.899066h-4.244868v-.359626z" opacity=".199432"/><path d="m31.991109 18.763524h-3.793287l7.044673 3.955892z" opacity=".199432"/><path d="m27.655923 18.313992h6.593092l.99348-.629347h-2.167591s1.986957-.359626 2.257908-2.607293c.270947-2.247665-3.070756-4.765049-3.070756-4.765049v.089906c.090316.53944.993478 4.315518.361266 5.754025-.27095 1.25869-1.083797 1.528411-1.083797 1.528411h-4.15455l.180633.629347z" fill="#2e3436" opacity=".861635"/><path d="m31.629843 17.325019h-3.793286l4.515815-6.832904z" fill="#2e3436" opacity=".664773"/><path d="m13.253185 6.756373h24.936352v17.456209h-24.936352z" fill="none" opacity=".664773" stroke="#9e9e9e" stroke-width="1.247096"/><path d="m14.08025 7.4658531-.774975 13.9270639c10.665414-1.870907 11.029299-8.176991 24.290351-10.245789l-.155929-3.6297879z" fill="url(#b)" fill-rule="evenodd" opacity=".531429"/><g transform="matrix(.500212 0 0 .500212 48.85207 27.97887)"><path d="m42.5 43.375a17.125 5.875 0 1 1 -34.25 0 17.125 5.875 0 1 1 34.25 0z" display="block" fill="url(#m)" opacity=".325714" transform="matrix(1.343521 0 0 1.157625 -60.90474 -15.74121)"/><path d="m-4.9982217 5.8091752c-5.3374613 5.8564538-9.2911843 8.3817958-14.4985323 8.9855958-.012566-.003585-.022521.003565-.035107 0-3.402916-.96383-7.026826-1.125461-10.356095-.568259-.022942-.003454-.047217.003477-.070209 0-.280234-.042377-.554389-.096524-.84253-.142065-3.468292-.54895-8.381842-4.902262-10.952887-5.8246543-.031854 2.7545203.657846 6.7379793 2.457379 10.2641783-.703569.660344-1.30224 1.386242-1.790376 2.166487-3.526035 5.636096.399939 12.153619 8.776351 14.526121 8.375475 2.368812 18.029843-.296964 21.554717-5.931203.8539633-1.364992 1.2774333-2.795502 1.2989013-4.190911.005044-.00739-.005081-.027978 0-.035516 1.575174-2.337071 4.905613-11.774797 4.458388-19.2497738z" fill="#555753" stroke="#2e3436" stroke-linecap="round" stroke-linejoin="round" stroke-width="1.129926"/><path d="m-5.6023537 5.8195713c-5.2444703 5.9652187-9.1293113 8.5374577-14.2459383 9.1524737-.002766.000454-.031645-.000116-.034494 0-3.34363-.98173-6.904406-1.146364-10.175671-.578813-.011518.000224-.057457-.000217-.068989 0-.27535-.043164-.544728-.098318-.827849-.144703-3.407866-.559146-8.235812-4.993306-10.762065-5.932829-.031298 2.805678.646384 6.863116 2.414566 10.454801-.691311.672609-1.279552 1.411986-1.759184 2.206723-.224658.372253-.422508.743042-.586395 1.121449 4.684775 1.861929 10.48238 2.966414 16.763986 2.966414 6.101316 0 11.737903-1.055865 16.3500613-2.821711 1.53555-4.084289 3.256756-10.796507 2.931972-16.4238047z" fill="#fff" fill-opacity=".108571"/><path d="m-6.0774287 8.2552451c-4.8079613 5.1530579-9.2180623 7.0650129-13.9088193 7.5962929-1.258372-.804831-3.078748-.971029-4.984588-1.161443-1.944617-.194288-5.25945.127664-5.519005.087593-3.124221-.483018-8.164925-4.488874-10.480912-5.300482-.028695 2.423688.903316 5.794065 2.524329 8.896746-.633771.581032-2.954557 3.5357-3.394266 4.222235-3.176238 4.959166 2.676219 10.070367 10.221655 12.157918 7.544593 2.084302 16.597508-.795748 19.7727-5.753281.769244-1.201048 1.328854-1.925295 1.170044-3.687556-.000712-.007901-.004579-.024617 0-.031251 1.4189093-2.056375 5.0017213-10.449586 4.5988623-17.0267719z" style="opacity:.817143;fill:none;stroke:#888a85;stroke-width:1.005955;stroke-linecap:round;stroke-linejoin:round"/><path d="m29.079541 23.99776a13.871534 5.8888297 0 1 1 -23.7869754-5.535629" fill="#555753" stroke="#2e3436" stroke-linecap="round" stroke-linejoin="round" stroke-width="1.05059" transform="matrix(1.021169 0 0 1.188973 -47.99155 -.897108)"/><path d="m-28.170861 16.380438c-1.731558.065188-3.385545.92855-4.40625 2.34375-.468768-.594991-1.096647-1.09176-1.84375-1.40625-2.355401-.991496-5.070999.113363-6.0625 2.46875-.991501 2.355388.11335 5.071004 2.46875 6.0625 1.850711.776404 3.935638.274841 5.21875-1.125.594158.961998 1.51437 1.750007 2.65625 2.21875 2.86514 1.17215 6.169539-.144893 7.375001-2.9375 1.206393-2.794768-.134106-6.011048-3.000001-7.1875-.783643-.321686-1.608822-.467521-2.40625-.4375z" fill="#fafafa"/><g fill-rule="evenodd"><path d="m-7.5084987 11.164829a1.6866918 1.4690541 0 1 1 -3.3733833 0 1.6866918 1.4690541 0 1 1 3.3733833 0z" fill="#2e3436" stroke="#666" stroke-linecap="round" stroke-linejoin="round" stroke-width=".184103" transform="matrix(1.362382 0 0 1.35351 -13.61168 8.866298)"/><path d="m-7.5084987 11.164829a1.6866918 1.4690541 0 1 1 -3.3733833 0 1.6866918 1.4690541 0 1 1 3.3733833 0z" fill="#2e3436" stroke="#656565" stroke-linecap="round" stroke-linejoin="round" stroke-width=".211818" transform="matrix(1.178506 0 0 1.182011 -23.71598 9.875358)"/><path d="m9.1407809 22.645214a4.1895247 5.7673974 0 1 1 -8.37904928 0 4.1895247 5.7673974 0 1 1 8.37904928 0z" fill="#888a85" stroke="#2e3436" stroke-linecap="round" stroke-linejoin="round" transform="matrix(.774958 -.571366 .551941 .802233 -60.69316 8.049069)"/><path d="m7.3996795 23.842222a1.1425976 1.8499199 0 1 1 -2.2851951 0 1.1425976 1.8499199 0 1 1 2.2851951 0z" fill="#eeeeec" transform="matrix(1.449206 .169687 -.00090903 .960701 -55.0291 -2.061954)"/></g></g></g></svg>