<svg height="52" viewBox="0 0 48 48" width="52" xmlns="http://www.w3.org/2000/svg" xmlns:xlink="http://www.w3.org/1999/xlink"><linearGradient id="a"><stop offset="0"/><stop offset="1" stop-opacity="0"/></linearGradient><radialGradient id="b" cx="15.115514" cy="63.965388" gradientTransform="scale(1.64399 .608276)" gradientUnits="userSpaceOnUse" r="12.289036" xlink:href="#a"/><linearGradient id="c" gradientTransform="matrix(.849077 0 0 .682478 26.59664 26.25609)" gradientUnits="userSpaceOnUse" x1="11.492236" x2="17.199417" y1="1.653758" y2="26.729263"><stop offset="0" stop-color="#fff"/><stop offset="1" stop-color="#fcfcff" stop-opacity="0"/></linearGradient><radialGradient id="d" cx="605.71429" cy="486.64789" gradientTransform="matrix(-2.774389 0 0 1.969706 112.7623 -872.8854)" gradientUnits="userSpaceOnUse" r="117.14286" xlink:href="#a"/><radialGradient id="e" cx="605.71429" cy="486.64789" gradientTransform="matrix(2.774389 0 0 1.969706 -1891.633 -872.8854)" gradientUnits="userSpaceOnUse" r="117.14286" xlink:href="#a"/><linearGradient id="f" gradientTransform="matrix(2.774389 0 0 1.969706 -1892.179 -872.8854)" gradientUnits="userSpaceOnUse" x1="302.85715" x2="302.85715" y1="366.64789" y2="609.50507"><stop offset="0" stop-opacity="0"/><stop offset=".5"/><stop offset="1" stop-opacity="0"/></linearGradient><linearGradient id="g" gradientUnits="userSpaceOnUse" x1="-20.75" x2="-19.5" y1="29" y2="18.75"><stop offset="0" stop-color="#fff"/><stop offset="1" stop-color="#fff" stop-opacity="0"/></linearGradient><linearGradient id="h" gradientUnits="userSpaceOnUse" x1="-17.863041" x2="-20.821646" y1="30.827509" y2="25.015009"><stop offset="0" stop-color="#73d216"/><stop offset="1" stop-color="#d5f7b3"/></linearGradient><linearGradient id="i" gradientUnits="userSpaceOnUse" x1="-16.387411" x2="-9.735273" y1="24.453547" y2="28.195539"><stop offset="0" stop-color="#5b8ccb"/><stop offset="1" stop-color="#3465a4"/></linearGradient><linearGradient id="j" gradientUnits="userSpaceOnUse" x1="-22.976406" x2="-14.360273" y1="18.516047" y2="33.016045"><stop offset="0" stop-color="#ff7171"/><stop offset="1" stop-color="#c00"/></linearGradient><radialGradient id="k" cx="8.824419" cy="3.756129" gradientTransform="matrix(.971646 0 0 1.034707 3.240408 .495684)" gradientUnits="userSpaceOnUse" r="37.751713"><stop offset="0" stop-color="#a3a3a3"/><stop offset="1" stop-color="#4c4c4c"/></radialGradient><radialGradient id="l" cx="33.966679" cy="35.736916" gradientTransform="matrix(.963839 0 0 1.043088 -.124825 -.15197)" gradientUnits="userSpaceOnUse" r="86.70845"><stop offset="0" stop-color="#fafafa"/><stop offset="1" stop-color="#bbb"/></radialGradient><radialGradient id="m" cx="8.143557" cy="7.267897" gradientTransform="matrix(.974777 0 0 1.034091 3.161873 .559274)" gradientUnits="userSpaceOnUse" r="38.158695"><stop offset="0" stop-color="#fff"/><stop offset="1" stop-color="#f8f8f8"/></radialGradient><g><g transform="matrix(.02144924 0 0 .02086758 43.32772 41.1536)"><path d="m-1559.2523-150.69685h1339.6335v478.35718h-1339.6335z" fill="url(#f)" opacity=".402062"/><path d="m-219.61876-150.68038v478.33079c142.874166.90045 345.40022-107.16966 345.40014-239.196175 0-132.026537-159.436816-239.134595-345.40014-239.134615z" fill="url(#e)" opacity=".402062"/><path d="m-1559.2523-150.68038v478.33079c-142.8742.90045-345.4002-107.16966-345.4002-239.196175 0-132.026537 159.4368-239.134595 345.4002-239.134615z" fill="url(#d)" opacity=".402062"/></g><rect display="block" fill="url(#l)" height="40.997345" rx="1.149048" stroke="url(#k)" stroke-linecap="round" stroke-linejoin="round" width="34.996506" x="6.501741" y="3.501321"/><rect display="block" fill="none" height="38.996326" rx=".149048" ry=".149049" stroke="url(#m)" stroke-linecap="round" stroke-linejoin="round" width="32.996056" x="7.503351" y="4.501827"/><path d="m10 6.002203v4.964094 30.035906l10-.002203v-30h18v-4.997797h-28z" fill-opacity=".210526" fill-rule="evenodd"/><g stroke="#000" stroke-linecap="square"><path d="m37.500415 10.502203h-27.000832" fill-opacity=".157895" fill-rule="evenodd" stroke-opacity=".192982"/><path d="m37.500755 16.5h-27.001525" fill-opacity=".157895" fill-rule="evenodd" stroke-opacity=".192982"/><path d="m37.500755 22.5h-27.001525" fill-opacity=".157895" fill-rule="evenodd" stroke-opacity=".192982"/><path d="m37.500755 28.5h-27.001525" fill-opacity=".157895" fill-rule="evenodd" stroke-opacity=".192982"/><path d="m37.501332 34.5h-27.001509" fill-opacity=".157895" fill-rule="evenodd" stroke-opacity=".192982"/><path d="m37.500755 40.5h-27.001525" fill-opacity=".157895" fill-rule="evenodd" stroke-opacity=".192982"/><path d="m37.511644 13.5h-27.011644" fill-opacity=".157895" fill-rule="evenodd" stroke-opacity=".192982"/><path d="m37.500755 19.5h-27.001525" fill="none" stroke-opacity=".192982"/><path d="m37.500755 25.5h-27.001525" fill-opacity=".157895" fill-rule="evenodd" stroke-opacity=".192982"/><path d="m37.500755 31.5h-27.001525" fill-opacity=".157895" fill-rule="evenodd" stroke-opacity=".192982"/><path d="m37.500755 37.5h-27.001525" fill-opacity=".157895" fill-rule="evenodd" stroke-opacity=".192982"/><path d="m37.5 6.4997386v34.0005614" fill="none" stroke-opacity=".157895"/><path d="m31.5 6.4996867v34.0006283" fill="none" stroke-opacity=".157895"/><path d="m25.5 6.4996865v34.0006275" fill="none" stroke-opacity=".157895"/><path d="m19.5 6.4996867v34.0006283" fill="none" stroke-opacity=".157895"/><path d="m10.5 6.4996867v34.0006283" fill="none" stroke-opacity=".157895"/><path d="m37.500227 6.502203h-27.000767" fill-opacity=".157895" fill-rule="evenodd" stroke-opacity=".192982"/></g></g><g><g transform="matrix(.830683 0 0 .830683 39.36764 -5.408556)"><path d="m-27.528542 18.092794c-2.569034 1.698331-3.982933 4.005039-3.982933 6.497902v2.069292c0 2.49084 1.413899 4.798223 3.982933 6.496553 2.426489 1.603904 5.633126 2.487468 9.029183 2.487468 3.394772 0 6.601409-.883564 9.0291816-2.487468 2.5677499-1.69833 3.9816497-4.005038 3.9816497-6.496553v-2.069292c0-2.492863-1.4145419-4.800246-3.9816497-6.497902-2.4271306-1.602555-5.6337676-2.486793-9.0291816-2.486793-3.396057 0-6.602694.884238-9.029183 2.486793z" fill="#670000"/><path d="m-7.0244261 24.453547c-1.3785844-3.386544-6.0530579-5.880082-11.6123419-5.880082-5.559285 0-10.233758 2.493538-11.612343 5.880082h-.414795v2.069967c0 4.390164 5.385276 7.948699 12.027138 7.948699 6.642503 0 12.0264951-3.558535 12.0264951-7.948699v-2.069967z" fill="#a40000"/><path d="m-6.6102729 24.453547c0 4.390838-5.3839921 7.949374-12.0264951 7.949374-6.642504 0-12.027138-3.558536-12.027138-7.949374 0-4.390839 5.385276-7.949374 12.027138-7.949374 6.642503 0 12.0264951 3.558535 12.0264951 7.949374z" fill="url(#j)"/><path d="m-6.6102729 26.833098-.01541-2.166417c-1.304101 4.500778-4.2365631 6.407522-7.9234901 7.340997v1.994425c3.990639-1.00362 7.561989-3.288745 7.9389001-7.169005z" fill="#204a87"/><path d="m-6.6102729 24.453547c-.27546 5.079478-6.5577471 7.395629-7.9613731 7.483985l-4.065765-7.483985h12.026496z" fill="url(#i)"/><path d="m-21.154435 34.298198v-2.069292c2.263396.294746 4.339941.346681 6.582789-.213809l.02247 1.987681c-1.87942.616471-4.819587.645473-6.605262.296095z" fill="#4e9a06"/><path d="m-18.637411 24.454221 4.065765 7.483311c-2.489414.948988-6.582789.291374-6.582789.291374z" fill="url(#h)"/><g fill="none" stroke="url(#g)" stroke-width="1.02083"><ellipse cx="-18.625" cy="24.375" display="block" opacity=".311111" rx="11.75" ry="7.75" transform="matrix(.979592 0 0 .979592 -.380102 .497449)"/><ellipse cx="-18.625" cy="24.375" display="block" opacity=".133333" rx="11.75" ry="7.75" transform="matrix(.979592 0 0 .979592 -.380102 2.497449)"/></g></g><ellipse cx="24.849752" cy="38.908627" fill="url(#b)" rx="20.203051" ry="7.475129" transform="matrix(.51549 0 0 .640881 22.14154 18.10157)"/><rect fill="#73d216" height="17.718801" rx=".149048" stroke="#4e9a06" stroke-linejoin="round" width="17.718801" x="26.123053" y="27.781687"/><path d="m33.721693 36.722818-2.55314-5.099209h2.956268l1.548858 3.316961 3.076499-3.316961h3.005775l-4.95776 5.24773 2.58143 5.283091h-2.963341l-1.577147-3.500844-3.182586 3.500844h-2.998702z" fill="#fff"/><path d="m26.633349 28.075983.115819 13.778837c7.568946-1.828635 7.161389-8.158685 16.572387-10.180739l-.110658-3.547774z" fill="url(#c)" fill-rule="evenodd" opacity=".531429"/></g></svg>